<?xml version="1.0" encoding="UTF-8"?>
<svg width="135px" height="135px" viewBox="0 0 135 135" version="1.1" xmlns="http://www.w3.org/2000/svg" xmlns:xlink="http://www.w3.org/1999/xlink">
    <!-- Generator: Sketch 63 (92445) - https://sketch.com -->
    <title>Group 2</title>
    <desc>Created with Sketch.</desc>
    <g id="Media" stroke="none" stroke-width="1" fill="none" fill-rule="evenodd">
        <g id="Group-2">
            <rect id="Rectangle-Copy-2" stroke="#904EB5" stroke-width="4" x="2" y="2" width="131" height="131" rx="10"></rect>
            <path d="M67.5195312,113.480469 C68.203125,113.480469 68.7890625,113.236328 69.2773438,112.748047 C69.765625,112.259766 70.0097656,111.673828 70.0097656,110.990234 L70.0097656,29.4960938 L95.7421875,55.2285156 C96.2304688,55.7167969 96.8164062,55.9609375 97.5,55.9609375 C98.1835938,55.9609375 98.7695312,55.7167969 99.2578125,55.2285156 C99.5182292,55.000651 99.7054036,54.7320964 99.8193359,54.4228516 C99.9332682,54.1136068 99.9902344,53.796224 99.9902344,53.4707031 C99.9902344,53.1451823 99.9332682,52.8277995 99.8193359,52.5185547 C99.7054036,52.2093099 99.5182292,51.9407552 99.2578125,51.7128906 L69.2773438,21.7324219 C68.7890625,21.2441406 68.203125,21 67.5195312,21 C66.8359375,21 66.25,21.2441406 65.7617188,21.7324219 L35.7324219,51.7128906 C35.2441406,52.2011719 35,52.7871094 35,53.4707031 C35,54.1542969 35.2441406,54.7402344 35.7324219,55.2285156 C36.2207031,55.7167969 36.8147786,55.9609375 37.5146484,55.9609375 C38.2145182,55.9609375 38.8085938,55.7167969 39.296875,55.2285156 L65.0292969,29.4960938 L65.0292969,110.990234 C65.0292969,111.673828 65.2734375,112.259766 65.7617188,112.748047 C66.25,113.236328 66.8359375,113.480469 67.5195312,113.480469 Z" id="a" fill="#904EB5" fill-rule="nonzero"></path>
        </g>
    </g>
</svg>