<?xml version="1.0" encoding="UTF-8"?>
<svg width="800px" height="400px" viewBox="0 0 800 400" version="1.1" xmlns="http://www.w3.org/2000/svg" xmlns:xlink="http://www.w3.org/1999/xlink">
    <!-- Generator: Sketch 63 (92445) - https://sketch.com -->
    <title>Group 5</title>
    <desc>Created with Sketch.</desc>
    <defs>
        <rect id="path-1" x="0" y="0" width="800" height="400"></rect>
        <rect id="path-3" x="0" y="0.885070312" width="800" height="50.6860632"></rect>
        <path d="M0,5.0891767 L800,4.96922188 L800,27.1739229 C793.667288,29.6499656 788.771572,30.734629 785.312854,30.427913 C781.854136,30.1211971 777.57461,28.2228817 772.474276,24.732967 C758.062976,30.6835351 747.630269,33.4636017 741.176156,33.0731666 C734.722043,32.6827315 726.22664,28.7576279 715.689947,21.2978558 C709.339116,27.952939 703.7587,31.4596309 698.948698,31.8179317 C694.138696,32.1762324 689.863301,29.8145775 686.122512,24.732967 C676.768225,30.1941488 669.539376,32.9742154 664.435965,33.0731666 C659.332554,33.1721178 652.391866,31.7178644 643.613902,28.7104064 C641.698428,31.5915056 640.033918,33.045759 638.620372,33.0731666 C637.206826,33.1005742 634.899451,31.7233325 631.698246,28.9414417 C620.583684,38.3731507 611.327332,42.8169019 603.929192,42.2726953 C596.531051,41.7284886 588.791446,35.8819125 580.710376,24.732967 C572.039361,32.9003732 564.04814,36.9840763 556.736712,36.9840763 C549.425284,36.9840763 543.637068,33.3093537 539.372064,25.9599086 C532.644097,33.9781744 527.477953,38.207815 523.873632,38.6488305 C520.269311,39.089846 515.959243,36.0196904 510.943427,29.4383639 C509.169029,35.8938783 506.304079,39.3723336 502.348578,39.8737299 C498.393078,40.3751261 494.563285,34.5084543 490.8592,22.2737143 L463.782447,20.4937645 C460.596025,31.097331 455.295915,36.3991142 447.882118,36.3991142 C440.468321,36.3991142 436.064269,31.6906476 434.669963,22.2737143 L368.773625,21.2978558 C364.869329,33.6817719 354.107942,39.6230317 336.489464,39.1216355 C318.870986,38.6202392 305.398984,33.6583239 296.07346,24.2358894 C294.262135,30.4562154 289.771467,33.5663784 282.601458,33.5663784 C275.431449,33.5663784 269.51968,30.7567209 264.86615,25.1374059 L206.87153,24.3365361 C190.301329,35.713781 170.039083,41.0793775 146.084793,40.4333256 C122.130502,39.7872737 101.427592,34.6976157 83.9760614,25.1643517 C80.8700084,35.9897195 73.2977419,41.1819395 61.2592618,40.7410116 C49.2207816,40.3000836 40.7267591,35.7680048 35.7771941,27.1447749 C30.4459024,33.7043092 24.4838942,36.9840763 17.8911696,36.9840763 C11.298445,36.9840763 5.33472179,33.8369024 0,27.5425547 L0,5.0891767 Z" id="path-5"></path>
        <filter x="-0.3%" y="-4.0%" width="100.6%" height="116.1%" filterUnits="objectBoundingBox" id="filter-6">
            <feOffset dx="0" dy="2" in="SourceAlpha" result="shadowOffsetOuter1"></feOffset>
            <feGaussianBlur stdDeviation="0.5" in="shadowOffsetOuter1" result="shadowBlurOuter1"></feGaussianBlur>
            <feColorMatrix values="0 0 0 0 0.311226223   0 0 0 0 0.183414627   0 0 0 0 0.126939735  0 0 0 1 0" type="matrix" in="shadowBlurOuter1"></feColorMatrix>
        </filter>
        <linearGradient x1="50%" y1="0%" x2="50%" y2="66.33891%" id="linearGradient-7">
            <stop stop-color="#807777" stop-opacity="0" offset="0%"></stop>
            <stop stop-color="#494242" stop-opacity="0.144695149" offset="100%"></stop>
        </linearGradient>
        <path d="M0.398258819,16.9714123 L61.3390893,16.9714123 C57.8779155,10.7836724 54.1026936,7.24172623 50.0134237,6.34557369 C45.9241538,5.44942115 42.9012543,7.01144859 40.9447253,11.031656 C39.052344,4.82752913 35.6936602,1.41265677 30.868674,0.78703894 C26.0436879,0.161421106 21.707502,2.43430637 17.8601165,7.60569474 C15.3060305,0.904147698 12.019325,-1.36873757 8,0.78703894 C3.98067501,2.94281545 1.44676128,8.33760656 0.398258819,16.9714123 Z" id="path-8"></path>
        <linearGradient x1="50%" y1="0%" x2="50%" y2="66.33891%" id="linearGradient-10">
            <stop stop-color="#807777" stop-opacity="0" offset="0%"></stop>
            <stop stop-color="#494242" stop-opacity="0.144695149" offset="100%"></stop>
        </linearGradient>
        <path d="M0,28.9512327 L51,29.1457286 C49.4368985,11.6775372 45.5424534,2.40982626 39.3166648,1.34259584 C33.0908762,0.275365416 27.4957977,4.15264028 22.5314292,12.9744204 C19.2358344,1.5423696 14.9949241,-2.33490527 9.8086983,1.34259584 C4.6224725,5.02009694 1.3529064,14.2229759 0,28.9512327 Z" id="path-11"></path>
        <linearGradient x1="50%" y1="0%" x2="50%" y2="66.33891%" id="linearGradient-13">
            <stop stop-color="#807777" stop-opacity="0" offset="0%"></stop>
            <stop stop-color="#494242" stop-opacity="0.144695149" offset="100%"></stop>
        </linearGradient>
    </defs>
    <g id="Background" stroke="none" stroke-width="1" fill="none" fill-rule="evenodd">
        <g id="Group-5">
            <g id="rect8518-+-rect8518-copy-+-Floor-+-Group-4-Mask-Copy">
                <mask id="mask-2" fill="white">
                    <use xlink:href="#path-1"></use>
                </mask>
                <use id="Mask" fill="#D5EEFF" xlink:href="#path-1"></use>
                <path d="M0.1625,0 L800.1625,0 L800,46.7288048 C714.785861,67.7107991 660.475911,82.1161593 637.070149,89.9448852 C539.814392,122.474852 460.914154,133.668342 375.337187,133.668342 C287.746761,133.668342 162.688533,111.891176 0.1625,68.336845 L0.1625,0 Z" id="Rectangle-Copy-3" fill="#C5EAFD" mask="url(#mask-2)"></path>
                <path d="M-27.8375,0 L844.8375,0 L-27.8375,0 Z" id="Rectangle-Copy-4" fill="#C5EAFD" mask="url(#mask-2)"></path>
                <path d="M148,0 L669,0 C587.57592,26.80067 500.742586,40.201005 408.5,40.201005 C316.257414,40.201005 229.42408,26.80067 148,0 Z" id="Rectangle" fill="#A7E0FB" mask="url(#mask-2)"></path>
                <path d="M35.070095,89.9448852 L157,89.9448852 C156.635991,85.5853349 155.37923,82.818328 153.229718,81.6438644 C151.080205,80.4694008 146.216119,79.8920619 138.637459,79.9118477 C138.046108,77.3656564 136.405594,75.736911 133.715917,75.0256114 C131.02624,74.3143119 128.172876,74.3143119 125.155825,75.0256114 C125.155825,56.1610737 113.458429,46.7288048 90.0636364,46.7288048 C66.6688439,46.7288048 56.3815439,56.1610737 59.2017363,75.0256114 C54.5175278,74.8060386 51.3815827,75.1616884 49.7939009,76.0925608 C48.2062192,77.0234332 47.1011499,79.154329 46.4786931,82.4852483 C43.4243897,80.9030238 40.6686233,80.9030238 38.211394,82.4852483 C35.7541647,84.0674729 34.707065,86.5540185 35.070095,89.9448852 Z" id="Path-2" fill="#FFFFFF" mask="url(#mask-2)"></path>
                <path d="M321.070095,142.713568 L443,142.713568 C442.635991,138.354018 441.37923,135.587011 439.229718,134.412547 C437.080205,133.238083 432.216119,132.660745 424.637459,132.68053 C424.046108,130.134339 422.405594,128.505594 419.715917,127.794294 C417.02624,127.082994 414.172876,127.082994 411.155825,127.794294 C411.155825,108.929756 399.458429,99.4974874 376.063636,99.4974874 C352.668844,99.4974874 342.381544,108.929756 345.201736,127.794294 C340.517528,127.574721 337.381583,127.930371 335.793901,128.861243 C334.206219,129.792116 333.10115,131.923012 332.478693,135.253931 C329.42439,133.671706 326.668623,133.671706 324.211394,135.253931 C321.754165,136.836155 320.707065,139.322701 321.070095,142.713568 Z" id="Path-2-Copy-3" fill="#FFFFFF" mask="url(#mask-2)"></path>
                <path d="M501.080437,68.3417085 L641,68.3417085 C640.582284,62.6641547 639.1401,59.0606108 636.673446,57.5310768 C634.206793,56.0015428 628.625055,55.2496596 619.928232,55.2754271 C619.249632,51.9594571 617.367075,49.8383003 614.28056,48.9119566 C611.194045,47.985613 607.919694,47.985613 604.457504,48.9119566 C604.457504,24.3441866 591.034263,12.0603015 564.187779,12.0603015 C537.341296,12.0603015 525.536198,24.3441866 528.772484,48.9119566 C523.397163,48.6260014 519.798538,49.0891732 517.976608,50.3014721 C516.154678,51.513771 514.886565,54.2888911 514.172271,58.6268326 C510.667332,56.5662611 507.504978,56.5662611 504.685206,58.6268326 C501.865435,60.6874041 500.663845,63.9256961 501.080437,68.3417085 Z" id="Path-2-Copy" fill="#FFFFFF" mask="url(#mask-2)"></path>
                <path d="M639.045964,165.829146 L719,165.829146 C718.761305,162.584829 717.9372,160.525661 716.527684,159.651642 C715.118167,158.777622 711.928603,158.347975 706.958989,158.362699 C706.571218,156.467859 705.495471,155.25577 703.731749,154.72643 C701.968026,154.197091 700.096968,154.197091 698.118574,154.72643 C698.118574,140.687705 690.44815,133.668342 675.107303,133.668342 C659.766455,133.668342 653.020684,140.687705 654.869991,154.72643 C651.798379,154.563027 649.742021,154.827697 648.700919,155.520439 C647.659816,156.213181 646.93518,157.798964 646.527012,160.277788 C644.52419,159.100319 642.71713,159.100319 641.105832,160.277788 C639.494534,161.455257 638.807912,163.30571 639.045964,165.829146 Z" id="Path-2-Copy-2" fill="#FFFFFF" mask="url(#mask-2)"></path>
                <path d="M296.666667,114.257565 L293.148148,114.257565 C290.386724,114.257565 288.148148,116.496141 288.148148,119.257565 L288.148148,297.709622 C288.148148,300.471046 285.909572,302.709622 283.148148,302.709622 L272.703704,302.709622 C269.94228,302.709622 267.703704,300.471046 267.703704,297.709622 L267.703704,196.7036 C267.703704,193.942177 265.465127,191.7036 262.703704,191.7036 L190.925926,191.7036 C188.164502,191.7036 185.925926,193.942177 185.925926,196.7036 L185.925926,246.078914 C185.925926,248.840338 183.68735,251.078914 180.925926,251.078914 L179,251.078914 C176.238576,251.078914 174,248.840338 174,246.078914 L174,117.966797 C174,115.205373 171.761424,112.966797 169,112.966797 L104.037037,112.966797 C101.275613,112.966797 99.037037,115.205373 99.037037,117.966797 L99.037037,204.774348 C99.037037,207.535772 96.7984608,209.774348 94.037037,209.774348 L81.8888889,209.774348 C79.1274651,209.774348 76.8888889,212.012924 76.8888889,214.774348 L76.8888889,250.227062 C76.8888889,250.697527 76.5075018,251.078914 76.037037,251.078914 C75.5665723,251.078914 75.1851852,251.460301 75.1851852,251.930766 L75.1851852,297.709622 C75.1851852,300.471046 72.9466089,302.709622 70.1851852,302.709622 L42.7037037,302.709622 C39.94228,302.709622 37.7037037,304.948198 37.7037037,307.709622 L37.7037037,350.468026 L37.7037037,350.468026 L726,349.748744 L726,201.866671 C726,199.105247 723.761424,196.866671 721,196.866671 L686.703704,196.866671 C683.94228,196.866671 681.703704,194.628095 681.703704,191.866671 L681.703704,102.477585 C681.703704,99.7161611 679.465127,97.4775849 676.703704,97.4775849 L657.740741,97.4775849 C654.979317,97.4775849 652.740741,99.7161611 652.740741,102.477585 L652.740741,191.866671 C652.740741,194.628095 650.502164,196.866671 647.740741,196.866671 L644.111111,196.866671 C641.349687,196.866671 639.111111,199.105247 639.111111,201.866671 L639.111111,295.128086 C639.111111,297.88951 636.872535,300.128086 634.111111,300.128086 L630.481481,300.128086 C627.720058,300.128086 625.481481,297.88951 625.481481,295.128086 L625.481481,200.575903 C625.481481,197.81448 623.242905,195.575903 620.481481,195.575903 L581.074074,195.575903 C578.31265,195.575903 576.074074,193.337327 576.074074,190.575903 L576.074074,153.618929 C576.074074,151.323788 574.511517,149.323389 572.284664,148.767695 L497.099478,130.00579 C494.420216,129.3372 491.706245,130.967172 491.037655,133.646435 C490.938849,134.042382 490.888889,134.448936 490.888889,134.857024 L490.888889,162.179014 C490.888889,164.940438 488.650313,167.179014 485.888889,167.179014 L424.333333,167.179014 C421.57191,167.179014 419.333333,169.417591 419.333333,172.179014 L419.333333,249.951217 C419.333333,252.712641 417.094757,254.951217 414.333333,254.951217 L385.148148,254.951217 C382.386724,254.951217 380.148148,252.712641 380.148148,249.951217 L380.148148,119.257565 C380.148148,116.496141 377.909572,114.257565 375.148148,114.257565 L371.518519,114.257565 C368.757095,114.257565 366.518519,112.018989 366.518519,109.257565 L366.518519,93.4422111 C366.518519,90.6807873 364.279942,88.4422111 361.518519,88.4422111 L310.185185,88.4422111 C307.423761,88.4422111 305.185185,90.6807873 305.185185,93.4422111 L305.185185,105.739046 C305.185185,110.443694 301.371315,114.257565 296.666667,114.257565 Z" id="rect8518" fill="#D5DEE7" fill-rule="nonzero" mask="url(#mask-2)"></path>
                <path d="M295.569561,179.518283 L294.394252,179.518283 C291.632828,179.518283 289.394252,181.756859 289.394252,184.518283 L289.394252,311.132383 C289.394252,313.893806 287.155675,316.132383 284.394252,316.132383 L279.573509,316.132383 C276.812086,316.132383 274.573509,313.893806 274.573509,311.132383 L274.573509,240.661053 C274.573509,237.899629 272.334933,235.661053 269.573509,235.661053 L220.29054,235.661053 C217.529116,235.661053 215.29054,237.899629 215.29054,240.661053 L215.29054,274.381141 C215.29054,276.768511 213.355194,278.703857 210.967824,278.703857 C208.580453,278.703857 206.645107,276.768511 206.645107,274.381141 L206.645107,183.58257 C206.645107,180.821146 204.406531,178.58257 201.645107,178.58257 L157.302385,178.58257 C154.540962,178.58257 152.302385,180.821146 152.302385,183.58257 L152.302385,243.761037 C152.302385,246.52246 150.063809,248.761037 147.302385,248.761037 L141.246581,248.761037 C138.485157,248.761037 136.246581,250.999613 136.246581,253.761037 L136.246581,278.086326 C136.246581,278.427379 135.970103,278.703857 135.62905,278.703857 C135.287997,278.703857 135.011519,278.980335 135.011519,279.321388 L135.011519,311.132383 C135.011519,313.893806 132.772943,316.132383 130.011519,316.132383 L112.840158,316.132383 C110.078735,316.132383 107.840158,318.370959 107.840158,321.132383 L107.840158,350.753769 L107.840158,350.753769 L606.805149,350.232341 L606.805149,244.403905 C606.805149,241.642481 604.566573,239.403905 601.805149,239.403905 L579.693541,239.403905 C576.932117,239.403905 574.693541,237.165329 574.693541,234.403905 L574.693541,172.354012 C574.693541,169.592588 572.454965,167.354012 569.693541,167.354012 L558.69749,167.354012 C555.936066,167.354012 553.69749,169.592588 553.69749,172.354012 L553.69749,234.463658 C553.69749,237.192081 551.485665,239.403905 548.757242,239.403905 C546.028819,239.403905 543.816995,241.615729 543.816995,244.344153 L543.816995,309.320709 C543.816995,312.049132 541.605171,314.260956 538.876747,314.260956 C536.148324,314.260956 533.9365,312.049132 533.9365,309.320709 L533.9365,243.468192 C533.9365,240.706768 531.697924,238.468192 528.9365,238.468192 L503.119706,238.468192 C500.358282,238.468192 498.119706,236.229616 498.119706,233.468192 L498.119706,209.126749 C498.119706,206.831609 496.557148,204.83121 494.330295,204.275515 L442.577202,191.360915 C439.89794,190.692325 437.183969,192.322297 436.515379,195.00156 C436.416573,195.397507 436.366613,195.804061 436.366613,196.212149 L436.366613,212.882503 C436.366613,215.643927 434.128037,217.882503 431.366613,217.882503 L389.494015,217.882503 C386.732591,217.882503 384.494015,220.121079 384.494015,222.882503 L384.494015,276.510996 C384.494015,279.27242 382.255439,281.510996 379.494015,281.510996 L361.087592,281.510996 C358.326168,281.510996 356.087592,279.27242 356.087592,276.510996 L356.087592,184.45853 C356.087592,181.730107 353.875768,179.518283 351.147345,179.518283 C348.418921,179.518283 346.207097,177.306459 346.207097,174.578035 L346.207097,165.80402 C346.207097,163.042596 343.968521,160.80402 341.207097,160.80402 L306.74487,160.80402 C303.983447,160.80402 301.74487,163.042596 301.74487,165.80402 L301.74487,173.342974 C301.74487,176.753503 298.98009,179.518283 295.569561,179.518283 Z" id="rect8518-copy" fill="#EDF2F7" fill-rule="nonzero" mask="url(#mask-2)" transform="translate(357.322654, 255.778894) scale(-1, 1) translate(-357.322654, -255.778894) "></path>
                <g id="Floor" mask="url(#mask-2)">
                    <g transform="translate(0.000000, 348.743719)" id="Group-2">
                        <g transform="translate(0.000000, 0.119955)">
                            <mask id="mask-4" fill="white">
                                <use xlink:href="#path-3"></use>
                            </mask>
                            <use id="Mask" fill="#6C412E" xlink:href="#path-3"></use>
                            <g mask="url(#mask-4)">
                                <g transform="translate(0.000000, 0.011181)">
                                    <g id="Path-Copy-2" fill="none" fill-opacity="1">
                                        <use fill="black" filter="url(#filter-6)" xlink:href="#path-5"></use>
                                    </g>
                                    <path d="M0,0.119954814 L800,0 L800,22.2047011 C793.667288,24.6807437 788.771572,25.7654071 785.312854,25.4586912 C781.854136,25.1519752 777.57461,23.2536598 772.474276,19.7637451 C758.062976,25.7143133 747.630269,28.4943798 741.176156,28.1039447 C734.722043,27.7135096 726.22664,23.788406 715.689947,16.328634 C709.339116,22.9837171 703.7587,26.490409 698.948698,26.8487098 C694.138696,27.2070105 689.863301,24.8453556 686.122512,19.7637451 C676.768225,25.224927 669.539376,28.0049935 664.435965,28.1039447 C659.332554,28.2028959 652.391866,26.7486425 643.613902,23.7411845 C641.698428,26.6222837 640.033918,28.0765371 638.620372,28.1039447 C637.206826,28.1313523 634.899451,26.7541107 631.698246,23.9722198 C620.583684,33.4039289 611.327332,37.84768 603.929192,37.3034734 C596.531051,36.7592667 588.791446,30.9126906 580.710376,19.7637451 C572.039361,27.9311513 564.04814,32.0148544 556.736712,32.0148544 C549.425284,32.0148544 543.637068,28.3401319 539.372064,20.9906867 C532.644097,29.0089525 527.477953,33.2385931 523.873632,33.6796086 C520.269311,34.1206241 515.959243,31.0504686 510.943427,24.469142 C509.169029,30.9246564 506.304079,34.4031117 502.348578,34.904508 C498.393078,35.4059042 494.563285,29.5392324 490.8592,17.3044924 L463.782447,15.5245426 C460.596025,26.1281091 455.295915,31.4298924 447.882118,31.4298924 C440.468321,31.4298924 436.064269,26.7214257 434.669963,17.3044924 L368.773625,16.328634 C364.869329,28.71255 354.107942,34.6538099 336.489464,34.1524136 C318.870986,33.6510174 305.398984,28.689102 296.07346,19.2666675 C294.262135,25.4869935 289.771467,28.5971565 282.601458,28.5971565 C275.431449,28.5971565 269.51968,25.787499 264.86615,20.168184 L206.87153,19.3673142 C190.301329,30.7445591 170.039083,36.1101556 146.084793,35.4641037 C122.130502,34.8180518 101.427592,29.7283938 83.9760614,20.1951298 C80.8700084,31.0204977 73.2977419,36.2127176 61.2592618,35.7717897 C49.2207816,35.3308618 40.7267591,30.7987829 35.7771941,22.175553 C30.4459024,28.7350873 24.4838942,32.0148544 17.8911696,32.0148544 C11.298445,32.0148544 5.33472179,28.8676806 0,22.5733328 L0,0.119954814 Z" id="Path" fill="#61ACA7" fill-rule="evenodd"></path>
                                    <path d="M0,0.119954814 L800,0.119954814 L800,18.8497356 C793.667288,20.9676938 788.771572,21.8954936 785.312854,21.6331348 C781.854136,21.370776 777.57461,19.7469943 772.474276,16.7617898 C758.062976,21.8517889 747.630269,24.2298032 741.176156,23.8958327 C734.722043,23.5618622 726.22664,20.2044057 715.689947,13.8234632 C709.339116,19.5160906 703.7587,22.515646 698.948698,22.8221294 C694.138696,23.1286128 689.863301,21.1084996 686.122512,16.7617898 C676.768225,21.4331775 669.539376,23.8111918 664.435965,23.8958327 C659.332554,23.9804736 652.391866,22.7365338 643.613902,20.1640133 C641.698428,22.628449 640.033918,23.8723888 638.620372,23.8958327 C637.206826,23.9192766 634.899451,22.7412112 631.698246,20.3616364 C620.583684,28.429335 611.327332,32.2304325 603.929192,31.7649288 C596.531051,31.2994251 588.791446,26.2983788 580.710376,16.7617898 C572.039361,23.7480286 564.04814,27.241148 556.736712,27.241148 C549.425284,27.241148 543.637068,24.0978625 539.372064,17.8112916 C532.644097,24.6699586 527.477953,28.28791 523.873632,28.665146 C520.269311,29.042382 515.959243,26.4162313 510.943427,20.7866939 C509.169029,26.3086141 506.304079,29.2840164 502.348578,29.7129009 C498.393078,30.1417854 494.563285,25.1235496 490.8592,14.6581934 L463.782447,13.1356593 C460.596025,22.2057418 455.295915,26.740783 447.882118,26.740783 C440.468321,26.740783 436.064269,22.7132531 434.669963,14.6581934 L368.773625,13.8234632 C364.869329,24.4164217 354.107942,29.4984586 336.489464,29.0695741 C318.870986,28.6406896 305.398984,24.3963647 296.07346,16.3365994 C294.262135,21.6573441 289.771467,24.3177164 282.601458,24.3177164 C275.431449,24.3177164 269.51968,21.9143906 264.86615,17.1077389 L206.87153,16.4226906 C190.301329,26.1545624 170.039083,30.7441882 146.084793,30.1915681 C122.130502,29.638948 101.427592,25.2853546 83.9760614,17.1307879 C80.8700084,26.3905948 73.2977419,30.8319177 61.2592618,30.4547566 C49.2207816,30.0775955 40.7267591,26.2009443 35.7771941,18.8248029 C30.4459024,24.4356996 24.4838942,27.241148 17.8911696,27.241148 C11.298445,27.241148 5.33472179,24.5491173 0,19.165056 L0,0.119954814 Z" id="Path-Copy" fill="#9ECA2A" fill-rule="evenodd"></path>
                                    <rect id="Rectangle-Copy" fill="#BED923" fill-rule="evenodd" x="0" y="0.873889562" width="800" height="3.01507538"></rect>
                                </g>
                            </g>
                        </g>
                    </g>
                </g>
                <g id="Group-4" mask="url(#mask-2)">
                    <g transform="translate(87.000000, 310.552764)">
                        <g id="Group-3" stroke-width="1" fill="none">
                            <g id="Group">
                                <path d="M0.0862853747,39.1959799 C-0.694331759,13.0653266 3.82168839,0 13.6343458,0 C23.4470033,0 29.3652173,6.53266332 31.3889878,19.5979899 C40.3901521,8.64010454 48.876133,5.13660558 56.8469305,9.08749306 C64.8177281,13.0383805 67.3671152,23.0745428 64.4950918,39.1959799 L0.0862853747,39.1959799 Z" id="Path-3-Copy" fill="#D7D10C"></path>
                                <path d="M0.0862853747,39.1959799 C-0.694331759,14.2207332 3.82168839,1.73310978 13.6343458,1.73310978 C23.4470033,1.73310978 29.3652173,7.97692147 31.3889878,20.4645448 C40.3901521,9.99117898 48.876133,6.64259254 56.8469305,10.4187855 C64.8177281,14.1949785 67.3671152,23.7873766 64.4950918,39.1959799 L0.0862853747,39.1959799 Z" id="Path-3" fill="#99C525"></path>
                            </g>
                        </g>
                        <rect id="Rectangle" fill="url(#linearGradient-7)" x="0" y="30.1507538" width="66" height="9.04522613"></rect>
                        <g id="Rectangle-Copy-2" stroke-width="1" fill="none" transform="translate(58.000000, 22.224568)">
                            <mask id="mask-9" fill="white">
                                <use xlink:href="#path-8"></use>
                            </mask>
                            <use id="Mask" fill="#519B35" xlink:href="#path-8"></use>
                            <rect fill="url(#linearGradient-7)" mask="url(#mask-9)" x="-4" y="7.92618614" width="66" height="9.04522613"></rect>
                        </g>
                    </g>
                </g>
                <g id="Group-4-Copy" mask="url(#mask-2)">
                    <g transform="translate(697.500000, 316.080402) scale(-1, 1) translate(-697.500000, -316.080402) translate(644.000000, 282.412060)">
                        <g id="Group-3" stroke-width="1" fill="none">
                            <g id="Group">
                                <path d="M0.111125104,67.3366834 C-0.894215145,22.4455611 4.92187141,0 17.5593848,0 C30.1968981,0 37.8188404,11.2227806 40.4252116,33.6683417 C52.0176201,14.8432565 62.9465349,8.82442497 73.211956,15.611847 C83.477377,22.3992691 86.7606786,39.6408812 83.0618607,67.3366834 L0.111125104,67.3366834 Z" id="Path-3-Copy" fill="#D7D10C"></path>
                                <path d="M0.111125104,67.3366834 C-0.894215145,24.4304903 4.92187141,2.97739373 17.5593848,2.97739373 C30.1968981,2.97739373 37.8188404,13.703942 40.4252116,35.1570386 C52.0176201,17.1643331 62.9465349,11.4116333 73.211956,17.8989392 C83.477377,24.3862451 86.7606786,40.8654932 83.0618607,67.3366834 L0.111125104,67.3366834 Z" id="Path-3" fill="#99C525"></path>
                            </g>
                        </g>
                        <rect id="Rectangle" fill="url(#linearGradient-10)" x="0" y="51.2562814" width="85" height="16.080402"></rect>
                        <g id="Rectangle-Copy-2" stroke-width="1" fill="none" transform="translate(56.000000, 38.190955)">
                            <mask id="mask-12" fill="white">
                                <use xlink:href="#path-11"></use>
                            </mask>
                            <use id="Mask" fill="#519B35" xlink:href="#path-11"></use>
                            <rect fill="url(#linearGradient-13)" mask="url(#mask-12)" x="-6.16129032" y="13.5211411" width="85.1612903" height="15.4300916"></rect>
                        </g>
                    </g>
                </g>
            </g>
            <rect id="Rectangle" fill-opacity="0" fill="#718096" x="0" y="1" width="800" height="399"></rect>
        </g>
    </g>
</svg>