<?xml version="1.0" encoding="UTF-8"?>
<svg width="266px" height="261px" viewBox="0 0 266 261" version="1.1" xmlns="http://www.w3.org/2000/svg" xmlns:xlink="http://www.w3.org/1999/xlink">
    <!-- Generator: Sketch 63 (92445) - https://sketch.com -->
    <title>virus</title>
    <desc>Created with Sketch.</desc>
    <defs>
        <path d="M254.253989,152.309783 C253.914894,152.173913 251.880319,154.211957 250.795213,155.095109 C248.625,156.929348 243.945479,159.171196 241.164894,159.782609 C237.638298,160.597826 229.364362,155.978261 227.329787,155.095109 C225.295213,154.211957 216.75,150.543478 215.93617,149.932065 C215.529255,149.592391 214.037234,148.57337 212.74867,147.690217 C216.614362,137.839674 218.716755,127.105978 218.716755,115.896739 C218.716755,113.92663 218.648936,112.024457 218.513298,110.122283 C218.37766,110.190217 218.30984,110.258152 218.30984,110.258152 L218.242021,109.986413 C218.30984,109.918478 218.445479,109.918478 218.513298,109.850543 C220.208777,109.035326 222.039894,108.152174 222.514628,108.016304 C223.667553,107.608696 234.31516,105.570652 235.875,105.434783 C237.43484,105.298913 240.69016,104.415761 242.182181,105.570652 C243.335106,106.453804 247.268617,110.665761 247.946809,111.480978 C248.014628,111.548913 248.014628,111.616848 248.014628,111.616848 C248.218085,111.888587 248.421543,112.024457 248.557181,111.956522 C249.574468,111.820652 249.43883,106.589674 248.353723,100.407609 C247.268617,94.1576087 245.573138,89.0625 244.62367,89.4021739 C244.352394,89.4701087 243.87766,91.5081522 243.606383,92.4592391 C242.996011,94.4293478 240.961436,97.5543478 239.537234,99.1168478 C237.706117,101.019022 230.924202,101.358696 229.364362,101.630435 C227.804521,101.902174 221.226064,102.921196 220.547872,102.853261 C220.140957,102.853261 218.852394,102.785326 217.767287,102.717391 C216.071809,91.8478261 212.409574,81.5896739 207.119681,72.486413 C207.865691,71.5353261 209.696809,69.2255435 210.578457,68.4782609 C211.731383,67.5271739 222.921543,60.5978261 224.617021,59.7146739 C226.3125,58.8994565 229.635638,56.5217391 231.805851,57.201087 C233.50133,57.7445652 239.740691,61.0054348 240.757979,61.548913 C240.825798,61.6168478 240.893617,61.6168478 240.893617,61.6168478 C241.232713,61.8206522 241.503989,61.888587 241.707447,61.8206522 C242.792553,61.2092391 240.486702,55.2309783 236.621011,48.4375 C232.755319,41.6440217 228.753989,36.4809783 227.736702,37.2282609 C227.465426,37.4320652 227.804521,39.9456522 227.87234,41.236413 C228.007979,43.8179348 227.058511,48.3016304 226.041223,50.6793478 C224.75266,53.6684783 217.292553,56.9972826 215.597074,57.9483696 C213.901596,58.8994565 206.916223,62.9755435 206.102394,63.1793478 C205.55984,63.3831522 203.253989,64.1304348 201.897606,64.5380435 C195.115691,55.3668478 186.570479,47.486413 176.736702,41.576087 L176.87234,41.6440217 C176.87234,41.6440217 177.143617,37.2961957 177.550532,35.8695652 C177.957447,34.4429348 183.450798,22.4184783 184.332447,20.7880435 C185.281915,19.1576087 186.706117,15.2853261 188.87633,14.7418478 C190.571809,14.3342391 197.557181,13.5190217 198.710106,13.3831522 C198.845745,13.3831522 198.845745,13.3831522 198.845745,13.3831522 C199.25266,13.3831522 199.523936,13.2472826 199.591755,13.0434783 C200.134309,11.9565217 194.980053,8.2201087 187.994681,4.75543478 C181.009309,1.22282609 174.837766,-0.747282609 174.430851,0.407608696 C174.295213,0.747282609 175.990691,2.64945652 176.736702,3.66847826 C178.228723,5.70652174 179.992021,9.98641304 180.398936,12.5679348 C180.941489,15.7608696 176.601064,22.6902174 175.787234,24.388587 C174.905585,26.0869565 171.378989,33.3559783 170.836436,34.0353261 C170.49734,34.4429348 169.208777,36.1413043 168.327128,37.2282609 C157.272606,32.1331522 144.99734,29.2798913 132.043883,29.2798913 C130.348404,29.2798913 128.652926,29.3478261 126.957447,29.4157609 C126.68617,28.6005435 126.414894,27.8532609 126.347074,27.3777174 C126.143617,26.2228261 125.94016,15.2853261 126.007979,13.7228261 C126.143617,12.1603261 125.804521,8.76358696 127.228723,7.54076087 C128.31383,6.58967391 133.128989,3.39673913 133.942819,2.85326087 C134.010638,2.78532609 134.078457,2.78532609 134.078457,2.78532609 C134.417553,2.58152174 134.485372,2.44565217 134.485372,2.30978261 C134.485372,1.29076087 129.398936,0.475543478 123.091755,0.543478261 C116.716755,0.543478261 111.494681,1.42663043 111.630319,2.37771739 C111.698138,2.64945652 113.597074,3.46467391 114.478723,3.94021739 C116.30984,4.89130435 119.090426,7.4048913 120.31117,9.10326087 C121.871011,11.2092391 121.125,17.9347826 121.057181,19.5652174 C120.989362,21.1277174 120.989362,27.7853261 120.785904,28.5326087 C120.718085,28.8043478 120.582447,29.4157609 120.446809,30.0951087 C109.595745,31.5217391 99.3550532,34.986413 90.1994681,40.0815217 C89.8603723,39.7418478 86.9441489,37.1603261 86.1303191,36.0054348 C85.3164894,34.7826087 79.0771277,23.0978261 78.3989362,21.3994565 C77.6529255,19.6331522 75.5505319,16.1684783 76.4321809,14.0625 C77.1103723,12.4320652 80.7726064,6.45380435 81.3829787,5.43478261 C81.4507979,5.36684783 81.4507979,5.29891304 81.4507979,5.29891304 C81.7220745,4.95923913 81.7898936,4.6875 81.6542553,4.55163043 C81.1117021,3.46467391 75.0079787,5.29891304 68.0226064,8.69565217 C60.9694149,12.0923913 55.6117021,15.7608696 56.2898936,16.7798913 C56.4933511,17.0516304 59.0026596,16.9157609 60.2912234,16.9157609 C62.8683511,16.9836957 67.2765957,18.2065217 69.5824468,19.4293478 C72.4308511,20.923913 75.2792553,28.6005435 76.0930851,30.3668478 C76.9069149,32.1331522 80.5013298,39.3342391 80.6369681,40.2173913 C80.8404255,41.0326087 81.8577128,45.1766304 81.9255319,45.3804348 C81.9255319,45.3804348 81.9255319,45.3804348 81.9255319,45.3804348 C71.8204787,52.5815217 63.275266,61.888587 57.0359043,72.6902174 C55.2726064,72.0788043 52.4920213,71.1956522 51.8138298,70.8559783 C50.6609043,70.4483696 41.1662234,65.2173913 39.8098404,64.3342391 C38.5212766,63.451087 35.4694149,62.0244565 35.0625,60.1902174 C34.7234043,58.763587 34.4521277,52.9891304 34.3843085,51.9701087 C34.3843085,51.9021739 34.3843085,51.8342391 34.3843085,51.8342391 C34.3843085,51.4945652 34.3164894,51.2907609 34.1808511,51.2228261 C33.2992021,50.6793478 30.043883,54.7554348 26.9242021,60.2581522 C23.7367021,65.7608696 21.837766,70.7201087 22.787234,71.1277174 C23.0585106,71.263587 24.6861702,69.9728261 25.5,69.4293478 C27.2632979,68.2744565 30.7898936,67.1875 32.8922872,66.9157609 C35.537234,66.6440217 40.962766,70.6521739 42.3191489,71.4673913 C43.6755319,72.2826087 49.4401596,75.6793478 49.9148936,76.1548913 C50.1861702,76.4266304 52.0172872,77.7173913 53.712766,78.8722826 C49.5757979,87.6358696 46.8630319,97.1467391 45.8457447,107.201087 C43.2007979,107.880435 39.2672872,108.899457 38.25,108.967391 C36.5545213,109.035326 21.4308511,107.608696 19.3284574,107.133152 C17.2260638,106.725543 12.4787234,106.589674 10.9867021,104.483696 C9.8337766,102.853261 6.1037234,95.6521739 5.49335106,94.4293478 C5.42553191,94.2934783 5.42553191,94.2255435 5.42553191,94.2255435 C5.22207447,93.8179348 5.01861702,93.5461957 4.81515957,93.5461957 C3.4587766,93.3423913 1.55984043,100.271739 0.678191489,108.967391 C-0.203457447,117.730978 0.135638298,125.067935 1.55984043,125.067935 C1.89893617,125.067935 3.3231383,122.554348 4.06914894,121.399457 C5.62898936,119.021739 9.5625,115.625 12.0718085,114.19837 C15.2593085,112.432065 24.4148936,114.605978 26.6529255,114.877717 C28.8231383,115.217391 38.0465426,116.304348 38.9960106,116.711957 C39.5385638,116.915761 42.9973404,117.934783 45.5066489,118.75 C45.8457447,129.755435 48.2194149,140.217391 52.2207447,149.796196 C51.2712766,150.815217 49.4401596,152.785326 48.5585106,153.464674 C47.337766,154.347826 35.1303191,161.005435 33.2992021,161.820652 C31.4680851,162.63587 27.8058511,164.877717 25.5678191,164.130435 C23.8045213,163.519022 17.2260638,160.190217 16.1409574,159.646739 C16.0731383,159.578804 16.0053191,159.578804 16.0053191,159.578804 C15.5984043,159.375 15.3271277,159.307065 15.1914894,159.375 C14.0385638,159.918478 16.2765957,165.896739 20.2101064,172.690217 C24.143617,179.483696 28.2805851,184.646739 29.3656915,183.967391 C29.6369681,183.763587 29.3656915,181.25 29.3656915,180.027174 C29.2978723,177.513587 30.4507979,173.029891 31.6037234,170.788043 C33.0957447,167.866848 41.1662234,164.741848 42.9973404,163.858696 C44.8284574,162.975543 52.4242021,159.103261 53.3058511,158.899457 C53.712766,158.763587 55.0691489,158.423913 56.2898936,158.084239 C60.6303191,165.896739 66.0558511,172.961957 72.4986702,179.076087 C71.4135638,181.793478 69.9215426,185.461957 69.3789894,186.277174 C68.4295213,187.63587 58.1888298,198.913043 56.5611702,200.407609 C55.0013298,201.902174 52.0172872,205.570652 49.4401596,205.502717 C47.4055851,205.434783 39.4707447,204.144022 38.1143617,203.872283 C37.9787234,203.804348 37.9109043,203.804348 37.9109043,203.804348 C37.4361702,203.668478 37.1648936,203.736413 36.9614362,203.872283 C35.9441489,204.891304 40.4202128,210.529891 46.8630319,216.440217 C53.3058511,222.350543 59.4773936,226.494565 60.2912234,225.407609 C60.4946809,225.13587 59.3417553,222.486413 58.8670213,221.195652 C57.9175532,218.478261 57.5106383,213.315217 57.9175532,210.529891 C58.3922872,206.929348 65.581117,200.815217 67.1409574,199.184783 C68.7007979,197.622283 75.143617,190.896739 75.9574468,190.353261 C76.4321809,190.013587 79.0093085,187.975543 81.1117021,186.277174 C89.0465426,192.119565 98.0664894,196.603261 107.832447,199.456522 C108.849734,202.309783 109.867021,205.366848 109.867021,206.11413 C109.799202,207.608696 107.764628,220.652174 107.289894,222.486413 C106.81516,224.320652 106.408245,228.396739 104.509309,229.55163 C103.017287,230.434783 96.5066489,233.084239 95.3537234,233.491848 C95.2180851,233.491848 95.2180851,233.559783 95.2180851,233.559783 C94.8111702,233.695652 94.6077128,233.831522 94.6077128,234.035326 C94.4042553,235.190217 100.37234,237.432065 108.035904,238.92663 C115.699468,240.421196 122.210106,240.76087 122.277926,239.538043 C122.277926,239.19837 120.175532,237.771739 119.226064,237.024457 C117.191489,235.461957 114.410904,231.793478 113.325798,229.483696 C111.901596,226.5625 114.275266,218.75 114.682181,216.847826 C115.089096,214.945652 116.581117,206.997283 116.920213,206.25 C117.191489,205.638587 118.276596,203.125 118.75133,201.902174 C123.159574,202.581522 127.703457,202.98913 132.31516,202.98913 C137.198138,202.98913 142.081117,202.581522 146.760638,201.766304 C147.574468,203.057065 149.744681,206.521739 150.219415,207.94837 C150.829787,209.782609 154.356383,226.494565 154.62766,228.940217 C154.898936,231.317935 156.323138,236.480978 154.356383,238.654891 C152.796543,240.353261 145.675532,245.991848 144.454787,246.942935 C144.319149,247.01087 144.25133,247.078804 144.25133,247.078804 C143.844415,247.350543 143.640957,247.622283 143.708777,247.894022 C143.980053,249.456522 152.728723,249.86413 163.240691,248.777174 C173.820479,247.758152 182.365691,245.584239 181.823138,244.089674 C181.6875,243.682065 178.296543,242.730978 176.668883,242.1875 C173.345745,241.032609 167.988032,237.567935 165.478723,235.190217 C162.291223,232.133152 161.680851,221.671196 161.273936,219.225543 C160.867021,216.779891 159.035904,206.521739 159.171543,205.434783 C159.239362,204.415761 159.510638,199.320652 159.578457,198.709239 C170.022606,195.244565 179.585106,189.877717 187.859043,182.94837 C189.079787,183.627717 190.571809,184.51087 191.25,185.122283 C192.402926,186.141304 201.694149,196.467391 202.914894,198.097826 C204.067819,199.728261 207.1875,202.717391 206.916223,205.095109 C206.780585,206.997283 205.017287,214.130435 204.746011,215.353261 C204.746011,215.48913 204.678191,215.48913 204.678191,215.48913 C204.542553,215.896739 204.542553,216.168478 204.678191,216.372283 C205.492021,217.391304 210.781915,213.790761 216.410904,208.423913 C222.107713,203.057065 226.176862,197.758152 225.227394,196.875 C224.956117,196.671196 222.582447,197.486413 221.361702,197.826087 C218.920213,198.4375 214.308511,198.369565 211.799202,197.758152 C208.611702,197.01087 203.728723,189.809783 202.44016,188.247283 C201.151596,186.684783 195.658245,180.230978 195.25133,179.415761 C195.047872,179.076087 194.573138,178.192935 194.030585,177.173913 C199.795213,171.331522 204.678191,164.741848 208.611702,157.472826 C209.900266,157.540761 213.359043,157.608696 214.647606,157.94837 C216.275266,158.355978 230.381649,163.92663 232.348404,164.945652 C234.31516,165.896739 238.791223,167.391304 239.672872,169.836957 C240.351064,171.73913 241.910904,179.6875 242.182181,181.046196 C242.182181,181.182065 242.25,181.25 242.25,181.25 C242.317819,181.725543 242.453457,181.997283 242.656915,182.065217 C243.945479,182.608696 247.607713,176.494565 250.863032,168.342391 C253.914894,159.850543 255.610372,152.649457 254.253989,152.309783 Z M146.218085,201.086957 L146.218085,201.086957 C146.353723,201.222826 146.489362,201.42663 146.489362,201.494565 C146.353723,201.222826 146.218085,201.086957 146.218085,201.086957 Z" id="path-1"></path>
        <filter x="-3.5%" y="-2.8%" width="107.1%" height="107.2%" filterUnits="objectBoundingBox" id="filter-2">
            <feMorphology radius="2" operator="dilate" in="SourceAlpha" result="shadowSpreadOuter1"></feMorphology>
            <feOffset dx="0" dy="2" in="shadowSpreadOuter1" result="shadowOffsetOuter1"></feOffset>
            <feGaussianBlur stdDeviation="2" in="shadowOffsetOuter1" result="shadowBlurOuter1"></feGaussianBlur>
            <feComposite in="shadowBlurOuter1" in2="SourceAlpha" operator="out" result="shadowBlurOuter1"></feComposite>
            <feColorMatrix values="0 0 0 0 0   0 0 0 0 0   0 0 0 0 0  0 0 0 0.09 0" type="matrix" in="shadowBlurOuter1"></feColorMatrix>
        </filter>
    </defs>
    <g id="Media" stroke="none" stroke-width="1" fill="none" fill-rule="evenodd">
        <g id="Virus" transform="translate(-97.000000, -51.000000)">
            <g id="virus" transform="translate(102.000000, 55.000000)">
                <g id="Virus" transform="translate(0.717391, 0.000000)">
                    <path d="M146.489362,201.494565 C146.285904,201.222826 146.218085,201.086957 146.218085,201.086957 L146.285904,201.086957 C146.353723,201.222826 146.489362,201.358696 146.489362,201.494565 Z" id="Path" stroke="#000000"></path>
                    <path d="M218.648936,110.190217 C218.513298,110.258152 218.445479,110.326087 218.445479,110.326087 L218.37766,110.054348 C218.445479,109.986413 218.581117,109.986413 218.648936,109.918478 C218.581117,109.986413 218.648936,110.054348 218.648936,110.190217 Z" id="Path" stroke="#000000"></path>
                    <g id="Shape" fill-rule="nonzero">
                        <use fill="black" fill-opacity="1" filter="url(#filter-2)" xlink:href="#path-1"></use>
                        <path stroke="#EDEDED" stroke-width="2" d="M90.3513437,38.8561417 C89.4316648,38.0091825 87.5819898,36.3186503 86.958419,35.4444555 C86.1366222,34.2016583 79.996107,22.7026511 79.3201413,21.0103793 C79.1743639,20.6652271 78.9791209,20.2573613 78.7635865,19.8083796 C77.9983313,18.2142695 76.7254217,15.9515966 77.3546099,14.4486667 C77.8978947,13.1425666 80.3876576,9.01405343 81.6547441,6.90577356 C81.9268687,6.45299094 82.1442615,6.09122467 82.2772093,5.86622267 C82.5081605,5.5715535 82.6814636,5.285315 82.5489869,4.10502612 C82.376555,3.75957429 82.0491445,3.43917072 81.4292832,3.30481207 C81.1256992,3.23900842 80.7189651,3.21891989 80.218967,3.26406817 C79.4027039,3.33777419 78.2788219,3.58565399 76.9323859,3.99497059 C74.4301376,4.75565416 71.118403,6.07831676 67.585302,7.79633859 C63.9940372,9.5258441 60.8342003,11.3282408 58.6644695,12.8232593 C57.5077072,13.620308 56.6231848,14.3396157 56.0781642,14.9200609 C55.8521481,15.1607672 55.6615492,15.3808998 55.5152617,15.7534884 C55.3848664,16.5935727 55.3761137,17.2279266 55.4894034,17.3792371 C55.6880909,17.6446055 57.4181136,17.9681234 59.2445193,17.9310542 C59.6237733,17.9233567 59.9824432,17.9159909 60.2774454,17.9157661 C62.7341402,17.9841194 66.9215491,19.1501512 69.1139363,20.3128058 C71.4045511,21.5147082 73.5808724,27.0090573 74.6766012,29.6062994 C74.8880028,30.1073916 75.0599236,30.5141727 75.1848544,30.7853177 C75.4083049,31.2702859 75.8398039,32.1621333 76.3522099,33.2209076 C77.6588742,35.9208418 79.5534513,39.7499511 79.6667285,40.4595383 C79.7168592,40.6604028 79.8165004,41.0637879 79.9393397,41.5610782 C80.2001569,42.6169442 80.564735,44.0919048 80.7858142,44.9668543 C71.0303436,52.0339139 62.7407417,61.0539602 56.5851086,71.4792366 C56.258973,71.3691204 55.9174278,71.2547014 55.5737302,71.1395683 C54.1661943,70.6680668 52.7178731,70.1903551 52.1471544,69.9131661 C51.0180749,69.513988 41.7530183,64.3997489 40.369681,63.5054321 C40.0915592,63.3153862 39.7368699,63.1008172 39.3441723,62.8642288 C38.1394157,62.1383992 36.3155177,61.2211485 36.035395,59.95897 C35.7469433,58.7454073 35.5195045,54.3101083 35.4190479,52.4401617 C35.3972973,52.0352863 35.4507449,51.69333 34.5341113,50.5846846 C34.3876423,50.4075341 34.2557457,50.2583901 34.1358983,50.1324277 C33.845792,50.1605093 33.6055981,50.2142203 33.4172251,50.2837329 C33.1644358,50.377016 32.8591789,50.5525542 32.5204697,50.8250993 C31.9991502,51.2445833 31.3497183,51.9285673 30.6259261,52.8297683 C29.2833425,54.5014325 27.6505121,56.9494142 26.0542799,59.7649632 C24.4295685,62.5696861 23.1324184,65.2440461 22.3638755,67.2633335 C21.9483088,68.3552029 21.6851615,69.2688243 21.588916,69.9293658 C21.5220944,70.3879687 21.4900133,70.7653054 21.900292,71.5899168 C22.0527245,71.8484933 22.2286734,71.9663764 22.3394107,72.0218395 C22.5394019,72.1220056 23.0298176,72.27057 23.8664386,71.7733631 C24.2731596,71.5316473 24.8155672,71.1432532 25.3100691,70.7871705 C25.58751,70.58739 25.8486235,70.3990172 26.0553545,70.2609616 C27.70627,69.1797239 31.0214853,68.1690182 33.0044829,67.9095904 C35.0522282,67.7087976 38.8259579,70.3659191 40.7628958,71.6497655 C41.2075615,71.9445 41.5662297,72.1815866 41.8040086,72.3244971 C42.0246228,72.4570914 42.361449,72.6577456 42.7730511,72.9029394 C44.8246807,74.1251072 48.8219654,76.4755193 49.2071848,76.8613955 C49.4520532,77.1066814 50.9125073,78.1580818 52.4474906,79.2172375 C48.5601608,87.6632503 45.9652203,96.7857743 44.6171703,106.48271 C42.1466003,107.119999 39.0885452,107.903195 38.1969788,107.968659 C36.463244,108.02815 21.6173126,106.625609 19.5187916,106.151433 C19.0697659,106.064376 18.5045267,105.988488 17.8762565,105.905026 C15.8317904,105.633434 12.8637086,105.403247 11.8026742,103.905604 C10.6671741,102.299811 6.99686502,95.2017953 6.32026349,93.7789392 C6.18775381,93.5134679 6.07423708,93.2732026 4.96374737,92.5572964 C4.54869019,92.4949317 4.07148214,92.5946067 3.59186352,93.0716237 C3.35160745,93.3105765 3.09366962,93.6753309 2.84221055,94.1679584 C2.4273934,94.9806169 1.99595965,96.1946366 1.58698177,97.7191656 C0.827813457,100.549084 0.127358056,104.486722 -0.316707874,108.866519 C-0.768605384,113.358375 -0.90196124,117.479762 -0.738925808,120.457091 C-0.653504015,122.017051 -0.483205379,123.275882 -0.243817207,124.13484 C-0.0964983539,124.66344 0.0863850627,125.064982 0.277875136,125.338775 C0.662101522,125.888142 1.11911156,126.067935 1.55984043,126.067935 C1.88122385,126.067935 3.1870792,124.739058 4.25416272,122.996272 C4.49643118,122.600593 4.72401743,122.228643 4.9091408,121.942056 C6.39751949,119.673315 10.166596,116.431868 12.5660502,115.067694 C15.0114808,113.712665 21.1983464,114.946247 24.5545626,115.543795 C25.3964818,115.693692 26.0783848,115.814247 26.5142475,115.868202 C27.186644,115.972899 28.5072011,116.146516 30.0470597,116.348746 C33.4438165,116.794843 37.962037,117.356325 38.6443625,117.648089 C38.9084393,117.747286 39.8458668,118.036252 41.0336139,118.400418 C42.1006335,118.727568 43.3751635,119.118304 44.5315098,119.486832 C44.9433667,130.130485 47.2362808,140.265288 51.0040502,149.634741 C50.0485566,150.658664 48.6895216,152.095393 47.9644907,152.659893 C46.7160925,153.554392 34.6979998,160.103279 32.8924857,160.907098 C32.5436134,161.062416 32.1301931,161.267536 31.6736788,161.494524 C29.9671984,162.343018 27.5266343,163.720286 25.8955947,163.185574 C24.2902574,162.629038 18.6471488,159.786958 16.4542499,158.685238 C15.5580464,158.236371 15.0393038,158.340569 14.7650585,158.470456 C14.3877874,158.648322 14.0608422,158.985831 13.9373559,159.611622 C13.8767771,159.918617 13.8699107,160.329481 13.9408403,160.833853 C14.0537343,161.636627 14.3674571,162.741023 14.865244,164.061734 C15.788219,166.510538 17.3512013,169.748361 19.3447046,173.191296 C21.3586682,176.669567 23.4268354,179.725646 25.1220035,181.813629 C26.0168823,182.915875 26.8175377,183.756309 27.4587754,184.271184 C27.8544556,184.588891 28.2092956,184.796003 28.5030644,184.905168 C29.0984604,185.126419 29.5533486,185.029718 29.9663456,184.7669 C30.2112719,184.582892 30.516585,183.206033 30.4224057,181.453625 C30.3940563,180.926124 30.3656915,180.410765 30.3653277,180.000203 C30.3010402,177.617509 31.4005492,173.369669 32.4930152,171.245384 C33.6849355,168.911758 39.3783785,166.553675 42.1264811,165.346009 C42.6852665,165.100449 43.1371829,164.901482 43.4317562,164.759408 C43.9157649,164.52597 44.8005885,164.084756 45.8579742,163.557425 C48.7255484,162.12733 52.8986629,160.019954 53.622564,159.847978 C53.8460575,159.773353 54.3689351,159.635802 54.9944741,159.469622 C55.250433,159.401625 55.522799,159.329262 55.7994367,159.25482 C60.0117731,166.686034 65.2044247,173.436416 71.3186778,179.331202 C70.3035792,181.86988 69.0495065,184.952611 68.5555178,185.709448 C67.5946974,187.076147 57.4918098,198.195443 55.8693329,199.685555 C55.5899226,199.953273 55.2658833,200.288519 54.9076147,200.659707 C53.456153,202.16351 51.3795637,204.553494 49.4665111,204.503065 C47.4830124,204.436811 39.7572485,203.177619 38.1533817,202.833664 C37.2618071,202.586826 36.7785435,202.791938 36.2537273,203.165778 C35.9530374,203.466981 35.7549319,203.907788 35.834028,204.554226 C35.875407,204.892408 36.0065468,205.317471 36.2447469,205.811962 C36.6361039,206.624399 37.3391031,207.684204 38.3040429,208.908986 C40.1265448,211.222258 42.9042362,214.165643 46.1870333,217.17712 C49.463389,220.182688 52.6716361,222.736053 55.1583164,224.396667 C56.4749768,225.275937 57.6007105,225.909516 58.441433,226.247923 C58.9536004,226.454081 59.3842533,226.557517 59.7156371,226.577124 C60.4144325,226.61847 60.8325247,226.353129 61.0917137,226.006954 C61.2844726,225.749504 61.0049999,223.905854 60.2545127,222.007889 C60.0865126,221.58302 59.9283418,221.183355 59.8110649,220.865423 C58.903776,218.269158 58.5182758,213.3356 58.9089726,210.660611 C59.2786046,207.857196 64.0406043,203.52615 66.5053107,201.191789 C67.0898912,200.638123 67.5628409,200.189275 67.8530725,199.886989 C68.2757012,199.463389 69.0507568,198.667353 69.9741809,197.718851 C72.4223564,195.204189 75.9312087,191.573264 76.5393407,191.166526 C76.9740064,190.855521 79.1561769,189.134001 81.141453,187.537536 C88.8824417,193.128568 97.6220222,197.454057 107.059127,200.270837 C107.962709,202.809615 108.84964,205.393993 108.866769,206.094093 C108.779037,207.685832 106.788003,220.434547 106.321793,222.235851 C106.223055,222.617347 106.126511,223.091983 106.02043,223.617076 C105.671989,225.341828 105.328054,227.871336 103.999944,228.69095 C102.540834,229.55475 96.1926775,232.132144 94.8886009,232.61544 C94.5224429,232.7381 94.235527,232.850013 93.6228786,233.861828 C93.5570898,234.235266 93.6258737,234.690441 94.060325,235.175482 C94.2675498,235.406838 94.5857614,235.664686 95.0176188,235.927926 C95.7267753,236.360195 96.7888226,236.841483 98.1277078,237.329181 C100.583851,238.223846 104.004347,239.159227 107.844488,239.908139 C111.781667,240.675977 115.419126,241.141396 118.05984,241.254762 C119.448066,241.314359 120.574181,241.274446 121.348329,241.141384 C121.690952,241.082494 121.988072,241.018251 122.354527,240.776608 C122.922392,240.202992 123.277926,239.721078 123.277926,239.538043 C123.277926,239.217484 122.187406,237.980178 120.776046,236.938243 C120.425362,236.679351 120.094026,236.435012 119.844536,236.23865 C117.900593,234.745663 115.262305,231.253974 114.22466,229.045464 C113.091341,226.720903 114.646101,221.117695 115.339802,218.372596 C115.480843,217.814468 115.594843,217.36186 115.660056,217.057014 C115.777858,216.506337 115.986182,215.451702 116.231167,214.211007 C116.815979,211.249304 117.596343,207.180002 117.830844,206.663219 C118.060084,206.146621 118.848059,204.32345 119.385404,203.008862 C123.596031,203.624357 127.925234,203.98913 132.31516,203.98913 C137.026068,203.98913 141.736944,203.613919 146.269404,202.864032 C147.20749,204.358262 148.869798,207.059747 149.27057,208.264113 C149.874961,210.080378 153.365142,226.628822 153.633755,229.050463 C153.68767,229.523067 153.78413,230.09782 153.891953,230.735968 C154.278954,233.026416 155.047142,236.40082 153.614827,237.984 C152.090459,239.643706 145.137899,245.141789 143.671797,246.263116 C143.366958,246.466774 143.092973,246.656062 142.723516,248.06508 C142.79499,248.476758 143.048373,248.921135 143.672892,249.278885 C144.012943,249.47368 144.495024,249.655152 145.111332,249.803995 C146.185761,250.063478 147.72351,250.243764 149.609814,250.329055 C153.18144,250.490549 158.040532,250.320212 163.343545,249.77187 C168.670247,249.258839 173.492123,248.452993 176.918911,247.588571 C178.743771,247.128242 180.184885,246.6454 181.1233,246.18442 C181.505343,245.996748 181.829266,245.816357 182.151248,245.435759 C182.587596,244.606374 182.835576,243.965035 182.771983,243.773931 C182.647159,243.39882 180.521863,242.354184 178.329393,241.667517 C177.833919,241.512338 177.369591,241.366993 176.997209,241.242853 C173.779708,240.124756 168.595616,236.766025 166.166541,234.464334 C163.653226,232.05384 162.940783,224.765682 162.51003,221.028264 C162.412265,220.180012 162.332831,219.496892 162.260375,219.061417 C162.190522,218.641582 162.078829,217.992186 161.942333,217.198651 C161.299772,213.463023 160.05413,206.437837 160.169335,205.501189 C160.193448,205.138883 160.2432,204.263546 160.300398,203.256568 C160.37672,201.912904 160.465922,200.330925 160.524466,199.446986 C170.619816,196.012773 179.888976,190.815487 187.967634,184.158204 C188.977209,184.732556 190.047286,185.384384 190.580406,185.86501 C191.723501,186.875408 200.848634,197.019879 202.102445,198.681265 C202.375394,199.066128 202.751328,199.523869 203.168226,200.029343 C204.351641,201.464191 206.108463,203.353283 205.918756,205.023982 C205.786476,206.879056 204.071597,213.789339 203.71694,215.210962 C203.452288,216.033544 203.586381,216.536679 203.896804,216.996329 C204.159242,217.324936 204.562835,217.562109 205.18912,217.543999 C205.502779,217.53493 205.904013,217.449471 206.377268,217.265972 C207.128293,216.97477 208.123144,216.417796 209.282492,215.632392 C211.448143,214.165263 214.231929,211.88309 217.100957,209.147672 C220.00139,206.415257 222.488037,203.694766 224.124265,201.551434 C224.995639,200.410002 225.631202,199.42095 225.982754,198.667158 C226.200298,198.200701 226.317462,197.801299 226.352162,197.486432 C226.422737,196.846032 226.2114,196.42456 225.828048,196.075491 C225.566402,195.878922 223.860663,196.029728 222.141721,196.551788 C221.762387,196.666995 221.403148,196.776221 221.109866,196.858161 C218.788756,197.436692 214.416141,197.366534 212.035934,196.786577 C209.529895,196.199018 206.023028,191.316432 204.188531,188.880988 C203.773138,188.329519 203.438171,187.885719 203.211654,187.611046 C202.925477,187.264032 202.432738,186.676697 201.834383,185.963508 C199.790288,183.527124 196.454978,179.588043 196.109209,178.901909 C195.954394,178.643445 195.639767,178.063734 195.257964,177.350038 C200.719539,171.721482 205.383356,165.418676 209.535992,158.513588 C211.053225,158.57387 213.398451,158.653245 214.404682,158.918415 C216.012522,159.32106 229.945639,164.826979 231.913054,165.845913 C232.274554,166.020728 232.718236,166.213706 233.208657,166.426574 C235.140155,167.264946 238.080211,168.367686 238.732134,170.176089 C239.265215,171.67128 240.347873,176.976466 240.934794,179.83454 C241.080236,180.542784 241.195515,181.103973 241.265138,181.426897 C241.317791,181.788239 241.385515,182.095273 242.268296,182.986616 C242.651402,183.148199 243.132048,183.170171 243.707329,182.853701 C244.004743,182.690089 244.351397,182.412406 244.725534,182.011864 C245.343372,181.350422 246.082693,180.312372 246.884853,178.970946 C248.388455,176.456521 250.142522,172.843278 251.804103,168.6806 C253.397053,164.248193 254.622686,160.162942 255.249335,157.200117 C255.566023,155.7028 255.729771,154.477942 255.726649,153.617097 C255.724711,153.082763 255.655759,152.661009 255.546531,152.358064 C255.375636,151.884085 255.108318,151.606356 254.625926,151.381524 C254.412783,151.296122 253.880076,151.181643 252.99686,151.857917 C252.546463,152.202784 251.942576,152.744948 251.357916,153.271839 C250.921805,153.664858 250.496959,154.048509 250.1497,154.331359 C248.076705,156.083431 243.605787,158.222 240.93967,158.808302 C238.18168,159.445846 232.401963,156.455454 229.376939,154.967019 C228.668381,154.61838 228.097702,154.338293 227.727965,154.177801 C227.529206,154.091525 227.268406,153.978706 226.958802,153.844777 C224.176562,152.641228 217.350708,149.713655 216.552448,149.143983 C216.191661,148.849597 215.155879,148.129865 213.967036,147.313278 C217.693778,137.553429 219.716755,126.953882 219.716755,115.896739 C219.716755,115.5947 219.715175,115.294249 219.713588,114.993415 C219.705821,113.520706 219.696216,112.038381 219.885638,110.300558 C221.200068,109.66801 222.421016,109.083246 222.847952,108.959116 C223.979559,108.559045 234.430944,106.564353 235.961776,106.43101 C236.316451,106.400117 236.75441,106.333543 237.238834,106.25881 C238.621956,106.04543 240.570021,105.587341 241.570081,106.361433 C242.73755,107.255741 246.712969,111.497357 248.331089,112.538602 C248.529699,112.666406 248.786907,112.806554 249.087734,112.95537 C249.396169,112.680209 249.609421,112.420987 249.73843,112.197352 C249.871214,111.967169 249.991954,111.640852 250.076338,111.219047 C250.205715,110.572335 250.265109,109.6423 250.244986,108.500027 C250.207218,106.356224 249.897625,103.419227 249.338666,100.234727 C248.782107,97.0290461 248.065494,94.1206773 247.369694,92.0677336 C246.9964,90.9663381 246.622174,90.0994733 246.283292,89.5368704 C246.042136,89.1365112 245.826006,88.8250261 244.380745,88.4321288 C244.180579,88.4822556 243.700921,88.7014579 243.365402,89.6557226 C243.190962,90.1518548 242.999219,90.8669363 242.835169,91.4832633 C242.767106,91.7389729 242.703959,91.9764646 242.649062,92.1697503 C242.072282,94.0241971 240.154953,96.9486487 238.812951,98.4269629 C237.439368,99.8464931 233.050442,100.197265 230.683034,100.459159 C230.032071,100.531172 229.509359,100.590114 229.192737,100.645272 C227.681394,100.908563 221.30523,101.924121 220.547872,101.853261 C220.247352,101.853261 219.454932,101.81473 218.627997,101.767251 C216.899312,91.3024723 213.364964,81.4117682 208.324353,72.574632 C209.159584,71.5170991 210.500449,69.8601841 211.214961,69.2496822 C212.34931,68.313773 223.329578,61.5201919 225.0615,60.6107182 C225.434456,60.4305249 225.882476,60.1798352 226.377849,59.9015196 C227.905069,59.0434794 230.002488,57.6844251 231.507113,58.1554221 C233.154803,58.6836063 239.206745,61.8547176 240.400523,62.4872741 C241.093442,62.8968271 241.632189,62.9000532 242.198343,62.6918704 C242.541475,62.4985294 242.841897,62.1533603 242.941919,61.5363037 C242.991378,61.2311741 242.9881,60.8269228 242.911913,60.3340662 C242.78845,59.5353738 242.469042,58.4430665 241.973439,57.139062 C241.037424,54.6762708 239.46529,51.4139984 237.49015,47.9429336 C235.499825,44.4451804 233.472343,41.3745124 231.824515,39.295464 C230.960459,38.2052942 230.190225,37.3790392 229.199972,36.6030548 C228.126802,36.331989 227.315641,36.2938271 227.136048,36.4287519 C226.88098,36.6203787 226.606539,38.1327793 226.771895,39.9973386 C226.813957,40.4716314 226.854813,40.9290747 226.873718,41.2888827 C227.002993,43.7493043 226.091053,48.0206317 225.121836,50.2859952 C224.107562,52.638834 218.944705,55.1123075 216.393785,56.4075092 C215.841223,56.6880669 215.394563,56.9153788 215.107837,57.0762188 C214.736113,57.2847396 214.111249,57.6427736 213.352971,58.0772858 C210.735145,59.5773637 206.476109,62.0548798 205.750745,62.2432156 C205.298184,62.4132153 203.599573,62.9666064 202.278786,63.3758579 C195.611378,54.5061857 187.305501,46.8589567 177.911559,41.1052614 C177.995565,39.8945764 178.21228,37.1952921 178.512179,36.1438539 C178.912315,34.7409906 184.303044,22.9579039 185.202502,21.2814787 C185.41028,20.923133 185.640589,20.4636294 185.894395,19.9549877 C186.669545,18.4015414 187.623957,16.0863546 189.119255,15.711893 C190.762224,15.3169532 197.502941,14.5321817 198.898955,14.3831214 C199.23704,14.3820504 199.557542,14.3580738 200.486487,13.4900826 C200.660259,13.1419448 200.719127,12.6845704 200.447037,12.1052386 C200.314316,11.8226477 200.081542,11.485277 199.738973,11.1132018 C199.180728,10.506875 198.294639,9.76141975 197.14215,8.93777442 C195.016582,7.41870172 191.956859,5.60438848 188.439018,3.8595752 C184.903906,2.07178158 181.567148,0.677944611 179.062795,-0.124814786 C177.715993,-0.556526201 176.596956,-0.818674449 175.795944,-0.89640231 C175.26565,-0.94786044 174.833197,-0.959222224 173.924219,-0.454853809 C173.665723,-0.273499367 173.550612,-0.084581025 173.502156,0.0367631718 C173.414676,0.255837918 173.332986,0.784238165 173.888149,1.61211838 C174.189338,2.06126202 174.666214,2.65871624 175.12155,3.22659281 C175.424717,3.60469092 175.717267,3.96885142 175.929817,4.25918677 C177.348861,6.19754608 179.024157,10.2686128 179.413068,12.7354565 C179.829377,15.185445 177.076962,19.9299171 175.679714,22.4689088 C175.331423,23.1018002 175.051997,23.6113604 174.893494,23.9396772 C174.626796,24.4542092 174.126906,25.4594684 173.54193,26.636073 C172.212502,29.31005 170.443368,32.9107625 170.060852,33.4039042 C169.906383,33.5905104 169.573849,34.0183903 169.173939,34.5337043 C168.821148,34.9883011 168.414024,35.5129833 168.033074,35.9947415 C157.037394,31.04523 144.869289,28.2798913 132.043883,28.2798913 C130.586099,28.2798913 129.127617,28.3377881 127.575371,28.1169713 C127.461053,27.7712043 127.370097,27.4682042 127.331909,27.204219 C127.132532,26.0724927 126.941939,15.3954983 127.006197,13.7864001 C127.035972,13.4284887 127.044229,12.9827424 127.052165,12.4904969 C127.074548,11.1021438 126.935905,9.11020562 127.880154,8.29946932 C128.947534,7.36398764 133.631903,4.26327464 134.603083,3.63690167 C135.421897,3.14414259 135.76732,2.87259892 134.894356,1.16981647 C134.683853,0.999334025 134.376435,0.824592581 133.969889,0.66820338 C133.338224,0.425215639 132.415013,0.202571444 131.266917,0.0245870919 C129.169366,-0.300587451 126.281894,-0.490670685 123.086839,-0.456526546 C119.877378,-0.456278207 116.955397,-0.234698906 114.836286,0.104434552 C113.666935,0.291572377 112.730419,0.518789772 112.100645,0.759514005 C111.721245,0.904535295 111.411749,1.04348907 111.010993,1.53817855 C110.752293,2.07096251 110.625495,2.48129156 110.66008,2.61986442 C110.724091,2.87634631 111.71357,3.69484845 113.018965,4.32852508 C113.386778,4.50707202 113.742105,4.67909169 114.017788,4.82765109 C115.740054,5.7222005 118.351379,8.09004534 119.507587,9.69845307 C120.75605,11.3840334 120.277685,16.2657944 120.11998,18.5350083 C120.09118,18.9494155 120.067839,19.2881868 120.058045,19.5236576 C120.035675,20.0390039 120.02031,21.1084958 120.002935,22.3395686 C119.969095,24.7372945 119.952331,27.7876375 119.815665,28.2904617 C119.770399,28.4718338 119.695653,28.8001306 119.610626,29.1991893 C109.145037,30.662945 99.2518886,34.0019809 90.3513437,38.8561417 Z" fill="#D60B52" fill-rule="evenodd"></path>
                    </g>
                    <ellipse id="Oval" fill="#82368C" fill-rule="nonzero" transform="translate(99.084794, 68.624389) rotate(-30.000728) translate(-99.084794, -68.624389) " cx="99.0847939" cy="68.6243886" rx="25.3067701" ry="9.5066318"></ellipse>
                    <ellipse id="Oval" fill="#82368C" fill-rule="nonzero" transform="translate(166.153388, 107.205856) rotate(-50.624323) translate(-166.153388, -107.205856) " cx="166.153388" cy="107.205856" rx="13.8491836" ry="36.7151986"></ellipse>
                    <ellipse id="Oval" fill="#82368C" fill-rule="nonzero" transform="translate(95.895537, 132.686427) rotate(-20.212692) translate(-95.895537, -132.686427) " cx="95.8955374" cy="132.686427" rx="15.7369751" ry="26.5566369"></ellipse>
                    <ellipse id="Oval" fill="#82368C" fill-rule="nonzero" transform="translate(166.150838, 170.104783) rotate(-45.000000) translate(-166.150838, -170.104783) " cx="166.150838" cy="170.104783" rx="18.8017431" ry="14.0504065"></ellipse>
                    <ellipse id="Oval" fill="#82368C" fill-rule="nonzero" cx="107.56117" cy="180.842391" rx="17.2260638" ry="12.9076087"></ellipse>
                    <ellipse id="Oval" fill="#82368C" fill-rule="nonzero" cx="56.2898936" cy="112.63587" rx="7.66356383" ry="7.67663043"></ellipse>
                    <ellipse id="Oval" fill="#82368C" fill-rule="nonzero" cx="151.711436" cy="47.5543478" rx="6.03590426" ry="6.04619565"></ellipse>
                    <ellipse id="Oval" fill="#82368C" fill-rule="nonzero" cx="195.793883" cy="148.980978" rx="4.74734043" ry="4.75543478"></ellipse>
                    <path d="M122.277926,30.5027174 C123.295213,33.3559783 121.871011,36.4809783 119.022606,37.5 C116.174202,38.5190217 113.12234,37.0923913 112.037234,34.2391304 C111.901596,34.3070652 111.698138,34.3070652 111.494681,34.375 C110.138298,34.5788043 108.849734,33.6277174 108.714096,32.201087 C108.510638,30.8423913 109.527926,29.5516304 110.884309,29.4157609 C111.155585,29.3478261 111.426862,29.4157609 111.765957,29.4836957 C111.223404,28.8722826 111.019947,27.9891304 111.291223,27.173913 C111.698138,25.8831522 113.054521,25.0679348 114.410904,25.4755435 C115.224734,25.7472826 115.835106,26.3586957 116.038564,27.1059783 C118.683511,26.5625 121.396277,27.9891304 122.277926,30.5027174 Z" id="Path" fill="#82368C" fill-rule="nonzero"></path>
                    <path d="M131.976064,38.111413 C129.195479,39.2663043 126.007979,37.9755435 124.855053,35.1902174 C123.702128,32.4048913 124.990691,29.2119565 127.771277,28.0570652 C127.703457,27.9211957 127.635638,27.7173913 127.635638,27.513587 C127.364362,26.1548913 128.246011,24.8641304 129.670213,24.5923913 C131.026596,24.3206522 132.31516,25.2717391 132.586436,26.6304348 C132.654255,26.9021739 132.654255,27.173913 132.586436,27.513587 C133.196809,26.9701087 134.010638,26.6983696 134.824468,26.9701087 C136.180851,27.3097826 136.994681,28.6684783 136.655585,30.0271739 C136.452128,30.8423913 135.841755,31.4538043 135.163564,31.7255435 C135.773936,34.3070652 134.485372,37.0923913 131.976064,38.111413 Z" id="Path" fill="#82368C" fill-rule="nonzero"></path>
                    <path d="M59.4095745,78.8722826 C61.7154255,80.7744565 62.0545213,84.1711957 60.2234043,86.548913 C58.3244681,88.8586957 54.9335106,89.2663043 52.5598404,87.3641304 C52.4242021,87.5 52.2885638,87.6358696 52.1529255,87.7717391 C51.0678191,88.6548913 49.5079787,88.451087 48.6263298,87.3641304 C47.8125,86.2771739 47.9481383,84.7146739 49.0332447,83.8315217 C49.2367021,83.6277174 49.5079787,83.4918478 49.7792553,83.423913 C49.0332447,83.1521739 48.4228723,82.5407609 48.2194149,81.7255435 C47.8803191,80.3668478 48.6941489,79.0081522 50.0505319,78.6684783 C50.8643617,78.4646739 51.6781915,78.6684783 52.2885638,79.2119565 C54.2553191,77.3097826 57.3071809,77.173913 59.4095745,78.8722826 Z" id="Path" fill="#82368C" fill-rule="nonzero"></path>
                    <path d="M65.7845745,77.0380435 C64.0212766,79.4836957 60.6303191,79.9592391 58.1888298,78.1929348 C55.7473404,76.4266304 55.2726064,73.0298913 57.0359043,70.5842391 C56.900266,70.4483696 56.7646277,70.3804348 56.6289894,70.1766304 C55.6795213,69.1576087 55.8151596,67.5951087 56.900266,66.6440217 C57.9175532,65.7608696 59.5452128,65.8288043 60.4268617,66.9157609 C60.6303191,67.1195652 60.7659574,67.3913043 60.9015957,67.6630435 C61.1050532,66.9157609 61.7154255,66.236413 62.5292553,66.0326087 C63.8856383,65.625 65.2420213,66.3722826 65.6489362,67.7309783 C65.8523936,68.5461957 65.7167553,69.361413 65.2420213,69.9728261 C67.0731383,71.8070652 67.412234,74.8641304 65.7845745,77.0380435 Z" id="Path" fill="#82368C" fill-rule="nonzero"></path>
                    <path d="M88.0292553,44.7690217 C89.0465426,47.6222826 87.6223404,50.7472826 84.7739362,51.7663043 C81.9255319,52.7853261 78.8736702,51.3586957 77.7885638,48.5054348 C77.6529255,48.5733696 77.4494681,48.5733696 77.2460106,48.6413043 C75.8896277,48.8451087 74.6010638,47.8940217 74.4654255,46.4673913 C74.2619681,45.1086957 75.2792553,43.8179348 76.6356383,43.6820652 C76.9069149,43.6141304 77.1781915,43.6820652 77.5172872,43.75 C76.974734,43.138587 76.7712766,42.2554348 77.0425532,41.4402174 C77.4494681,40.1494565 78.8058511,39.3342391 80.162234,39.7418478 C80.9760638,40.013587 81.5864362,40.625 81.7898936,41.3722826 C84.4348404,40.7608696 87.0797872,42.1875 88.0292553,44.7690217 Z" id="Path" fill="#82368C" fill-rule="nonzero"></path>
                    <path d="M92.2340426,47.1467391 C89.4534574,48.3016304 86.2659574,47.0108696 85.1130319,44.2255435 C83.9601064,41.4402174 85.2486702,38.2472826 88.0292553,37.0923913 C87.9614362,36.9565217 87.893617,36.7527174 87.893617,36.548913 C87.6223404,35.1902174 88.5039894,33.8994565 89.9281915,33.6277174 C91.2845745,33.3559783 92.5731383,34.3070652 92.8444149,35.6657609 C92.912234,35.9375 92.912234,36.2092391 92.8444149,36.548913 C93.4547872,36.0054348 94.268617,35.7336957 95.0824468,36.0054348 C96.4388298,36.3451087 97.2526596,37.7038043 96.9135638,39.0625 C96.7101064,39.8777174 96.099734,40.4891304 95.4215426,40.7608696 C96.0319149,43.3423913 94.7433511,46.0597826 92.2340426,47.1467391 Z" id="Path" fill="#82368C" fill-rule="nonzero"></path>
                    <path d="M173.074468,34.8505435 C174.091755,37.7038043 172.667553,40.8288043 169.819149,41.8478261 C166.970745,42.8668478 163.918883,41.4402174 162.833777,38.5869565 C162.698138,38.6548913 162.494681,38.6548913 162.291223,38.7228261 C160.93484,38.9266304 159.646277,37.9755435 159.510638,36.548913 C159.307181,35.1902174 160.324468,33.8994565 161.680851,33.763587 C161.952128,33.6956522 162.223404,33.763587 162.5625,33.8315217 C162.019947,33.2201087 161.816489,32.3369565 162.087766,31.5217391 C162.494681,30.2309783 163.851064,29.4157609 165.207447,29.8233696 C166.021277,30.0951087 166.631649,30.7065217 166.835106,31.4538043 C169.480053,30.9103261 172.125,32.3369565 173.074468,34.8505435 Z" id="Path" fill="#82368C" fill-rule="nonzero"></path>
                    <path d="M180.331117,45.1086957 C177.550532,46.263587 174.363032,44.9728261 173.210106,42.1875 C172.057181,39.4021739 173.345745,36.2092391 176.12633,35.0543478 C176.058511,34.9184783 175.990691,34.7146739 175.990691,34.5108696 C175.719415,33.1521739 176.601064,31.861413 178.025266,31.5896739 C179.381649,31.3179348 180.670213,32.2690217 180.941489,33.6277174 C181.009309,33.8994565 181.009309,34.1711957 180.941489,34.5108696 C181.551862,33.9673913 182.365691,33.6956522 183.179521,33.9673913 C184.535904,34.3070652 185.349734,35.6657609 185.010638,37.0244565 C184.807181,37.8396739 184.196809,38.451087 183.518617,38.7228261 C184.128989,41.3043478 182.840426,44.0217391 180.331117,45.1086957 Z" id="Path" fill="#82368C" fill-rule="nonzero"></path>
                    <path d="M205.492021,64.7418478 C208.476064,64.6059783 210.985372,66.9836957 211.121011,69.9728261 C211.256649,72.9619565 208.882979,75.4755435 205.898936,75.611413 C205.898936,75.8152174 205.898936,75.951087 205.831117,76.1548913 C205.62766,77.513587 204.271277,78.3967391 202.914894,78.1929348 C201.558511,77.9211957 200.676862,76.6304348 200.880319,75.2717391 C200.948138,75 201.015957,74.7282609 201.151596,74.4565217 C200.405585,74.7961957 199.523936,74.7282609 198.845745,74.1847826 C197.692819,73.3695652 197.421543,71.8070652 198.235372,70.6521739 C198.710106,69.9728261 199.523936,69.5652174 200.269947,69.5652174 C200.541223,66.9836957 202.779255,64.8777174 205.492021,64.7418478 Z" id="Path" fill="#82368C" fill-rule="nonzero"></path>
                    <path d="M202.643617,69.6331522 C199.863032,70.7880435 196.675532,69.4972826 195.522606,66.7119565 C194.369681,63.9266304 195.658245,60.7336957 198.43883,59.5788043 C198.371011,59.4429348 198.303191,59.2391304 198.303191,59.0353261 C198.031915,57.6766304 198.913564,56.3858696 200.337766,56.1141304 C201.694149,55.8423913 202.982713,56.7934783 203.253989,58.1521739 C203.321809,58.423913 203.321809,58.6956522 203.253989,59.0353261 C203.864362,58.4918478 204.678191,58.2201087 205.492021,58.4918478 C206.848404,58.8315217 207.662234,60.1902174 207.323138,61.548913 C207.119681,62.3641304 206.509309,62.9755435 205.831117,63.2472826 C206.509309,65.8288043 205.152926,68.5461957 202.643617,69.6331522 Z" id="Path" fill="#82368C" fill-rule="nonzero"></path>
                    <path d="M76.8390957,182.269022 C74.668883,184.307065 71.2101064,184.23913 69.1755319,182.065217 C67.1409574,179.891304 67.2087766,176.42663 69.3789894,174.388587 C69.2433511,174.252717 69.1755319,174.116848 69.0398936,173.913043 C68.293883,172.758152 68.7007979,171.195652 69.9215426,170.44837 C71.0744681,169.769022 72.6343085,170.108696 73.3803191,171.331522 C73.5159574,171.603261 73.6515957,171.875 73.6515957,172.146739 C73.9906915,171.399457 74.7367021,170.923913 75.5505319,170.788043 C76.9069149,170.652174 78.1954787,171.603261 78.331117,173.029891 C78.3989362,173.845109 78.0598404,174.660326 77.5172872,175.203804 C79.0771277,177.309783 78.8058511,180.366848 76.8390957,182.269022 Z" id="Path" fill="#82368C" fill-rule="nonzero"></path>
                    <path d="M76.2965426,187.024457 C74.1263298,184.918478 74.0585106,181.521739 76.1609043,179.347826 C78.2632979,177.173913 81.6542553,177.105978 83.8244681,179.211957 C83.9601064,179.076087 84.0957447,178.940217 84.231383,178.872283 C85.3843085,178.057065 86.9441489,178.396739 87.6901596,179.55163 C88.4361702,180.706522 88.1648936,182.269022 87.0119681,183.016304 C86.7406915,183.152174 86.537234,183.288043 86.1981383,183.355978 C86.9441489,183.695652 87.4867021,184.375 87.6223404,185.190217 C87.8257979,186.548913 86.9441489,187.839674 85.587766,188.111413 C84.7739362,188.247283 83.9601064,187.975543 83.4175532,187.36413 C81.3151596,188.994565 78.2632979,188.92663 76.2965426,187.024457 Z" id="Path" fill="#82368C" fill-rule="nonzero"></path>
                    <path d="M208.476064,149.796196 C205.695479,148.709239 204.339096,145.516304 205.424202,142.730978 C206.509309,139.945652 209.696809,138.586957 212.477394,139.673913 C212.545213,139.538043 212.613032,139.334239 212.74867,139.19837 C213.494681,138.043478 215.054521,137.771739 216.207447,138.519022 C217.360372,139.334239 217.631649,140.896739 216.885638,141.983696 C216.75,142.255435 216.546543,142.459239 216.275266,142.595109 C217.089096,142.595109 217.835106,143.002717 218.30984,143.75 C218.988032,144.904891 218.648936,146.467391 217.496011,147.214674 C216.75,147.622283 215.93617,147.690217 215.19016,147.350543 C213.833777,149.796196 210.985372,150.815217 208.476064,149.796196 Z" id="Path" fill="#82368C" fill-rule="nonzero"></path>
                    <path d="M203.864362,151.358696 C204.81383,148.505435 207.933511,147.01087 210.781915,147.961957 C213.630319,148.913043 215.12234,152.038043 214.172872,154.891304 C214.308511,154.959239 214.511968,155.027174 214.647606,155.163043 C215.868351,155.842391 216.207447,157.404891 215.461436,158.627717 C214.715426,159.782609 213.223404,160.190217 212.00266,159.442935 C211.731383,159.307065 211.527926,159.103261 211.392287,158.899457 C211.392287,159.714674 211.053191,160.529891 210.307181,160.9375 C209.154255,161.684783 207.594415,161.413043 206.848404,160.258152 C206.37367,159.578804 206.305851,158.695652 206.577128,157.94837 C204.203457,156.725543 202.982713,153.940217 203.864362,151.358696 Z" id="Path" fill="#82368C" fill-rule="nonzero"></path>
                    <path d="M54.3909574,151.290761 C57.375,151.154891 59.8843085,153.532609 60.0199468,156.521739 C60.1555851,159.51087 57.7819149,162.024457 54.7978723,162.160326 C54.7978723,162.36413 54.7978723,162.5 54.7300532,162.703804 C54.5265957,164.0625 53.1702128,164.945652 51.8138298,164.741848 C50.4574468,164.470109 49.5757979,163.179348 49.7792553,161.820652 C49.8470745,161.548913 49.9148936,161.277174 50.0505319,161.005435 C49.3045213,161.345109 48.4228723,161.277174 47.7446809,160.733696 C46.5917553,159.918478 46.3204787,158.355978 47.1343085,157.201087 C47.6090426,156.521739 48.4228723,156.11413 49.168883,156.11413 C49.5079787,153.532609 51.6781915,151.42663 54.3909574,151.290761 Z" id="Path" fill="#82368C" fill-rule="nonzero"></path>
                    <path d="M51.6103723,156.182065 C48.8297872,157.336957 45.6422872,156.046196 44.4893617,153.26087 C43.3364362,150.475543 44.625,147.282609 47.4055851,146.127717 C47.337766,145.991848 47.2699468,145.788043 47.2699468,145.584239 C46.9986702,144.225543 47.8803191,142.934783 49.3045213,142.663043 C50.6609043,142.391304 51.9494681,143.342391 52.2207447,144.701087 C52.2885638,144.972826 52.2885638,145.244565 52.2207447,145.584239 C52.831117,145.040761 53.6449468,144.769022 54.4587766,145.040761 C55.8151596,145.380435 56.6289894,146.73913 56.2898936,148.097826 C56.0864362,148.913043 55.4760638,149.524457 54.7978723,149.796196 C55.4082447,152.377717 54.1196809,155.095109 51.6103723,156.182065 Z" id="Path" fill="#82368C" fill-rule="nonzero"></path>
                    <path d="M151.575798,199.86413 C152.18617,202.785326 150.287234,205.706522 147.371011,206.317935 C144.454787,206.929348 141.538564,205.095109 140.928191,202.105978 C140.724734,202.173913 140.589096,202.173913 140.385638,202.173913 C138.961436,202.173913 137.87633,201.019022 137.944149,199.660326 C137.944149,198.30163 139.097074,197.146739 140.453457,197.214674 C140.724734,197.214674 140.996011,197.282609 141.267287,197.350543 C140.860372,196.671196 140.792553,195.788043 141.131649,195.040761 C141.742021,193.817935 143.166223,193.206522 144.454787,193.817935 C145.200798,194.157609 145.743351,194.904891 145.878989,195.652174 C148.523936,195.380435 150.965426,197.214674 151.575798,199.86413 Z" id="Path" fill="#82368C" fill-rule="nonzero"></path>
                    <path d="M157.679521,202.445652 C154.763298,203.192935 151.779255,201.494565 151.033245,198.57337 C150.287234,195.652174 151.982713,192.730978 154.898936,191.915761 C154.831117,191.711957 154.831117,191.576087 154.831117,191.372283 C154.763298,190.013587 155.848404,188.858696 157.272606,188.790761 C158.628989,188.722826 159.849734,189.809783 159.849734,191.236413 C159.849734,191.508152 159.849734,191.779891 159.714096,192.119565 C160.392287,191.644022 161.273936,191.508152 162.019947,191.847826 C163.308511,192.391304 163.918883,193.817935 163.37633,195.108696 C163.037234,195.855978 162.359043,196.399457 161.613032,196.603261 C161.952128,199.252717 160.324468,201.766304 157.679521,202.445652 Z" id="Path" fill="#82368C" fill-rule="nonzero"></path>
                    <path d="M217.428191,105.095109 C219.9375,106.725543 220.615691,110.122283 218.988032,112.63587 C217.360372,115.149457 213.969415,115.828804 211.460106,114.19837 C211.392287,114.334239 211.256649,114.470109 211.121011,114.605978 C210.103723,115.557065 208.543883,115.557065 207.594415,114.538043 C206.644947,113.519022 206.644947,111.956522 207.662234,111.005435 C207.865691,110.80163 208.136968,110.665761 208.340426,110.529891 C207.526596,110.326087 206.916223,109.782609 206.577128,108.967391 C206.102394,107.67663 206.780585,106.25 208.069149,105.774457 C208.882979,105.502717 209.696809,105.638587 210.307181,106.046196 C212.206117,104.076087 215.19016,103.600543 217.428191,105.095109 Z" id="Path" fill="#82368C" fill-rule="nonzero"></path>
                    <path d="M222.243351,104.55163 C220.75133,107.133152 217.360372,108.016304 214.783245,106.453804 C212.206117,104.959239 211.324468,101.630435 212.884309,98.9809783 C212.74867,98.9130435 212.613032,98.7771739 212.477394,98.6413043 C211.460106,97.6902174 211.392287,96.1277174 212.341755,95.1086957 C213.291223,94.0896739 214.851064,94.0217391 215.868351,94.9728261 C216.071809,95.1766304 216.275266,95.3804348 216.410904,95.6521739 C216.546543,94.8369565 217.089096,94.1576087 217.902926,93.8179348 C219.191489,93.2744565 220.615691,93.8858696 221.158245,95.1766304 C221.49734,95.923913 221.361702,96.8070652 220.954787,97.486413 C222.989362,99.1847826 223.599734,102.173913 222.243351,104.55163 Z" id="Path" fill="#82368C" fill-rule="nonzero"></path>
                    <path d="M113.12234,197.282609 C114.546543,194.633152 117.869681,193.682065 120.514628,195.17663 C123.159574,196.603261 124.109043,199.932065 122.617021,202.581522 C122.75266,202.649457 122.888298,202.785326 123.091755,202.921196 C124.176862,203.804348 124.244681,205.434783 123.295213,206.453804 C122.345745,207.472826 120.785904,207.608696 119.768617,206.657609 C119.56516,206.453804 119.361702,206.25 119.226064,205.978261 C119.090426,206.793478 118.615691,207.472826 117.801862,207.8125 C116.513298,208.355978 115.089096,207.8125 114.478723,206.589674 C114.139628,205.842391 114.207447,204.959239 114.614362,204.279891 C112.511968,202.581522 111.833777,199.660326 113.12234,197.282609 Z" id="Path" fill="#82368C" fill-rule="nonzero"></path>
                    <path d="M112.172872,192.527174 C114.885638,193.817935 115.970745,197.078804 114.682181,199.796196 C113.393617,202.513587 110.138298,203.600543 107.425532,202.309783 C107.357713,202.445652 107.222074,202.649457 107.154255,202.785326 C106.272606,203.872283 104.712766,204.076087 103.62766,203.192935 C102.542553,202.309783 102.406915,200.747283 103.220745,199.660326 C103.424202,199.456522 103.62766,199.252717 103.831117,199.116848 C103.017287,199.048913 102.271277,198.57337 101.932181,197.758152 C101.321809,196.535326 101.796543,195.040761 103.017287,194.361413 C103.763298,194.021739 104.644947,194.021739 105.323138,194.361413 C106.81516,192.1875 109.731383,191.304348 112.172872,192.527174 Z" id="Path" fill="#82368C" fill-rule="nonzero"></path>
                    <path d="M191.317819,180.910326 C188.333777,180.502717 186.299202,177.717391 186.706117,174.796196 C187.113032,171.807065 189.825798,169.769022 192.80984,170.17663 C192.80984,169.972826 192.87766,169.836957 192.945479,169.633152 C193.420213,168.342391 194.844415,167.663043 196.200798,168.206522 C197.489362,168.682065 198.167553,170.17663 197.625,171.467391 C197.489362,171.73913 197.353723,172.01087 197.218085,172.214674 C197.964096,172.01087 198.845745,172.282609 199.456117,172.894022 C200.405585,173.845109 200.473404,175.475543 199.456117,176.42663 C198.845745,177.038043 198.031915,177.241848 197.285904,177.105978 C196.539894,179.55163 194.030585,181.25 191.317819,180.910326 Z" id="Path" fill="#82368C" fill-rule="nonzero"></path>
                    <path d="M178.906915,182.472826 C179.178191,179.483696 181.823138,177.309783 184.807181,177.581522 C187.791223,177.853261 189.961436,180.502717 189.69016,183.491848 C189.893617,183.491848 190.029255,183.559783 190.232713,183.627717 C191.589096,184.035326 192.267287,185.461957 191.860372,186.752717 C191.453457,188.043478 190.029255,188.790761 188.740691,188.383152 C188.469415,188.315217 188.198138,188.179348 187.994681,187.975543 C188.198138,188.722826 187.994681,189.605978 187.452128,190.217391 C186.50266,191.236413 184.942819,191.304348 183.925532,190.421196 C183.31516,189.877717 183.043883,189.0625 183.111702,188.247283 C180.466755,187.63587 178.703457,185.190217 178.906915,182.472826 Z" id="Path" fill="#82368C" fill-rule="nonzero"></path>
                    <path d="M45.3710106,113.247283 C42.8617021,114.877717 42.1835106,118.274457 43.8111702,120.788043 C45.4388298,123.30163 48.8297872,123.980978 51.3390957,122.350543 C51.4069149,122.486413 51.5425532,122.622283 51.6781915,122.758152 C52.6954787,123.709239 54.2553191,123.709239 55.2047872,122.690217 C56.1542553,121.671196 56.1542553,120.108696 55.1369681,119.157609 C54.9335106,118.953804 54.662234,118.817935 54.4587766,118.682065 C55.2726064,118.478261 55.8829787,117.934783 56.2220745,117.119565 C56.6968085,115.828804 56.018617,114.402174 54.7300532,113.92663 C53.9162234,113.654891 53.1023936,113.790761 52.4920213,114.19837 C50.6609043,112.160326 47.6768617,111.752717 45.3710106,113.247283 Z" id="Path" fill="#82368C" fill-rule="nonzero"></path>
                    <path d="M40.6236702,112.63587 C42.1156915,115.217391 45.5066489,116.100543 48.0837766,114.538043 C50.6609043,113.043478 51.5425532,109.714674 49.9827128,107.065217 C50.1183511,106.997283 50.2539894,106.861413 50.3896277,106.725543 C51.4069149,105.774457 51.474734,104.211957 50.525266,103.192935 C49.5757979,102.173913 48.0159574,102.105978 46.9986702,103.057065 C46.7952128,103.26087 46.5917553,103.464674 46.456117,103.736413 C46.3204787,102.921196 45.7779255,102.241848 44.9640957,101.902174 C43.6755319,101.358696 42.2513298,101.970109 41.7087766,103.26087 C41.3696809,104.008152 41.5053191,104.891304 41.912234,105.570652 C39.8098404,107.269022 39.2672872,110.258152 40.6236702,112.63587 Z" id="Path" fill="#82368C" fill-rule="nonzero"></path>
                    <ellipse id="Oval" fill="#FFFFFF" fill-rule="nonzero" transform="translate(173.830916, 60.186365) rotate(-39.473240) translate(-173.830916, -60.186365) " cx="173.830916" cy="60.1863655" rx="5.08979977" ry="3.73374091"></ellipse>
                    <path d="M197.014628,99.1168478 C193.962766,96.875 194.234043,93.8858696 186.773936,86.6847826 C183.043883,83.0842391 177.482713,79.7554348 175.176862,74.8641304 C173.549202,71.3994565 175.3125,66.5081522 178.906915,64.6059783 C183.586436,62.0923913 190.232713,67.5271739 195.386968,75.8831522 C199.659574,83.0163043 201.761968,102.513587 197.014628,99.1168478 Z" id="Path" fill="#FFFFFF" fill-rule="nonzero"></path>
                </g>
            </g>
        </g>
    </g>
</svg>