<?xml version="1.0" encoding="UTF-8"?>
<svg width="320px" height="276px" viewBox="0 0 320 276" version="1.1" xmlns="http://www.w3.org/2000/svg" xmlns:xlink="http://www.w3.org/1999/xlink">
    <!-- Generator: Sketch 63 (92445) - https://sketch.com -->
    <title>metge-A</title>
    <desc>Created with Sketch.</desc>
    <g id="Media" stroke="none" stroke-width="1" fill="none" fill-rule="evenodd">
        <g id="metge-A">
            <g id="Brillo" transform="translate(41.105089, 118.357143)">
                <path d="M128.098554,125.470055 C128.098554,125.470055 123.497554,152.69011 128.098554,154.217308 C132.699554,155.744505 211.656,157.361538 213.052732,154.217308 C214.449464,151.073077 198.756768,125.470055 195.634661,125.470055 C192.512554,125.470055 128.098554,125.470055 128.098554,125.470055" id="Path" stroke="#706F6F" fill="#F6F6F6" fill-rule="nonzero"></path>
                <polyline id="Path" stroke="#706F6F" fill="#C6C6C6" fill-rule="nonzero" points="196.867071 110.826923 42.9800536 110.826923 42.9800536 125.649725 118.567911 125.649725 196.867071 125.649725 196.867071 110.826923"></polyline>
                <path d="M126.126696,144.425275 C126.126696,144.425275 135.164375,147.210165 147.488482,147.210165 C159.812589,147.210165 176.902018,147.210165 187.50075,147.210165 C198.099482,147.210165 209.109018,145.772802 209.109018,145.772802" id="Path" stroke="#82CAC6"></path>
                <path d="M187.089946,132.567033 C182.817589,129.782143 175.258804,131.309341 179.366839,134.094231 C183.474875,136.968956 187.089946,132.567033 187.089946,132.567033 Z" id="Path" stroke="#82CAC6"></path>
                <path d="M187.089946,132.477198 C190.376375,128.34478 198.017321,127.266758 194.895214,131.309341 C191.773107,135.351923 187.089946,132.477198 187.089946,132.477198 Z" id="Path" stroke="#82CAC6"></path>
                <path d="M187.089946,132.477198 C187.089946,132.477198 186.843464,134.273901 186.104018,135.711264 C185.364571,137.148626 183.885679,138.94533 183.885679,138.94533" id="Path" fill="#F6F6F6" fill-rule="nonzero"></path>
                <path d="M187.089946,132.477198 C187.089946,132.477198 187.336429,133.91456 188.158036,134.992582 C188.979643,136.070604 190.705018,137.507967 190.705018,137.507967" id="Path" stroke="#82CAC6"></path>
                <path d="M187.089946,132.477198 C187.089946,132.477198 186.843464,134.273901 186.104018,135.711264 C185.364571,137.148626 183.885679,138.94533 183.885679,138.94533" id="Path" stroke="#82CAC6"></path>
                <path d="M45.2805536,125.919231 C45.2805536,125.919231 40.6795536,153.139286 45.2805536,154.666484 C49.8815536,156.193681 128.838,157.810714 130.234732,154.666484 C131.631464,151.522253 115.938768,125.919231 112.816661,125.919231 C109.694554,125.919231 45.2805536,125.919231 45.2805536,125.919231" id="Path" stroke="#706F6F" fill="#F6F6F6" fill-rule="nonzero"></path>
                <path d="M43.2265357,144.874451 C43.2265357,144.874451 52.2642143,147.659341 64.5883214,147.659341 C76.9124286,147.659341 94.0018571,147.659341 104.600589,147.659341 C115.199321,147.659341 126.208857,146.221978 126.208857,146.221978" id="Path" stroke="#82CAC6"></path>
                <path d="M104.189786,133.016209 C99.9174286,130.231319 92.3586429,131.758516 96.4666786,134.543407 C100.574714,137.418132 104.189786,133.016209 104.189786,133.016209 Z" id="Path" stroke="#82CAC6"></path>
                <path d="M104.271946,132.926374 C107.558375,128.793956 115.199321,127.715934 112.077214,131.758516 C108.872946,135.801099 104.271946,132.926374 104.271946,132.926374 Z" id="Path" stroke="#82CAC6"></path>
                <path d="M104.271946,132.926374 C104.271946,132.926374 104.025464,134.723077 103.286018,136.16044 C102.546571,137.597802 101.067679,139.394505 101.067679,139.394505" id="Path" fill="#F6F6F6" fill-rule="nonzero"></path>
                <path d="M104.271946,132.926374 C104.271946,132.926374 104.518429,134.363736 105.340036,135.441758 C106.161643,136.51978 107.887018,137.957143 107.887018,137.957143" id="Path" stroke="#82CAC6"></path>
                <path d="M104.271946,132.926374 C104.271946,132.926374 104.025464,134.723077 103.286018,136.16044 C102.546571,137.597802 101.067679,139.394505 101.067679,139.394505" id="Path" stroke="#82CAC6"></path>
                <path d="M47.3345714,0.15 C47.3345714,0.15 42.0762857,49.739011 42.0762857,71.9282967 C42.0762857,94.1175824 42.0762857,119.451099 42.0762857,119.451099 L198.510286,119.451099 L188.486679,6.16895604 L47.3345714,0.15 Z" id="Path" stroke="#706F6F" fill="#F6F6F6" fill-rule="nonzero"></path>
                <path d="M59.5765179,15.8711538 C59.5765179,15.8711538 111.502089,42.1928571 120.293286,44.7082418 C129.084482,47.2236264 154.389982,42.103022 158.662339,40.0368132 C162.934696,37.9706044 184.789446,24.4054945 184.789446,24.4054945 L194.566571,13.2659341 L59.5765179,15.8711538 Z" id="Path" fill="#82CAC6" fill-rule="nonzero"></path>
                <path d="M1.89969643,72.107967 C1.89969643,72.107967 0.502964286,83.517033 1.89969643,85.3137363 C3.29642857,87.2002747 5.43260714,90.1648352 17.0994286,90.7936813 C28.76625,91.4225275 34.9283036,92.5005495 37.0644821,85.9425824 C39.2006607,79.3846154 38.2147321,71.568956 38.2147321,71.568956 L1.89969643,72.107967 Z" id="Path" fill="#FBD4C5" fill-rule="nonzero"></path>
                <line x1="9.86928571" y1="89.9851648" x2="9.86928571" y2="81.4508242" id="Path" stroke="#F5AB94"></line>
                <line x1="17.0994286" y1="90.8835165" x2="17.0994286" y2="81.4508242" id="Path" stroke="#F5AB94"></line>
                <line x1="24.740375" y1="90.8835165" x2="24.740375" y2="82.5288462" id="Path" stroke="#F5AB94"></line>
                <path d="M234.907482,82.7983516 C234.907482,82.7983516 236.304214,94.2074176 234.907482,96.0041209 C233.51075,97.8906593 231.374571,100.85522 219.70775,101.484066 C208.040929,102.112912 201.878875,103.190934 199.742696,96.632967 C197.606518,90.075 198.592446,82.2593407 198.592446,82.2593407 L234.907482,82.7983516 Z" id="Path" fill="#FBD4C5" fill-rule="nonzero"></path>
                <line x1="226.937893" y1="100.585714" x2="226.937893" y2="92.0513736" id="Path" stroke="#F5AB94"></line>
                <line x1="220.529357" y1="101.484066" x2="220.529357" y2="92.0513736" id="Path" stroke="#F5AB94"></line>
                <line x1="212.888411" y1="101.484066" x2="212.888411" y2="93.1293956" id="Path" stroke="#F5AB94"></line>
                <path d="M127.934232,44.7980769 C128.509357,50.9967033 129.002321,57.1054945 129.495286,63.3041209 C129.741768,66.3585165 129.906089,69.5027473 130.070411,72.5571429 C130.234732,75.6115385 130.399054,78.7557692 130.316893,81.9 C130.152571,88.0986264 129.906089,94.2972527 129.577446,100.495879 C129.248804,106.694505 128.920161,112.893132 128.427196,119.001923 L128.673679,109.748901 L128.920161,100.495879 C129.084482,94.2972527 129.330964,88.0986264 129.495286,81.9898352 C129.577446,78.9354396 129.495286,75.881044 129.330964,72.7368132 L128.838,63.4837912 L128.345036,54.2307692 L127.934232,44.7980769 Z" id="Path" fill="#C6C6C6" fill-rule="nonzero"></path>
                <path d="M196.291946,17.3983516 C196.291946,17.3983516 218.803982,31.9516484 224.801714,40.2164835 C230.799446,48.3914835 236.386375,71.2994505 236.386375,75.1623626 C236.386375,79.0252747 236.386375,82.8881868 236.386375,82.8881868 L192.841196,84.056044 L189.390446,19.1052198 L196.291946,17.3983516 Z" id="Path" stroke="#706F6F" fill="#F6F6F6" fill-rule="nonzero"></path>
                <path d="M40.5152321,6.70796703 C40.5152321,6.70796703 18.0031964,21.2612637 12.0054643,29.5260989 C6.00773214,37.7010989 0.420803571,60.6090659 0.420803571,64.471978 C0.420803571,68.3348901 0.420803571,72.1978022 0.420803571,72.1978022 L43.9659821,73.3656593 L47.4167321,8.41483516 L40.5152321,6.70796703 Z" id="Path" stroke="#706F6F" fill="#F6F6F6" fill-rule="nonzero"></path>
                <path d="M75.8443393,23.9563187 L126.948304,45.1574176 C126.948304,45.1574176 127.276946,52.9730769 122.511625,53.8714286 C117.746304,54.7697802 104.929232,49.8288462 101.396321,47.582967 C97.78125,45.4269231 79.7880536,42.5521978 69.7644464,41.2945055 C59.7408393,40.0368132 51.77125,33.0296703 52.0177321,29.3464286 C52.2642143,25.6631868 75.8443393,23.9563187 75.8443393,23.9563187" id="Path" stroke="#DADADA" fill="#FFFFFF" fill-rule="nonzero"></path>
                <path d="M180.106286,23.9563187 L129.002321,45.1574176 C129.002321,45.1574176 128.673679,52.9730769 133.439,53.8714286 C138.204321,54.7697802 151.021393,49.8288462 154.554304,47.582967 C158.087214,45.3370879 176.162571,42.5521978 186.186179,41.2945055 C196.209786,40.0368132 204.179375,33.0296703 203.932893,29.3464286 C203.60425,25.753022 180.106286,23.9563187 180.106286,23.9563187" id="Path" stroke="#DADADA" fill="#FFFFFF" fill-rule="nonzero"></path>
                <ellipse id="Oval" fill="#82CAC6" fill-rule="nonzero" cx="128.345036" cy="65.1906593" rx="6.326375" ry="6.91730769"></ellipse>
                <ellipse id="Oval" stroke="#FFFFFF" stroke-width="0.2" cx="128.345036" cy="65.1906593" rx="3.77939286" ry="4.13241758"></ellipse>
                <g id="Group" transform="translate(125.715893, 64.112637)" fill="#FFFFFF" fill-rule="nonzero">
                    <ellipse id="Oval" cx="1.06808929" cy="1.07802198" rx="1" ry="1"></ellipse>
                    <ellipse id="Oval" cx="4.19019643" cy="1.07802198" rx="1" ry="1"></ellipse>
                </g>
                <ellipse id="Oval" fill="#82CAC6" fill-rule="nonzero" cx="128.920161" cy="86.6612637" rx="6.326375" ry="6.91730769"></ellipse>
                <ellipse id="Oval" stroke="#FFFFFF" stroke-width="0.2" cx="128.920161" cy="86.6612637" rx="3.77939286" ry="4.13241758"></ellipse>
                <g id="Group" transform="translate(126.537500, 85.673077)" fill="#FFFFFF" fill-rule="nonzero">
                    <ellipse id="Oval" cx="0.821607143" cy="0.988186813" rx="1" ry="1"></ellipse>
                    <ellipse id="Oval" cx="4.025875" cy="0.988186813" rx="1" ry="1"></ellipse>
                </g>
                <line x1="125.715893" y1="119.361264" x2="125.715893" y2="125.470055" id="Path" stroke="#706F6F" fill="#C6C6C6" fill-rule="nonzero"></line>
                <rect id="Rectangle" fill="#82CAC6" fill-rule="nonzero" x="175.833929" y="49.5593407" width="1.56105357" height="8.71401099"></rect>
                <rect id="Rectangle" fill="#706F6F" fill-rule="nonzero" x="177.394982" y="47.4931319" width="1.56105357" height="10.6903846"></rect>
                <path d="M155.375911,58.5428571 L184.953768,58.5428571 C184.953768,58.5428571 186.3505,80.7321429 168.768107,80.7321429 C151.103554,80.7321429 155.375911,58.5428571 155.375911,58.5428571 Z" id="Path" stroke="#C6C6C6"></path>
            </g>
            <g id="head">
                <path d="M293.443988,86.7353674 C293.443988,86.7353674 300.065073,82.5352469 306.849641,85.2814795 C313.715951,88.0277122 319.192651,91.6624319 319.192651,108.059056 C319.192651,124.455681 308.484477,134.390581 303.825195,137.540671 C299.165913,140.690762 286.005485,150.948748 286.005485,150.948748 C286.005485,150.948748 292.463086,161.287507 287.640321,165.64917 C282.735814,170.091605 273.335508,168.637718 273.335508,168.637718" id="Path" fill="#FBD4C5" fill-rule="nonzero"></path>
                <path d="M299.254763,103.96955 C299.254763,139.174494 275.241588,176.544662 241.475623,195.149553 C220.576786,206.617223 196.973393,207.098384 169.681969,207.098384 C136.079917,207.098384 101.494389,201.404646 78.4646899,184.724399 C70.1871111,178.709887 63.3027881,171.332085 57.7297647,163.232542 C51.7469602,164.836412 44.8626372,164.114671 39.1257014,160.66635 C30.1105166,155.213193 35.5196275,138.933913 35.5196275,138.933913 C35.5196275,138.933913 27.6518298,135.164819 21.9968502,131.636305 C16.3418706,128.107792 0.360406527,117.201476 0.196494075,101.483551 C-0.131330829,85.6854328 7.57255441,77.1047289 21.0953317,77.7462768 C24.455537,77.9066638 28.2255234,78.7085988 32.2413784,79.9916947 C35.6015837,81.0342101 39.1257014,82.3974995 42.4859067,84.0013694 C47.2393678,64.7549307 58.7132394,47.4331358 74.7766597,33.7200482 C98.462009,13.431094 132.146018,0.840715285 169.600013,0.840715285 C241.229755,0.840715285 299.254763,47.0321683 299.254763,103.96955 Z" id="Path" fill="#FBD4C5" fill-rule="nonzero"></path>
                <path d="M176.63675,93.2980074 C176.63675,97.2889395 175.242757,101.120234 172.700768,104.472617 C172.044771,88.6685263 154.168851,75.9773624 132.274949,75.9773624 C110.381047,75.9773624 92.5871269,88.6685263 91.8491302,104.472617 C89.3071416,101.040416 87.9131478,97.2889395 87.9131478,93.2980074 C87.9131478,78.3719217 107.757059,66.2394883 132.274949,66.2394883 C156.792839,66.2394883 176.63675,78.3719217 176.63675,93.2980074 Z" id="Path" fill="#8D7C74" fill-rule="nonzero"></path>
                <path d="M295.267185,112.521697 C294.696011,117.782625 293.961644,123.043552 292.900891,128.223542 C292.411313,130.813538 291.840139,133.403533 291.105772,135.993528 C290.453001,138.583523 289.473845,141.092581 288.413093,143.520701 C286.209991,148.376942 283.680505,152.990371 281.069422,157.6038 C279.763881,159.870046 278.376743,162.136291 276.989605,164.402537 C275.520871,166.587846 274.133733,168.854091 272.338614,170.877525 C273.97054,168.773154 275.276082,166.506908 276.66322,164.240663 C277.968761,161.974417 279.274303,159.627234 280.579844,157.360988 C283.10933,152.747559 285.557221,148.053193 287.760322,143.277889 C290.045019,138.502586 291.268964,133.403533 292.411313,128.223542 C292.982488,125.633547 293.472066,123.043552 293.961644,120.453557 C294.369625,117.782625 294.777607,115.192629 295.267185,112.521697 Z" id="Path" fill="#F5AB94" fill-rule="nonzero"></path>
                <path d="M299.816586,94.0925673 C299.816586,94.0925673 308.094639,91.6024939 311.571421,96.100691 C316.20713,102.044737 316.621033,112.888605 311.571421,118.993301 C305.445662,126.463521 294.270291,134.656666 294.270291,134.656666" id="Path" stroke="#F5AB94"></path>
                <path d="M300.251657,93.2980074 C300.251657,97.2889395 298.857663,101.120234 296.315675,104.472617 C295.659678,88.6685263 277.783758,75.9773624 255.889856,75.9773624 C233.995954,75.9773624 216.202034,88.6685263 215.464037,104.472617 C212.922048,101.040416 211.528055,97.2889395 211.528055,93.2980074 C211.528055,78.3719217 231.371966,66.2394883 255.889856,66.2394883 C280.407746,66.2394883 300.251657,78.3719217 300.251657,93.2980074 Z" id="Path" fill="#8D7C74" fill-rule="nonzero"></path>
                <ellipse id="Oval" stroke="#575756" fill="#575756" fill-rule="nonzero" cx="132.274949" cy="104.975685" rx="40.3742236" ry="29.6809816"></ellipse>
                <ellipse id="Oval" stroke="#575756" fill="#575756" fill-rule="nonzero" cx="255.889856" cy="103.96955" rx="40.3742236" ry="29.6809816"></ellipse>
                <ellipse id="Oval" fill="#FFFFFF" fill-rule="nonzero" cx="132.274949" cy="104.472617" rx="34.3928571" ry="25.1533742"></ellipse>
                <ellipse id="Oval" fill="#FFFFFF" fill-rule="nonzero" cx="255.889856" cy="104.472617" rx="34.3928571" ry="25.1533742"></ellipse>
                <ellipse id="Oval" fill="#000000" fill-rule="nonzero" cx="154.206626" cy="105.98182" rx="5.48291925" ry="5.53374233"></ellipse>
                <ellipse id="Oval" fill="#000000" fill-rule="nonzero" cx="274.83085" cy="105.98182" rx="5.48291925" ry="5.53374233"></ellipse>
                <polygon id="Path" fill="#575756" fill-rule="nonzero" points="172.556438 99.4419423 215.52888 99.4419423 219.50321 99.4419423 219.50321 108.497157 173.715618 108.497157 169.658489 102.895202"></polygon>
                <polygon id="Path" fill="#575756" fill-rule="nonzero" points="68.972154 100.448077 93.2765018 100.448077 94.8914087 108.497157 72.3634584 108.497157 69.8603528 108.497157"></polygon>
                <path d="M58.0063155,163.83458 C59.7902318,163.171715 61.4119739,162.425991 63.033716,161.431693 C64.574371,160.437395 66.0339389,159.277381 67.3313326,158.034508 C68.7098134,156.708777 69.92612,155.383047 71.2235136,153.974458 C71.8722105,153.311592 72.4398202,152.565869 73.0885171,151.903003 C73.7372139,151.240138 74.3048236,150.494414 74.9535205,149.748691 C73.9804752,151.405854 72.8452557,152.897301 71.7100363,154.388748 C70.5748168,155.880196 69.2774231,157.288785 67.8989423,158.614515 C66.5204615,159.940246 64.9798065,161.100261 63.3580644,162.0117 C61.6552352,162.840282 59.8713189,163.503148 58.0063155,163.83458 Z" id="Path" fill="#F5AB94" fill-rule="nonzero"></path>
                <path d="M42.0560049,84.3499177 C44.0548413,85.1584191 45.9703929,86.1286206 47.8859444,87.0988222 C49.8014959,88.0690238 51.7170475,89.1200755 53.5493142,90.2519773 C55.3815809,91.303029 57.2138475,92.515781 58.9628294,93.8093831 C60.7118112,95.1029852 62.3775082,96.3965873 63.9599203,97.9327398 C65.5423325,99.3880422 66.8748901,101.166745 68.040878,102.945448 C69.2068659,104.724151 70.2895689,106.583704 71.2057023,108.524107 C72.9546841,112.404913 74.2872417,116.44742 74.9535205,120.570777 C74.4538114,118.549523 73.8708174,116.52827 73.1212538,114.507017 C72.3716901,112.566614 71.5388416,110.62621 70.6227083,108.766657 C69.706575,106.907104 68.6238719,105.047551 67.457884,103.349699 C66.2918961,101.651846 64.9593385,99.9539931 63.4602113,98.5795409 C60.4619567,95.6689361 56.8807081,93.1625821 53.2994596,90.8987784 C49.6349262,88.4732744 45.887108,86.371171 42.0560049,84.3499177 Z" id="Path" fill="#8D7C74" fill-rule="nonzero"></path>
                <ellipse id="Oval" fill="#F5AB94" fill-rule="nonzero" cx="204.051347" cy="132.644396" rx="34.3928571" ry="22.1349693"></ellipse>
                <path d="M62.5211232,120.131328 C60.7824838,117.647479 58.7954675,115.243754 56.8912434,112.84003 C54.904227,110.516429 52.8344183,108.192829 50.6818172,106.029477 C48.5292161,103.866125 46.2938227,101.702773 43.8100522,99.8599174 C41.3262817,98.0170619 38.7597189,96.2543306 35.8619866,95.1325925 C33.0470468,94.0108544 29.8181451,93.9307302 26.8376206,94.7319717 C23.857096,95.5332133 21.1249484,97.2158204 19.3863091,99.5394208 C18.4755933,100.741283 17.8960468,102.103394 17.5648774,103.545628 C17.233708,104.987863 17.233708,106.510222 17.3992927,107.952457 C17.5648774,109.394691 17.9788392,110.836926 18.7239703,112.118912 C19.4691014,113.400899 20.3798173,114.602761 21.4561178,115.644375 C23.6087189,117.807727 26.1752818,119.570458 28.7418446,121.172941 C31.3911998,122.775424 34.1233473,124.217659 37.0210795,125.499646 C39.8360194,126.781632 42.7337517,127.983494 45.7142762,128.944984 L46.2938227,129.105232 L46.5421997,129.185357 L46.6249921,129.185357 C46.7077844,129.185357 46.7905768,129.265481 46.7905768,129.265481 C46.8733691,129.345605 46.9561615,129.425729 46.9561615,129.505853 C47.1217462,129.986598 47.0389538,130.387219 47.0389538,130.78784 C47.0389538,131.589081 46.9561615,132.310198 46.8733691,133.11144 C46.7077844,134.633799 46.5421997,136.156158 46.376615,137.598392 C46.2938227,139.120751 46.2110303,140.64311 46.2110303,142.085345 C46.2938227,143.607704 46.376615,145.130063 47.0389538,146.412049 C47.2045385,146.732546 47.3701232,147.053042 47.6185003,147.373539 C47.8668773,147.613911 48.1152544,147.854284 48.4464238,148.094656 C48.6948008,148.335029 49.0259702,148.495277 49.3571396,148.735649 C49.688309,148.895898 50.0194784,149.13627 50.3506478,149.296518 C51.7581178,149.937512 53.24838,150.258008 54.8214347,150.338132 C57.8847516,150.498381 61.0308609,149.617015 63.431839,147.613911 L70.9659428,142.165469 L63.5146314,147.77416 C61.1964456,149.857387 57.8847516,150.899001 54.7386423,150.738753 C53.1655877,150.658629 51.5925331,150.338132 50.1022708,149.697139 C49.7711014,149.536891 49.3571396,149.296518 49.0259702,149.13627 C48.6948008,148.895898 48.3636314,148.735649 48.032462,148.415153 C47.7012926,148.17478 47.3701232,147.934408 47.1217462,147.613911 C46.8733691,147.293415 46.6249921,146.972918 46.4594074,146.572297 C45.7970686,145.130063 45.6314839,143.52758 45.5486915,142.005221 C45.4658992,140.482862 45.5486915,138.960503 45.6314839,137.438144 C45.7142762,135.915785 45.8798609,134.393426 46.0454456,132.871067 C46.128238,132.14995 46.2110303,131.348709 46.2110303,130.627591 C46.2110303,130.307095 46.2110303,129.82635 46.128238,129.666101 C46.128238,129.666101 46.128238,129.666101 46.128238,129.666101 C46.128238,129.666101 46.2110303,129.666101 46.2110303,129.746226 C46.2110303,129.746226 46.128238,129.746226 46.128238,129.746226 L45.7970686,129.666101 L45.2175221,129.505853 C42.2369976,128.464239 39.3392653,127.342501 36.4415331,126.060515 C33.5438009,124.778528 30.8116533,123.336294 28.0795058,121.733811 C25.4301506,120.131328 22.7807954,118.288472 20.545402,116.12512 C19.4691014,115.003382 18.4755933,113.80152 17.6476698,112.359285 C16.8197463,110.997174 16.4885769,109.394691 16.2401998,107.872332 C16.0746151,106.349974 16.0746151,104.747491 16.4885769,103.225132 C16.9025386,101.702773 17.5648774,100.260538 18.4755933,98.9785517 C20.3798173,96.4145789 23.2775495,94.6518476 26.3408665,93.9307302 C29.4041834,93.1294887 32.7986697,93.2096129 35.7791943,94.4114751 L37.9317954,95.372965 L40.0016041,96.5748272 C40.6639429,96.975448 41.3262817,97.4561929 41.9886205,97.8568136 L42.9821287,98.4978068 L43.8928446,99.2189242 C46.376615,101.141904 48.6120085,103.305256 50.7646096,105.468608 C52.9172106,107.712084 54.904227,110.035685 56.8084511,112.439409 C58.9610522,115.083506 60.8652762,117.567355 62.5211232,120.131328 Z" id="Path" fill="#F5AB94" fill-rule="nonzero"></path>
                <path d="M43.0528994,84.5578898 C47.7489299,65.2221116 59.084176,47.8199112 74.9535205,34.0431693 L74.9535205,120.570777 L69.6907277,109.049875 C69.6907277,109.049875 60.2986666,93.8229502 51.6353,89.1501371 C43.0528994,84.5578898 43.0528994,84.5578898 43.0528994,84.5578898 Z" id="Path" fill="#8D7C74" fill-rule="nonzero"></path>
                <path d="M91.9007254,159.81004 C92.0675697,161.755103 92.2344139,163.78121 92.4846803,165.726272 C92.7349467,167.671335 92.901791,169.697441 93.2354795,171.642504 C93.569168,173.587566 93.8194344,175.532629 94.236545,177.477691 C94.6536556,179.422754 95.1541884,181.367816 96.0718318,182.988702 C97.9905407,186.392561 100.743471,189.391199 103.412979,192.389837 C104.747733,193.848634 106.165909,195.307431 107.584085,196.766228 C109.002261,198.225025 110.420437,199.602777 111.838614,201.061574 C108.751995,198.468158 105.748798,195.712652 102.912446,192.876103 C101.49427,191.417306 100.159516,189.958509 98.8247619,188.418668 C97.57343,186.878827 96.3220981,185.257941 95.3210326,183.474967 C94.3199671,181.610949 93.9028565,179.665887 93.4023237,177.720824 C92.9852131,175.775762 92.6515246,173.749655 92.4846803,171.804592 C92.1509918,167.752379 91.9007254,163.78121 91.9007254,159.81004 Z" id="Path" fill="#F5AB94" fill-rule="nonzero"></path>
                <path d="M237.747071,145.724151 C238.625948,150.911589 239.345029,156.178834 240.06411,161.366272 C240.383701,163.999894 240.703293,166.633517 240.942986,169.267139 C241.18268,171.900762 241.502272,174.534384 241.422374,177.168006 C241.422374,179.801629 241.342476,182.435251 241.022884,185.14868 C240.623395,187.782303 240.06411,190.415925 238.865642,192.810127 C237.667173,195.20433 235.90942,197.359112 233.752178,198.955246 C231.594935,200.471574 229.038203,201.509062 226.481471,202.067709 C229.038203,201.269642 231.435139,200.232154 233.512484,198.636019 C235.589829,197.039885 237.187786,194.964909 238.306357,192.570707 C239.345029,190.176505 239.984212,187.622689 240.303803,185.068874 C240.623395,182.515058 240.703293,179.881435 240.703293,177.247813 C240.783191,174.614191 240.543497,171.980568 240.303803,169.426753 L239.504825,161.525885 L237.747071,145.724151 Z" id="Path" fill="#F5AB94" fill-rule="nonzero"></path>
                <path d="M115.826191,154.779366 L116.403341,161.862556 C116.568241,164.196789 116.81559,166.611513 117.06294,168.945746 C117.31029,171.279979 117.557639,173.614212 117.969889,175.948445 C118.134789,177.075317 118.382139,178.282678 118.711938,179.329059 L119.041738,180.133967 C119.124188,180.375439 119.289088,180.616912 119.453987,180.938875 C119.701337,181.42182 120.031137,181.985255 120.360937,182.4682 C122.669534,186.573231 125.390381,190.51728 128.193678,194.380838 C129.595327,196.312617 131.079425,198.163905 132.645974,200.015194 C134.212522,201.785991 135.86152,203.556789 137.757868,205.086114 C135.77907,203.71777 134.047622,202.027464 132.316174,200.337157 C130.667176,198.566359 129.100627,196.715071 127.616529,194.863783 C124.648332,191.080715 122.009935,187.136666 119.536437,182.951145 C119.206638,182.4682 118.959288,181.904764 118.629488,181.341329 C118.464589,181.099856 118.299689,180.858384 118.217239,180.536421 L117.887439,179.651022 C117.557639,178.44366 117.31029,177.316789 117.14539,176.109427 C116.81559,173.775194 116.485791,171.36047 116.320891,169.026237 C115.991091,164.27728 115.826191,159.528323 115.826191,154.779366 Z" id="Path" fill="#F5AB94" fill-rule="nonzero"></path>
                <path d="M261.372775,181.94501 L263.263437,172.69909 C263.865011,169.617116 264.552525,166.535143 264.98222,163.45317 C265.583795,160.371196 265.497855,157.289223 265.669734,154.126145 C265.755673,152.585158 265.755673,150.963067 265.841612,149.42208 C265.927551,147.881094 265.927551,146.259003 265.841612,144.718016 C266.357247,147.799989 266.271308,150.963067 266.357247,154.126145 C266.357247,155.667132 266.357247,157.289223 266.271308,158.83021 C266.271308,160.371196 266.09943,161.993288 265.841612,163.534274 C265.325977,166.616248 264.638464,169.698221 263.865011,172.780194 C263.177498,175.862168 262.318106,178.944141 261.372775,181.94501 Z" id="Path" fill="#F5AB94" fill-rule="nonzero"></path>
                <path d="M154.315911,150.754826 L152.636651,166.499054 L151.837003,174.411128 C151.597108,177.048486 151.357214,179.685844 151.437179,182.243282 C151.437179,184.88064 151.437179,187.517998 151.837003,190.075437 C152.156862,192.632875 152.79658,195.190313 153.836123,197.587911 C154.875665,199.985509 156.554925,202.063428 158.63401,203.661827 C160.713095,205.260225 163.112038,206.299185 165.670912,207.098384 C163.112038,206.459024 160.553165,205.499985 158.394116,203.981506 C156.235066,202.463027 154.475841,200.305189 153.276369,197.827671 C152.076897,195.430073 151.437179,192.792715 151.11732,190.155357 C150.717496,187.517998 150.717496,184.88064 150.717496,182.163362 C150.717496,179.526004 150.95739,176.808726 151.197284,174.251288 C151.437179,171.61393 151.757038,168.976572 152.076897,166.339214 C152.636651,161.144418 153.436299,155.949622 154.315911,150.754826 Z" id="Path" fill="#F5AB94" fill-rule="nonzero"></path>
                <path d="M151.71439,174.147464 C151.71439,174.147464 173.629529,176.914335 195.544667,176.914335 C217.459806,176.914335 240.437993,171.88366 240.437993,171.88366" id="Path" stroke="#F5AB94"></path>
                <ellipse id="Oval" fill="#F5AB94" fill-rule="nonzero" cx="172.649173" cy="144.214948" rx="9.9689441" ry="6.5398773"></ellipse>
                <ellipse id="Oval" fill="#F5AB94" fill-rule="nonzero" cx="235.45352" cy="140.190409" rx="9.9689441" ry="6.5398773"></ellipse>
                <ellipse id="Oval" fill="#FFFFFF" fill-rule="nonzero" transform="translate(207.552626, 16.438469) rotate(-60.607603) translate(-207.552626, -16.438469) " cx="207.552626" cy="16.4384693" rx="6.86613855" ry="5.06259325"></ellipse>
                <path d="M256.017587,53.0390306 C251.062767,51.7705065 249.925595,47.9649339 236.929345,42.7322716 C230.43122,40.1159405 221.821204,38.7681336 216.460251,33.8526024 C212.723829,30.3641609 212.480149,23.5458434 216.135344,19.5024225 C220.846485,14.1904775 231.893298,17.5996363 242.452751,25.4486296 C251.387673,32.0290988 263.571658,55.0210997 256.017587,53.0390306 Z" id="Path" fill="#FFFFFF" fill-rule="nonzero"></path>
                <ellipse id="Oval" fill="#FFFFFF" fill-rule="nonzero" cx="153.209732" cy="104.975685" rx="2.49223602" ry="2.51533742"></ellipse>
                <ellipse id="Oval" fill="#FFFFFF" fill-rule="nonzero" cx="272.837061" cy="104.975685" rx="2.49223602" ry="2.51533742"></ellipse>
            </g>
        </g>
    </g>
</svg>