<?xml version="1.0" encoding="UTF-8"?>
<svg width="381px" height="270px" viewBox="0 0 381 270" version="1.1" xmlns="http://www.w3.org/2000/svg" xmlns:xlink="http://www.w3.org/1999/xlink">
    <!-- Generator: Sketch 63 (92445) - https://sketch.com -->
    <title>metge copy 3</title>
    <desc>Created with Sketch.</desc>
    <g id="Media" stroke="none" stroke-width="1" fill="none" fill-rule="evenodd">
        <g id="metge-copy-3" transform="translate(190.000000, 137.000000) rotate(-18.000000) translate(-190.000000, -137.000000) translate(-6.000000, 7.000000)">
            <g id="Brillo">
                <path d="M360.237949,108.387726 C360.237949,108.387726 368.379487,103.144785 376.722051,106.572861 C385.165128,110.000938 391.899487,114.538099 391.899487,135.005735 C391.899487,155.47337 378.732308,167.874943 373.003077,171.807148 C367.273846,175.739354 351.091282,188.54423 351.091282,188.54423 C351.091282,188.54423 359.031795,201.449931 353.101538,206.894524 C347.070769,212.439942 335.511795,210.625078 335.511795,210.625078" id="Path" fill="#FBD4C5" fill-rule="nonzero"></path>
                <path d="M367.77641,129.863619 C367.77641,174.126142 338.326154,221.11096 296.914872,244.502544 C271.284103,258.920632 242.33641,259.525587 208.865641,259.525587 C167.655385,259.525587 125.238974,252.366956 96.9948718,231.395191 C86.8430769,223.833257 78.4,214.557284 71.5651282,204.373879 C64.2276923,206.390395 55.7846154,205.482963 48.7487179,201.147454 C37.6923077,194.2913 44.3261538,173.823664 44.3261538,173.823664 C44.3261538,173.823664 34.6769231,169.084852 27.7415385,164.648517 C20.8061538,160.212182 1.20615385,146.499875 1.00512821,126.73802 C0.603076923,106.875339 10.0512821,96.0869791 26.6358974,96.8935855 C30.7569231,97.0952371 35.3805128,98.103495 40.305641,99.7167076 C44.4266667,101.027443 48.7487179,102.741481 52.8697436,104.757997 C58.6994872,80.5598073 72.7712821,58.7814363 92.4717949,41.540226 C121.52,16.0313008 162.830769,0.201651583 208.765128,0.201651583 C296.613333,0.201651583 367.77641,58.2773074 367.77641,129.863619 Z" id="Path" fill="#FBD4C5" fill-rule="nonzero"></path>
                <path d="M217.208205,115.445531 C217.208205,120.486821 215.499487,125.326459 212.38359,129.561142 C211.579487,109.597635 189.667692,93.5663344 162.830769,93.5663344 C135.993846,93.5663344 114.182564,109.597635 113.277949,129.561142 C110.162051,125.225633 108.453333,120.486821 108.453333,115.445531 C108.453333,96.5911081 132.777436,81.2655878 162.830769,81.2655878 C192.884103,81.2655878 217.208205,96.5911081 217.208205,115.445531 Z" id="Path" fill="#8D7C74" fill-rule="nonzero"></path>
                <path d="M362.851282,140.651979 C362.147692,147.205655 361.243077,153.759332 359.93641,160.212182 C359.333333,163.438608 358.629744,166.665033 357.725128,169.891458 C356.921026,173.117884 355.714872,176.243483 354.408205,179.268257 C351.694359,185.317804 348.578462,191.064875 345.362051,196.811945 C343.753846,199.635067 342.045128,202.458189 340.33641,205.281311 C338.527179,208.003608 336.818462,210.82673 334.607179,213.347374 C336.617436,210.725904 338.225641,207.902782 339.934359,205.07966 C341.542564,202.256537 343.150769,199.332589 344.758974,196.509467 C347.874872,190.762397 350.890256,184.914501 353.604103,178.96578 C356.418462,173.017058 357.926154,166.665033 359.333333,160.212182 C360.036923,156.985757 360.64,153.759332 361.243077,150.532906 C361.745641,147.205655 362.248205,143.97923 362.851282,140.651979 Z" id="Path" fill="#F5AB94" fill-rule="nonzero"></path>
                <path d="M367.77641,116.756266 C367.77641,116.756266 377.827692,113.630667 382.049231,119.276911 C387.677949,126.73802 388.180513,140.349502 382.049231,148.012262 C374.611282,157.38906 361.042051,167.673291 361.042051,167.673291" id="Path" stroke="#F5AB94"></path>
                <path d="M368.580513,115.445531 C368.580513,120.486821 366.871795,125.326459 363.755897,129.561142 C362.951795,109.597635 341.04,93.5663344 314.203077,93.5663344 C287.366154,93.5663344 265.554872,109.597635 264.650256,129.561142 C261.534359,125.225633 259.825641,120.486821 259.825641,115.445531 C259.825641,96.5911081 284.149744,81.2655878 314.203077,81.2655878 C344.25641,81.2655878 368.580513,96.5911081 368.580513,115.445531 Z" id="Path" fill="#8D7C74" fill-rule="nonzero"></path>
                <ellipse id="Oval" stroke="#575756" fill="#575756" fill-rule="nonzero" cx="162.830769" cy="130.468574" rx="49.5528205" ry="37.204717"></ellipse>
                <ellipse id="Oval" stroke="#575756" fill="#575756" fill-rule="nonzero" cx="314.203077" cy="129.863619" rx="49.5528205" ry="37.204717"></ellipse>
                <ellipse id="Oval" fill="#FFFFFF" fill-rule="nonzero" cx="162.830769" cy="129.863619" rx="42.4164103" ry="31.8609501"></ellipse>
                <ellipse id="Oval" fill="#FFFFFF" fill-rule="nonzero" cx="314.203077" cy="129.863619" rx="42.4164103" ry="31.8609501"></ellipse>
                <ellipse id="Oval" fill="#000000" fill-rule="nonzero" cx="190.371282" cy="132.182612" rx="6.73435897" ry="6.75532802"></ellipse>
                <ellipse id="Oval" fill="#000000" fill-rule="nonzero" cx="337.924103" cy="132.182612" rx="6.73435897" ry="6.75532802"></ellipse>
                <polygon id="Path" fill="#575756" fill-rule="nonzero" points="212.38359 123.511594 264.549744 123.511594 269.374359 123.511594 269.374359 135.409038 213.790769 135.409038 208.865641 128.048755"></polygon>
                <polygon id="Path" fill="#575756" fill-rule="nonzero" points="84.8328205 125.427284 115.087179 125.427284 117.097436 135.409038 89.054359 135.409038 85.9384615 135.409038"></polygon>
                <path d="M71.4646154,204.373879 C73.6758974,203.567273 75.6861538,202.659841 77.6964103,201.449931 C79.6061538,200.240022 81.4153846,198.828461 83.0235897,197.316074 C84.7323077,195.702861 86.24,194.089648 87.8482051,192.37561 C88.6523077,191.569004 89.3558974,190.661571 90.16,189.854965 C90.9641026,189.048359 91.6676923,188.140927 92.4717949,187.233495 C91.265641,189.25001 89.8584615,191.064875 88.4512821,192.879739 C87.0441026,194.694603 85.4358974,196.408642 83.7271795,198.021854 C82.0184615,199.635067 80.1087179,201.046628 78.0984615,202.155712 C75.9876923,203.16397 73.7764103,203.970576 71.4646154,204.373879 Z" id="Path" fill="#F5AB94" fill-rule="nonzero"></path>
                <path d="M52.8697436,104.757997 C55.2820513,105.766255 57.5938462,106.976165 59.905641,108.186074 C62.2174359,109.395984 64.5292308,110.706719 66.7405128,112.11828 C68.9517949,113.429015 71.1630769,114.941402 73.2738462,116.554615 C75.3846154,118.167827 77.3948718,119.78104 79.3046154,121.69673 C81.214359,123.511594 82.8225641,125.729762 84.2297436,127.947929 C85.6369231,130.166097 86.9435897,132.48509 88.0492308,134.904909 C90.16,139.744547 91.7682051,144.785836 92.5723077,149.927952 C91.9692308,147.407307 91.265641,144.886662 90.3610256,142.366017 C89.4564103,139.946198 88.4512821,137.526379 87.345641,135.207386 C86.24,132.888393 84.9333333,130.5694 83.5261538,128.452058 C82.1189744,126.334717 80.5107692,124.217375 78.7015385,122.503336 C75.0830769,118.873608 70.7610256,115.748008 66.4389744,112.924886 C62.0164103,109.900113 57.4933333,107.278642 52.8697436,104.757997 Z" id="Path" fill="#8D7C74" fill-rule="nonzero"></path>
                <ellipse id="Oval" fill="#F5AB94" fill-rule="nonzero" cx="251.081026" cy="164.950995" rx="42.2153846" ry="27.9287442"></ellipse>
                <path d="M77.294359,149.827126 C75.1835897,146.701526 72.7712821,143.676753 70.4594872,140.651979 C68.0471795,137.728031 65.534359,134.804083 62.9210256,132.081787 C60.3076923,129.35949 57.5938462,126.637194 54.5784615,124.318201 C51.5630769,121.999208 48.4471795,119.78104 44.9292308,118.369479 C41.5117949,116.957918 37.5917949,116.857092 33.9733333,117.86535 C30.3548718,118.873608 27.0379487,120.99095 24.9271795,123.914898 C23.8215385,125.427284 23.1179487,127.141323 22.7158974,128.956187 C22.3138462,130.771051 22.3138462,132.686741 22.5148718,134.501606 C22.7158974,136.31647 23.2184615,138.131334 24.1230769,139.744547 C25.0276923,141.357759 26.1333333,142.870146 27.44,144.180882 C30.0533333,146.903178 33.1692308,149.121345 36.2851282,151.137861 C39.5015385,153.154377 42.8184615,154.969241 46.3364103,156.582454 C49.7538462,158.195667 53.2717949,159.708053 56.8902564,160.917963 L57.5938462,161.119615 L57.8953846,161.22044 L57.9958974,161.22044 C58.0964103,161.22044 58.1969231,161.321266 58.1969231,161.321266 C58.2974359,161.422092 58.3979487,161.522918 58.3979487,161.623744 C58.5989744,162.228698 58.4984615,162.732827 58.4984615,163.236956 C58.4984615,164.245214 58.3979487,165.152646 58.2974359,166.160904 C58.0964103,168.076594 57.8953846,169.992284 57.694359,171.807148 C57.5938462,173.722838 57.4933333,175.638529 57.4933333,177.453393 C57.5938462,179.369083 57.694359,181.284773 58.4984615,182.897985 C58.6994872,183.301289 58.9005128,183.704592 59.2020513,184.107895 C59.5035897,184.410372 59.8051282,184.71285 60.2071795,185.015327 C60.5087179,185.317804 60.9107692,185.519456 61.3128205,185.821933 C61.7148718,186.023585 62.1169231,186.326062 62.5189744,186.527714 C64.2276923,187.33432 66.0369231,187.737623 67.9466667,187.838449 C71.665641,188.040101 75.4851282,186.931017 78.4,184.410372 L87.5466667,177.554219 L78.5005128,184.612024 C75.6861538,187.233495 71.665641,188.54423 67.8461538,188.342578 C65.9364103,188.241752 64.0266667,187.838449 62.2174359,187.031843 C61.8153846,186.830191 61.3128205,186.527714 60.9107692,186.326062 C60.5087179,186.023585 60.1066667,185.821933 59.7046154,185.41863 C59.3025641,185.116153 58.9005128,184.813676 58.5989744,184.410372 C58.2974359,184.007069 57.9958974,183.603766 57.7948718,183.099637 C56.9907692,181.284773 56.7897436,179.268257 56.6892308,177.352567 C56.5887179,175.436877 56.6892308,173.521187 56.7897436,171.605497 C56.8902564,169.689807 57.0912821,167.774117 57.2923077,165.858427 C57.3928205,164.950995 57.4933333,163.942737 57.4933333,163.035305 C57.4933333,162.632001 57.4933333,162.027047 57.3928205,161.825395 C57.3928205,161.825395 57.3928205,161.825395 57.3928205,161.825395 C57.3928205,161.825395 57.4933333,161.825395 57.4933333,161.926221 C57.4933333,161.926221 57.3928205,161.926221 57.3928205,161.926221 L56.9907692,161.825395 L56.2871795,161.623744 C52.6687179,160.313008 49.1507692,158.901447 45.6328205,157.288234 C42.1148718,155.675022 38.7979487,153.860158 35.4810256,151.843642 C32.2646154,149.827126 29.0482051,147.508133 26.334359,144.785836 C25.0276923,143.374275 23.8215385,141.861888 22.8164103,140.047024 C21.8112821,138.332986 21.4092308,136.31647 21.1076923,134.40078 C20.9066667,132.48509 20.9066667,130.468574 21.4092308,128.552884 C21.9117949,126.637194 22.7158974,124.82233 23.8215385,123.209117 C26.1333333,119.982692 29.6512821,117.764524 33.3702564,116.857092 C37.0892308,115.848834 41.2102564,115.94966 44.8287179,117.462047 L47.4420513,118.671956 L49.9548718,120.184343 C50.7589744,120.688472 51.5630769,121.293427 52.3671795,121.797556 L53.5733333,122.604162 L54.6789744,123.511594 C57.694359,125.931413 60.4082051,128.65371 63.0215385,131.376006 C65.6348718,134.199128 68.0471795,137.123076 70.3589744,140.14785 C72.9723077,143.475101 75.2841026,146.600701 77.294359,149.827126 Z" id="Path" fill="#F5AB94" fill-rule="nonzero"></path>
                <path d="M52.8697436,104.757997 C58.6994872,80.5598073 72.7712821,58.7814363 92.4717949,41.540226 L92.4717949,149.827126 L85.9384615,135.409038 C85.9384615,135.409038 74.2789744,116.352963 63.5241026,110.505067 C52.8697436,104.757997 52.8697436,104.757997 52.8697436,104.757997 Z" id="Path" fill="#8D7C74" fill-rule="nonzero"></path>
                <path d="M113.177436,199.332589 C113.378462,201.752408 113.579487,204.273053 113.881026,206.692872 C114.182564,209.112691 114.38359,211.633336 114.785641,214.053155 C115.187692,216.472974 115.489231,218.892793 115.991795,221.312612 C116.494359,223.732431 117.097436,226.15225 118.203077,228.168766 C120.514872,232.403449 123.831795,236.134003 127.048205,239.864558 C128.65641,241.679422 130.365128,243.494286 132.073846,245.30915 C133.782564,247.124015 135.491282,248.838053 137.2,250.652917 C133.481026,247.426492 129.862564,243.998415 126.445128,240.469512 C124.73641,238.654648 123.128205,236.839784 121.52,234.924094 C120.012308,233.008404 118.504615,230.991888 117.298462,228.773721 C116.092308,226.454727 115.589744,224.034908 114.986667,221.615089 C114.484103,219.19527 114.082051,216.674626 113.881026,214.254807 C113.478974,209.213517 113.177436,204.273053 113.177436,199.332589 Z" id="Path" fill="#F5AB94" fill-rule="nonzero"></path>
                <path d="M291.989744,181.486424 C293.095385,188.040101 294,194.694603 294.904615,201.24828 C295.306667,204.575531 295.708718,207.902782 296.010256,211.230033 C296.311795,214.557284 296.713846,217.884535 296.613333,221.211786 C296.613333,224.539037 296.512821,227.866288 296.110769,231.294365 C295.608205,234.621616 294.904615,237.948868 293.396923,240.973641 C291.889231,243.998415 289.677949,246.720711 286.964103,248.737227 C284.250256,250.652917 281.033846,251.963653 277.817436,252.669433 C281.033846,251.661175 284.049231,250.35044 286.662564,248.333924 C289.275897,246.317408 291.286154,243.695938 292.693333,240.671164 C294,237.64639 294.804103,234.419965 295.206154,231.19354 C295.608205,227.967114 295.708718,224.639863 295.708718,221.312612 C295.809231,217.985361 295.507692,214.65811 295.206154,211.431684 L294.201026,201.449931 L291.989744,181.486424 Z" id="Path" fill="#F5AB94" fill-rule="nonzero"></path>
                <path d="M143.130256,192.778913 L143.833846,201.651583 C144.034872,204.575531 144.33641,207.600304 144.637949,210.524252 C144.939487,213.4482 145.241026,216.372148 145.74359,219.296096 C145.944615,220.707657 146.246154,222.220044 146.648205,223.530779 L147.050256,224.539037 C147.150769,224.841515 147.351795,225.143992 147.552821,225.547295 C147.854359,226.15225 148.25641,226.858031 148.658462,227.462985 C151.472821,232.605101 154.789744,237.545564 158.207179,242.385202 C159.915897,244.805021 161.725128,247.124015 163.634872,249.443008 C165.544615,251.661175 167.554872,253.879343 169.866667,255.795033 C167.454359,254.080994 165.34359,251.963653 163.232821,249.846311 C161.222564,247.628144 159.312821,245.30915 157.50359,242.990157 C153.885128,238.251345 150.668718,233.310881 147.653333,228.06794 C147.251282,227.462985 146.949744,226.757205 146.547692,226.051424 C146.346667,225.748947 146.145641,225.446469 146.045128,225.043166 L145.643077,223.934083 C145.241026,222.421696 144.939487,221.010135 144.738462,219.497748 C144.33641,216.5738 143.934359,213.549026 143.733333,210.625078 C143.331282,204.676356 143.130256,198.727635 143.130256,192.778913 Z" id="Path" fill="#F5AB94" fill-rule="nonzero"></path>
                <path d="M321.540513,226.656379 L323.751795,215.162239 C324.455385,211.330859 325.259487,207.499479 325.762051,203.668099 C326.465641,199.836718 326.365128,196.005338 326.566154,192.073132 C326.666667,190.157442 326.666667,188.140927 326.767179,186.225237 C326.867692,184.309547 326.867692,182.293031 326.767179,180.377341 C327.370256,184.208721 327.269744,188.140927 327.370256,192.073132 C327.370256,193.988823 327.370256,196.005338 327.269744,197.921028 C327.269744,199.836718 327.068718,201.853234 326.767179,203.768924 C326.164103,207.600304 325.36,211.431684 324.455385,215.263065 C323.651282,219.094445 322.646154,222.925825 321.540513,226.656379 Z" id="Path" fill="#F5AB94" fill-rule="nonzero"></path>
                <path d="M190.371282,188.443404 L188.260513,208.306085 L187.255385,218.287838 C186.953846,221.615089 186.652308,224.94234 186.752821,228.168766 C186.752821,231.496017 186.752821,234.823268 187.255385,238.049693 C187.657436,241.276119 188.461538,244.502544 189.768205,247.527318 C191.074872,250.552091 193.185641,253.173562 195.798974,255.190078 C198.412308,257.206594 201.427692,258.517329 204.644103,259.525587 C201.427692,258.718981 198.211282,257.509071 195.497436,255.593381 C192.78359,253.677691 190.572308,250.955395 189.064615,247.829795 C187.556923,244.805021 186.752821,241.47777 186.350769,238.150519 C185.848205,234.823268 185.848205,231.496017 185.848205,228.06794 C185.848205,224.740689 186.149744,221.312612 186.451282,218.086187 C186.752821,214.758936 187.154872,211.431684 187.556923,208.104433 C188.260513,201.550757 189.265641,194.99708 190.371282,188.443404 Z" id="Path" fill="#F5AB94" fill-rule="nonzero"></path>
                <path d="M186.853333,217.077929 C186.853333,217.077929 213.790769,220.40518 240.728205,220.40518 C267.665641,220.40518 295.909744,214.355632 295.909744,214.355632" id="Path" stroke="#F5AB94"></path>
                <ellipse id="Oval" fill="#F5AB94" fill-rule="nonzero" cx="212.584615" cy="180.377341" rx="12.2625641" ry="8.26771489"></ellipse>
                <ellipse id="Oval" fill="#F5AB94" fill-rule="nonzero" cx="289.778462" cy="175.336051" rx="12.2625641" ry="8.26771489"></ellipse>
                <ellipse id="Oval" fill="#FFFFFF" fill-rule="nonzero" transform="translate(255.242297, 19.562069) rotate(-60.607603) translate(-255.242297, -19.562069) " cx="255.242297" cy="19.5620688" rx="8.56399548" ry="6.23663012"></ellipse>
                <path d="M315.208205,66.0408933 C309.076923,64.4276807 307.669744,59.5880427 291.587692,52.9335405 C283.546667,49.6062893 272.892308,47.8922509 266.258462,41.6410518 C261.634872,37.204717 261.333333,28.5336989 265.85641,23.3915836 C271.686154,16.6362556 285.355897,20.9717646 298.422564,30.9535179 C309.478974,39.3220586 324.555897,68.5615381 315.208205,66.0408933 Z" id="Path" fill="#FFFFFF" fill-rule="nonzero"></path>
                <ellipse id="Oval" fill="#FFFFFF" fill-rule="nonzero" cx="188.461538" cy="130.468574" rx="2.91487179" ry="2.92394795"></ellipse>
                <ellipse id="Oval" fill="#FFFFFF" fill-rule="nonzero" cx="335.511795" cy="130.468574" rx="2.91487179" ry="2.92394795"></ellipse>
                <ellipse id="Oval" fill="#FFFFFF" fill-rule="nonzero" cx="266.258462" cy="148.818868" rx="7.3374359" ry="5.34376694"></ellipse>
            </g>
        </g>
    </g>
</svg>