<?xml version="1.0" encoding="UTF-8"?>
<svg width="327px" height="336px" viewBox="0 0 327 336" version="1.1" xmlns="http://www.w3.org/2000/svg" xmlns:xlink="http://www.w3.org/1999/xlink">
    <!-- Generator: Sketch 63 (92445) - https://sketch.com -->
    <title>metge</title>
    <desc>Created with Sketch.</desc>
    <defs>
        <filter x="-3.5%" y="-3.7%" width="107.0%" height="107.6%" filterUnits="objectBoundingBox" id="filter-1">
            <feOffset dx="0" dy="2" in="SourceAlpha" result="shadowOffsetOuter1"></feOffset>
            <feGaussianBlur stdDeviation="2" in="shadowOffsetOuter1" result="shadowBlurOuter1"></feGaussianBlur>
            <feColorMatrix values="0 0 0 0 0   0 0 0 0 0   0 0 0 0 0  0 0 0 0.09 0" type="matrix" in="shadowBlurOuter1" result="shadowMatrixOuter1"></feColorMatrix>
            <feMerge>
                <feMergeNode in="shadowMatrixOuter1"></feMergeNode>
                <feMergeNode in="SourceGraphic"></feMergeNode>
            </feMerge>
        </filter>
    </defs>
    <g id="Page-1" stroke="none" stroke-width="1" fill="none" fill-rule="evenodd">
        <g id="metge" filter="url(#filter-1)" transform="translate(-10.000000, 2.000000)">
            <g id="Brillo" transform="translate(14.000000, 0.000000)">
                <path d="M172.505385,298.561654 C172.505385,298.561654 167.924872,323.393985 172.505385,324.787218 C177.085897,326.180451 255.690769,327.655639 257.081282,324.787218 C258.471795,321.918797 242.848974,298.561654 239.740769,298.561654 C236.632564,298.561654 172.505385,298.561654 172.505385,298.561654" id="Path" stroke="#706F6F" fill="#F6F6F6" fill-rule="nonzero"></path>
                <polyline id="Path" stroke="#706F6F" fill="#C6C6C6" fill-rule="nonzero" points="240.967692 285.203008 87.7658974 285.203008 87.7658974 298.725564 163.017179 298.725564 240.967692 298.725564 240.967692 285.203008"></polyline>
                <path d="M170.542308,315.854135 C170.542308,315.854135 179.539744,318.394737 191.808974,318.394737 C204.078205,318.394737 221.091538,318.394737 231.643077,318.394737 C242.194615,318.394737 253.155128,317.083459 253.155128,317.083459" id="Path" stroke="#82CAC6"></path>
                <path d="M231.234103,305.03609 C226.980769,302.495489 219.455641,303.888722 223.545385,306.429323 C227.635128,309.05188 231.234103,305.03609 231.234103,305.03609 Z" id="Path" stroke="#82CAC6"></path>
                <path d="M231.234103,304.954135 C234.505897,301.184211 242.112821,300.200752 239.004615,303.888722 C235.89641,307.576692 231.234103,304.954135 231.234103,304.954135 Z" id="Path" stroke="#82CAC6"></path>
                <path d="M231.234103,304.954135 C231.234103,304.954135 230.988718,306.593233 230.252564,307.904511 C229.51641,309.215789 228.044103,310.854887 228.044103,310.854887" id="Path" fill="#F6F6F6" fill-rule="nonzero"></path>
                <path d="M231.234103,304.954135 C231.234103,304.954135 231.479487,306.265414 232.297436,307.248872 C233.115385,308.232331 234.833077,309.543609 234.833077,309.543609" id="Path" stroke="#82CAC6"></path>
                <path d="M231.234103,304.954135 C231.234103,304.954135 230.988718,306.593233 230.252564,307.904511 C229.51641,309.215789 228.044103,310.854887 228.044103,310.854887" id="Path" stroke="#82CAC6"></path>
                <path d="M90.0561538,298.971429 C90.0561538,298.971429 85.475641,323.803759 90.0561538,325.196992 C94.6366667,326.590226 173.241538,328.065414 174.632051,325.196992 C176.022564,322.328571 160.399744,298.971429 157.291538,298.971429 C154.183333,298.971429 90.0561538,298.971429 90.0561538,298.971429" id="Path" stroke="#706F6F" fill="#F6F6F6" fill-rule="nonzero"></path>
                <path d="M88.0112821,316.26391 C88.0112821,316.26391 97.0087179,318.804511 109.277949,318.804511 C121.547179,318.804511 138.560513,318.804511 149.112051,318.804511 C159.66359,318.804511 170.624103,317.493233 170.624103,317.493233" id="Path" stroke="#82CAC6"></path>
                <path d="M148.703077,305.445865 C144.449744,302.905263 136.924615,304.298496 141.014359,306.839098 C145.104103,309.461654 148.703077,305.445865 148.703077,305.445865 Z" id="Path" stroke="#82CAC6"></path>
                <path d="M148.784872,305.36391 C152.056667,301.593985 159.66359,300.610526 156.555385,304.298496 C153.365385,307.986466 148.784872,305.36391 148.784872,305.36391 Z" id="Path" stroke="#82CAC6"></path>
                <path d="M148.784872,305.36391 C148.784872,305.36391 148.539487,307.003008 147.803333,308.314286 C147.067179,309.625564 145.594872,311.264662 145.594872,311.264662" id="Path" fill="#F6F6F6" fill-rule="nonzero"></path>
                <path d="M148.784872,305.36391 C148.784872,305.36391 149.030256,306.675188 149.848205,307.658647 C150.666154,308.642105 152.383846,309.953383 152.383846,309.953383" id="Path" stroke="#82CAC6"></path>
                <path d="M148.784872,305.36391 C148.784872,305.36391 148.539487,307.003008 147.803333,308.314286 C147.067179,309.625564 145.594872,311.264662 145.594872,311.264662" id="Path" stroke="#82CAC6"></path>
                <path d="M92.1010256,184.234586 C92.1010256,184.234586 86.8661538,229.473684 86.8661538,249.716541 C86.8661538,269.959398 86.8661538,293.070677 86.8661538,293.070677 L242.60359,293.070677 L232.624615,189.725564 L92.1010256,184.234586 Z" id="Path" stroke="#706F6F" fill="#F6F6F6" fill-rule="nonzero"></path>
                <path d="M104.288462,198.576692 C104.288462,198.576692 155.982821,222.589474 164.734872,224.884211 C173.486923,227.178947 198.679744,222.507519 202.933077,220.622556 C207.18641,218.737594 228.943846,206.362406 228.943846,206.362406 L238.677436,196.2 L104.288462,198.576692 Z" id="Path" fill="#82CAC6" fill-rule="nonzero"></path>
                <path d="M46.8684615,249.880451 C46.8684615,249.880451 45.4779487,260.288722 46.8684615,261.92782 C48.2589744,263.648872 50.385641,266.353383 62.0005128,266.927068 C73.6153846,267.500752 79.75,268.484211 81.8766667,262.501504 C84.0033333,256.518797 83.0217949,249.388722 83.0217949,249.388722 L46.8684615,249.880451 Z" id="Path" fill="#FBD4C5" fill-rule="nonzero"></path>
                <line x1="54.8025641" y1="266.189474" x2="54.8025641" y2="258.403759" id="Path" stroke="#F5AB94"></line>
                <line x1="62.0005128" y1="267.009023" x2="62.0005128" y2="258.403759" id="Path" stroke="#F5AB94"></line>
                <line x1="69.6074359" y1="267.009023" x2="69.6074359" y2="259.387218" id="Path" stroke="#F5AB94"></line>
                <path d="M278.838718,259.633083 C278.838718,259.633083 280.229231,270.041353 278.838718,271.680451 C277.448205,273.401504 275.321538,276.106015 263.706667,276.679699 C252.091795,277.253383 245.957179,278.236842 243.830513,272.254135 C241.703846,266.271429 242.685385,259.141353 242.685385,259.141353 L278.838718,259.633083 Z" id="Path" fill="#FBD4C5" fill-rule="nonzero"></path>
                <line x1="270.904615" y1="275.86015" x2="270.904615" y2="268.074436" id="Path" stroke="#F5AB94"></line>
                <line x1="264.524615" y1="276.679699" x2="264.524615" y2="268.074436" id="Path" stroke="#F5AB94"></line>
                <line x1="256.917692" y1="276.679699" x2="256.917692" y2="269.057895" id="Path" stroke="#F5AB94"></line>
                <path d="M172.341795,224.966165 C172.914359,230.621053 173.405128,236.193985 173.895897,241.848872 C174.141282,244.635338 174.304872,247.503759 174.468462,250.290226 C174.632051,253.076692 174.795641,255.945113 174.713846,258.813534 C174.550256,264.468421 174.304872,270.123308 173.977692,275.778195 C173.650513,281.433083 173.323333,287.08797 172.832564,292.660902 L173.077949,284.219549 L173.323333,275.778195 C173.486923,270.123308 173.732308,264.468421 173.895897,258.895489 C173.977692,256.109023 173.895897,253.322556 173.732308,250.454135 L173.241538,242.012782 L172.750769,233.571429 L172.341795,224.966165 Z" id="Path" fill="#C6C6C6" fill-rule="nonzero"></path>
                <path d="M240.395128,199.969925 C240.395128,199.969925 262.806923,213.246617 268.777949,220.786466 C274.748974,228.244361 280.311026,249.142857 280.311026,252.666917 C280.311026,256.190977 280.311026,259.715038 280.311026,259.715038 L236.959744,260.780451 L233.524359,201.527068 L240.395128,199.969925 Z" id="Path" stroke="#706F6F" fill="#F6F6F6" fill-rule="nonzero"></path>
                <path d="M85.3120513,190.217293 C85.3120513,190.217293 62.9002564,203.493985 56.9292308,211.033835 C50.9582051,218.491729 45.3961538,239.390226 45.3961538,242.914286 C45.3961538,246.438346 45.3961538,249.962406 45.3961538,249.962406 L88.7474359,251.02782 L92.1828205,191.774436 L85.3120513,190.217293 Z" id="Path" stroke="#706F6F" fill="#F6F6F6" fill-rule="nonzero"></path>
                <path d="M120.483846,205.952632 L171.360256,225.293985 C171.360256,225.293985 171.687436,232.42406 166.943333,233.243609 C162.199231,234.063158 149.439231,229.555639 145.922051,227.506767 C142.323077,225.53985 124.41,222.917293 114.431026,221.769925 C104.452051,220.622556 96.5179487,214.230075 96.7633333,210.869925 C97.0087179,207.509774 120.483846,205.952632 120.483846,205.952632" id="Path" stroke="#DADADA" fill="#FFFFFF" fill-rule="nonzero"></path>
                <path d="M224.281538,205.952632 L173.405128,225.293985 C173.405128,225.293985 173.077949,232.42406 177.822051,233.243609 C182.566154,234.063158 195.326154,229.555639 198.843333,227.506767 C202.360513,225.457895 220.355385,222.917293 230.334359,221.769925 C240.313333,220.622556 248.247436,214.230075 248.002051,210.869925 C247.674872,207.591729 224.281538,205.952632 224.281538,205.952632" id="Path" stroke="#DADADA" fill="#FFFFFF" fill-rule="nonzero"></path>
                <ellipse id="Oval" fill="#82CAC6" fill-rule="nonzero" cx="172.750769" cy="243.569925" rx="6.29820513" ry="6.31052632"></ellipse>
                <ellipse id="Oval" stroke="#FFFFFF" stroke-width="0.2" cx="172.750769" cy="243.569925" rx="3.7625641" ry="3.76992481"></ellipse>
                <g id="Group" transform="translate(170.133333, 242.586466)" fill="#FFFFFF" fill-rule="nonzero">
                    <ellipse id="Oval" cx="1.06333333" cy="0.983458647" rx="1" ry="1"></ellipse>
                    <ellipse id="Oval" cx="4.17153846" cy="0.983458647" rx="1" ry="1"></ellipse>
                </g>
                <ellipse id="Oval" fill="#82CAC6" fill-rule="nonzero" cx="173.323333" cy="263.157143" rx="6.29820513" ry="6.31052632"></ellipse>
                <ellipse id="Oval" stroke="#FFFFFF" stroke-width="0.2" cx="173.323333" cy="263.157143" rx="3.7625641" ry="3.76992481"></ellipse>
                <g id="Group" transform="translate(170.951282, 262.255639)" fill="#FFFFFF" fill-rule="nonzero">
                    <ellipse id="Oval" cx="0.817948718" cy="0.901503759" rx="1" ry="1"></ellipse>
                    <ellipse id="Oval" cx="4.00794872" cy="0.901503759" rx="1" ry="1"></ellipse>
                </g>
                <path d="M293.152821,88.1015038 C293.152821,88.1015038 299.778205,83.8398496 306.567179,86.6263158 C313.437949,89.412782 318.918205,93.1007519 318.918205,109.737594 C318.918205,126.374436 308.203077,136.454887 303.540769,139.651128 C298.878462,142.847368 285.709487,153.255639 285.709487,153.255639 C285.709487,153.255639 292.171282,163.745865 287.345385,168.171429 C282.437692,172.678947 273.031282,171.203759 273.031282,171.203759" id="Path" fill="#FBD4C5" fill-rule="nonzero"></path>
                <path d="M299.287436,105.557895 C299.287436,141.53609 275.321538,179.727068 241.622051,198.740602 C220.764359,210.46015 197.207436,210.95188 169.969744,210.95188 C136.433846,210.95188 101.91641,205.133083 78.9320513,188.086466 C70.6707692,181.93985 63.8,174.4 58.2379487,166.122556 C52.2669231,167.761654 45.3961538,167.02406 39.6705128,163.5 C30.6730769,157.927068 36.0715385,141.290226 36.0715385,141.290226 C36.0715385,141.290226 28.2192308,137.438346 22.5753846,133.832331 C16.9315385,130.226316 0.981538462,119.080451 0.817948718,103.017293 C0.490769231,86.8721805 8.17948718,78.1030075 21.675641,78.7586466 C25.0292308,78.9225564 28.7917949,79.7421053 32.7997436,81.0533835 C36.1533333,82.118797 39.6705128,83.5120301 43.0241026,85.1511278 C47.7682051,65.4819549 59.2194872,47.7796992 75.2512821,33.7654135 C98.89,13.0308271 132.507692,0.163909774 169.887949,0.163909774 C241.376667,0.163909774 299.287436,47.3699248 299.287436,105.557895 Z" id="Path" fill="#FBD4C5" fill-rule="nonzero"></path>
                <path d="M176.758718,93.8383459 C176.758718,97.9360902 175.368205,101.869925 172.832564,105.31203 C172.178205,89.0849624 154.346923,76.0541353 132.507692,76.0541353 C110.668462,76.0541353 92.9189744,89.0849624 92.1828205,105.31203 C89.6471795,101.78797 88.2566667,97.9360902 88.2566667,93.8383459 C88.2566667,78.512782 108.051026,66.0556391 132.507692,66.0556391 C156.964359,66.0556391 176.758718,78.512782 176.758718,93.8383459 Z" id="Path" fill="#8D7C74" fill-rule="nonzero"></path>
                <path d="M295.279487,114.327068 C294.706923,119.654135 293.970769,124.981203 292.907436,130.226316 C292.416667,132.848872 291.844103,135.471429 291.107949,138.093985 C290.45359,140.716541 289.472051,143.257143 288.408718,145.715789 C286.200256,150.633083 283.664615,155.304511 281.047179,159.97594 C279.738462,162.270677 278.347949,164.565414 276.957436,166.86015 C275.485128,169.072932 274.094615,171.367669 272.295128,173.416541 C273.931026,171.285714 275.239744,168.990977 276.630256,166.696241 C277.938974,164.401504 279.247692,162.024812 280.55641,159.730075 C283.092051,155.058647 285.545897,150.305263 287.754359,145.469925 C290.044615,140.634586 291.271538,135.471429 292.416667,130.226316 C292.989231,127.603759 293.48,124.981203 293.970769,122.358647 C294.379744,119.654135 294.788718,117.031579 295.279487,114.327068 Z" id="Path" fill="#F5AB94" fill-rule="nonzero"></path>
                <path d="M299.287436,94.9037594 C299.287436,94.9037594 307.466923,92.3631579 310.902308,96.9526316 C315.482821,103.017293 315.891795,114.081203 310.902308,120.309774 C304.849487,127.931579 293.807179,136.290977 293.807179,136.290977" id="Path" stroke="#F5AB94"></path>
                <path d="M299.941795,93.8383459 C299.941795,97.9360902 298.551282,101.869925 296.015641,105.31203 C295.361282,89.0849624 277.53,76.0541353 255.690769,76.0541353 C233.851538,76.0541353 216.102051,89.0849624 215.365897,105.31203 C212.830256,101.78797 211.439744,97.9360902 211.439744,93.8383459 C211.439744,78.512782 231.234103,66.0556391 255.690769,66.0556391 C280.147436,66.0556391 299.941795,78.512782 299.941795,93.8383459 Z" id="Path" fill="#8D7C74" fill-rule="nonzero"></path>
                <ellipse id="Oval" stroke="#575756" fill="#575756" fill-rule="nonzero" cx="132.507692" cy="106.049624" rx="40.3248718" ry="30.2413534"></ellipse>
                <ellipse id="Oval" stroke="#575756" fill="#575756" fill-rule="nonzero" cx="255.690769" cy="105.557895" rx="40.3248718" ry="30.2413534"></ellipse>
                <ellipse id="Oval" fill="#FFFFFF" fill-rule="nonzero" cx="132.507692" cy="105.557895" rx="34.5174359" ry="25.8977444"></ellipse>
                <ellipse id="Oval" fill="#FFFFFF" fill-rule="nonzero" cx="255.690769" cy="105.557895" rx="34.5174359" ry="25.8977444"></ellipse>
                <ellipse id="Oval" fill="#000000" fill-rule="nonzero" cx="154.919487" cy="107.442857" rx="5.48025641" ry="5.49097744"></ellipse>
                <ellipse id="Oval" fill="#000000" fill-rule="nonzero" cx="274.994359" cy="107.442857" rx="5.48025641" ry="5.49097744"></ellipse>
                <polygon id="Path" fill="#575756" fill-rule="nonzero" points="172.832564 100.394737 215.284103 100.394737 219.210256 100.394737 219.210256 110.065414 173.977692 110.065414 169.969744 104.082707"></polygon>
                <polygon id="Path" fill="#575756" fill-rule="nonzero" points="69.0348718 101.95188 93.6551282 101.95188 95.2910256 110.065414 72.4702564 110.065414 69.9346154 110.065414"></polygon>
                <path d="M58.1561538,166.122556 C59.955641,165.466917 61.5915385,164.729323 63.2274359,163.745865 C64.7815385,162.762406 66.2538462,161.615038 67.5625641,160.385714 C68.9530769,159.074436 70.18,157.763158 71.4887179,156.369925 C72.1430769,155.714286 72.715641,154.976692 73.37,154.321053 C74.024359,153.665414 74.5969231,152.92782 75.2512821,152.190226 C74.2697436,153.829323 73.1246154,155.304511 71.9794872,156.779699 C70.834359,158.254887 69.525641,159.64812 68.1351282,160.959398 C66.7446154,162.270677 65.1905128,163.418045 63.5546154,164.319549 C61.8369231,165.139098 60.0374359,165.794737 58.1561538,166.122556 Z" id="Path" fill="#F5AB94" fill-rule="nonzero"></path>
                <path d="M43.0241026,85.1511278 C44.9871795,85.9706767 46.8684615,86.9541353 48.7497436,87.937594 C50.6310256,88.9210526 52.5123077,89.9864662 54.3117949,91.1338346 C56.1112821,92.1992481 57.9107692,93.4285714 59.6284615,94.7398496 C61.3461538,96.0511278 62.9820513,97.362406 64.5361538,98.9195489 C66.0902564,100.394737 67.3989744,102.197744 68.5441026,104.000752 C69.6892308,105.803759 70.7525641,107.688722 71.6523077,109.655639 C73.37,113.589474 74.6787179,117.687218 75.3330769,121.866917 C74.8423077,119.818045 74.2697436,117.769173 73.5335897,115.720301 C72.7974359,113.753383 71.9794872,111.786466 71.0797436,109.901504 C70.18,108.016541 69.1166667,106.131579 67.9715385,104.410526 C66.8264103,102.689474 65.5176923,100.968421 64.0453846,99.575188 C61.1007692,96.624812 57.5835897,94.0842105 54.0664103,91.7894737 C50.4674359,89.3308271 46.7866667,87.2 43.0241026,85.1511278 Z" id="Path" fill="#8D7C74" fill-rule="nonzero"></path>
                <ellipse id="Oval" fill="#F5AB94" fill-rule="nonzero" cx="204.32359" cy="134.078195" rx="34.3538462" ry="22.7015038"></ellipse>
                <path d="M62.9002564,121.784962 C61.1825641,119.244361 59.2194872,116.785714 57.3382051,114.327068 C55.3751282,111.950376 53.3302564,109.573684 51.2035897,107.360902 C49.0769231,105.14812 46.8684615,102.935338 44.4146154,101.050376 C41.9607692,99.1654135 39.4251282,97.362406 36.5623077,96.2150376 C33.7812821,95.0676692 30.5912821,94.9857143 27.6466667,95.8052632 C24.7020513,96.624812 22.0028205,98.3458647 20.2851282,100.722556 C19.3853846,101.95188 18.8128205,103.345113 18.485641,104.820301 C18.1584615,106.295489 18.1584615,107.852632 18.3220513,109.32782 C18.485641,110.803008 18.8946154,112.278195 19.6307692,113.589474 C20.3669231,114.900752 21.2666667,116.130075 22.33,117.195489 C24.4566667,119.408271 26.9923077,121.211278 29.5279487,122.850376 C32.1453846,124.489474 34.8446154,125.964662 37.7074359,127.27594 C40.4884615,128.587218 43.3512821,129.816541 46.2958974,130.8 L46.8684615,130.96391 L47.1138462,131.045865 L47.195641,131.045865 C47.2774359,131.045865 47.3592308,131.12782 47.3592308,131.12782 C47.4410256,131.209774 47.5228205,131.291729 47.5228205,131.373684 C47.6864103,131.865414 47.6046154,132.275188 47.6046154,132.684962 C47.6046154,133.504511 47.5228205,134.242105 47.4410256,135.061654 C47.2774359,136.618797 47.1138462,138.17594 46.9502564,139.651128 C46.8684615,141.208271 46.7866667,142.765414 46.7866667,144.240602 C46.8684615,145.797744 46.9502564,147.354887 47.6046154,148.666165 C47.7682051,148.993985 47.9317949,149.321805 48.1771795,149.649624 C48.4225641,149.895489 48.6679487,150.141353 48.9951282,150.387218 C49.2405128,150.633083 49.5676923,150.796992 49.8948718,151.042857 C50.2220513,151.206767 50.5492308,151.452632 50.8764103,151.616541 C52.2669231,152.27218 53.7392308,152.6 55.2933333,152.681955 C58.3197436,152.845865 61.4279487,151.944361 63.8,149.895489 L71.2433333,144.322556 L63.8817949,150.059398 C61.5915385,152.190226 58.3197436,153.255639 55.2115385,153.091729 C53.6574359,153.009774 52.1033333,152.681955 50.6310256,152.026316 C50.3038462,151.862406 49.8948718,151.616541 49.5676923,151.452632 C49.2405128,151.206767 48.9133333,151.042857 48.5861538,150.715038 C48.2589744,150.469173 47.9317949,150.223308 47.6864103,149.895489 C47.4410256,149.567669 47.195641,149.23985 47.0320513,148.830075 C46.3776923,147.354887 46.2141026,145.715789 46.1323077,144.158647 C46.0505128,142.601504 46.1323077,141.044361 46.2141026,139.487218 C46.2958974,137.930075 46.4594872,136.372932 46.6230769,134.815789 C46.7048718,134.078195 46.7866667,133.258647 46.7866667,132.521053 C46.7866667,132.193233 46.7866667,131.701504 46.7048718,131.537594 C46.7048718,131.537594 46.7048718,131.537594 46.7048718,131.537594 C46.7048718,131.537594 46.7866667,131.537594 46.7866667,131.619549 C46.7866667,131.619549 46.7048718,131.619549 46.7048718,131.619549 L46.3776923,131.537594 L45.8051282,131.373684 C42.8605128,130.308271 39.9976923,129.160902 37.1348718,127.849624 C34.2720513,126.538346 31.5728205,125.063158 28.8735897,123.42406 C26.2561538,121.784962 23.6387179,119.9 21.4302564,117.687218 C20.3669231,116.53985 19.3853846,115.310526 18.5674359,113.835338 C17.7494872,112.442105 17.4223077,110.803008 17.1769231,109.245865 C17.0133333,107.688722 17.0133333,106.049624 17.4223077,104.492481 C17.8312821,102.935338 18.485641,101.46015 19.3853846,100.148872 C21.2666667,97.5263158 24.1294872,95.7233083 27.1558974,94.9857143 C30.1823077,94.1661654 33.5358974,94.2481203 36.4805128,95.4774436 L38.6071795,96.4609023 L40.6520513,97.6902256 C41.3064103,98.1 41.9607692,98.5917293 42.6151282,99.0015038 L43.5966667,99.6571429 L44.4964103,100.394737 C46.9502564,102.361654 49.1587179,104.574436 51.2853846,106.787218 C53.4120513,109.081955 55.3751282,111.458647 57.2564103,113.917293 C59.3830769,116.621805 61.264359,119.162406 62.9002564,121.784962 Z" id="Path" fill="#F5AB94" fill-rule="nonzero"></path>
                <path d="M43.0241026,85.1511278 C47.7682051,65.4819549 59.2194872,47.7796992 75.2512821,33.7654135 L75.2512821,121.784962 L69.9346154,110.065414 C69.9346154,110.065414 60.4464103,94.5759398 51.694359,89.8225564 C43.0241026,85.1511278 43.0241026,85.1511278 43.0241026,85.1511278 Z" id="Path" fill="#8D7C74" fill-rule="nonzero"></path>
                <path d="M92.1010256,162.024812 C92.2646154,163.991729 92.4282051,166.040602 92.6735897,168.007519 C92.9189744,169.974436 93.0825641,172.023308 93.4097436,173.990226 C93.7369231,175.957143 93.9823077,177.92406 94.3912821,179.890977 C94.8002564,181.857895 95.2910256,183.824812 96.1907692,185.46391 C98.0720513,188.906015 100.771282,191.938346 103.388718,194.970677 C104.697436,196.445865 106.087949,197.921053 107.478462,199.396241 C108.868974,200.871429 110.259487,202.264662 111.65,203.73985 C108.62359,201.117293 105.678974,198.330827 102.897949,195.462406 C101.507436,193.987218 100.198718,192.51203 98.89,190.954887 C97.6630769,189.397744 96.4361538,187.758647 95.4546154,185.955639 C94.4730769,184.070677 94.0641026,182.103759 93.5733333,180.136842 C93.164359,178.169925 92.8371795,176.121053 92.6735897,174.154135 C92.3464103,170.056391 92.1010256,166.040602 92.1010256,162.024812 Z" id="Path" fill="#F5AB94" fill-rule="nonzero"></path>
                <path d="M237.614103,147.518797 C238.513846,152.845865 239.25,158.254887 239.986154,163.581955 C240.313333,166.286466 240.640513,168.990977 240.885897,171.695489 C241.131282,174.4 241.458462,177.104511 241.376667,179.809023 C241.376667,182.513534 241.294872,185.218045 240.967692,188.004511 C240.558718,190.709023 239.986154,193.413534 238.759231,195.87218 C237.532308,198.330827 235.732821,200.543609 233.524359,202.182707 C231.315897,203.73985 228.698462,204.805263 226.081026,205.378947 C228.698462,204.559398 231.152308,203.493985 233.278974,201.854887 C235.405641,200.215789 237.041538,198.084962 238.186667,195.626316 C239.25,193.167669 239.904359,190.545113 240.231538,187.922556 C240.558718,185.3 240.640513,182.595489 240.640513,179.890977 C240.722308,177.186466 240.476923,174.481955 240.231538,171.859398 L239.41359,163.745865 L237.614103,147.518797 Z" id="Path" fill="#F5AB94" fill-rule="nonzero"></path>
                <path d="M116.475897,156.697744 L117.048462,163.909774 C117.212051,166.286466 117.457436,168.745113 117.702821,171.121805 C117.948205,173.498496 118.19359,175.875188 118.602564,178.25188 C118.766154,179.399248 119.011538,180.628571 119.338718,181.693985 L119.665897,182.513534 C119.747692,182.759398 119.911282,183.005263 120.074872,183.333083 C120.320256,183.824812 120.647436,184.398496 120.974615,184.890226 C123.264872,189.069925 125.964103,193.085714 128.745128,197.019549 C130.135641,198.986466 131.607949,200.871429 133.162051,202.756391 C134.716154,204.559398 136.352051,206.362406 138.233333,207.919549 C136.270256,206.526316 134.552564,204.805263 132.834872,203.084211 C131.198974,201.281203 129.644872,199.396241 128.172564,197.511278 C125.227949,193.659398 122.610513,189.643609 120.156667,185.381955 C119.829487,184.890226 119.584103,184.316541 119.256923,183.742857 C119.093333,183.496992 118.929744,183.251128 118.847949,182.923308 L118.520769,182.021805 C118.19359,180.792481 117.948205,179.645113 117.784615,178.415789 C117.457436,176.039098 117.130256,173.580451 116.966667,171.203759 C116.639487,166.368421 116.475897,161.533083 116.475897,156.697744 Z" id="Path" fill="#F5AB94" fill-rule="nonzero"></path>
                <path d="M261.661795,184.234586 L263.461282,174.891729 C264.033846,171.777444 264.688205,168.663158 265.097179,165.548872 C265.669744,162.434586 265.587949,159.320301 265.751538,156.12406 C265.833333,154.566917 265.833333,152.92782 265.915128,151.370677 C265.996923,149.813534 265.996923,148.174436 265.915128,146.617293 C266.405897,149.731579 266.324103,152.92782 266.405897,156.12406 C266.405897,157.681203 266.405897,159.320301 266.324103,160.877444 C266.324103,162.434586 266.160513,164.073684 265.915128,165.630827 C265.424359,168.745113 264.77,171.859398 264.033846,174.973684 C263.379487,178.08797 262.561538,181.202256 261.661795,184.234586 Z" id="Path" fill="#F5AB94" fill-rule="nonzero"></path>
                <path d="M154.919487,153.173684 L153.201795,169.318797 L152.383846,177.432331 C152.138462,180.136842 151.893077,182.841353 151.974872,185.46391 C151.974872,188.168421 151.974872,190.872932 152.383846,193.495489 C152.711026,196.118045 153.365385,198.740602 154.428718,201.199248 C155.492051,203.657895 157.209744,205.788722 159.33641,207.42782 C161.463077,209.066917 163.916923,210.132331 166.534359,210.95188 C163.916923,210.296241 161.299487,209.312782 159.091026,207.755639 C156.882564,206.198496 155.083077,203.985714 153.856154,201.445113 C152.629231,198.986466 151.974872,196.281955 151.647692,193.577444 C151.238718,190.872932 151.238718,188.168421 151.238718,185.381955 C151.238718,182.677444 151.484103,179.890977 151.729487,177.268421 C151.974872,174.56391 152.302051,171.859398 152.629231,169.154887 C153.201795,163.82782 154.019744,158.500752 154.919487,153.173684 Z" id="Path" fill="#F5AB94" fill-rule="nonzero"></path>
                <path d="M152.056667,176.448872 C152.056667,176.448872 173.977692,179.153383 195.898718,179.153383 C217.819744,179.153383 240.804103,174.23609 240.804103,174.23609" id="Path" stroke="#F5AB94"></path>
                <ellipse id="Oval" fill="#F5AB94" fill-rule="nonzero" cx="172.996154" cy="146.617293" rx="9.97897436" ry="6.72030075"></ellipse>
                <ellipse id="Oval" fill="#F5AB94" fill-rule="nonzero" cx="235.814615" cy="142.519549" rx="9.97897436" ry="6.72030075"></ellipse>
                <ellipse id="Oval" fill="#FFFFFF" fill-rule="nonzero" transform="translate(207.709930, 15.900764) rotate(-60.607603) translate(-207.709930, -15.900764) " cx="207.70993" cy="15.9007643" rx="6.9630588" ry="5.07379775"></ellipse>
                <path d="M256.508718,53.6804511 C251.519231,52.3691729 250.374103,48.4353383 237.286923,43.0263158 C230.743333,40.3218045 222.073077,38.9285714 216.674615,33.8473684 C212.912051,30.2413534 212.666667,23.1932331 216.347436,19.0135338 C221.091538,13.5225564 232.215649,17.0466165 242.848974,25.1601504 C251.84641,31.962406 264.115641,55.7293233 256.508718,53.6804511 Z" id="Path" fill="#FFFFFF" fill-rule="nonzero"></path>
                <line x1="170.133333" y1="292.988722" x2="170.133333" y2="298.561654" id="Path" stroke="#706F6F" fill="#C6C6C6" fill-rule="nonzero"></line>
                <ellipse id="Oval" fill="#FFFFFF" fill-rule="nonzero" cx="153.365385" cy="106.049624" rx="2.37205128" ry="2.37669173"></ellipse>
                <ellipse id="Oval" fill="#FFFFFF" fill-rule="nonzero" cx="273.031282" cy="106.049624" rx="2.37205128" ry="2.37669173"></ellipse>
                <rect id="Rectangle" fill="#82CAC6" fill-rule="nonzero" x="220.028205" y="229.309774" width="1.55410256" height="7.94962406"></rect>
                <rect id="Rectangle" fill="#706F6F" fill-rule="nonzero" x="221.582308" y="227.424812" width="1.55410256" height="9.75263158"></rect>
                <path d="M199.661282,237.505263 L229.107436,237.505263 C229.107436,237.505263 230.497949,257.74812 212.993846,257.74812 C195.407949,257.74812 199.661282,237.505263 199.661282,237.505263 Z" id="Path" stroke="#C6C6C6"></path>
                <ellipse id="Oval" fill="#FFFFFF" fill-rule="nonzero" cx="216.674615" cy="120.965414" rx="5.97102564" ry="4.34360902"></ellipse>
            </g>
        </g>
    </g>
</svg>