<?xml version="1.0" encoding="UTF-8"?>
<svg width="374px" height="258px" viewBox="0 0 374 258" version="1.1" xmlns="http://www.w3.org/2000/svg" xmlns:xlink="http://www.w3.org/1999/xlink">
    <!-- Generator: Sketch 63 (92445) - https://sketch.com -->
    <title>Mascareta</title>
    <desc>Created with Sketch.</desc>
    <defs>
        <path d="M89.3,13.9 C89.3,13.9 58.3,8.8 39.2,13.1 C22.5,16.9 6.4,24.3 1.5,47 C-2.2,64 1.7,78 7.5,89.8 C13.3,101.6 26.1,116.7 26.1,116.7 L28.5,111.5 C28.5,111.5 17.6,97 14.3,90.8 C8.4,79.6 2.1,58.2 7.8,44.8 C15,27.7 27.7,20.6 41.9,18.7 C54,17.1 65.3,17.8 71.8,18.5 C78.3,19.2 85.2,20.1 85.2,20.1 L89.3,13.9 Z" id="path-1"></path>
        <filter x="-9.0%" y="-5.7%" width="118.7%" height="116.0%" filterUnits="objectBoundingBox" id="filter-2">
            <feMorphology radius="1" operator="dilate" in="SourceAlpha" result="shadowSpreadOuter1"></feMorphology>
            <feOffset dx="0" dy="2" in="shadowSpreadOuter1" result="shadowOffsetOuter1"></feOffset>
            <feGaussianBlur stdDeviation="2" in="shadowOffsetOuter1" result="shadowBlurOuter1"></feGaussianBlur>
            <feComposite in="shadowBlurOuter1" in2="SourceAlpha" operator="out" result="shadowBlurOuter1"></feComposite>
            <feColorMatrix values="0 0 0 0 0   0 0 0 0 0   0 0 0 0 0  0 0 0 0.09 0" type="matrix" in="shadowBlurOuter1"></feColorMatrix>
        </filter>
        <path d="M313.9,125.5 C313.9,125.5 328,132.3 332.8,135.2 C337.6,138 351.6,147 355.3,159 C359,171.2 360.5,181.7 356.1,192.5 C351.8,203.3 344.1,213.8 323.1,219.5 C302.1,225.2 281.2,218.5 281.2,218.5 L279.1,224.1 C279.1,224.1 287.4,228 300.5,227.6 C313.7,227.3 334.2,225.8 347.7,214.4 C361.2,203 364.5,189.8 364.4,176.5 C364.2,163.2 359.6,148.1 346.1,137.4 C334,127.9 315.6,119.8 315.6,119.8 L313.9,125.5 Z" id="path-3"></path>
        <filter x="-9.7%" y="-4.1%" width="119.0%" height="113.3%" filterUnits="objectBoundingBox" id="filter-4">
            <feMorphology radius="1" operator="dilate" in="SourceAlpha" result="shadowSpreadOuter1"></feMorphology>
            <feOffset dx="0" dy="2" in="shadowSpreadOuter1" result="shadowOffsetOuter1"></feOffset>
            <feGaussianBlur stdDeviation="2" in="shadowOffsetOuter1" result="shadowBlurOuter1"></feGaussianBlur>
            <feComposite in="shadowBlurOuter1" in2="SourceAlpha" operator="out" result="shadowBlurOuter1"></feComposite>
            <feColorMatrix values="0 0 0 0 0   0 0 0 0 0   0 0 0 0 0  0 0 0 0.09 0" type="matrix" in="shadowBlurOuter1"></feColorMatrix>
        </filter>
        <path d="M87.9,16.2 C89.9,12.9 92.5,9.3 95,5.1 C96.6,2.5 98.1,-0.9 100.8,0.3 C104.6,2 110.9,5.9 113.5,7.6 C116.1,9.3 136.8,19.8 142.8,22.4 C146.4,23.9 157.9,28.6 163.9,28.9 C169.9,29.2 182.2,27.5 186.7,27.7 C191.2,27.9 202.6,28.4 211.7,35.4 C220.8,42.4 231.6,52.4 235.5,55.1 C239.4,57.8 272.3,73.8 277.7,76.3 C283,78.9 313,91.2 314.4,92.1 C315.8,93 320.4,94.3 320.6,98.1 C320.8,101.9 318.7,108.7 318,112.2 C317.3,115.6 301.7,164.3 299.3,170.5 C296.9,176.7 278.4,226.2 277.4,229.6 C276.4,233 272.3,244.8 270.9,246.7 C270.3,247.6 268.2,249.9 265.2,249.6 C261.5,249.2 222.5,233.5 217,231.8 C211.5,230.1 168.5,215.3 161.3,212.6 C154.1,209.9 121.9,196.3 114.7,191.9 C107.5,187.4 77,164.5 72,160.5 C67,156.5 34.8,134.8 32.1,133.3 C29.4,131.8 23.4,127.5 23.2,125.9 C23,124.4 23.7,121.4 24.7,119.6 C25.7,117.7 35.2,96.8 36.7,92.7 C38.2,88.6 43.2,75 46,70.6 C48.7,66.1 55.8,52.8 64.3,43.7 C72.8,34.6 83.6,23.2 87.9,16.2 Z" id="path-5"></path>
        <filter x="-2.5%" y="-2.2%" width="105.0%" height="106.0%" filterUnits="objectBoundingBox" id="filter-6">
            <feMorphology radius="0.5" operator="dilate" in="SourceAlpha" result="shadowSpreadOuter1"></feMorphology>
            <feOffset dx="0" dy="2" in="shadowSpreadOuter1" result="shadowOffsetOuter1"></feOffset>
            <feGaussianBlur stdDeviation="2" in="shadowOffsetOuter1" result="shadowBlurOuter1"></feGaussianBlur>
            <feComposite in="shadowBlurOuter1" in2="SourceAlpha" operator="out" result="shadowBlurOuter1"></feComposite>
            <feColorMatrix values="0 0 0 0 0   0 0 0 0 0   0 0 0 0 0  0 0 0 0.0947333916 0" type="matrix" in="shadowBlurOuter1"></feColorMatrix>
        </filter>
    </defs>
    <g id="Media" stroke="none" stroke-width="1" fill="none" fill-rule="evenodd">
        <g id="Facemask" transform="translate(-42.000000, -53.000000)">
            <g id="Mascareta" transform="translate(47.000000, 55.000000)">
                <g id="Path" fill-rule="nonzero">
                    <use fill="black" fill-opacity="1" filter="url(#filter-2)" xlink:href="#path-1"></use>
                    <path stroke="#EDEDED" stroke-width="1" d="M39.0901831,12.6122088 C29.6931694,14.7504501 20.492231,18.0283979 13.3284133,24.4701332 C7.62570809,29.5980299 3.20577476,36.7280604 1.01125689,46.8945004 C-2.71658367,64.022413 1.20679481,78.1300639 7.05127565,90.0205594 C12.8730006,101.864758 25.7185944,117.023311 25.7185944,117.023311 C25.7185944,117.023311 25.8964721,117.233217 26.2278461,117.616152 L28.899669,111.199559 C28.899669,111.199559 18.0311849,96.7459334 14.7413734,90.5650755 C8.89985307,79.4760779 2.61062803,58.2769391 8.26010363,44.9957157 C15.3775302,28.0918363 27.9304519,21.0736208 41.9663105,19.1955834 C54.017383,17.6020538 65.2723692,18.2999154 71.7464634,18.9971256 C78.2410633,19.696544 85.1353304,20.5958002 85.4446947,20.6364415 L90.1394704,13.5370246 C89.6458175,13.4500962 89.381167,13.4066321 89.381167,13.4066321 C89.381167,13.4066321 58.2624537,8.29593846 39.0901831,12.6122088 Z" fill="#FFFFFE" fill-rule="evenodd"></path>
                </g>
                <polygon id="Path" fill="#ECF4F3" fill-rule="nonzero" points="26.1 116.6 23.2 113 26.1 108.7 28.5 111.5"></polygon>
                <polygon id="Path" fill="#ECF4F3" fill-rule="nonzero" points="85.4 13.4 89.3 13.9 85.2 20.1 81.4 19.6"></polygon>
                <g id="Path" fill-rule="nonzero">
                    <use fill="black" fill-opacity="1" filter="url(#filter-4)" xlink:href="#path-3"></use>
                    <path stroke="#EDEDED" stroke-width="1" d="M313.682804,125.950362 C313.682804,125.950362 327.752062,132.734374 332.541442,135.627958 C337.292751,138.399623 351.162047,147.276568 354.822197,159.147323 C358.483594,171.220057 359.994042,181.61668 355.636954,192.311352 C351.379643,203.004088 343.74385,213.378578 322.969025,219.017459 C302.111111,224.678893 281.352636,218.023867 280.901779,217.871254 L278.887364,224.552533 C278.887364,224.552533 287.273093,228.504108 300.51526,228.099767 C313.804287,227.797759 334.433374,226.257353 348.02259,214.782015 C361.659983,203.265994 365.001019,189.933642 364.899986,176.496241 C364.697939,163.05919 360.04332,147.813367 346.410574,137.008154 C339.974886,131.955333 331.770443,127.298685 325.210799,124.874469 C322.099209,123.724533 319.350625,123.078566 317.319777,123.107109 C316.294193,123.121524 315.441835,123.308372 314.794538,123.665934 C314.116122,124.040686 313.647047,124.598694 313.682804,125.950362 Z" fill="#FFFFFE" fill-rule="evenodd"></path>
                </g>
                <polygon id="Path" fill="#ECF4F3" fill-rule="nonzero" points="313.9 125.5 317.3 127.2 319 121.5 315.6 119.9"></polygon>
                <polygon id="Path" fill="#ECF4F3" fill-rule="nonzero" points="281.3 218.5 284.3 219.3 282.4 225.3 279.2 224.1"></polygon>
                <g id="Path" fill-rule="nonzero">
                    <use fill="black" fill-opacity="1" filter="url(#filter-6)" xlink:href="#path-5"></use>
                    <use stroke="#EDEDED" stroke-width="1" fill="#FDFEFF" xlink:href="#path-5"></use>
                </g>
                <path d="M102.5,13.9 C102.5,13.9 121.5,25.2 126.1,27.3 C130.7,29.4 145.5,35.5 148.7,36.6 C151.9,37.7 162.4,40.5 168.4,40.5 C174.4,40.5 181.4,38.4 189.3,39.5 C197.2,40.5 203,42.6 213.4,50.6 C223.8,58.6 229.5,65.1 236.7,68.9 C243.9,72.7 274.6,88 278.7,89.9 C282.8,91.8 302.4,99.8 303.9,100.4 C305.4,101 308.7,102.2 308.7,102.5 C308.7,102.8 307.7,107.2 306.8,110.5 C305.9,113.8 298.4,138.9 297.6,141.3 C296.8,143.7 285.5,175.5 284.5,177.9 C283.5,180.3 267.9,222.5 267.4,224.1 C266.8,225.7 262.8,236.6 262.5,237 C262.2,237.5 248,231.6 246.4,230.9 C244.8,230.2 211,217.6 208.2,216.8 C205.5,216 178.7,207.7 175,206.3 C171.2,204.9 138.3,191.1 134.7,189.2 C131,187.3 113,176.6 110,174.8 C107,173 72.1,146.8 68.1,144 C64.1,141.2 36.8,122.8 36,122.3 C35.2,121.8 42.2,108.7 43.7,105.2 C45.2,101.7 50,88.6 50.4,86.8 C50.9,85 58.3,69.8 61.7,65.2 C65.1,60.6 73.2,49.4 76.7,46.5 C80.1,43.5 89.4,34 91.3,31.2 C93.3,28.3 101.1,15 102.5,13.9 Z" id="Path" fill="#82CAC6" fill-rule="nonzero"></path>
                <g id="Group" transform="translate(29.000000, 6.000000)" stroke="#A9D8D3" stroke-linecap="round" stroke-linejoin="round" stroke-width="1.5">
                    <path d="M70.8,1.8 C71.4,1 71.8,0.4 72.1,0.3 C72.1,0.3 72.7,0.7 73.8,1.3" id="Path"></path>
                    <path d="M77.2,3.3 C83.5,7 93.6,12.8 96.9,14.3 C101.8,16.5 117.2,22.9 120.7,24 C124.1,25.1 135.1,28.1 141.4,28.1 C147.7,28.1 155.1,25.9 163.4,27 C171.7,28.1 177.8,30.2 188.7,38.6 C199.6,47 205.6,53.8 213.2,57.8 C220.8,61.8 253,77.9 257.4,79.9 C261.7,81.9 278,88.6 281.3,89.9 C283.7,90.9 286.1,92.4 286.1,95.2 C286.1,97.5 284.4,102.2 283.1,106.5 C282.1,109.9 275.1,133.5 274.3,136 C273.5,138.5 261.6,171.9 260.5,174.4 C259.4,176.9 243.1,222.2 242.5,223.9 C241.9,225.6 237.7,237 237.3,237.5 C236.9,238 223.1,232.9 221.4,232.1 C219.7,231.4 184.2,218.2 181.3,217.3 C178.4,216.4 150.3,207.7 146.4,206.3 C142.4,204.9 107.9,190.3 104,188.3 C100.2,186.3 81.2,175.1 78.1,173.2 C75,171.3 38.3,143.8 34.1,140.8 C29.9,137.8 1.2,118.5 0.4,118 C-0.4,117.5 6.9,103.7 8.4,100 C10,96.3 17,78.6 17.5,76.7 C18,74.8 25.8,58.8 29.4,54 C33,49.2 41.5,37.4 45.1,34.3 C48.7,31.2 58.4,21.2 60.5,18.2 C62,16 66.8,7.9 69.8,3.3" id="Path" stroke-dasharray="3.9873,3.9873"></path>
                </g>
                <path d="M104.3,155 C104.8,152.7 111.1,123.3 111.6,119.8 C112.1,116.3 115.4,100.6 119.1,96.3 C122.8,92 141.3,70.3 142.4,68.6 C143.6,66.9 153.6,55.3 153.6,55.3 C153.6,55.3 125.1,83.3 123.1,86 C121.1,88.7 112.3,96 109.8,109 C107.3,122 104.3,155 104.3,155 Z" id="Path" fill="#79C7C1" fill-rule="nonzero"></path>
                <path d="M223.3,81.6 C224.3,85.6 221.8,112.5 218.1,126 C214.4,139.5 211.1,151.7 200.6,164.5 C192.4,174.5 168.6,191.5 166.6,192.3 C164.6,193.1 165,191 165,191 C165,191 186.8,166.5 194.1,156.8 C200.8,148 211.2,120.8 212.9,115.3 C214.6,109.8 219.1,96.3 220.6,91 C222.1,85.7 222.8,79.3 223.3,81.6 Z" id="Path" fill="#7BC7C2" fill-rule="nonzero"></path>
                <path d="M72.1,51.7 C72.1,51.7 113.7,66.3 117.7,68 C121.7,69.7 158.7,77.5 168.5,82 C178.3,86.5 193,96.5 197.7,99.5 C202.4,102.5 260.7,137.5 265,140.2 C269.3,142.9 292.9,155.2 292.9,155.2 L292.3,156.8 C292.3,156.8 262.4,143 257.6,140.5 C252.8,138 200.4,110 194.9,106.8 C189.4,103.6 168.1,91.8 162.2,89.5 C156.4,87.2 120,73.8 112.5,70.8 C105,67.8 77,56.5 74.5,55.5 C72,54.5 70.2,53.8 70.2,53.8 L72.1,51.7 Z" id="Path" fill="#74C4BB" fill-rule="nonzero"></path>
                <path d="M60,67.9 C60,67.9 108,93 112.2,95 C116.4,97 151.2,111.7 159.9,116.2 C168.6,120.7 208.6,141.5 215.2,144.5 C221.9,147.5 270.7,168.3 275.2,170.3 C279.7,172.3 285.7,175.4 285.7,175.4 L284.8,177.9 C284.8,177.9 239.4,159.8 235.3,158 C231.2,156.2 195.3,140 191.8,138.5 C188.3,137 160.8,123.7 154,120 C147.2,116.3 114.8,100.8 111.8,99.3 C108.8,97.8 78,80 75.3,78.6 C72.6,77.3 59.3,69.2 59.3,69.2 L60,67.9 Z" id="Path" fill="#74C5BE" fill-rule="nonzero"></path>
                <path d="M52.7,81.6 C52.7,81.6 72.5,97.1 77,100.8 C81.5,104.5 109.3,125.8 111.7,128.1 C114,130.4 130.5,142.7 133.3,144.3 C142.4,149.6 157,156.7 162.9,159.1 C170.9,162.3 214.6,176 221.6,177.9 C228.6,179.8 268.3,191.6 271.4,192.5 C274.6,193.3 278.6,194.5 278.6,194.5 L278.1,195.9 C278.1,195.9 251.6,189.3 245.1,187.5 C238.6,185.7 177.8,168.7 172.5,167.2 C167.2,165.7 144.4,158.9 134.2,152.4 C124,145.9 105.4,129.6 101.4,126.1 C97.4,122.6 63.9,94.8 61.2,92.3 C58.5,89.8 51.6,84.2 51.6,84.2 L52.7,81.6 Z" id="Path" fill="#73C4BD" fill-rule="nonzero"></path>
            </g>
        </g>
    </g>
</svg>