<?xml version="1.0" encoding="UTF-8"?>
<svg width="745px" height="107px" viewBox="0 0 745 107" version="1.1" xmlns="http://www.w3.org/2000/svg" xmlns:xlink="http://www.w3.org/1999/xlink">
    <!-- Generator: Sketch 63 (92445) - https://sketch.com -->
    <title>Group 2 Copy</title>
    <desc>Created with Sketch.</desc>
    <g id="Header" stroke="none" stroke-width="1" fill="none" fill-rule="evenodd">
        <g id="Group-2-Copy" transform="translate(0.000000, -5.000000)">
            <g id="Group-Copy">
                <g id="virus-copy" transform="translate(122.083333, 61.190307) rotate(-9.000000) translate(-122.083333, -61.190307) translate(68.333333, 8.273641)">
                    <g id="Virus">
                        <path d="M61.7553191,85.2993659 C61.6695479,85.1843297 61.6409574,85.1268116 61.6409574,85.1268116 L61.6695479,85.1268116 C61.6981383,85.1843297 61.7553191,85.2418478 61.7553191,85.2993659 Z" id="Path" stroke="#000000"></path>
                        <path d="M92.1755319,46.647192 C92.1183511,46.6759511 92.0897606,46.7047101 92.0897606,46.7047101 L92.0611702,46.5896739 C92.0897606,46.5609149 92.1469415,46.5609149 92.1755319,46.5321558 C92.1469415,46.5609149 92.1755319,46.5896739 92.1755319,46.647192 Z" id="Path" stroke="#000000"></path>
                        <path d="M107.185505,64.477808 C107.042553,64.4202899 106.18484,65.2830616 105.727394,65.6569293 C104.8125,66.4334239 102.839761,67.3824728 101.667553,67.6413043 C100.180851,67.986413 96.6928191,66.0307971 95.8351064,65.6569293 C94.9773936,65.2830616 91.375,63.7300725 91.0319149,63.4712409 C90.8603723,63.3274457 90.231383,62.8960598 89.6881649,62.522192 C91.3178191,58.3521286 92.2041223,53.8081975 92.2041223,49.0629529 C92.2041223,48.2289402 92.1755319,47.4236866 92.1183511,46.618433 C92.0611702,46.647192 92.0325798,46.6759511 92.0325798,46.6759511 L92.0039894,46.5609149 C92.0325798,46.5321558 92.0897606,46.5321558 92.1183511,46.5033967 C92.8331117,46.158288 93.6050532,45.7844203 93.8051862,45.7269022 C94.2912234,45.5543478 98.7799202,44.6915761 99.4375,44.634058 C100.09508,44.5765399 101.46742,44.2026721 102.09641,44.6915761 C102.582447,45.0654438 104.240691,46.8485054 104.526596,47.1936141 C104.555186,47.2223732 104.555186,47.2511322 104.555186,47.2511322 C104.640957,47.3661685 104.726729,47.4236866 104.78391,47.3949275 C105.212766,47.3374094 105.155585,45.122962 104.698138,42.5058877 C104.240691,39.8600543 103.525931,37.703125 103.125665,37.8469203 C103.011303,37.8756793 102.81117,38.7384511 102.696809,39.1410779 C102.439495,39.9750906 101.581782,41.2980072 100.981383,41.9594656 C100.209441,42.7647192 97.3503989,42.9085145 96.6928191,43.0235507 C96.0352394,43.138587 93.2619681,43.5699728 92.9760638,43.5412138 C92.8045213,43.5412138 92.2613032,43.5124547 91.8038564,43.4836957 C91.0890957,38.8822464 89.5452128,34.5396286 87.3151596,30.6859149 C87.6296543,30.283288 88.4015957,29.3054801 88.7732713,28.9891304 C89.2593085,28.5865036 93.9767287,25.6530797 94.6914894,25.279212 C95.40625,24.9341033 96.8071809,23.9275362 97.7220745,24.2151268 C98.4368351,24.4451993 101.067154,25.8256341 101.496011,26.0557065 C101.524601,26.0844656 101.553191,26.0844656 101.553191,26.0844656 C101.696144,26.1707428 101.810505,26.1995018 101.896277,26.1707428 C102.353723,25.9119112 101.381649,23.3811141 99.7519947,20.5052083 C98.1223404,17.6293025 96.4355053,15.4436141 96.0066489,15.7599638 C95.8922872,15.8462409 96.0352394,16.9103261 96.0638298,17.4567482 C96.1210106,18.5495924 95.7207447,20.4476902 95.2918883,21.4542572 C94.7486702,22.7196558 91.6037234,24.1288496 90.8889628,24.5314764 C90.1742021,24.9341033 87.2293883,26.6596467 86.8863032,26.7459239 C86.6575798,26.8322011 85.6855053,27.1485507 85.1136968,27.3211051 C82.2546543,23.4386322 78.6522606,20.1025815 74.5066489,17.6005435 L74.5638298,17.6293025 C74.5638298,17.6293025 74.6781915,15.7887228 74.849734,15.1847826 C75.0212766,14.5808424 77.3371011,9.49048913 77.7087766,8.80027174 C78.1090426,8.11005435 78.7094415,6.47078804 79.6243351,6.24071558 C80.3390957,6.06816123 83.2839096,5.72305254 83.7699468,5.66553442 C83.8271277,5.66553442 83.8271277,5.66553442 83.8271277,5.66553442 C83.9986702,5.66553442 84.1130319,5.6080163 84.1416223,5.52173913 C84.3703457,5.0615942 82.1974734,3.47984601 79.2526596,2.01313406 C76.3078457,0.517663043 73.706117,-0.316349638 73.5345745,0.172554348 C73.4773936,0.316349638 74.1921543,1.12160326 74.5066489,1.55298913 C75.1356383,2.41576087 75.8789894,4.22758152 76.0505319,5.32042572 C76.2792553,6.67210145 74.4494681,9.60552536 74.106383,10.3245018 C73.7347074,11.0434783 72.2480053,14.1206975 72.0192819,14.408288 C71.8763298,14.5808424 71.3331117,15.2998188 70.9614362,15.7599638 C66.3011968,13.6030344 61.1263298,12.395154 55.6655585,12.395154 C54.9507979,12.395154 54.2360372,12.423913 53.5212766,12.4526721 C53.4069149,12.1075634 53.2925532,11.7912138 53.2639628,11.5899004 C53.1781915,11.1009964 53.0924202,6.47078804 53.1210106,5.80932971 C53.1781915,5.14787138 53.0352394,3.70991848 53.6356383,3.19225543 C54.0930851,2.78962862 56.1230053,1.4379529 56.4660904,1.20788043 C56.4946809,1.17912138 56.5232713,1.17912138 56.5232713,1.17912138 C56.6662234,1.0928442 56.6948138,1.03532609 56.6948138,0.977807971 C56.6948138,0.546422101 54.5505319,0.201313406 51.8916223,0.230072464 C49.2041223,0.230072464 47.0026596,0.603940217 47.0598404,1.00656703 C47.0884309,1.12160326 47.8889628,1.46671196 48.2606383,1.66802536 C49.0325798,2.07065217 50.2047872,3.13473732 50.7194149,3.85371377 C51.3769947,4.74524457 51.0625,7.5923913 51.0339096,8.2826087 C51.0053191,8.94406703 51.0053191,11.7624547 50.9195479,12.0788043 C50.8909574,12.1938406 50.8337766,12.4526721 50.7765957,12.7402627 C46.2021277,13.3442029 41.8849734,14.8109149 38.025266,16.9678442 C37.8823138,16.8240489 36.6529255,15.7312047 36.3098404,15.2423007 C35.9667553,14.7246377 33.3364362,9.77807971 33.0505319,9.05910326 C32.7360372,8.31136775 31.849734,6.8446558 32.2214096,5.953125 C32.5073138,5.26290761 34.0511968,2.73211051 34.3085106,2.30072464 C34.3371011,2.27196558 34.3371011,2.24320652 34.3371011,2.24320652 C34.4514628,2.09941123 34.4800532,1.984375 34.4228723,1.92685688 C34.1941489,1.46671196 31.6210106,2.24320652 28.6761968,3.68115942 C25.7027926,5.11911232 23.4441489,6.67210145 23.7300532,7.10348732 C23.8158245,7.21852355 24.8736702,7.16100543 25.4168883,7.16100543 C26.5033245,7.18976449 28.3617021,7.70742754 29.3337766,8.22509058 C30.5345745,8.85778986 31.7353723,12.1075634 32.0784574,12.8552989 C32.4215426,13.6030344 33.9368351,16.6514946 33.994016,17.0253623 C34.0797872,17.370471 34.5086436,19.1247736 34.537234,19.2110507 C34.537234,19.2110507 34.537234,19.2110507 34.537234,19.2110507 C30.2772606,22.2595109 26.674867,26.1995018 24.0445479,30.772192 C23.3011968,30.5133605 22.1289894,30.1394928 21.8430851,29.9956975 C21.3570479,29.8231431 17.3543883,27.6086957 16.7825798,27.2348279 C16.2393617,26.8609601 14.9527926,26.2570199 14.78125,25.4805254 C14.6382979,24.8765851 14.5239362,22.4320652 14.4953457,22.0006793 C14.4953457,21.9719203 14.4953457,21.9431612 14.4953457,21.9431612 C14.4953457,21.7993659 14.4667553,21.7130888 14.4095745,21.6843297 C14.0378989,21.4542572 12.6655585,23.1798007 11.3503989,25.5092844 C10.0066489,27.8387681 9.20611702,29.9381793 9.60638298,30.1107337 C9.72074468,30.1682518 10.4069149,29.6218297 10.75,29.3917572 C11.4933511,28.9028533 12.9800532,28.4427083 13.8663564,28.3276721 C14.981383,28.2126359 17.268617,29.9094203 17.8404255,30.254529 C18.412234,30.5996377 20.8424202,32.0375906 21.0425532,32.238904 C21.1569149,32.3539402 21.9288564,32.9003623 22.643617,33.3892663 C20.8996011,37.0991848 19.755984,41.1254529 19.3271277,45.3817935 C18.2121011,45.6693841 16.5538564,46.1007699 16.125,46.129529 C15.4102394,46.158288 9.03457447,45.5543478 8.14827128,45.3530344 C7.26196809,45.1804801 5.2606383,45.122962 4.63164894,44.2314312 C4.1456117,43.5412138 2.5731383,40.4927536 2.31582447,39.9750906 C2.28723404,39.9175725 2.28723404,39.8888134 2.28723404,39.8888134 C2.20146277,39.7162591 2.11569149,39.6012228 2.02992021,39.6012228 C1.4581117,39.5149457 0.657579787,42.4483696 0.285904255,46.129529 C-0.0857712766,49.8394475 0.0571808511,52.9454257 0.657579787,52.9454257 C0.800531915,52.9454257 1.40093085,51.8813406 1.71542553,51.3924366 C2.37300532,50.3858696 4.03125,48.9479167 5.08909574,48.3439764 C6.43284574,47.5962409 10.2925532,48.5165308 11.2360372,48.631567 C12.1509309,48.7753623 16.0392287,49.2355072 16.4394947,49.4080616 C16.6682181,49.4943388 18.1263298,49.9257246 19.1841755,50.2708333 C19.3271277,54.9298007 20.3277926,59.3586957 22.0146277,63.4137228 C21.6143617,63.8451087 20.8424202,64.6791214 20.4707447,64.966712 C19.956117,65.3405797 14.8098404,68.1589674 14.0378989,68.5040761 C13.2659574,68.8491848 11.7220745,69.7982337 10.7785904,69.4818841 C10.0352394,69.2230525 7.26196809,67.8138587 6.80452128,67.5837862 C6.77593085,67.5550272 6.74734043,67.5550272 6.74734043,67.5550272 C6.57579787,67.46875 6.46143617,67.4399909 6.40425532,67.46875 C5.91821809,67.6988225 6.86170213,70.2296196 8.51994681,73.1055254 C10.1781915,75.9814312 11.9222074,78.1671196 12.3796543,77.879529 C12.494016,77.7932518 12.3796543,76.7291667 12.3796543,76.2115036 C12.3510638,75.1474185 12.8371011,73.2493207 13.3231383,72.3002717 C13.9521277,71.0636322 17.3543883,69.7407156 18.1263298,69.3668478 C18.8982713,68.9929801 22.1003989,67.3537138 22.4720745,67.2674366 C22.643617,67.2099185 23.2154255,67.0661232 23.7300532,66.9223279 C25.5598404,70.2296196 27.8470745,73.2205616 30.5631649,75.8088768 C30.1057181,76.9592391 29.4767287,78.5122283 29.2480053,78.857337 C28.8477394,79.4325181 24.5305851,84.2065217 23.8444149,84.839221 C23.1868351,85.4719203 21.9288564,87.0249094 20.8424202,86.9961504 C19.9847074,86.9673913 16.6396277,86.4209692 16.0678191,86.305933 C16.0106383,86.2771739 15.9820479,86.2771739 15.9820479,86.2771739 C15.7819149,86.2196558 15.6675532,86.2484149 15.5817819,86.305933 C15.1529255,86.7373188 17.0398936,89.1243207 19.755984,91.6263587 C22.4720745,94.1283967 25.0738032,95.8826993 25.4168883,95.4225543 C25.5026596,95.3075181 25.0166223,94.1859149 24.8164894,93.6394928 C24.4162234,92.4891304 24.2446809,90.303442 24.4162234,89.1243207 C24.6163564,87.6000906 27.6469415,85.0117754 28.3045213,84.321558 C28.9621011,83.6600996 31.6781915,80.8129529 32.0212766,80.5828804 C32.2214096,80.4390851 33.3078457,79.5763134 34.1941489,78.857337 C37.5392287,81.3306159 41.3417553,83.2287138 45.4587766,84.4365942 C45.887633,85.6444746 46.3164894,86.9386322 46.3164894,87.2549819 C46.2878989,87.8876812 45.4301862,93.4094203 45.2300532,94.1859149 C45.0299202,94.9624094 44.8583777,96.6879529 44.0578457,97.1768569 C43.4288564,97.5507246 40.6841755,98.6723279 40.1981383,98.8448822 C40.1409574,98.8448822 40.1409574,98.8736413 40.1409574,98.8736413 C39.9694149,98.9311594 39.8836436,98.9886775 39.8836436,99.0749547 C39.7978723,99.5638587 42.3138298,100.512908 45.5445479,101.145607 C48.775266,101.778306 51.5199468,101.922101 51.5485372,101.404438 C51.5485372,101.260643 50.662234,100.656703 50.2619681,100.340353 C49.4042553,99.6788949 48.2320479,98.1259058 47.7746011,97.1480978 C47.1742021,95.9114583 48.174867,92.6041667 48.3464096,91.798913 C48.5179521,90.9936594 49.1469415,87.6288496 49.2898936,87.3125 C49.4042553,87.0536685 49.8617021,85.9895833 50.0618351,85.4719203 C51.9202128,85.7595109 53.8357713,85.9320652 55.7799202,85.9320652 C57.8384309,85.9320652 59.8969415,85.7595109 61.8696809,85.4144022 C62.212766,85.9608243 63.1276596,87.4275362 63.3277926,88.0314764 C63.5851064,88.807971 65.0718085,95.8826993 65.1861702,96.9180254 C65.3005319,97.9245924 65.9009309,100.110281 65.0718085,101.030571 C64.4142287,101.749547 61.412234,104.136549 60.8976064,104.539176 C60.8404255,104.567935 60.8118351,104.596694 60.8118351,104.596694 C60.6402926,104.71173 60.5545213,104.826766 60.5831117,104.941803 C60.6974734,105.603261 64.3856383,105.775815 68.8171543,105.31567 C73.2772606,104.884284 76.8796543,103.963995 76.6509309,103.331295 C76.59375,103.158741 75.1642287,102.756114 74.4780585,102.526042 C73.0771277,102.037138 70.818484,100.570426 69.7606383,99.5638587 C68.4168883,98.2697011 68.1595745,93.8408062 67.9880319,92.8054801 C67.8164894,91.770154 67.0445479,87.4275362 67.1017287,86.9673913 C67.1303191,86.5360054 67.2446809,84.3790761 67.2732713,84.1202446 C71.6761968,82.6535326 75.7074468,80.381567 79.1954787,77.4481431 C79.7101064,77.7357337 80.3390957,78.1096014 80.625,78.368433 C81.1110372,78.7998188 85.0279255,83.1711957 85.5425532,83.861413 C86.0285904,84.5516304 87.34375,85.817029 87.2293883,86.823596 C87.1722074,87.6288496 86.4288564,90.6485507 86.3144947,91.1662138 C86.3144947,91.2237319 86.2859043,91.2237319 86.2859043,91.2237319 C86.2287234,91.3962862 86.2287234,91.5113225 86.2859043,91.5975996 C86.6289894,92.0289855 88.8590426,90.5047554 91.2320479,88.2327899 C93.6336436,85.9608243 95.3490691,83.7176178 94.9488032,83.34375 C94.8344415,83.2574728 93.8337766,83.6025815 93.3191489,83.7463768 C92.2898936,84.0052083 90.3457447,83.9764493 89.2878989,83.7176178 C87.9441489,83.4012681 85.8856383,80.352808 85.3424202,79.6913496 C84.7992021,79.0298913 82.4833777,76.2977808 82.3118351,75.9526721 C82.2260638,75.8088768 82.0259309,75.4350091 81.7972074,75.0036232 C84.2273936,72.5303442 86.2859043,69.7407156 87.9441489,66.6634964 C88.487367,66.6922554 89.9454787,66.7210145 90.4886968,66.8648098 C91.174867,67.0373641 97.1216755,69.3956069 97.9507979,69.8269928 C98.7799202,70.2296196 100.666888,70.8623188 101.038564,71.8976449 C101.324468,72.7028986 101.982048,76.0677083 102.09641,76.6428895 C102.09641,76.7004076 102.125,76.7291667 102.125,76.7291667 C102.15359,76.9304801 102.210771,77.0455163 102.296543,77.0742754 C102.839761,77.3043478 104.383644,74.7160326 105.755984,71.2649457 C107.042553,67.6700634 107.757314,64.6216033 107.185505,64.477808 Z M61.6409574,85.1268116 L61.6409574,85.1268116 C61.6981383,85.1843297 61.7553191,85.2706069 61.7553191,85.2993659 C61.6981383,85.1843297 61.6409574,85.1268116 61.6409574,85.1268116 Z" id="Shape" fill="#D60B52" fill-rule="nonzero"></path>
                        <ellipse id="Oval" fill="#82368C" fill-rule="nonzero" transform="translate(41.771041, 29.050991) rotate(-30.000728) translate(-41.771041, -29.050991) " cx="41.7710406" cy="29.0509912" rx="10.6797244" ry="4.0203715"></ellipse>
                        <ellipse id="Oval" fill="#82368C" fill-rule="nonzero" transform="translate(70.045056, 45.383812) rotate(-50.624323) translate(-70.045056, -45.383812) " cx="70.0450559" cy="45.3838124" rx="5.85315484" ry="15.5040874"></ellipse>
                        <ellipse id="Oval" fill="#82368C" fill-rule="nonzero" transform="translate(40.426550, 56.170587) rotate(-20.212692) translate(-40.426550, -56.170587) " cx="40.4265501" cy="56.1705873" rx="6.63756736" ry="11.2367303"></ellipse>
                        <ellipse id="Oval" fill="#82368C" fill-rule="nonzero" transform="translate(70.043981, 72.011025) rotate(-45.000000) translate(-70.043981, -72.011025) " cx="70.0439809" cy="72.0110246" rx="7.94284688" ry="5.93566156"></ellipse>
                        <ellipse id="Oval" fill="#82368C" fill-rule="nonzero" cx="45.3444149" cy="76.5566123" rx="7.26196809" ry="5.46422101"></ellipse>
                        <ellipse id="Oval" fill="#82368C" fill-rule="nonzero" cx="23.7300532" cy="47.6825181" rx="3.23071809" ry="3.24977355"></ellipse>
                        <ellipse id="Oval" fill="#82368C" fill-rule="nonzero" cx="63.9567819" cy="20.1313406" rx="2.54454787" ry="2.55955616"></ellipse>
                        <ellipse id="Oval" fill="#82368C" fill-rule="nonzero" cx="82.5405585" cy="63.0686141" rx="2.00132979" ry="2.01313406"></ellipse>
                        <path d="M51.5485372,12.912817 C51.9773936,14.1206975 51.3769947,15.4436141 50.1761968,15.875 C48.9753989,16.3063859 47.6888298,15.7024457 47.231383,14.4945652 C47.1742021,14.5233243 47.0884309,14.5233243 47.0026596,14.5520833 C46.4308511,14.6383605 45.887633,14.2357337 45.8304521,13.6317935 C45.7446809,13.0566123 46.1735372,12.5101902 46.7453457,12.4526721 C46.8597074,12.423913 46.9740691,12.4526721 47.1170213,12.4814312 C46.8882979,12.2225996 46.8025266,11.8487319 46.9168883,11.5036232 C47.0884309,10.9572011 47.6602394,10.6120924 48.2320479,10.7846467 C48.575133,10.899683 48.8324468,11.1585145 48.9182181,11.4748641 C50.0332447,11.2447917 51.1768617,11.8487319 51.5485372,12.912817 Z" id="Path" fill="#82368C" fill-rule="nonzero"></path>
                        <path d="M55.6369681,16.1338315 C54.4647606,16.6227355 53.1210106,16.0763134 52.6349734,14.897192 C52.1489362,13.7180707 52.6921543,12.3663949 53.8643617,11.8774909 C53.8357713,11.8199728 53.8071809,11.7336957 53.8071809,11.6474185 C53.6928191,11.0722373 54.0644947,10.5258152 54.6648936,10.410779 C55.2367021,10.2957428 55.7799202,10.6983696 55.8942819,11.2735507 C55.9228723,11.388587 55.9228723,11.5036232 55.8942819,11.6474185 C56.1515957,11.417346 56.4946809,11.3023098 56.837766,11.417346 C57.4095745,11.5611413 57.7526596,12.1363225 57.6097074,12.7115036 C57.5239362,13.0566123 57.2666223,13.3154438 56.9807181,13.4304801 C57.2380319,14.5233243 56.6948138,15.7024457 55.6369681,16.1338315 Z" id="Path" fill="#82368C" fill-rule="nonzero"></path>
                        <path d="M25.0452128,33.3892663 C26.0172872,34.1945199 26.1602394,35.6324728 25.3882979,36.6390399 C24.587766,37.6168478 23.1582447,37.7894022 22.1575798,36.9841486 C22.1003989,37.0416667 22.0432181,37.0991848 21.9860372,37.1567029 C21.5285904,37.5305707 20.8710106,37.4442935 20.4993351,36.9841486 C20.15625,36.5240036 20.2134309,35.8625453 20.6708777,35.4886775 C20.7566489,35.4024004 20.8710106,35.3448822 20.9853723,35.3161232 C20.6708777,35.201087 20.4135638,34.9422554 20.3277926,34.5971467 C20.1848404,34.0219656 20.5279255,33.4467844 21.099734,33.3029891 C21.4428191,33.216712 21.7859043,33.3029891 22.0432181,33.5330616 C22.8723404,32.727808 24.1589096,32.6702899 25.0452128,33.3892663 Z" id="Path" fill="#82368C" fill-rule="nonzero"></path>
                        <path d="M27.7327128,32.6127717 C26.9893617,33.6480978 25.5598404,33.8494112 24.5305851,33.1016757 C23.5013298,32.3539402 23.3011968,30.9159873 24.0445479,29.8806612 C23.987367,29.8231431 23.9301862,29.7943841 23.8730053,29.7081069 C23.4727394,29.276721 23.5299202,28.6152627 23.987367,28.2126359 C24.4162234,27.8387681 25.1023936,27.8675272 25.4740691,28.3276721 C25.5598404,28.4139493 25.6170213,28.5289855 25.6742021,28.6440217 C25.7599734,28.3276721 26.0172872,28.0400815 26.3603723,27.9538043 C26.9321809,27.78125 27.5039894,28.0975996 27.6755319,28.6727808 C27.7613032,29.0178895 27.7041223,29.3629982 27.5039894,29.6218297 C28.2759309,30.3983243 28.418883,31.6924819 27.7327128,32.6127717 Z" id="Path" fill="#82368C" fill-rule="nonzero"></path>
                        <path d="M37.1103723,18.9522192 C37.5392287,20.1600996 36.9388298,21.4830163 35.7380319,21.9144022 C34.537234,22.345788 33.2506649,21.7418478 32.7932181,20.5339674 C32.7360372,20.5627264 32.650266,20.5627264 32.5644947,20.5914855 C31.9926862,20.6777627 31.4494681,20.2751359 31.3922872,19.6711957 C31.306516,19.0960145 31.7353723,18.5495924 32.3071809,18.4920743 C32.4215426,18.4633152 32.5359043,18.4920743 32.6788564,18.5208333 C32.450133,18.2620018 32.3643617,17.8881341 32.4787234,17.5430254 C32.650266,16.9966033 33.2220745,16.6514946 33.793883,16.8240489 C34.1369681,16.9390851 34.3942819,17.1979167 34.4800532,17.5142663 C35.5950798,17.2554348 36.7101064,17.859375 37.1103723,18.9522192 Z" id="Path" fill="#82368C" fill-rule="nonzero"></path>
                        <path d="M38.8829787,19.9587862 C37.7107713,20.4476902 36.3670213,19.9012681 35.880984,18.7221467 C35.3949468,17.5430254 35.9381649,16.1913496 37.1103723,15.7024457 C37.0817819,15.6449275 37.0531915,15.5586504 37.0531915,15.4723732 C36.9388298,14.897192 37.3105053,14.3507699 37.9109043,14.2357337 C38.4827128,14.1206975 39.0259309,14.5233243 39.1402926,15.0985054 C39.168883,15.2135417 39.168883,15.3285779 39.1402926,15.4723732 C39.3976064,15.2423007 39.7406915,15.1272645 40.0837766,15.2423007 C40.6555851,15.386096 40.9986702,15.9612772 40.8557181,16.5364583 C40.7699468,16.881567 40.512633,17.1403986 40.2267287,17.2554348 C40.4840426,18.348279 39.9408245,19.4986413 38.8829787,19.9587862 Z" id="Path" fill="#82368C" fill-rule="nonzero"></path>
                        <path d="M72.962766,14.7533967 C73.3916223,15.9612772 72.7912234,17.2841938 71.5904255,17.7155797 C70.3896277,18.1469656 69.1030585,17.5430254 68.6456117,16.3351449 C68.5884309,16.363904 68.5026596,16.363904 68.4168883,16.392663 C67.8450798,16.4789402 67.3018617,16.0763134 67.2446809,15.4723732 C67.1589096,14.897192 67.587766,14.3507699 68.1595745,14.2932518 C68.2739362,14.2644928 68.3882979,14.2932518 68.53125,14.3220109 C68.3025266,14.0631793 68.2167553,13.6893116 68.331117,13.3442029 C68.5026596,12.7977808 69.0744681,12.4526721 69.6462766,12.6252264 C69.9893617,12.7402627 70.2466755,12.9990942 70.3324468,13.3154438 C71.4474734,13.0853714 72.5625,13.6893116 72.962766,14.7533967 Z" id="Path" fill="#82368C" fill-rule="nonzero"></path>
                        <path d="M76.0219415,19.0960145 C74.849734,19.5849185 73.505984,19.0384964 73.0199468,17.859375 C72.5339096,16.6802536 73.0771277,15.3285779 74.2493351,14.8396739 C74.2207447,14.7821558 74.1921543,14.6958786 74.1921543,14.6096014 C74.0777926,14.0344203 74.4494681,13.4879982 75.049867,13.372962 C75.6216755,13.2579257 76.1648936,13.6605525 76.2792553,14.2357337 C76.3078457,14.3507699 76.3078457,14.4658062 76.2792553,14.6096014 C76.5365691,14.379529 76.8796543,14.2644928 77.2227394,14.379529 C77.7945479,14.5233243 78.137633,15.0985054 77.9946809,15.6736866 C77.9089096,16.0187953 77.6515957,16.2776268 77.3656915,16.392663 C77.6230053,17.4855072 77.0797872,18.6358696 76.0219415,19.0960145 Z" id="Path" fill="#82368C" fill-rule="nonzero"></path>
                        <path d="M86.6289894,27.4073822 C87.8869681,27.3498641 88.9448138,28.3564312 89.0019947,29.6218297 C89.0591755,30.8872283 88.0585106,31.9513134 86.8005319,32.0088315 C86.8005319,32.0951087 86.8005319,32.1526268 86.7719415,32.238904 C86.6861702,32.8140851 86.1143617,33.1879529 85.5425532,33.1016757 C84.9707447,32.9866395 84.5990691,32.4402174 84.6848404,31.8650362 C84.7134309,31.75 84.7420213,31.6349638 84.7992021,31.5199275 C84.4847074,31.6637228 84.1130319,31.6349638 83.8271277,31.4048913 C83.3410904,31.0597826 83.2267287,30.3983243 83.5698138,29.9094203 C83.7699468,29.6218297 84.1130319,29.4492754 84.4275266,29.4492754 C84.5418883,28.3564312 85.4853723,27.4649004 86.6289894,27.4073822 Z" id="Path" fill="#82368C" fill-rule="nonzero"></path>
                        <path d="M85.4281915,29.4780344 C84.255984,29.9669384 82.912234,29.4205163 82.4261968,28.2413949 C81.9401596,27.0622736 82.4833777,25.7105978 83.6555851,25.2216938 C83.6269947,25.1641757 83.5984043,25.0778986 83.5984043,24.9916214 C83.4840426,24.4164402 83.8557181,23.8700181 84.456117,23.7549819 C85.0279255,23.6399457 85.5711436,24.0425725 85.6855053,24.6177536 C85.7140957,24.7327899 85.7140957,24.8478261 85.6855053,24.9916214 C85.9428191,24.7615489 86.2859043,24.6465127 86.6289894,24.7615489 C87.2007979,24.9053442 87.543883,25.4805254 87.4009309,26.0557065 C87.3151596,26.4008152 87.0578457,26.6596467 86.7719415,26.774683 C87.0578457,27.8675272 86.4860372,29.0178895 85.4281915,29.4780344 Z" id="Path" fill="#82368C" fill-rule="nonzero"></path>
                        <path d="M32.3929521,77.1605525 C31.4780585,78.0233243 30.0199468,77.9945652 29.162234,77.0742754 C28.3045213,76.1539855 28.3331117,74.6872736 29.2480053,73.8245018 C29.1908245,73.7669837 29.162234,73.7094656 29.1050532,73.6231884 C28.7905585,73.1342844 28.9621011,72.4728261 29.4767287,72.1564764 C29.962766,71.8688859 30.6203457,72.0126812 30.9348404,72.5303442 C30.9920213,72.6453804 31.0492021,72.7604167 31.0492021,72.8754529 C31.1921543,72.5591033 31.5066489,72.3577899 31.849734,72.3002717 C32.4215426,72.2427536 32.9647606,72.6453804 33.0219415,73.2493207 C33.0505319,73.5944293 32.9075798,73.939538 32.6788564,74.1696105 C33.3364362,75.0611413 33.2220745,76.3552989 32.3929521,77.1605525 Z" id="Path" fill="#82368C" fill-rule="nonzero"></path>
                        <path d="M32.1642287,79.1736866 C31.2493351,78.2821558 31.2207447,76.8442029 32.1070479,75.923913 C32.9933511,75.0036232 34.4228723,74.9748641 35.337766,75.8663949 C35.3949468,75.8088768 35.4521277,75.7513587 35.5093085,75.7225996 C35.9953457,75.3774909 36.6529255,75.5212862 36.9674202,76.0101902 C37.2819149,76.4990942 37.1675532,77.1605525 36.681516,77.4769022 C36.5671543,77.5344203 36.481383,77.5919384 36.3384309,77.6206975 C36.6529255,77.7644928 36.8816489,78.0520833 36.9388298,78.397192 C37.0246011,78.9723732 36.6529255,79.5187953 36.081117,79.6338315 C35.7380319,79.6913496 35.3949468,79.5763134 35.1662234,79.3174819 C34.2799202,80.0076993 32.9933511,79.9789402 32.1642287,79.1736866 Z" id="Path" fill="#82368C" fill-rule="nonzero"></path>
                        <path d="M87.8869681,63.4137228 C86.7147606,62.9535779 86.1429521,61.6019022 86.6003989,60.4227808 C87.0578457,59.2436594 88.4015957,58.6684783 89.5738032,59.1286232 C89.6023936,59.0711051 89.630984,58.9848279 89.6881649,58.9273098 C90.0026596,58.4384058 90.6602394,58.3233696 91.1462766,58.6397192 C91.6323138,58.9848279 91.7466755,59.6462862 91.4321809,60.1064312 C91.375,60.2214674 91.2892287,60.3077446 91.174867,60.3652627 C91.5179521,60.3652627 91.8324468,60.537817 92.0325798,60.8541667 C92.318484,61.3430707 92.1755319,62.004529 91.6894947,62.3208786 C91.375,62.493433 91.0319149,62.522192 90.7174202,62.3783967 C90.1456117,63.4137228 88.9448138,63.8451087 87.8869681,63.4137228 Z" id="Path" fill="#82368C" fill-rule="nonzero"></path>
                        <path d="M85.9428191,64.0751812 C86.3430851,62.8673007 87.6582447,62.2346014 88.8590426,62.6372283 C90.0598404,63.0398551 90.6888298,64.3627717 90.2885638,65.5706522 C90.3457447,65.5994112 90.431516,65.6281703 90.4886968,65.6856884 C91.0033245,65.973279 91.1462766,66.6347373 90.8317819,67.1524004 C90.5172872,67.6413043 89.8882979,67.8138587 89.3736702,67.4975091 C89.2593085,67.4399909 89.1735372,67.3537138 89.1163564,67.2674366 C89.1163564,67.6125453 88.9734043,67.957654 88.6589096,68.1302083 C88.1728723,68.446558 87.5152926,68.3315217 87.2007979,67.8426178 C87.0006649,67.5550272 86.9720745,67.1811594 87.0864362,66.8648098 C86.0857713,66.3471467 85.5711436,65.1680254 85.9428191,64.0751812 Z" id="Path" fill="#82368C" fill-rule="nonzero"></path>
                        <path d="M22.9295213,64.0464221 C24.1875,63.988904 25.2453457,64.995471 25.3025266,66.2608696 C25.3597074,67.5262681 24.3590426,68.5903533 23.1010638,68.6478714 C23.1010638,68.7341486 23.1010638,68.7916667 23.0724734,68.8779438 C22.9867021,69.453125 22.4148936,69.8269928 21.8430851,69.7407156 C21.2712766,69.6256793 20.8996011,69.0792572 20.9853723,68.5040761 C21.0139628,68.3890399 21.0425532,68.2740036 21.099734,68.1589674 C20.7852394,68.3027627 20.4135638,68.2740036 20.1276596,68.0439312 C19.6416223,67.6988225 19.5272606,67.0373641 19.8703457,66.5484601 C20.0704787,66.2608696 20.4135638,66.0883152 20.7280585,66.0883152 C20.8710106,64.995471 21.7859043,64.1039402 22.9295213,64.0464221 Z" id="Path" fill="#82368C" fill-rule="nonzero"></path>
                        <path d="M21.7573138,66.1170743 C20.5851064,66.6059783 19.2413564,66.0595562 18.7553191,64.8804348 C18.2692819,63.7013134 18.8125,62.3496377 19.9847074,61.8607337 C19.956117,61.8032156 19.9275266,61.7169384 19.9275266,61.6306612 C19.8131649,61.0554801 20.1848404,60.509058 20.7852394,60.3940217 C21.3570479,60.2789855 21.900266,60.6816123 22.0146277,61.2567935 C22.0432181,61.3718297 22.0432181,61.4868659 22.0146277,61.6306612 C22.2719415,61.4005888 22.6150266,61.2855525 22.9581117,61.4005888 C23.5299202,61.5443841 23.8730053,62.1195652 23.7300532,62.6947464 C23.6442819,63.0398551 23.3869681,63.2986866 23.1010638,63.4137228 C23.3583777,64.506567 22.8151596,65.6569293 21.7573138,66.1170743 Z" id="Path" fill="#82368C" fill-rule="nonzero"></path>
                        <path d="M63.8996011,84.6091486 C64.1569149,85.845788 63.356383,87.0824275 62.1269947,87.3412591 C60.8976064,87.6000906 59.6682181,86.823596 59.4109043,85.5581975 C59.325133,85.5869565 59.2679521,85.5869565 59.1821809,85.5869565 C58.5817819,85.5869565 58.1243351,85.0980525 58.1529255,84.5228714 C58.1529255,83.9476902 58.6389628,83.4587862 59.2107713,83.4875453 C59.325133,83.4875453 59.4394947,83.5163043 59.5538564,83.5450634 C59.3823138,83.2574728 59.3537234,82.8836051 59.4966755,82.5672554 C59.7539894,82.0495924 60.3543883,81.7907609 60.8976064,82.0495924 C61.2121011,82.1933877 61.4408245,82.5097373 61.4980053,82.826087 C62.6130319,82.7110507 63.6422872,83.4875453 63.8996011,84.6091486 Z" id="Path" fill="#82368C" fill-rule="nonzero"></path>
                        <path d="M66.4727394,85.7019928 C65.2433511,86.0183424 63.9853723,85.2993659 63.6708777,84.0627264 C63.356383,82.826087 64.0711436,81.5894475 65.3005319,81.2443388 C65.2719415,81.1580616 65.2719415,81.1005435 65.2719415,81.0142663 C65.2433511,80.4390851 65.7007979,79.9501812 66.3011968,79.9214221 C66.8730053,79.892663 67.387633,80.352808 67.387633,80.9567482 C67.387633,81.0717844 67.387633,81.1868207 67.3304521,81.3306159 C67.6163564,81.1293025 67.9880319,81.0717844 68.3025266,81.2155797 C68.8457447,81.4456522 69.1030585,82.0495924 68.8743351,82.5960145 C68.731383,82.9123641 68.4454787,83.1424366 68.130984,83.2287138 C68.2739362,84.350317 67.587766,85.4144022 66.4727394,85.7019928 Z" id="Path" fill="#82368C" fill-rule="nonzero"></path>
                        <path d="M91.6609043,44.4902627 C92.71875,45.1804801 93.0046543,46.618433 92.318484,47.6825181 C91.6323138,48.7466033 90.2027926,49.0341938 89.1449468,48.3439764 C89.1163564,48.4014946 89.0591755,48.4590127 89.0019947,48.5165308 C88.5731383,48.9191576 87.9155585,48.9191576 87.5152926,48.4877717 C87.1150266,48.0563859 87.1150266,47.3949275 87.543883,46.9923007 C87.6296543,46.9060236 87.744016,46.8485054 87.8297872,46.7909873 C87.4867021,46.7047101 87.2293883,46.4746377 87.0864362,46.129529 C86.8863032,45.5831069 87.1722074,44.9791667 87.7154255,44.7778533 C88.0585106,44.662817 88.4015957,44.7203351 88.6589096,44.8928895 C89.4594415,44.0588768 90.7174202,43.8575634 91.6609043,44.4902627 Z" id="Path" fill="#82368C" fill-rule="nonzero"></path>
                        <path d="M93.6908245,44.2601902 C93.0618351,45.3530344 91.6323138,45.7269022 90.5458777,45.0654438 C89.4594415,44.4327446 89.087766,43.0235507 89.7453457,41.9019475 C89.6881649,41.8731884 89.630984,41.8156703 89.5738032,41.7581522 C89.1449468,41.3555254 89.1163564,40.694067 89.5166223,40.2626812 C89.9168883,39.8312953 90.5744681,39.8025362 91.0033245,40.205163 C91.0890957,40.2914402 91.174867,40.3777174 91.2320479,40.4927536 C91.2892287,40.1476449 91.5179521,39.8600543 91.8610372,39.7162591 C92.4042553,39.4861866 93.0046543,39.7450181 93.2333777,40.2914402 C93.3763298,40.6077899 93.3191489,40.9816576 93.1476064,41.2692482 C94.0053191,41.9882246 94.262633,43.2536232 93.6908245,44.2601902 Z" id="Path" fill="#82368C" fill-rule="nonzero"></path>
                        <path d="M47.6888298,83.5163043 C48.2892287,82.3947011 49.6901596,81.9920743 50.8051862,82.6247736 C51.9202128,83.2287138 52.3204787,84.6379076 51.6914894,85.7595109 C51.7486702,85.7882699 51.8058511,85.845788 51.8916223,85.9033062 C52.3490691,86.2771739 52.3776596,86.9673913 51.9773936,87.3987772 C51.5771277,87.830163 50.9195479,87.8876812 50.4906915,87.4850543 C50.4049202,87.3987772 50.3191489,87.3125 50.2619681,87.1974638 C50.2047872,87.5425725 50.0046543,87.830163 49.6615691,87.9739583 C49.1183511,88.2040308 48.5179521,87.9739583 48.2606383,87.4562953 C48.1176862,87.1399457 48.1462766,86.7660779 48.3178191,86.4784873 C47.431516,85.7595109 47.1456117,84.5228714 47.6888298,83.5163043 Z" id="Path" fill="#82368C" fill-rule="nonzero"></path>
                        <path d="M47.2885638,81.5031703 C48.4321809,82.0495924 48.8896277,83.4300272 48.3464096,84.5803895 C47.8031915,85.7307518 46.4308511,86.1908967 45.287234,85.6444746 C45.2586436,85.7019928 45.2014628,85.7882699 45.1728723,85.845788 C44.8011968,86.305933 44.143617,86.3922101 43.6861702,86.0183424 C43.2287234,85.6444746 43.1715426,84.9830163 43.5146277,84.5228714 C43.6003989,84.4365942 43.6861702,84.350317 43.7719415,84.2927989 C43.4288564,84.2640399 43.1143617,84.0627264 42.9714096,83.7176178 C42.7140957,83.1999547 42.9142287,82.5672554 43.4288564,82.2796649 C43.7433511,82.1358696 44.1150266,82.1358696 44.4009309,82.2796649 C45.0299202,81.359375 46.2593085,80.9855072 47.2885638,81.5031703 Z" id="Path" fill="#82368C" fill-rule="nonzero"></path>
                        <path d="M80.6535904,76.5853714 C79.3956117,76.412817 78.5378989,75.2336957 78.7094415,73.9970562 C78.880984,72.7316576 80.0246011,71.8688859 81.2825798,72.0414402 C81.2825798,71.955163 81.3111702,71.8976449 81.3397606,71.8113678 C81.5398936,71.2649457 82.1402926,70.9773551 82.7121011,71.2074275 C83.2553191,71.4087409 83.5412234,72.0414402 83.3125,72.5878623 C83.2553191,72.7028986 83.1981383,72.8179348 83.1409574,72.904212 C83.4554521,72.8179348 83.8271277,72.932971 84.0844415,73.1918025 C84.4847074,73.5944293 84.5132979,74.2846467 84.0844415,74.6872736 C83.8271277,74.9461051 83.4840426,75.0323822 83.1695479,74.9748641 C82.8550532,76.0101902 81.7972074,76.7291667 80.6535904,76.5853714 Z" id="Path" fill="#82368C" fill-rule="nonzero"></path>
                        <path d="M75.4215426,77.2468297 C75.5359043,75.9814312 76.6509309,75.0611413 77.9089096,75.1761775 C79.1668883,75.2912138 80.0817819,76.412817 79.9674202,77.6782156 C80.0531915,77.6782156 80.1103723,77.7069746 80.1961436,77.7357337 C80.7679521,77.908288 81.0538564,78.5122283 80.8823138,79.0586504 C80.7107713,79.6050725 80.1103723,79.9214221 79.5671543,79.7488678 C79.4527926,79.7201087 79.3384309,79.6625906 79.2526596,79.5763134 C79.3384309,79.892663 79.2526596,80.2665308 79.0239362,80.5253623 C78.6236702,80.9567482 77.9660904,80.9855072 77.537234,80.6116395 C77.2799202,80.381567 77.1655585,80.0364583 77.1941489,79.6913496 C76.0791223,79.4325181 75.3357713,78.397192 75.4215426,77.2468297 Z" id="Path" fill="#82368C" fill-rule="nonzero"></path>
                        <path d="M19.1269947,47.9413496 C18.0691489,48.631567 17.7832447,50.0695199 18.4694149,51.1336051 C19.1555851,52.1976902 20.5851064,52.4852808 21.6429521,51.7950634 C21.6715426,51.8525815 21.7287234,51.9100996 21.7859043,51.9676178 C22.2147606,52.3702446 22.8723404,52.3702446 23.2726064,51.9388587 C23.6728723,51.5074728 23.6728723,50.8460145 23.244016,50.4433877 C23.1582447,50.3571105 23.043883,50.2995924 22.9581117,50.2420743 C23.3011968,50.1557971 23.5585106,49.9257246 23.7014628,49.5806159 C23.9015957,49.0341938 23.6156915,48.4302536 23.0724734,48.2289402 C22.7293883,48.113904 22.3863032,48.1714221 22.1289894,48.3439764 C21.3570479,47.4812047 20.0990691,47.3086504 19.1269947,47.9413496 Z" id="Path" fill="#82368C" fill-rule="nonzero"></path>
                        <path d="M17.1256649,47.6825181 C17.7546543,48.7753623 19.1841755,49.1492301 20.2706117,48.4877717 C21.3570479,47.8550725 21.7287234,46.4458786 21.0711436,45.3242754 C21.1283245,45.2955163 21.1855053,45.2379982 21.2426862,45.1804801 C21.6715426,44.7778533 21.700133,44.1163949 21.299867,43.6850091 C20.8996011,43.2536232 20.2420213,43.2248641 19.8131649,43.6274909 C19.7273936,43.7137681 19.6416223,43.8000453 19.5844415,43.9150815 C19.5272606,43.5699728 19.2985372,43.2823822 18.9554521,43.138587 C18.412234,42.9085145 17.8118351,43.167346 17.5831117,43.7137681 C17.4401596,44.0301178 17.4973404,44.4039855 17.668883,44.6915761 C16.7825798,45.4105525 16.5538564,46.6759511 17.1256649,47.6825181 Z" id="Path" fill="#82368C" fill-rule="nonzero"></path>
                        <ellipse id="Oval" fill="#FFFFFF" fill-rule="nonzero" transform="translate(73.281661, 25.478895) rotate(-39.473240) translate(-73.281661, -25.478895) " cx="73.2816607" cy="25.4788947" rx="2.14933806" ry="1.57796827"></ellipse>
                        <path d="M83.0551862,41.9594656 C81.768617,41.0104167 81.8829787,39.7450181 78.7380319,36.696558 C77.1655585,35.1723279 74.8211436,33.7631341 73.8490691,31.6924819 C73.1628989,30.2257699 73.90625,28.1551178 75.4215426,27.3498641 C77.3942819,26.285779 80.1961436,28.5865036 82.369016,32.1238678 C84.1702128,35.1435688 85.056516,43.3974185 83.0551862,41.9594656 Z" id="Path" fill="#FFFFFF" fill-rule="nonzero"></path>
                    </g>
                </g>
                <path d="M40.125,103.219587 C41.2916667,103.219587 42.4583333,103.136253 43.625,102.969587 C44.8472222,102.858475 46.0277778,102.67792 47.1666667,102.42792 C48.3055556,102.17792 49.4305556,101.886253 50.5416667,101.55292 C51.6527778,101.219587 52.7638889,100.844587 53.875,100.42792 C54.9861111,100.011253 56.0416667,99.5251421 57.0416667,98.9695865 C57.5972222,98.6918087 58.125,98.4140309 58.625,98.1362532 C59.125,97.8584754 59.5972222,97.5529198 60.0416667,97.2195865 C60.3194444,97.0529198 60.5694444,96.9001421 60.7916667,96.7612532 C61.0138889,96.6223643 61.2361111,96.4695865 61.4583333,96.3029198 C61.8472222,96.0251421 62.3194444,95.6640309 62.875,95.2195865 C64.6527778,93.8306976 66.2916667,92.3029198 67.7916667,90.6362532 C69.2916667,88.9695865 70.5972222,87.1918087 71.7083333,85.3029198 C72.8194444,83.5806976 73.7638889,81.6640309 74.5416667,79.5529198 C75.2638889,77.6084754 75.8472222,75.5529198 76.2916667,73.3862532 C76.625,71.3306976 76.7777778,69.2890309 76.75,67.2612532 C76.7222222,65.2334754 76.4861111,63.2473643 76.0416667,61.3029198 C75.7638889,60.2473643 75.3055556,59.2890309 74.6666667,58.4279198 C74.0277778,57.5668087 73.1805556,56.8862532 72.125,56.3862532 C70.2916667,55.4973643 68.4305556,55.3862532 66.5416667,56.0529198 C64.6527778,56.7195865 63.2638889,57.9695865 62.375,59.8029198 L62.375,59.8029198 L61.875,60.8862532 L61.4583333,61.7195865 C61.3472222,61.8862532 61.2777778,62.0390309 61.25,62.1779198 C61.2222222,62.3168087 61.1527778,62.4418087 61.0416667,62.5529198 C60.875,62.8306976 60.7222222,63.0945865 60.5833333,63.3445865 C60.4444444,63.5945865 60.2916667,63.8584754 60.125,64.1362532 C59.625,65.0251421 58.9861111,65.9418087 58.2083333,66.8862532 C57.5416667,67.7751421 56.8472222,68.5529198 56.125,69.2195865 C55.7361111,69.6084754 55.3472222,69.9556976 54.9583333,70.2612532 C54.5694444,70.5668087 54.1805556,70.8584754 53.7916667,71.1362532 C52.1805556,72.2473643 50.5694444,73.0806976 48.9583333,73.6362532 C48.8472222,73.6918087 48.75,73.7195865 48.6666667,73.7195865 C48.5833333,73.7195865 48.4861111,73.7473643 48.375,73.8029198 C48.2638889,73.8584754 48.1666667,73.8862532 48.0833333,73.8862532 C48,73.8862532 47.9027778,73.9140309 47.7916667,73.9695865 C47.2361111,74.0806976 46.8472222,74.1640309 46.625,74.2195865 C45.7916667,74.3862532 45.0138889,74.4695865 44.2916667,74.4695865 L44.2916667,74.4695865 L43.1666667,74.4695865 C42.8055556,74.4695865 42.4305556,74.4418087 42.0416667,74.3862532 C41.7638889,74.3862532 41.4027778,74.3306976 40.9583333,74.2195865 C40.6805556,74.1640309 40.3194444,74.0806976 39.875,73.9695865 C39.5416667,73.8584754 39.2083333,73.7612532 38.875,73.6779198 C38.5416667,73.5945865 38.2083333,73.4695865 37.875,73.3029198 C37.1527778,73.0251421 36.5416667,72.7473643 36.0416667,72.4695865 C34.7638889,71.8029198 33.5972222,70.9695865 32.5416667,69.9695865 C31.4861111,69.0806976 30.5138889,67.9695865 29.625,66.6362532 C29.1805556,66.0251421 28.7916667,65.3584754 28.4583333,64.6362532 C28.125,63.9140309 27.8472222,63.1640309 27.625,62.3862532 C27.3472222,61.5529198 27.1805556,60.7195865 27.125,59.8862532 C27.0694444,59.4418087 27.0277778,59.0112532 27,58.5945865 C26.9722222,58.1779198 26.9583333,57.7473643 26.9583333,57.3029198 C26.9583333,55.5806976 27.2083333,53.8306976 27.7083333,52.0529198 C27.9861111,51.1640309 28.3055556,50.2751421 28.6666667,49.3862532 C29.0277778,48.4973643 29.4861111,47.6362532 30.0416667,46.8029198 C31.1527778,45.1362532 32.5416667,43.6640309 34.2083333,42.3862532 C35.9861111,41.0529198 37.9305556,40.1084754 40.0416667,39.5529198 C40.3194444,39.4418087 40.5972222,39.3723643 40.875,39.3445865 C41.1527778,39.3168087 41.4305556,39.2751421 41.7083333,39.2195865 L41.7083333,39.2195865 L43.4583333,38.9695865 C44.0694444,38.9140309 44.6527778,38.9001421 45.2083333,38.9279198 C45.7638889,38.9556976 46.3472222,38.9973643 46.9583333,39.0529198 C47.5694444,39.1640309 48.1666667,39.2612532 48.75,39.3445865 C49.3333333,39.4279198 49.9305556,39.5529198 50.5416667,39.7195865 C50.8194444,39.8306976 51.1111111,39.9418087 51.4166667,40.0529198 C51.7222222,40.1640309 52.0138889,40.2751421 52.2916667,40.3862532 C52.625,40.4973643 52.9305556,40.6084754 53.2083333,40.7195865 C53.2638889,40.7751421 53.3194444,40.8029198 53.375,40.8029198 C53.4305556,40.8029198 53.5138889,40.8306976 53.625,40.8862532 L53.625,40.8862532 L53.7916667,40.9695865 L53.875,40.9695865 L53.875,41.0529198 L53.9583333,41.0529198 L54.0416667,41.1362532 C55.0972222,41.6918087 56.2083333,41.8723643 57.375,41.6779198 C58.5416667,41.4834754 59.5416667,40.9418087 60.375,40.0529198 C61.3194444,38.9973643 61.7777778,37.7473643 61.75,36.3029198 C61.7222222,34.8584754 61.1527778,33.6362532 60.0416667,32.6362532 L60.0416667,32.6362532 L59.875,32.4695865 L59.5416667,32.2195865 L59.0416667,31.7195865 C58.875,31.6084754 58.6944444,31.4695865 58.5,31.3029198 C58.3055556,31.1362532 58.125,30.9973643 57.9583333,30.8862532 C57.2916667,30.3306976 56.5138889,29.8029198 55.625,29.3029198 C54.8472222,28.8029198 54.0416667,28.3306976 53.2083333,27.8862532 C52.375,27.4418087 51.4861111,27.0251421 50.5416667,26.6362532 C48.7083333,25.9140309 46.8472222,25.3584754 44.9583333,24.9695865 C44.0694444,24.7473643 43.0972222,24.5806976 42.0416667,24.4695865 C41.5972222,24.3584754 41.125,24.2890309 40.625,24.2612532 C40.125,24.2334754 39.625,24.1918087 39.125,24.1362532 L39.125,24.1362532 L36.125,24.1362532 C35.625,24.1918087 35.125,24.2334754 34.625,24.2612532 C34.125,24.2890309 33.5972222,24.3306976 33.0416667,24.3862532 L33.0416667,24.3862532 L30.0416667,24.8862532 L27.0416667,25.6362532 C24.9305556,26.2473643 22.9861111,26.9973643 21.2083333,27.8862532 C20.2638889,28.3862532 19.3333333,28.9140309 18.4166667,29.4695865 C17.5,30.0251421 16.5972222,30.6084754 15.7083333,31.2195865 C12.1527778,33.7751421 9.15277778,36.8584754 6.70833333,40.4695865 C5.43055556,42.3029198 4.33333333,44.2334754 3.41666667,46.2612532 C2.5,48.2890309 1.76388889,50.4140309 1.20833333,52.6362532 C0.930555556,53.7473643 0.708333333,54.8584754 0.541666667,55.9695865 C0.375,57.0806976 0.236111111,58.1918087 0.125,59.3029198 C-0.0416666667,61.5251421 -0.0416666667,63.7751421 0.125,66.0529198 C0.291666667,68.3862532 0.652777778,70.6640309 1.20833333,72.8862532 C1.76388889,75.1084754 2.51388889,77.3029198 3.45833333,79.4695865 C5.29166667,83.7473643 7.875,87.6362532 11.2083333,91.1362532 C12.0416667,91.9695865 12.9027778,92.7751421 13.7916667,93.5529198 C14.6805556,94.3306976 15.5972222,95.0806976 16.5416667,95.8029198 C18.4861111,97.2473643 20.5416667,98.4695865 22.7083333,99.4695865 C24.875,100.469587 27.125,101.30292 29.4583333,101.969587 C31.9027778,102.580698 34.2638889,102.969587 36.5416667,103.136253 C37.1527778,103.191809 37.75,103.219587 38.3333333,103.219587 L38.3333333,103.219587 L40.125,103.219587 Z M54.7083333,35.3862532 C54.0972222,35.3862532 53.5833333,35.1779198 53.1666667,34.7612532 C52.75,34.3445865 52.5416667,33.8306976 52.5416667,33.2195865 C52.5416667,32.6084754 52.75,32.0806976 53.1666667,31.6362532 C53.5833333,31.1918087 54.0972222,30.9695865 54.7083333,30.9695865 C55.3194444,30.9695865 55.8472222,31.1918087 56.2916667,31.6362532 C56.7361111,32.0806976 56.9583333,32.6084754 56.9583333,33.2195865 C56.9583333,33.8306976 56.7361111,34.3445865 56.2916667,34.7612532 C55.8472222,35.1779198 55.3194444,35.3862532 54.7083333,35.3862532 Z M70.7083333,63.5529198 C70.0972222,63.5529198 69.5833333,63.3445865 69.1666667,62.9279198 C68.75,62.5112532 68.5416667,61.9973643 68.5416667,61.3862532 C68.5416667,60.7751421 68.75,60.2473643 69.1666667,59.8029198 C69.5833333,59.3584754 70.0972222,59.1362532 70.7083333,59.1362532 C71.3194444,59.1362532 71.8472222,59.3584754 72.2916667,59.8029198 C72.7361111,60.2473643 72.9583333,60.7751421 72.9583333,61.3862532 C72.9583333,61.9973643 72.7361111,62.5112532 72.2916667,62.9279198 C71.8472222,63.3445865 71.3194444,63.5529198 70.7083333,63.5529198 Z M25.2916667,70.9695865 C24.6805556,70.9695865 24.1666667,70.7612532 23.75,70.3445865 C23.3333333,69.9279198 23.125,69.4140309 23.125,68.8029198 C23.125,68.1918087 23.3333333,67.6640309 23.75,67.2195865 C24.1666667,66.7751421 24.6805556,66.5529198 25.2916667,66.5529198 C25.9027778,66.5529198 26.4305556,66.7751421 26.875,67.2195865 C27.3194444,67.6640309 27.5416667,68.1918087 27.5416667,68.8029198 C27.5416667,69.4140309 27.3194444,69.9279198 26.875,70.3445865 C26.4305556,70.7612532 25.9027778,70.9695865 25.2916667,70.9695865 Z M193.083333,102.636253 C195.055556,102.636253 197.013889,102.219587 198.958333,101.386253 C199.625,101.05292 200.347222,100.664031 201.125,100.219587 C202.736111,99.2751421 204.125,98.0668087 205.291667,96.5945865 C206.458333,95.1223643 207.347222,93.4418087 207.958333,91.5529198 L207.958333,91.5529198 L225.041667,35.3029198 C225.486111,33.8029198 225.444444,32.3029198 224.916667,30.8029198 C224.388889,29.3029198 223.430556,28.1084754 222.041667,27.2195865 C221.208333,26.7195865 220.319444,26.3862532 219.375,26.2195865 C218.430556,26.0529198 217.513889,26.0806976 216.625,26.3029198 C215.736111,26.5251421 214.902778,26.9001421 214.125,27.4279198 C213.347222,27.9556976 212.680556,28.6362532 212.125,29.4695865 L212.125,29.4695865 L195.458333,55.8862532 L183.208333,27.6362532 C182.597222,26.1918087 181.583333,25.0668087 180.166667,24.2612532 C178.75,23.4556976 177.236111,23.1918087 175.625,23.4695865 C174.625,23.5806976 173.722222,23.8862532 172.916667,24.3862532 C172.111111,24.8862532 171.444444,25.4973643 170.916667,26.2195865 C170.388889,26.9418087 170,27.7612532 169.75,28.6779198 C169.5,29.5945865 169.430556,30.5529198 169.541667,31.5529198 L169.541667,31.5529198 L178.041667,89.7195865 C178.152778,90.3306976 178.291667,90.9695865 178.458333,91.6362532 C178.625,92.3029198 178.847222,92.9418087 179.125,93.5529198 C179.958333,95.4973643 181.097222,97.1501421 182.541667,98.5112532 C183.986111,99.8723643 185.611111,100.900142 187.416667,101.594587 C189.222222,102.289031 191.111111,102.636253 193.083333,102.636253 Z M192.125,60.3862532 C191.680556,60.4973643 191.208333,60.4418087 190.708333,60.2195865 C190.208333,59.9973643 189.847222,59.6640309 189.625,59.2195865 L189.625,59.2195865 L177.208333,30.4695865 C176.986111,30.0251421 176.986111,29.5668087 177.208333,29.0945865 C177.430556,28.6223643 177.819444,28.2473643 178.375,27.9695865 C178.819444,27.8584754 179.291667,27.9140309 179.791667,28.1362532 C180.291667,28.3584754 180.652778,28.6640309 180.875,29.0529198 L180.875,29.0529198 L193.291667,57.9695865 C193.513889,58.4140309 193.486111,58.8862532 193.208333,59.3862532 C192.930556,59.8862532 192.569444,60.2195865 192.125,60.3862532 Z M220.291667,33.9695865 C219.680556,33.9695865 219.166667,33.7612532 218.75,33.3445865 C218.333333,32.9279198 218.125,32.4140309 218.125,31.8029198 C218.125,31.1918087 218.333333,30.6640309 218.75,30.2195865 C219.166667,29.7751421 219.680556,29.5529198 220.291667,29.5529198 C220.902778,29.5529198 221.430556,29.7751421 221.875,30.2195865 C222.319444,30.6640309 222.541667,31.1918087 222.541667,31.8029198 C222.541667,32.4140309 222.319444,32.9279198 221.875,33.3445865 C221.430556,33.7612532 220.902778,33.9695865 220.291667,33.9695865 Z M236.25,105.261253 C238.111111,105.900142 240.097222,106.136253 242.208333,105.969587 C244.263889,105.80292 246.180556,105.261253 247.958333,104.344587 C249.736111,103.42792 251.25,102.247364 252.5,100.80292 C253.75,99.3584754 254.708333,97.6918087 255.375,95.8029198 C256.041667,93.9140309 256.291667,91.9418087 256.125,89.8862532 L256.125,89.8862532 L251.791667,26.3862532 C251.680556,24.8306976 251.097222,23.4418087 250.041667,22.2195865 C248.986111,20.9973643 247.652778,20.2195865 246.041667,19.8862532 C245.041667,19.7195865 244.083333,19.7334754 243.166667,19.9279198 C242.25,20.1223643 241.416667,20.4695865 240.666667,20.9695865 C239.916667,21.4695865 239.263889,22.1084754 238.708333,22.8862532 C238.152778,23.6640309 237.791667,24.5529198 237.625,25.5529198 L237.625,25.5529198 L226.291667,88.0529198 C226.013889,89.3862532 225.930556,90.7195865 226.041667,92.0529198 C226.208333,94.1640309 226.75,96.0945865 227.666667,97.8445865 C228.583333,99.5945865 229.777778,101.108475 231.25,102.386253 C232.722222,103.664031 234.388889,104.622364 236.25,105.261253 Z M246.458333,26.7195865 C245.847222,26.7195865 245.333333,26.5112532 244.916667,26.0945865 C244.5,25.6779198 244.291667,25.1640309 244.291667,24.5529198 C244.291667,23.9418087 244.5,23.4140309 244.916667,22.9695865 C245.333333,22.5251421 245.847222,22.3029198 246.458333,22.3029198 C247.069444,22.3029198 247.597222,22.5251421 248.041667,22.9695865 C248.486111,23.4140309 248.708333,23.9418087 248.708333,24.5529198 C248.708333,25.1640309 248.486111,25.6779198 248.041667,26.0945865 C247.597222,26.5112532 247.069444,26.7195865 246.458333,26.7195865 Z M289.791667,106.719587 C290.680556,106.719587 291.597222,106.691809 292.541667,106.636253 C293.486111,106.525142 294.416667,106.42792 295.333333,106.344587 C296.25,106.261253 297.180556,106.108475 298.125,105.886253 C300.125,105.55292 302.069444,105.05292 303.958333,104.386253 C304.958333,104.05292 305.958333,103.67792 306.958333,103.261253 C307.958333,102.844587 308.930556,102.358475 309.875,101.80292 C310.875,101.247364 311.819444,100.691809 312.708333,100.136253 C313.152778,99.8029198 313.597222,99.4695865 314.041667,99.1362532 C314.486111,98.8029198 314.930556,98.4418087 315.375,98.0529198 C317.152778,96.5529198 318.708333,94.9695865 320.041667,93.3029198 C320.708333,92.4695865 321.333333,91.6084754 321.916667,90.7195865 C322.5,89.8306976 323.041667,88.9140309 323.541667,87.9695865 C324.041667,87.0806976 324.486111,86.1918087 324.875,85.3029198 C325.263889,84.4140309 325.625,83.4973643 325.958333,82.5529198 C326.569444,80.7751421 327.055556,79.0112532 327.416667,77.2612532 C327.777778,75.5112532 328.041667,73.8029198 328.208333,72.1362532 C328.375,70.4695865 328.472222,68.8306976 328.5,67.2195865 C328.527778,65.6084754 328.486111,64.0529198 328.375,62.5529198 L328.375,62.5529198 L328.375,61.3862532 L328.291667,60.8029198 L328.291667,60.2195865 L328.041667,57.9695865 C327.930556,57.2473643 327.819444,56.5112532 327.708333,55.7612532 C327.597222,55.0112532 327.486111,54.2473643 327.375,53.4695865 C327.263889,52.6918087 327.125,51.9279198 326.958333,51.1779198 C326.791667,50.4279198 326.625,49.6640309 326.458333,48.8862532 C326.236111,48.1084754 326.013889,47.3168087 325.791667,46.5112532 C325.569444,45.7056976 325.319444,44.8862532 325.041667,44.0529198 C324.763889,43.2751421 324.458333,42.4695865 324.125,41.6362532 C323.791667,40.8029198 323.402778,39.9973643 322.958333,39.2195865 C322.513889,38.3862532 322.055556,37.5529198 321.583333,36.7195865 C321.111111,35.8862532 320.569444,35.0529198 319.958333,34.2195865 C318.791667,32.6084754 317.347222,31.0806976 315.625,29.6362532 C314.791667,28.9695865 313.902778,28.3445865 312.958333,27.7612532 C312.013889,27.1779198 311.041667,26.6640309 310.041667,26.2195865 C309.041667,25.7751421 308.013889,25.4001421 306.958333,25.0945865 C305.902778,24.7890309 304.875,24.5806976 303.875,24.4695865 C303.375,24.3584754 302.875,24.3029198 302.375,24.3029198 C301.875,24.3029198 301.375,24.2751421 300.875,24.2195865 C300.430556,24.2195865 299.958333,24.2334754 299.458333,24.2612532 C298.958333,24.2890309 298.486111,24.3306976 298.041667,24.3862532 C297.152778,24.4973643 296.277778,24.6223643 295.416667,24.7612532 C294.555556,24.9001421 293.708333,25.0806976 292.875,25.3029198 C291.375,25.6918087 289.847222,26.1918087 288.291667,26.8029198 C287.680556,27.0806976 287.083333,27.3584754 286.5,27.6362532 C285.916667,27.9140309 285.319444,28.1918087 284.708333,28.4695865 L284.708333,28.4695865 L284.541667,26.3862532 C284.430556,24.8306976 283.847222,23.4418087 282.791667,22.2195865 C281.736111,20.9973643 280.402778,20.2195865 278.791667,19.8862532 C277.791667,19.7195865 276.833333,19.7334754 275.916667,19.9279198 C275,20.1223643 274.166667,20.4695865 273.416667,20.9695865 C272.666667,21.4695865 272.013889,22.1084754 271.458333,22.8862532 C270.902778,23.6640309 270.541667,24.5529198 270.375,25.5529198 L270.375,25.5529198 L259.041667,83.0529198 C258.763889,84.3862532 258.680556,85.7195865 258.791667,87.0529198 C259.069444,89.9973643 260.013889,92.5806976 261.625,94.8029198 C263.069444,97.2473643 265.208333,99.0806976 268.041667,100.30292 L268.041667,100.30292 L268.291667,100.469587 L268.375,100.469587 L268.458333,100.55292 L268.791667,100.80292 L269.041667,100.969587 L269.375,101.136253 C269.541667,101.247364 269.722222,101.358475 269.916667,101.469587 C270.111111,101.580698 270.291667,101.691809 270.458333,101.80292 C270.847222,102.025142 271.222222,102.219587 271.583333,102.386253 C271.944444,102.55292 272.319444,102.719587 272.708333,102.886253 C273.430556,103.275142 274.166667,103.608475 274.916667,103.886253 C275.666667,104.164031 276.430556,104.441809 277.208333,104.719587 C280.263889,105.664031 283.569444,106.275142 287.125,106.55292 C288.013889,106.664031 288.902778,106.719587 289.791667,106.719587 Z M314.125,37.0529198 C313.513889,37.0529198 313,36.8445865 312.583333,36.4279198 C312.166667,36.0112532 311.958333,35.4973643 311.958333,34.8862532 C311.958333,34.2751421 312.166667,33.7473643 312.583333,33.3029198 C313,32.8584754 313.513889,32.6362532 314.125,32.6362532 C314.736111,32.6362532 315.263889,32.8584754 315.708333,33.3029198 C316.152778,33.7473643 316.375,34.2751421 316.375,34.8862532 C316.375,35.4973643 316.152778,36.0112532 315.708333,36.4279198 C315.263889,36.8445865 314.736111,37.0529198 314.125,37.0529198 Z M293.875,76.3862532 L292.833333,76.3862532 C292.472222,76.3862532 292.097222,76.3584754 291.708333,76.3029198 C291.375,76.2473643 291.013889,76.2195865 290.625,76.2195865 C290.236111,76.2195865 289.819444,76.1918087 289.375,76.1362532 C289.152778,76.1362532 288.944444,76.1223643 288.75,76.0945865 C288.555556,76.0668087 288.375,76.0529198 288.208333,76.0529198 L288.208333,76.0529198 L285.791667,43.7195865 C285.902778,43.6640309 286.013889,43.6223643 286.125,43.5945865 C286.236111,43.5668087 286.347222,43.5251421 286.458333,43.4695865 C287.013889,43.3029198 287.555556,43.1362532 288.083333,42.9695865 C288.611111,42.8029198 289.152778,42.6640309 289.708333,42.5529198 C290.263889,42.4418087 290.791667,42.3306976 291.291667,42.2195865 C291.791667,42.1084754 292.319444,41.9973643 292.875,41.8862532 C293.875,41.7195865 294.847222,41.6362532 295.791667,41.6362532 C296.236111,41.6362532 296.666667,41.6501421 297.083333,41.6779198 C297.5,41.7056976 297.902778,41.7473643 298.291667,41.8029198 C298.569444,41.8584754 298.930556,41.9418087 299.375,42.0529198 C299.541667,42.1084754 299.694444,42.1640309 299.833333,42.2195865 C299.972222,42.2751421 300.097222,42.3306976 300.208333,42.3862532 C300.763889,42.6640309 301.152778,42.9418087 301.375,43.2195865 C301.652778,43.4973643 301.875,43.8029198 302.041667,44.1362532 L302.041667,44.1362532 L302.375,44.8029198 C302.486111,45.0251421 302.597222,45.2751421 302.708333,45.5529198 C302.819444,45.8306976 302.916667,46.1223643 303,46.4279198 C303.083333,46.7334754 303.180556,47.0806976 303.291667,47.4695865 C303.402778,47.8584754 303.486111,48.2473643 303.541667,48.6362532 C303.597222,49.0251421 303.652778,49.4418087 303.708333,49.8862532 C303.875,50.8306976 303.958333,51.7751421 303.958333,52.7195865 C304.013889,53.2195865 304.041667,53.7195865 304.041667,54.2195865 L304.041667,54.2195865 L304.041667,55.7195865 C304.041667,56.2751421 304.027778,56.8168087 304,57.3445865 C303.972222,57.8723643 303.930556,58.4140309 303.875,58.9695865 L303.875,58.9695865 L303.875,59.8029198 C303.875,60.0806976 303.847222,60.3584754 303.791667,60.6362532 L303.791667,60.6362532 L303.791667,61.0529198 L303.708333,61.3862532 L303.625,62.2195865 C303.458333,64.3862532 303.125,66.3306976 302.625,68.0529198 C302.402778,68.9418087 302.138889,69.7612532 301.833333,70.5112532 C301.527778,71.2612532 301.208333,71.9418087 300.875,72.5529198 C300.541667,73.1640309 300.208333,73.6640309 299.875,74.0529198 C299.541667,74.4973643 299.208333,74.8306976 298.875,75.0529198 C298.708333,75.1640309 298.555556,75.2612532 298.416667,75.3445865 C298.277778,75.4279198 298.125,75.4973643 297.958333,75.5529198 C297.513889,75.7751421 297.152778,75.9140309 296.875,75.9695865 C296.708333,76.0251421 296.513889,76.0668087 296.291667,76.0945865 C296.069444,76.1223643 295.819444,76.1640309 295.541667,76.2195865 C295.263889,76.2751421 294.986111,76.3168087 294.708333,76.3445865 C294.430556,76.3723643 294.152778,76.3862532 293.875,76.3862532 L293.875,76.3862532 Z M283.458333,75.0529198 C282.958333,75.1640309 282.5,75.0251421 282.083333,74.6362532 C281.666667,74.2473643 281.430556,73.8306976 281.375,73.3862532 L281.375,73.3862532 L279.291667,49.5529198 C279.236111,49.0529198 279.375,48.6084754 279.708333,48.2195865 C280.041667,47.8306976 280.486111,47.5806976 281.041667,47.4695865 C281.541667,47.4140309 282,47.5668087 282.416667,47.9279198 C282.833333,48.2890309 283.069444,48.7195865 283.125,49.2195865 L283.125,49.2195865 L285.208333,73.0529198 C285.263889,73.5529198 285.111111,74.0112532 284.75,74.4279198 C284.388889,74.8445865 283.958333,75.0529198 283.458333,75.0529198 Z M336.625,75.7612532 C337.625,76.0668087 338.680556,76.1362532 339.791667,75.9695865 L339.791667,75.9695865 L365.291667,72.9695865 C365.402778,72.9695865 365.513889,72.9556976 365.625,72.9279198 C365.736111,72.9001421 365.847222,72.8862532 365.958333,72.8862532 C367.180556,72.6640309 368.277778,72.2056976 369.25,71.5112532 C370.222222,70.8168087 371.027778,69.9973643 371.666667,69.0529198 C372.305556,68.1084754 372.736111,67.0668087 372.958333,65.9279198 C373.180556,64.7890309 373.180556,63.6084754 372.958333,62.3862532 C372.680556,61.1640309 372.208333,60.0668087 371.541667,59.0945865 C370.875,58.1223643 370.069444,57.3306976 369.125,56.7195865 C368.180556,56.1084754 367.138889,55.6779198 366,55.4279198 C364.861111,55.1779198 363.680556,55.1640309 362.458333,55.3862532 L362.458333,55.3862532 L337.291667,60.4695865 C335.291667,60.8584754 333.680556,61.8723643 332.458333,63.5112532 C331.236111,65.1501421 330.763889,67.0251421 331.041667,69.1362532 C331.152778,70.2473643 331.472222,71.2473643 332,72.1362532 C332.527778,73.0251421 333.180556,73.7751421 333.958333,74.3862532 C334.736111,74.9973643 335.625,75.4556976 336.625,75.7612532 Z M366.541667,61.8862532 C365.930556,61.8862532 365.416667,61.6779198 365,61.2612532 C364.583333,60.8445865 364.375,60.3306976 364.375,59.7195865 C364.375,59.1084754 364.583333,58.5806976 365,58.1362532 C365.416667,57.6918087 365.930556,57.4695865 366.541667,57.4695865 C367.152778,57.4695865 367.680556,57.6918087 368.125,58.1362532 C368.569444,58.5806976 368.791667,59.1084754 368.791667,59.7195865 C368.791667,60.3306976 368.569444,60.8445865 368.125,61.2612532 C367.680556,61.6779198 367.152778,61.8862532 366.541667,61.8862532 Z M389.5,106.92792 C391.361111,107.566809 393.347222,107.80292 395.458333,107.636253 C397.513889,107.469587 399.430556,106.92792 401.208333,106.011253 C402.986111,105.094587 404.5,103.914031 405.75,102.469587 C407,101.025142 407.958333,99.3584754 408.625,97.4695865 C409.291667,95.5806976 409.541667,93.6084754 409.375,91.5529198 L409.375,91.5529198 L405.041667,33.0529198 C404.930556,31.4973643 404.347222,30.1084754 403.291667,28.8862532 C402.236111,27.6640309 400.902778,26.8862532 399.291667,26.5529198 C398.180556,26.3306976 397.125,26.3584754 396.125,26.6362532 C395.125,26.9140309 394.236111,27.3584754 393.458333,27.9695865 C393.291667,28.0806976 393.125,28.1779198 392.958333,28.2612532 C392.791667,28.3445865 392.652778,28.4418087 392.541667,28.5529198 L392.541667,28.5529198 L374.375,43.2195865 C373.986111,43.5529198 373.625,43.9001421 373.291667,44.2612532 C372.958333,44.6223643 372.652778,45.0251421 372.375,45.4695865 C371.763889,46.5251421 371.375,47.6223643 371.208333,48.7612532 C371.041667,49.9001421 371.111111,51.0112532 371.416667,52.0945865 C371.722222,53.1779198 372.222222,54.1918087 372.916667,55.1362532 C373.611111,56.0806976 374.486111,56.8584754 375.541667,57.4695865 C377.263889,58.4695865 379.097222,58.8584754 381.041667,58.6362532 C382.986111,58.4140309 384.680556,57.6918087 386.125,56.4695865 L386.125,56.4695865 L379.541667,89.7195865 C379.263889,90.9973643 379.180556,92.3306976 379.291667,93.7195865 C379.458333,95.8306976 380,97.7612532 380.916667,99.5112532 C381.833333,101.261253 383.027778,102.775142 384.5,104.05292 C385.972222,105.330698 387.638889,106.289031 389.5,106.92792 Z M399.708333,33.3862532 C399.097222,33.3862532 398.583333,33.1779198 398.166667,32.7612532 C397.75,32.3445865 397.541667,31.8306976 397.541667,31.2195865 C397.541667,30.6084754 397.75,30.0806976 398.166667,29.6362532 C398.583333,29.1918087 399.097222,28.9695865 399.708333,28.9695865 C400.319444,28.9695865 400.847222,29.1918087 401.291667,29.6362532 C401.736111,30.0806976 401.958333,30.6084754 401.958333,31.2195865 C401.958333,31.8306976 401.736111,32.3445865 401.291667,32.7612532 C400.847222,33.1779198 400.319444,33.3862532 399.708333,33.3862532 Z M429.208333,111.940941 L430.041667,111.92792 C431.152778,111.900142 432.291667,111.830698 433.458333,111.719587 L433.458333,111.719587 L435.125,111.55292 C435.680556,111.497364 436.263889,111.441809 436.875,111.386253 C437.486111,111.275142 438.069444,111.17792 438.625,111.094587 C439.180556,111.011253 439.763889,110.914031 440.375,110.80292 C442.708333,110.414031 445.041667,109.830698 447.375,109.05292 C448.541667,108.664031 449.722222,108.247364 450.916667,107.80292 C452.111111,107.358475 453.263889,106.858475 454.375,106.30292 C456.708333,105.136253 458.958333,103.80292 461.125,102.30292 C462.180556,101.525142 463.208333,100.705698 464.208333,99.8445865 C465.208333,98.9834754 466.180556,98.0806976 467.125,97.1362532 C468.069444,96.1918087 468.930556,95.2195865 469.708333,94.2195865 C470.486111,93.2195865 471.236111,92.1640309 471.958333,91.0529198 C472.736111,89.9973643 473.416667,88.9140309 474,87.8029198 C474.583333,86.6918087 475.125,85.5806976 475.625,84.4695865 C476.180556,83.3584754 476.652778,82.2195865 477.041667,81.0529198 C477.430556,79.8862532 477.791667,78.7195865 478.125,77.5529198 C478.458333,76.4418087 478.736111,75.3168087 478.958333,74.1779198 C479.180556,73.0390309 479.375,71.8862532 479.541667,70.7195865 C479.875,68.4418087 480.055556,66.1918087 480.083333,63.9695865 C480.111111,61.7473643 479.986111,59.5251421 479.708333,57.3029198 L479.708333,57.3029198 L479.208333,54.0529198 C479.097222,53.4973643 478.986111,52.9556976 478.875,52.4279198 C478.763889,51.9001421 478.625,51.3306976 478.458333,50.7195865 C478.236111,49.7195865 477.902778,48.6084754 477.458333,47.3862532 C477.347222,47.1084754 477.25,46.8168087 477.166667,46.5112532 C477.083333,46.2056976 476.986111,45.8862532 476.875,45.5529198 C476.652778,45.1084754 476.513889,44.7751421 476.458333,44.5529198 L476.458333,44.5529198 L476.041667,43.7195865 L476.041667,43.5529198 L475.958333,43.4695865 C475.680556,43.0251421 475.402778,42.5668087 475.125,42.0945865 C474.847222,41.6223643 474.569444,41.1362532 474.291667,40.6362532 C474.013889,40.1362532 473.708333,39.6501421 473.375,39.1779198 C473.041667,38.7056976 472.680556,38.2195865 472.291667,37.7195865 C471.958333,37.2195865 471.597222,36.7195865 471.208333,36.2195865 C470.819444,35.7195865 470.402778,35.2473643 469.958333,34.8029198 C469.513889,34.3029198 469.055556,33.8306976 468.583333,33.3862532 C468.111111,32.9418087 467.597222,32.4973643 467.041667,32.0529198 C466.763889,31.8306976 466.5,31.6223643 466.25,31.4279198 C466,31.2334754 465.736111,31.0251421 465.458333,30.8029198 C465.180556,30.6362532 464.888889,30.4556976 464.583333,30.2612532 C464.277778,30.0668087 463.986111,29.8862532 463.708333,29.7195865 C463.430556,29.5529198 463.125,29.4001421 462.791667,29.2612532 C462.458333,29.1223643 462.152778,28.9695865 461.875,28.8029198 C461.597222,28.6918087 461.291667,28.5668087 460.958333,28.4279198 C460.625,28.2890309 460.319444,28.1640309 460.041667,28.0529198 C458.763889,27.6084754 457.569444,27.2751421 456.458333,27.0529198 C455.847222,26.9418087 455.263889,26.8584754 454.708333,26.8029198 C454.152778,26.7473643 453.569444,26.6918087 452.958333,26.6362532 C452.347222,26.5251421 451.777778,26.4695865 451.25,26.4695865 L451.25,26.4695865 L448.041667,26.4695865 C447.930556,26.4695865 447.805556,26.4834754 447.666667,26.5112532 C447.527778,26.5390309 447.402778,26.5529198 447.291667,26.5529198 L447.291667,26.5529198 L446.291667,26.5529198 L446.125,26.6362532 L445.041667,26.6362532 C444.763889,26.6918087 444.458333,26.7195865 444.125,26.7195865 C443.791667,26.7195865 443.486111,26.7473643 443.208333,26.8029198 C442.597222,26.9140309 441.972222,27.0390309 441.333333,27.1779198 C440.694444,27.3168087 440.069444,27.4973643 439.458333,27.7195865 C438.180556,28.1640309 436.986111,28.6918087 435.875,29.3029198 C434.763889,29.8584754 433.680556,30.5806976 432.625,31.4695865 C431.569444,32.3584754 430.680556,33.2751421 429.958333,34.2195865 C429.513889,34.7195865 429.111111,35.2195865 428.75,35.7195865 C428.388889,36.2195865 428.069444,36.7473643 427.791667,37.3029198 C427.458333,37.8584754 427.166667,38.4140309 426.916667,38.9695865 C426.666667,39.5251421 426.430556,40.0806976 426.208333,40.6362532 C425.986111,41.2473643 425.791667,41.8306976 425.625,42.3862532 C425.458333,42.9418087 425.291667,43.5251421 425.125,44.1362532 C424.625,46.3584754 424.430556,48.7195865 424.541667,51.2195865 C424.652778,52.4418087 424.819444,53.6501421 425.041667,54.8445865 C425.263889,56.0390309 425.597222,57.2195865 426.041667,58.3862532 C426.430556,59.4973643 426.986111,60.6362532 427.708333,61.8029198 C428.263889,62.9140309 429.041667,63.9695865 430.041667,64.9695865 C430.486111,65.4695865 430.958333,65.9418087 431.458333,66.3862532 C431.958333,66.8306976 432.486111,67.2751421 433.041667,67.7195865 C433.597222,68.1084754 434.180556,68.4695865 434.791667,68.8029198 C435.402778,69.1362532 436.013889,69.4418087 436.625,69.7195865 C437.236111,69.9973643 437.861111,70.2334754 438.5,70.4279198 C439.138889,70.6223643 439.791667,70.7751421 440.458333,70.8862532 C441.847222,71.1640309 443.097222,71.3029198 444.208333,71.3029198 L444.208333,71.3029198 L446.041667,71.3029198 C446.652778,71.3029198 447.263889,71.2473643 447.875,71.1362532 C448.486111,71.0806976 449.069444,70.9973643 449.625,70.8862532 L449.625,70.8862532 L451.291667,70.5529198 C452.402778,70.2751421 453.472222,69.9834754 454.5,69.6779198 C454.705556,69.6168087 454.910556,69.5529198 455.115,69.4862532 L455.5525,69.3370865 L455.375,69.7195865 C455.166667,70.1779198 454.950521,70.6128157 454.726562,71.024274 L454.5,71.4279198 C454.194444,71.9556976 453.875,72.4695865 453.541667,72.9695865 C452.875,73.8584754 452.152778,74.7473643 451.375,75.6362532 C450.930556,76.0251421 450.527778,76.3862532 450.166667,76.7195865 C449.805556,77.0529198 449.402778,77.3862532 448.958333,77.7195865 C448.013889,78.3306976 447.125,78.8584754 446.291667,79.3029198 C445.791667,79.5251421 445.291667,79.7334754 444.791667,79.9279198 C444.291667,80.1223643 443.791667,80.3029198 443.291667,80.4695865 C441.125,81.1362532 438.763889,81.5529198 436.208333,81.7195865 C434.930556,81.8306976 433.583333,81.8723643 432.166667,81.8445865 C430.75,81.8168087 429.319444,81.7473643 427.875,81.6362532 C427.763889,81.6362532 427.611111,81.6223643 427.416667,81.5945865 C427.222222,81.5668087 427.041667,81.5529198 426.875,81.5529198 C424.763889,81.5529198 422.791667,81.9279198 420.958333,82.6779198 C419.125,83.4279198 417.513889,84.4834754 416.125,85.8445865 C414.736111,87.2056976 413.625,88.8029198 412.791667,90.6362532 C411.958333,92.4695865 411.541667,94.4418087 411.541667,96.5529198 C411.486111,98.6640309 411.847222,100.636253 412.625,102.469587 C413.402778,104.30292 414.472222,105.914031 415.833333,107.30292 C417.194444,108.691809 418.777778,109.80292 420.583333,110.636253 C422.388889,111.469587 424.347222,111.886253 426.458333,111.886253 L426.458333,111.886253 L426.708333,111.886253 C427.819444,111.941809 428.930556,111.955698 430.041667,111.92792 L429.208333,111.940941 Z M462.291667,35.9695865 C461.680556,35.9695865 461.166667,35.7612532 460.75,35.3445865 C460.333333,34.9279198 460.125,34.4140309 460.125,33.8029198 C460.125,33.1918087 460.333333,32.6640309 460.75,32.2195865 C461.166667,31.7751421 461.680556,31.5529198 462.291667,31.5529198 C462.902778,31.5529198 463.430556,31.7751421 463.875,32.2195865 C464.319444,32.6640309 464.541667,33.1918087 464.541667,33.8029198 C464.541667,34.4140309 464.319444,34.9279198 463.875,35.3445865 C463.430556,35.7612532 462.902778,35.9695865 462.291667,35.9695865 Z M444.375,58.8862532 L443.541667,58.8862532 C443.263889,58.8862532 442.986111,58.8584754 442.708333,58.8029198 C442.430556,58.7473643 442.180556,58.6918087 441.958333,58.6362532 C441.736111,58.5806976 441.486111,58.4973643 441.208333,58.3862532 C440.986111,58.2751421 440.777778,58.1779198 440.583333,58.0945865 C440.388889,58.0112532 440.180556,57.9140309 439.958333,57.8029198 C439.736111,57.6918087 439.541667,57.5529198 439.375,57.3862532 L439.375,57.3862532 L438.875,56.8862532 C438.152778,56.1084754 437.597222,55.1918087 437.208333,54.1362532 C436.819444,53.0806976 436.569444,51.8862532 436.458333,50.5529198 C436.347222,49.2195865 436.458333,47.9695865 436.791667,46.8029198 C437.013889,45.6362532 437.458333,44.4973643 438.125,43.3862532 C438.458333,42.8862532 438.805556,42.4140309 439.166667,41.9695865 C439.527778,41.5251421 439.930556,41.1640309 440.375,40.8862532 C441.263889,40.1640309 442.180556,39.6918087 443.125,39.4695865 C443.402778,39.3584754 443.680556,39.2890309 443.958333,39.2612532 C444.236111,39.2334754 444.513889,39.1918087 444.791667,39.1362532 L444.791667,39.1362532 L449.291667,39.1362532 C449.680556,39.1918087 450.055556,39.2334754 450.416667,39.2612532 C450.777778,39.2890309 451.125,39.3306976 451.458333,39.3862532 C452.958333,39.6640309 454.152778,40.0529198 455.041667,40.5529198 C455.430556,40.7195865 455.847222,40.9973643 456.291667,41.3862532 L456.291667,41.3862532 L456.791667,41.8862532 C456.847222,41.9418087 456.986111,42.1362532 457.208333,42.4695865 C457.541667,42.9140309 457.791667,43.3584754 457.958333,43.8029198 C458.236111,44.4140309 458.458333,44.9695865 458.625,45.4695865 L458.625,45.4695865 L459.125,47.4695865 C459.236111,47.8029198 459.319444,48.1501421 459.375,48.5112532 C459.430556,48.8723643 459.486111,49.2751421 459.541667,49.7195865 L459.541667,49.7195865 L459.541667,50.2195865 L459.458333,51.1362532 L459.458333,51.1362532 L459.458333,51.7612532 L459.208333,51.9695865 C459.0625,52.1154198 458.81033,52.3250553 458.451823,52.5984928 L458.291667,52.7195865 C457.958333,52.9973643 457.625,53.2473643 457.291667,53.4695865 L457.291667,53.4695865 L456.291667,54.1362532 C455.625,54.5806976 454.958333,55.0112532 454.291667,55.4279198 C453.625,55.8445865 452.930556,56.2195865 452.208333,56.5529198 C450.819444,57.2751421 449.458333,57.8306976 448.125,58.2195865 C447.458333,58.4418087 446.819444,58.5945865 446.208333,58.6779198 C445.597222,58.7612532 444.986111,58.8306976 444.375,58.8862532 L444.375,58.8862532 Z M436.458333,62.2195865 C435.847222,62.2195865 435.333333,62.0112532 434.916667,61.5945865 C434.5,61.1779198 434.291667,60.6640309 434.291667,60.0529198 C434.291667,59.4418087 434.5,58.9140309 434.916667,58.4695865 C435.333333,58.0251421 435.847222,57.8029198 436.458333,57.8029198 C437.069444,57.8029198 437.597222,58.0251421 438.041667,58.4695865 C438.486111,58.9140309 438.708333,59.4418087 438.708333,60.0529198 C438.708333,60.6640309 438.486111,61.1779198 438.041667,61.5945865 C437.597222,62.0112532 437.069444,62.2195865 436.458333,62.2195865 Z M563,104.17792 C564.972222,104.483475 566.902778,104.42792 568.791667,104.011253 C570.680556,103.594587 572.444444,102.816809 574.083333,101.67792 C575.722222,100.539031 577.097222,99.0806976 578.208333,97.3029198 C579.319444,95.5806976 580.027778,93.7334754 580.333333,91.7612532 C580.638889,89.7890309 580.583333,87.8584754 580.166667,85.9695865 C579.75,84.0806976 578.972222,82.3168087 577.833333,80.6779198 C576.694444,79.0390309 575.236111,77.6640309 573.458333,76.5529198 L573.458333,76.5529198 L564.875833,71.1354198 L565.312243,70.8029198 C566.315672,70.0251421 567.201475,69.2473643 567.96965,68.4695865 L568.291667,68.1362532 L568.291667,68.1362532 L569.625,66.4695865 C570.069444,65.9140309 570.458333,65.3306976 570.791667,64.7195865 C571.402778,63.7195865 571.986111,62.5806976 572.541667,61.3029198 C572.986111,60.1918087 573.333333,59.0806976 573.583333,57.9695865 C573.833333,56.8584754 574.013889,55.7751421 574.125,54.7195865 C574.236111,53.6084754 574.305556,52.5529198 574.333333,51.5529198 C574.361111,50.5529198 574.347222,49.5806976 574.291667,48.6362532 L574.291667,48.6362532 L574.291667,47.8862532 L574.208333,47.5529198 L574.208333,47.2195865 C574.152778,46.9418087 574.125,46.7056976 574.125,46.5112532 L574.121667,46.3895865 C574.112778,46.2206976 574.086111,46.0251421 574.041667,45.8029198 C573.930556,44.8029198 573.763889,43.8584754 573.541667,42.9695865 C573.430556,42.4695865 573.333333,41.9695865 573.25,41.4695865 C573.166667,40.9695865 573.041667,40.4695865 572.875,39.9695865 C572.597222,38.9695865 572.263889,37.9695865 571.875,36.9695865 C571.486111,36.0806976 570.986111,35.0529198 570.375,33.8862532 C570.097222,33.3862532 569.777778,32.8723643 569.416667,32.3445865 C569.055556,31.8168087 568.652778,31.3029198 568.208333,30.8029198 C567.763889,30.2473643 567.291667,29.7334754 566.791667,29.2612532 C566.291667,28.7890309 565.736111,28.3306976 565.125,27.8862532 C563.791667,26.8862532 562.430556,26.1640309 561.041667,25.7195865 C560.319444,25.4418087 559.583333,25.2195865 558.833333,25.0529198 C558.083333,24.8862532 557.347222,24.7473643 556.625,24.6362532 C556.236111,24.5806976 555.875,24.5390309 555.541667,24.5112532 C555.208333,24.4834754 554.847222,24.4695865 554.458333,24.4695865 L554.458333,24.4695865 L553.458333,24.4695865 C553.125,24.4695865 552.791667,24.4973643 552.458333,24.5529198 C551.013889,24.6640309 549.763889,24.8584754 548.708333,25.1362532 C548.097222,25.2473643 547.527778,25.3862532 547,25.5529198 C546.472222,25.7195865 545.930556,25.8862532 545.375,26.0529198 L545.375,26.0529198 L542.375,27.3029198 C541.930556,27.5806976 541.472222,27.8168087 541,28.0112532 C540.527778,28.2056976 540.069444,28.4418087 539.625,28.7195865 L539.625,28.7195865 L539.495,28.7962532 L539.458333,28.3029198 C539.354167,26.8445865 538.834961,25.5327375 537.900716,24.367373 L537.708333,24.1362532 C536.652778,22.9140309 535.319444,22.1362532 533.708333,21.8029198 C532.708333,21.6362532 531.75,21.6501421 530.833333,21.8445865 C529.916667,22.0390309 529.083333,22.3862532 528.333333,22.8862532 C527.583333,23.3862532 526.930556,24.0251421 526.375,24.8029198 C525.819444,25.5806976 525.458333,26.4695865 525.291667,27.4695865 L525.291667,27.4695865 L513.958333,84.9695865 C513.680556,86.3029198 513.597222,87.6362532 513.708333,88.9695865 C513.875,91.0806976 514.416667,93.0112532 515.333333,94.7612532 C516.25,96.5112532 517.444444,98.0251421 518.916667,99.3029198 C520.388889,100.580698 522.055556,101.539031 523.916667,102.17792 C525.777778,102.816809 527.763889,103.05292 529.875,102.886253 C531.930556,102.719587 533.847222,102.17792 535.625,101.261253 C537.402778,100.344587 538.916667,99.1640309 540.166667,97.7195865 C541.416667,96.2751421 542.375,94.6084754 543.041667,92.7195865 C543.708333,90.8306976 543.958333,88.8584754 543.791667,86.8029198 L543.791667,86.8029198 L543.500833,82.8737532 L552.791667,97.3862532 C553.785131,99.1117434 555.196895,100.591174 557.026961,101.824546 L557.375,102.05292 C559.152778,103.164031 561.027778,103.872364 563,104.17792 Z M535.041667,28.7195865 C534.430556,28.7195865 533.916667,28.5112532 533.5,28.0945865 C533.083333,27.6779198 532.875,27.1640309 532.875,26.5529198 C532.875,25.9418087 533.083333,25.4140309 533.5,24.9695865 C533.916667,24.5251421 534.430556,24.3029198 535.041667,24.3029198 C535.652778,24.3029198 536.180556,24.5251421 536.625,24.9695865 C537.069444,25.4140309 537.291667,25.9418087 537.291667,26.5529198 C537.291667,27.1640309 537.069444,27.6779198 536.625,28.0945865 C536.180556,28.5112532 535.652778,28.7195865 535.041667,28.7195865 Z M559.958333,32.3029198 C559.347222,32.3029198 558.833333,32.0945865 558.416667,31.6779198 C558,31.2612532 557.791667,30.7473643 557.791667,30.1362532 C557.791667,29.5251421 558,28.9973643 558.416667,28.5529198 C558.833333,28.1084754 559.347222,27.8862532 559.958333,27.8862532 C560.569444,27.8862532 561.097222,28.1084754 561.541667,28.5529198 C561.986111,28.9973643 562.208333,29.5251421 562.208333,30.1362532 C562.208333,30.7473643 561.986111,31.2612532 561.541667,31.6779198 C561.097222,32.0945865 560.569444,32.3029198 559.958333,32.3029198 Z M550.125,53.1362532 L548.625,53.1362532 C548.347222,53.0806976 548.069444,53.0529198 547.791667,53.0529198 C547.513889,53.0529198 547.208333,53.0251421 546.875,52.9695865 C546.263889,52.9140309 545.638889,52.8723643 545,52.8445865 C544.361111,52.8168087 543.708333,52.7751421 543.041667,52.7195865 C542.875,52.7195865 542.291667,52.6084754 541.291667,52.3862532 L541.291667,52.3862532 L541.241667,52.3754198 L540.17,37.9087532 L540.541667,37.8029198 C540.708333,37.7195865 540.859375,37.6518782 540.994792,37.5997948 L541.125,37.5529198 C541.291667,37.4973643 541.486111,37.4418087 541.708333,37.3862532 C542.375,37.0529198 543.152778,36.8029198 544.041667,36.6362532 C544.486111,36.5251421 544.888889,36.4140309 545.25,36.3029198 C545.611111,36.1918087 545.986111,36.0806976 546.375,35.9695865 C546.763889,35.8584754 547.152778,35.7890309 547.541667,35.7612532 C547.930556,35.7334754 548.291667,35.6918087 548.625,35.6362532 C549.013889,35.5806976 549.388889,35.5390309 549.75,35.5112532 C550.111111,35.4834754 550.458333,35.4695865 550.791667,35.4695865 L550.791667,35.4695865 L551.75,35.4695865 C552.055556,35.4695865 552.347222,35.4973643 552.625,35.5529198 C552.736111,35.6084754 552.861111,35.6362532 553,35.6362532 C553.138889,35.6362532 553.263889,35.6640309 553.375,35.7195865 C553.708333,35.8306976 553.902778,35.8862532 553.958333,35.8862532 C554.347222,36.0529198 554.625,36.2473643 554.791667,36.4695865 C554.902778,36.5806976 555.069444,36.7751421 555.291667,37.0529198 C555.513889,37.3862532 555.680556,37.6640309 555.791667,37.8862532 C555.847222,38.0529198 555.902778,38.2334754 555.958333,38.4279198 C556.013889,38.6223643 556.097222,38.8584754 556.208333,39.1362532 C556.263889,39.3584754 556.319444,39.5945865 556.375,39.8445865 C556.430556,40.0945865 556.486111,40.3584754 556.541667,40.6362532 C556.597222,40.9140309 556.625,41.2056976 556.625,41.5112532 C556.625,41.8168087 556.652778,42.1362532 556.708333,42.4695865 C556.708333,42.8584754 556.652778,43.7473643 556.541667,45.1362532 C556.430556,46.5251421 555.986111,48.3862532 555.208333,50.7195865 C555.097222,50.9418087 554.972222,51.1223643 554.833333,51.2612532 L554.833333,51.2612532 L554.458333,51.6362532 C554.236111,51.9140309 554.013889,52.1362532 553.791667,52.3029198 C553.625,52.4140309 553.375,52.5251421 553.041667,52.6362532 C552.875,52.7473643 552.625,52.8306976 552.291667,52.8862532 C552.180556,52.9418087 552.041667,52.9695865 551.875,52.9695865 C551.708333,52.9695865 551.541667,52.9973643 551.375,53.0529198 C551.152778,53.1084754 550.736111,53.1362532 550.125,53.1362532 L550.125,53.1362532 Z M573.333333,84.0112532 C572.805556,84.0945865 572.347222,83.9973643 571.958333,83.7195865 L571.958333,83.7195865 L562.791667,77.4695865 C562.347222,77.1362532 562.097222,76.7195865 562.041667,76.2195865 C561.986111,75.7195865 562.125,75.2195865 562.458333,74.7195865 C562.736111,74.3306976 563.152778,74.0945865 563.708333,74.0112532 C564.263889,73.9279198 564.736111,74.0251421 565.125,74.3029198 L565.125,74.3029198 L574.375,80.7195865 C574.763889,80.9973643 574.986111,81.4001421 575.041667,81.9279198 C575.097222,82.4556976 574.986111,82.9418087 574.708333,83.3862532 C574.319444,83.7195865 573.861111,83.9279198 573.333333,84.0112532 Z M613.208333,101.636253 C615.319444,101.636253 617.541667,101.441809 619.875,101.05292 C622.208333,100.664031 624.569444,99.9418087 626.958333,98.8862532 C627.569444,98.6084754 628.166667,98.3168087 628.75,98.0112532 C629.333333,97.7056976 629.930556,97.3862532 630.541667,97.0529198 C631.097222,96.6640309 631.652778,96.2890309 632.208333,95.9279198 C632.763889,95.5668087 633.291667,95.1640309 633.791667,94.7195865 C635.958333,92.8862532 637.736111,90.9140309 639.125,88.8029198 C639.902778,87.7473643 640.555556,86.6918087 641.083333,85.6362532 C641.611111,84.5806976 642.097222,83.5251421 642.541667,82.4695865 C642.986111,81.4140309 643.333333,80.3723643 643.583333,79.3445865 C643.833333,78.3168087 644.069444,77.3029198 644.291667,76.3029198 C644.513889,75.3029198 644.666667,74.3306976 644.75,73.3862532 C644.833333,72.4418087 644.902778,71.4973643 644.958333,70.5529198 C645.069444,69.6084754 645.111111,68.6918087 645.083333,67.8029198 C645.055556,66.9140309 645.013889,66.0251421 644.958333,65.1362532 C644.847222,63.4140309 644.666667,61.7334754 644.416667,60.0945865 C644.166667,58.4556976 643.875,56.8584754 643.541667,55.3029198 C642.819444,52.1918087 641.902778,49.1640309 640.791667,46.2195865 C640.180556,44.7751421 639.569444,43.3445865 638.958333,41.9279198 C638.347222,40.5112532 637.680556,39.1084754 636.958333,37.7195865 C636.569444,37.0529198 636.194444,36.3862532 635.833333,35.7195865 C635.472222,35.0529198 635.069444,34.3862532 634.625,33.7195865 C634.402778,33.3862532 634.194444,33.0529198 634,32.7195865 C633.805556,32.3862532 633.597222,32.0806976 633.375,31.8029198 L633.375,31.8029198 L632.708333,30.8029198 L631.958333,29.8029198 C631.625,29.3584754 631.208333,28.9695865 630.708333,28.6362532 C630.208333,28.3029198 629.652778,28.0806976 629.041667,27.9695865 C627.708333,27.6918087 626.486111,27.9279198 625.375,28.6779198 C624.263889,29.4279198 623.569444,30.4418087 623.291667,31.7195865 L623.291667,31.7195865 L623.125,32.8029198 C623.069444,32.8584754 623.041667,33.0251421 623.041667,33.3029198 L623.041667,33.3029198 L622.958333,33.8029198 L622.958333,34.8862532 C622.902778,35.2195865 622.875,35.5668087 622.875,35.9279198 C622.875,36.2890309 622.847222,36.6362532 622.791667,36.9695865 L622.791667,36.9695865 L622.625,41.1362532 C622.569444,42.5806976 622.513889,43.9695865 622.458333,45.3029198 C622.402778,46.6362532 622.319444,47.9695865 622.208333,49.3029198 C622.097222,50.6362532 622,51.9418087 621.916667,53.2195865 C621.833333,54.4973643 621.708333,55.7751421 621.541667,57.0529198 C621.486111,57.6640309 621.430556,58.2612532 621.375,58.8445865 C621.319444,59.4279198 621.236111,60.0251421 621.125,60.6362532 C621.013889,61.2473643 620.902778,61.8306976 620.791667,62.3862532 L620.791667,62.3862532 L620.458333,64.0529198 C620.069444,66.2195865 619.513889,68.0806976 618.791667,69.6362532 C618.513889,70.3029198 618.180556,70.9140309 617.791667,71.4695865 C617.625,71.6918087 617.472222,71.8723643 617.333333,72.0112532 L617.333333,72.0112532 L616.958333,72.3862532 C616.902778,72.4418087 616.847222,72.4695865 616.791667,72.4695865 C616.736111,72.5251421 616.680556,72.5529198 616.625,72.5529198 C616.569444,72.6084754 616.486111,72.6362532 616.375,72.6362532 L616.375,72.6362532 L616.208333,72.6362532 C616.152778,72.6362532 616.111111,72.6501421 616.083333,72.6779198 C616.055556,72.7056976 616.013889,72.7195865 615.958333,72.7195865 C615.791667,72.7195865 615.652778,72.7473643 615.541667,72.8029198 C615.319444,72.8029198 615.125,72.8306976 614.958333,72.8862532 L614.958333,72.8862532 L614.583333,72.8862532 C614.444444,72.8862532 614.319444,72.9140309 614.208333,72.9695865 L614.208333,72.9695865 L612.208333,72.9695865 C611.986111,72.9140309 611.708333,72.8862532 611.375,72.8862532 C611.263889,72.8306976 611.069444,72.8029198 610.791667,72.8029198 C610.680556,72.7473643 610.569444,72.7195865 610.458333,72.7195865 L610.458333,72.7195865 L610.291667,72.6362532 L610.041667,72.6362532 C609.930556,72.6362532 609.763889,72.5529198 609.541667,72.3862532 C609.486111,72.3306976 609.430556,72.2890309 609.375,72.2612532 L609.338333,72.2395865 C609.285,72.2040309 609.213889,72.1418087 609.125,72.0529198 C609.013889,71.8306976 608.875,71.6362532 608.708333,71.4695865 C608.486111,71.1362532 608.319444,70.8584754 608.208333,70.6362532 L608.208333,70.6362532 L607.708333,69.6362532 C607.541667,69.2473643 607.388889,68.8445865 607.25,68.4279198 C607.111111,68.0112532 606.958333,67.5529198 606.791667,67.0529198 C606.513889,66.1640309 606.263889,65.1640309 606.041667,64.0529198 C605.597222,61.8862532 605.263889,59.5529198 605.041667,57.0529198 L605.041667,57.0529198 L604.708333,53.2195865 C604.597222,51.9418087 604.513889,50.6640309 604.458333,49.3862532 C604.347222,48.0529198 604.277778,46.7056976 604.25,45.3445865 C604.222222,43.9834754 604.180556,42.6084754 604.125,41.2195865 L604.125,41.2195865 L603.958333,37.0529198 C603.902778,36.7195865 603.875,36.3723643 603.875,36.0112532 L603.875,36.0112532 L603.875,34.9695865 L603.791667,33.8862532 C603.791667,33.7195865 603.777778,33.5529198 603.75,33.3862532 C603.722222,33.2195865 603.708333,33.0529198 603.708333,32.8862532 L603.708333,32.8862532 L603.708333,32.4695865 C603.541667,31.0251421 602.875,29.8584754 601.708333,28.9695865 C600.597222,28.0251421 599.305556,27.6362532 597.833333,27.8029198 C596.361111,27.9695865 595.152778,28.6084754 594.208333,29.7195865 L594.208333,29.7195865 L593.958333,29.9695865 L592.791667,31.7195865 C592.569444,31.9973643 592.361111,32.3029198 592.166667,32.6362532 C591.972222,32.9695865 591.763889,33.3029198 591.541667,33.6362532 C590.708333,34.9695865 589.958333,36.3029198 589.291667,37.6362532 C589.069444,38.0251421 588.875,38.3862532 588.708333,38.7195865 L588.708333,38.7195865 L588.208333,39.7195865 C587.986111,40.1640309 587.819444,40.5251421 587.708333,40.8029198 L587.708333,40.8029198 L587.291667,41.8029198 C586.958333,42.5251421 586.638889,43.2334754 586.333333,43.9279198 C586.027778,44.6223643 585.736111,45.3584754 585.458333,46.1362532 C584.902778,47.5806976 584.402778,49.0529198 583.958333,50.5529198 C583.513889,52.0529198 583.125,53.6084754 582.791667,55.2195865 C582.402778,56.8306976 582.097222,58.4418087 581.875,60.0529198 C581.652778,61.6640309 581.486111,63.3584754 581.375,65.1362532 C581.319444,66.0251421 581.277778,66.9140309 581.25,67.8029198 C581.222222,68.6918087 581.263889,69.6084754 581.375,70.5529198 C581.430556,71.4973643 581.5,72.4418087 581.583333,73.3862532 C581.666667,74.3306976 581.819444,75.3029198 582.041667,76.3029198 C582.208333,77.3029198 582.458333,78.3029198 582.791667,79.3029198 C582.902778,79.5806976 582.986111,79.8445865 583.041667,80.0945865 C583.097222,80.3445865 583.180556,80.6084754 583.291667,80.8862532 C583.402778,81.1640309 583.486111,81.4279198 583.541667,81.6779198 C583.597222,81.9279198 583.680556,82.1918087 583.791667,82.4695865 C584.625,84.5251421 585.763889,86.6640309 587.208333,88.8862532 C587.597222,89.3862532 587.986111,89.9001421 588.375,90.4279198 C588.763889,90.9556976 589.180556,91.4418087 589.625,91.8862532 C590.069444,92.3862532 590.541667,92.8723643 591.041667,93.3445865 C591.541667,93.8168087 592.041667,94.2751421 592.541667,94.7195865 C593.097222,95.1640309 593.638889,95.5806976 594.166667,95.9695865 C594.694444,96.3584754 595.263889,96.7195865 595.875,97.0529198 L595.875,97.0529198 L597.625,98.0529198 C598.125,98.3306976 598.736111,98.6084754 599.458333,98.8862532 C600.513889,99.4418087 601.708333,99.8862532 603.041667,100.219587 C603.652778,100.386253 604.236111,100.539031 604.791667,100.67792 C605.347222,100.816809 605.930556,100.941809 606.541667,101.05292 C607.152778,101.164031 607.736111,101.247364 608.291667,101.30292 L608.291667,101.30292 L609.958333,101.469587 C610.236111,101.525142 610.513889,101.55292 610.791667,101.55292 C611.069444,101.55292 611.347222,101.580698 611.625,101.636253 L611.625,101.636253 L613.208333,101.636253 Z M599.875,34.3029198 C599.263889,34.3029198 598.75,34.0945865 598.333333,33.6779198 C597.916667,33.2612532 597.708333,32.7473643 597.708333,32.1362532 C597.708333,31.5251421 597.916667,30.9973643 598.333333,30.5529198 C598.75,30.1084754 599.263889,29.8862532 599.875,29.8862532 C600.486111,29.8862532 601.013889,30.1084754 601.458333,30.5529198 C601.902778,30.9973643 602.125,31.5251421 602.125,32.1362532 C602.125,32.7473643 601.902778,33.2612532 601.458333,33.6779198 C601.013889,34.0945865 600.486111,34.3029198 599.875,34.3029198 Z M629.375,35.3029198 C628.763889,35.3029198 628.25,35.0945865 627.833333,34.6779198 C627.416667,34.2612532 627.208333,33.7473643 627.208333,33.1362532 C627.208333,32.5251421 627.416667,31.9973643 627.833333,31.5529198 C628.25,31.1084754 628.763889,30.8862532 629.375,30.8862532 C629.986111,30.8862532 630.513889,31.1084754 630.958333,31.5529198 C631.402778,31.9973643 631.625,32.5251421 631.625,33.1362532 C631.625,33.7473643 631.402778,34.2612532 630.958333,34.6779198 C630.513889,35.0945865 629.986111,35.3029198 629.375,35.3029198 Z M604.708333,76.6362532 C604.097222,76.6362532 603.583333,76.4279198 603.166667,76.0112532 C602.75,75.5945865 602.541667,75.0806976 602.541667,74.4695865 C602.541667,73.8584754 602.75,73.3306976 603.166667,72.8862532 C603.583333,72.4418087 604.097222,72.2195865 604.708333,72.2195865 C605.319444,72.2195865 605.847222,72.4418087 606.291667,72.8862532 C606.736111,73.3306976 606.958333,73.8584754 606.958333,74.4695865 C606.958333,75.0806976 606.736111,75.5945865 606.291667,76.0112532 C605.847222,76.4279198 605.319444,76.6362532 604.708333,76.6362532 Z M700.958333,101.30292 C702.958333,101.525142 704.958333,101.330698 706.958333,100.719587 C708.958333,100.108475 710.722222,99.1501421 712.25,97.8445865 C713.777778,96.5390309 715,95.0390309 715.916667,93.3445865 C716.833333,91.6501421 717.388889,89.8029198 717.583333,87.8029198 C717.777778,85.8029198 717.569444,83.8029198 716.958333,81.8029198 L716.958333,81.8029198 L699.708333,25.4695865 C699.375,24.4140309 698.763889,23.5529198 697.875,22.8862532 C696.986111,22.2195865 695.958333,21.8584754 694.791667,21.8029198 C693.347222,21.6918087 692.097222,22.1501421 691.041667,23.1779198 C689.986111,24.2056976 689.430556,25.4418087 689.375,26.8862532 L689.375,26.8862532 L688.708333,45.9695865 L671.041667,23.5529198 L670.458333,22.9695865 C669.347222,21.3584754 667.819444,20.3306976 665.875,19.8862532 C663.930556,19.4973643 662.152778,19.8584754 660.541667,20.9695865 C658.930556,22.0806976 657.930556,23.6084754 657.541667,25.5529198 L657.541667,25.5529198 L646.208333,83.0529198 C645.930556,84.3306976 645.847222,85.6640309 645.958333,87.0529198 C646.125,89.1640309 646.666667,91.0945865 647.583333,92.8445865 C648.5,94.5945865 649.680556,96.1084754 651.125,97.3862532 C652.569444,98.6640309 654.236111,99.6223643 656.125,100.261253 C658.013889,100.900142 659.986111,101.136253 662.041667,100.969587 C664.097222,100.80292 666.013889,100.261253 667.791667,99.3445865 C669.569444,98.4279198 671.097222,97.2473643 672.375,95.8029198 C673.652778,94.3584754 674.611111,92.6918087 675.25,90.8029198 C675.888889,88.9140309 676.125,86.9418087 675.958333,84.8862532 L675.958333,84.8862532 L674.208333,60.8862532 L687.708333,89.4695865 L687.708333,89.5529198 C687.819444,90.1084754 687.930556,90.4973643 688.041667,90.7195865 C688.652778,92.7195865 689.611111,94.4695865 690.916667,95.9695865 C692.222222,97.4695865 693.722222,98.6779198 695.416667,99.5945865 C697.111111,100.511253 698.958333,101.080698 700.958333,101.30292 Z M666.875,27.3862532 C666.263889,27.3862532 665.75,27.1779198 665.333333,26.7612532 C664.916667,26.3445865 664.708333,25.8306976 664.708333,25.2195865 C664.708333,24.6084754 664.916667,24.0806976 665.333333,23.6362532 C665.75,23.1918087 666.263889,22.9695865 666.875,22.9695865 C667.486111,22.9695865 668.013889,23.1918087 668.458333,23.6362532 C668.902778,24.0806976 669.125,24.6084754 669.125,25.2195865 C669.125,25.8306976 668.902778,26.3445865 668.458333,26.7612532 C668.013889,27.1779198 667.486111,27.3862532 666.875,27.3862532 Z M711.375,82.9695865 C710.930556,83.0806976 710.472222,82.9834754 710,82.6779198 C709.527778,82.3723643 709.208333,81.9973643 709.041667,81.5529198 L709.041667,81.5529198 L693.958333,28.0529198 C693.847222,27.6084754 693.916667,27.1640309 694.166667,26.7195865 C694.416667,26.2751421 694.847222,25.9418087 695.458333,25.7195865 C695.902778,25.6640309 696.361111,25.7751421 696.833333,26.0529198 C697.305556,26.3306976 697.625,26.6918087 697.791667,27.1362532 L697.791667,27.1362532 L712.875,80.7195865 C712.986111,81.1640309 712.888889,81.6223643 712.583333,82.0945865 C712.277778,82.5668087 711.875,82.8584754 711.375,82.9695865 Z M731.458333,68.9279198 C732.736111,69.3445865 734.097222,69.4973643 735.541667,69.3862532 C736.930556,69.3306976 738.222222,68.9834754 739.416667,68.3445865 C740.611111,67.7056976 741.625,66.9001421 742.458333,65.9279198 C743.291667,64.9556976 743.930556,63.8306976 744.375,62.5529198 C744.819444,61.2751421 745.013889,59.9140309 744.958333,58.4695865 L744.958333,58.4695865 L742.041667,15.3029198 C741.930556,14.2473643 741.527778,13.3168087 740.833333,12.5112532 C740.138889,11.7056976 739.236111,11.1640309 738.125,10.8862532 C736.791667,10.6084754 735.569444,10.8445865 734.458333,11.5945865 C733.347222,12.3445865 732.652778,13.3862532 732.375,14.7195865 L732.375,14.7195865 L724.708333,57.2195865 C724.541667,58.2195865 724.486111,59.1362532 724.541667,59.9695865 C724.652778,61.4140309 725.013889,62.7334754 725.625,63.9279198 C726.236111,65.1223643 727.041667,66.1501421 728.041667,67.0112532 C729.041667,67.8723643 730.180556,68.5112532 731.458333,68.9279198 Z M738.041667,17.2195865 C737.430556,17.2195865 736.916667,17.0112532 736.5,16.5945865 C736.083333,16.1779198 735.875,15.6640309 735.875,15.0529198 C735.875,14.4418087 736.083333,13.9140309 736.5,13.4695865 C736.916667,13.0251421 737.430556,12.8029198 738.041667,12.8029198 C738.652778,12.8029198 739.180556,13.0251421 739.625,13.4695865 C740.069444,13.9140309 740.291667,14.4418087 740.291667,15.0529198 C740.291667,15.6640309 740.069444,16.1779198 739.625,16.5945865 C739.180556,17.0112532 738.652778,17.2195865 738.041667,17.2195865 Z M732.708333,98.2195865 C734.263889,98.2195865 735.722222,97.9279198 737.083333,97.3445865 C738.444444,96.7612532 739.638889,95.9695865 740.666667,94.9695865 C741.694444,93.9695865 742.513889,92.7890309 743.125,91.4279198 C743.736111,90.0668087 744.041667,88.5806976 744.041667,86.9695865 C744.041667,85.4140309 743.736111,83.9556976 743.125,82.5945865 C742.513889,81.2334754 741.694444,80.0390309 740.666667,79.0112532 C739.638889,77.9834754 738.444444,77.1640309 737.083333,76.5529198 C735.722222,75.9418087 734.263889,75.6362532 732.708333,75.6362532 C731.097222,75.6362532 729.611111,75.9418087 728.25,76.5529198 C726.888889,77.1640309 725.708333,77.9834754 724.708333,79.0112532 C723.708333,80.0390309 722.916667,81.2334754 722.333333,82.5945865 C721.75,83.9556976 721.458333,85.4140309 721.458333,86.9695865 C721.458333,88.5806976 721.75,90.0668087 722.333333,91.4279198 C722.916667,92.7890309 723.708333,93.9695865 724.708333,94.9695865 C725.708333,95.9695865 726.888889,96.7612532 728.25,97.3445865 C729.611111,97.9279198 731.097222,98.2195865 732.708333,98.2195865 Z M736.041667,83.3862532 C735.430556,83.3862532 734.916667,83.1779198 734.5,82.7612532 C734.083333,82.3445865 733.875,81.8306976 733.875,81.2195865 C733.875,80.6084754 734.083333,80.0806976 734.5,79.6362532 C734.916667,79.1918087 735.430556,78.9695865 736.041667,78.9695865 C736.652778,78.9695865 737.180556,79.1918087 737.625,79.6362532 C738.069444,80.0806976 738.291667,80.6084754 738.291667,81.2195865 C738.291667,81.8306976 738.069444,82.3445865 737.625,82.7612532 C737.180556,83.1779198 736.652778,83.3862532 736.041667,83.3862532 Z" id="COVID-19RUN!" fill="#F2C600" fill-rule="nonzero"></path>
            </g>
        </g>
    </g>
</svg>