<?xml version="1.0" encoding="UTF-8"?>
<svg width="20px" height="18px" viewBox="0 0 20 18" version="1.1" xmlns="http://www.w3.org/2000/svg" xmlns:xlink="http://www.w3.org/1999/xlink">
    <!-- Generator: Sketch 63 (92445) - https://sketch.com -->
    <title>Group 7</title>
    <desc>Created with Sketch.</desc>
    <g id="Media" stroke="none" stroke-width="1" fill="none" fill-rule="evenodd">
        <g id="Group-7" transform="translate(-2.000000, -1.000000)">
            <g id="Group-6" transform="translate(12.000000, 9.500000) scale(-1, 1) translate(-12.000000, -9.500000) ">
                <path d="M5.93387845,5.9797646 L8.66976154,8.72602527 C9.43792583,9.49710332 9.43556377,10.7449058 8.66448572,11.5130701 C8.29670022,11.8794658 7.79919646,12.0859412 7.2800538,12.087641 L4.56994371,12.0965144 C3.46538013,12.100131 2.56702263,11.2076371 2.56340607,10.1030735 C2.5633918,10.0987162 2.56339178,10.0943588 2.56340599,10.0900015 L2.57230425,7.36203432 C2.57584888,6.27534841 3.45965534,5.39728892 4.54634125,5.40083354 C5.06725295,5.40253268 5.56623421,5.61072584 5.93387845,5.9797646 Z" id="Rectangle-Copy-4" fill="#F2C600" transform="translate(7.280054, 7.362034) rotate(330.000000) translate(-7.280054, -7.362034) "></path>
                <path d="M18.7649859,15.6613747 C20.1490616,14.407117 21.014464,12.5913373 21.0068862,10.5684864 C20.9924999,6.7665453 17.8996075,3.67284117 14.0986676,3.65845485 C10.2977278,3.64416853 7.22807909,6.71462889 7.2423654,10.51657 C7.24921638,12.3201625 7.81699051,13.8582755 8.73298175,15.0358539" id="Oval" stroke="#F2C600" stroke-width="3" stroke-linecap="round" stroke-linejoin="round" transform="translate(14.124626, 9.659915) rotate(44.000000) translate(-14.124626, -9.659915) "></path>
            </g>
        </g>
    </g>
</svg>