<?xml version="1.0" encoding="UTF-8"?>
<svg width="135px" height="135px" viewBox="0 0 135 135" version="1.1" xmlns="http://www.w3.org/2000/svg" xmlns:xlink="http://www.w3.org/1999/xlink">
    <!-- Generator: Sketch 63 (92445) - https://sketch.com -->
    <title>Group 3</title>
    <desc>Created with Sketch.</desc>
    <g id="Media" stroke="none" stroke-width="1" fill="none" fill-rule="evenodd">
        <g id="Group-3">
            <rect id="Rectangle" stroke="#904EB5" stroke-width="4" x="2" y="2" width="131" height="131" rx="10"></rect>
            <path d="M107.5,77.0195312 C109.583333,77.0195312 111.357422,76.2871094 112.822266,74.8222656 C114.287109,73.3574219 115.019531,71.5833333 115.019531,69.5 L115.019531,69.5 L115.019531,59.5390625 C115.019531,58.8229167 114.775391,58.2207031 114.287109,57.7324219 C113.798828,57.2441406 113.196615,57 112.480469,57 C111.796875,57 111.210938,57.2441406 110.722656,57.7324219 C110.234375,58.2207031 109.990234,58.8229167 109.990234,59.5390625 L109.990234,59.5390625 L109.990234,69.5 C109.990234,70.2161458 109.746094,70.8183594 109.257812,71.3066406 C108.769531,71.7949219 108.183594,72.0390625 107.5,72.0390625 L107.5,72.0390625 L27.5195312,72.0390625 C26.8033854,72.0390625 26.2011719,71.7949219 25.7128906,71.3066406 C25.2246094,70.8183594 24.9804688,70.2161458 24.9804688,69.5 L24.9804688,69.5 L24.9804688,59.5390625 C24.9804688,58.8229167 24.7363281,58.2207031 24.2480469,57.7324219 C23.7597656,57.2441406 23.1738281,57 22.4902344,57 C21.8066406,57 21.2207031,57.2441406 20.7324219,57.7324219 C20.2441406,58.2207031 20,58.8229167 20,59.5390625 L20,59.5390625 L20,69.5 C20,71.5833333 20.7324219,73.3574219 22.1972656,74.8222656 C23.6621094,76.2871094 25.4361979,77.0195312 27.5195312,77.0195312 L27.5195312,77.0195312 L107.5,77.0195312 Z" id="Path" fill="#904EB5"></path>
        </g>
    </g>
</svg>