<?xml version="1.0" encoding="UTF-8"?>
<svg width="864px" height="128px" viewBox="0 0 864 128" version="1.1" xmlns="http://www.w3.org/2000/svg" xmlns:xlink="http://www.w3.org/1999/xlink">
    <!-- Generator: Sketch 63 (92445) - https://sketch.com -->
    <title>Group 3</title>
    <desc>Created with Sketch.</desc>
    <g id="Media" stroke="none" stroke-width="1" fill="none" fill-rule="evenodd">
        <g id="Group-3" transform="translate(0.000000, -7.000000)">
            <g id="virus" transform="translate(134.500000, 73.500000) rotate(-9.000000) translate(-134.500000, -73.500000) translate(70.000000, 10.000000)">
                <g id="Virus">
                    <path d="M74.106383,102.359239 C74.0034574,102.221196 73.9691489,102.152174 73.9691489,102.152174 L74.0034574,102.152174 C74.037766,102.221196 74.106383,102.290217 74.106383,102.359239 Z" id="Path" stroke="#000000"></path>
                    <path d="M110.610638,55.9766304 C110.542021,56.0111413 110.507713,56.0456522 110.507713,56.0456522 L110.473404,55.9076087 C110.507713,55.8730978 110.57633,55.8730978 110.610638,55.838587 C110.57633,55.8730978 110.610638,55.9076087 110.610638,55.9766304 Z" id="Path" stroke="#000000"></path>
                    <path d="M128.622606,77.3733696 C128.451064,77.3043478 127.421809,78.3396739 126.872872,78.7883152 C125.775,79.7201087 123.407713,80.8589674 122.001064,81.1695652 C120.217021,81.5836957 116.031383,79.2369565 115.002128,78.7883152 C113.972872,78.3396739 109.65,76.476087 109.238298,76.1654891 C109.032447,75.9929348 108.27766,75.4752717 107.625798,75.0266304 C109.581383,70.0225543 110.644947,64.569837 110.644947,58.8755435 C110.644947,57.8747283 110.610638,56.9084239 110.542021,55.9421196 C110.473404,55.9766304 110.439096,56.0111413 110.439096,56.0111413 L110.404787,55.8730978 C110.439096,55.838587 110.507713,55.838587 110.542021,55.8040761 C111.399734,55.3899457 112.326064,54.9413043 112.566223,54.8722826 C113.149468,54.6652174 118.535904,53.6298913 119.325,53.5608696 C120.114096,53.4918478 121.760904,53.0432065 122.515691,53.6298913 C123.098936,54.0785326 125.08883,56.2182065 125.431915,56.632337 C125.466223,56.6668478 125.466223,56.7013587 125.466223,56.7013587 C125.569149,56.8394022 125.672074,56.9084239 125.740691,56.873913 C126.255319,56.8048913 126.186702,54.1475543 125.637766,51.0070652 C125.08883,47.8320652 124.231117,45.24375 123.750798,45.4163043 C123.613564,45.4508152 123.373404,46.4861413 123.23617,46.9692935 C122.927394,47.9701087 121.898138,49.5576087 121.17766,50.3513587 C120.25133,51.317663 116.820479,51.4902174 116.031383,51.6282609 C115.242287,51.7663043 111.914362,52.2839674 111.571277,52.2494565 C111.365426,52.2494565 110.713564,52.2149457 110.164628,52.1804348 C109.306915,46.6586957 107.454255,41.4475543 104.778191,36.8230978 C105.155585,36.3399457 106.081915,35.1665761 106.527926,34.7869565 C107.11117,34.3038043 112.772074,30.7836957 113.629787,30.3350543 C114.4875,29.9209239 116.168617,28.7130435 117.266489,29.0581522 C118.124202,29.3342391 121.280585,30.9907609 121.795213,31.2668478 C121.829521,31.3013587 121.86383,31.3013587 121.86383,31.3013587 C122.035372,31.4048913 122.172606,31.4394022 122.275532,31.4048913 C122.824468,31.0942935 121.657979,28.057337 119.702394,24.60625 C117.746809,21.155163 115.722606,18.532337 115.207979,18.9119565 C115.070745,19.0154891 115.242287,20.2923913 115.276596,20.9480978 C115.345213,22.2595109 114.864894,24.5372283 114.350266,25.7451087 C113.698404,27.263587 109.924468,28.9546196 109.066755,29.4377717 C108.209043,29.9209239 104.675266,31.9915761 104.263564,32.0951087 C103.989096,32.1986413 102.822606,32.5782609 102.136436,32.7853261 C98.7055851,28.1263587 94.3827128,24.1230978 89.4079787,21.1206522 L89.4765957,21.155163 C89.4765957,21.155163 89.6138298,18.9464674 89.8196809,18.2217391 C90.0255319,17.4970109 92.8045213,11.388587 93.2505319,10.5603261 C93.7308511,9.73206522 94.4513298,7.76494565 95.5492021,7.4888587 C96.4069149,7.28179348 99.9406915,6.86766304 100.523936,6.7986413 C100.592553,6.7986413 100.592553,6.7986413 100.592553,6.7986413 C100.798404,6.7986413 100.935638,6.72961957 100.969947,6.62608696 C101.244415,6.07391304 98.6369681,4.17581522 95.1031915,2.41576087 C91.5694149,0.621195652 88.4473404,-0.379619565 88.2414894,0.207065217 C88.1728723,0.379619565 89.0305851,1.34592391 89.4079787,1.86358696 C90.162766,2.89891304 91.0547872,5.07309783 91.2606383,6.38451087 C91.5351064,8.00652174 89.3393617,11.5266304 88.9276596,12.3894022 C88.4816489,13.2521739 86.6976064,16.944837 86.4231383,17.2899457 C86.2515957,17.4970109 85.599734,18.3597826 85.1537234,18.9119565 C79.5614362,16.3236413 73.3515957,14.8741848 66.7986702,14.8741848 C65.9409574,14.8741848 65.0832447,14.9086957 64.2255319,14.9432065 C64.0882979,14.5290761 63.9510638,14.1494565 63.9167553,13.9078804 C63.8138298,13.3211957 63.7109043,7.76494565 63.7452128,6.97119565 C63.8138298,6.17744565 63.6422872,4.45190217 64.362766,3.83070652 C64.9117021,3.34755435 67.3476064,1.72554348 67.7593085,1.44945652 C67.793617,1.41494565 67.8279255,1.41494565 67.8279255,1.41494565 C67.9994681,1.31141304 68.0337766,1.2423913 68.0337766,1.17336957 C68.0337766,0.655706522 65.4606383,0.241576087 62.2699468,0.276086957 C59.0449468,0.276086957 56.4031915,0.724728261 56.4718085,1.20788043 C56.506117,1.34592391 57.4667553,1.76005435 57.912766,2.00163043 C58.8390957,2.48478261 60.2457447,3.76168478 60.8632979,4.62445652 C61.6523936,5.69429348 61.275,9.11086957 61.2406915,9.93913043 C61.206383,10.7328804 61.206383,14.1149457 61.1034574,14.4945652 C61.0691489,14.6326087 61.0005319,14.9432065 60.9319149,15.2883152 C55.4425532,16.0130435 50.2619681,17.7730978 45.6303191,20.361413 C45.4587766,20.1888587 43.9835106,18.8774457 43.5718085,18.2907609 C43.1601064,17.6695652 40.0037234,11.7336957 39.6606383,10.8709239 C39.2832447,9.9736413 38.2196809,8.21358696 38.6656915,7.14375 C39.0087766,6.31548913 40.8614362,3.27853261 41.1702128,2.76086957 C41.2045213,2.7263587 41.2045213,2.69184783 41.2045213,2.69184783 C41.3417553,2.51929348 41.3760638,2.38125 41.3074468,2.31222826 C41.0329787,1.76005435 37.9452128,2.69184783 34.4114362,4.4173913 C30.8433511,6.14293478 28.1329787,8.00652174 28.4760638,8.52418478 C28.5789894,8.66222826 29.8484043,8.59320652 30.500266,8.59320652 C31.8039894,8.62771739 34.0340426,9.24891304 35.2005319,9.8701087 C36.6414894,10.6293478 38.0824468,14.5290761 38.4941489,15.4263587 C38.9058511,16.3236413 40.7242021,19.9817935 40.7928191,20.4304348 C40.8957447,20.8445652 41.4103723,22.9497283 41.4446809,23.0532609 C41.4446809,23.0532609 41.4446809,23.0532609 41.4446809,23.0532609 C36.3327128,26.711413 32.0098404,31.4394022 28.8534574,36.9266304 C27.9614362,36.6160326 26.5547872,36.1673913 26.2117021,35.994837 C25.6284574,35.7877717 20.825266,33.1304348 20.1390957,32.6817935 C19.487234,32.2331522 17.9433511,31.5084239 17.7375,30.5766304 C17.5659574,29.8519022 17.4287234,26.9184783 17.3944149,26.4008152 C17.3944149,26.3663043 17.3944149,26.3317935 17.3944149,26.3317935 C17.3944149,26.1592391 17.3601064,26.0557065 17.2914894,26.0211957 C16.8454787,25.7451087 15.1986702,27.8157609 13.6204787,30.6111413 C12.0079787,33.4065217 11.0473404,35.9258152 11.5276596,36.1328804 C11.6648936,36.2019022 12.4882979,35.5461957 12.9,35.2701087 C13.7920213,34.6834239 15.5760638,34.13125 16.6396277,33.9932065 C17.9776596,33.855163 20.7223404,35.8913043 21.4085106,36.3054348 C22.0946809,36.7195652 25.0109043,38.4451087 25.2510638,38.6866848 C25.3882979,38.8247283 26.3146277,39.4804348 27.1723404,40.0671196 C25.0795213,44.5190217 23.7071809,49.3505435 23.1925532,54.4581522 C21.8545213,54.8032609 19.8646277,55.3209239 19.35,55.3554348 C18.4922872,55.3899457 10.8414894,54.6652174 9.77792553,54.4236413 C8.7143617,54.2165761 6.31276596,54.1475543 5.55797872,53.0777174 C4.97473404,52.2494565 3.08776596,48.5913043 2.77898936,47.9701087 C2.74468085,47.901087 2.74468085,47.8665761 2.74468085,47.8665761 C2.64175532,47.6595109 2.53882979,47.5214674 2.43590426,47.5214674 C1.74973404,47.4179348 0.789095745,50.9380435 0.343085106,55.3554348 C-0.102925532,59.807337 0.0686170213,63.5345109 0.789095745,63.5345109 C0.960638298,63.5345109 1.68111702,62.2576087 2.05851064,61.6709239 C2.84760638,60.4630435 4.8375,58.7375 6.10691489,58.0127717 C7.71941489,57.1154891 12.3510638,58.219837 13.4832447,58.3578804 C14.581117,58.5304348 19.2470745,59.0826087 19.7273936,59.2896739 C20.0018617,59.3932065 21.7515957,59.9108696 23.0210106,60.325 C23.1925532,65.9157609 24.3933511,71.2304348 26.4175532,76.0964674 C25.937234,76.6141304 25.0109043,77.6149457 24.5648936,77.9600543 C23.9473404,78.4086957 17.7718085,81.7907609 16.8454787,82.2048913 C15.9191489,82.6190217 14.0664894,83.7578804 12.9343085,83.3782609 C12.0422872,83.067663 8.7143617,81.3766304 8.16542553,81.1005435 C8.13111702,81.0660326 8.09680851,81.0660326 8.09680851,81.0660326 C7.89095745,80.9625 7.7537234,80.9279891 7.68510638,80.9625 C7.1018617,81.238587 8.23404255,84.2755435 10.2239362,87.7266304 C12.2138298,91.1777174 14.3066489,93.8005435 14.8555851,93.4554348 C14.9928191,93.3519022 14.8555851,92.075 14.8555851,91.4538043 C14.8212766,90.1769022 15.4045213,87.8991848 15.987766,86.7603261 C16.7425532,85.2763587 20.825266,83.6888587 21.7515957,83.2402174 C22.6779255,82.7915761 26.5204787,80.8244565 26.9664894,80.7209239 C27.1723404,80.6519022 27.8585106,80.4793478 28.4760638,80.3067935 C30.6718085,84.2755435 33.4164894,87.8646739 36.6757979,90.9706522 C36.1268617,92.351087 35.3720745,94.2146739 35.0976064,94.6288043 C34.6172872,95.3190217 29.4367021,101.047826 28.6132979,101.807065 C27.8242021,102.566304 26.3146277,104.429891 25.0109043,104.39538 C23.9816489,104.36087 19.9675532,103.705163 19.281383,103.56712 C19.212766,103.532609 19.1784574,103.532609 19.1784574,103.532609 C18.9382979,103.463587 18.8010638,103.498098 18.6981383,103.56712 C18.1835106,104.084783 20.4478723,106.949185 23.7071809,109.95163 C26.9664894,112.954076 30.0885638,115.059239 30.500266,114.507065 C30.6031915,114.369022 30.0199468,113.023098 29.7797872,112.367391 C29.2994681,110.986957 29.093617,108.36413 29.2994681,106.949185 C29.5396277,105.120109 33.1763298,102.01413 33.9654255,101.18587 C34.7545213,100.39212 38.0138298,96.9755435 38.4255319,96.6994565 C38.6656915,96.5269022 39.9694149,95.4915761 41.0329787,94.6288043 C45.0470745,97.5967391 49.6101064,99.8744565 54.5505319,101.323913 C55.0651596,102.77337 55.5797872,104.326359 55.5797872,104.705978 C55.5454787,105.465217 54.5162234,112.091304 54.2760638,113.023098 C54.0359043,113.954891 53.8300532,116.025543 52.8694149,116.612228 C52.1146277,117.06087 48.8210106,118.406793 48.237766,118.613859 C48.1691489,118.613859 48.1691489,118.64837 48.1691489,118.64837 C47.9632979,118.717391 47.8603723,118.786413 47.8603723,118.889946 C47.7574468,119.47663 50.7765957,120.615489 54.6534574,121.374728 C58.5303191,122.133967 61.8239362,122.306522 61.8582447,121.685326 C61.8582447,121.512772 60.7946809,120.788043 60.3143617,120.408424 C59.2851064,119.614674 57.8784574,117.751087 57.3295213,116.577717 C56.6090426,115.09375 57.8098404,111.125 58.0156915,110.158696 C58.2215426,109.192391 58.9763298,105.15462 59.1478723,104.775 C59.2851064,104.464402 59.8340426,103.1875 60.0742021,102.566304 C62.3042553,102.911413 64.6029255,103.118478 66.9359043,103.118478 C69.406117,103.118478 71.8763298,102.911413 74.243617,102.497283 C74.6553191,103.152989 75.7531915,104.913043 75.9933511,105.637772 C76.3021277,106.569565 78.0861702,115.059239 78.2234043,116.30163 C78.3606383,117.509511 79.081117,120.132337 78.0861702,121.236685 C77.2970745,122.099457 73.6946809,124.963859 73.0771277,125.447011 C73.0085106,125.481522 72.9742021,125.516033 72.9742021,125.516033 C72.7683511,125.654076 72.6654255,125.79212 72.699734,125.930163 C72.8369681,126.723913 77.262766,126.930978 82.5805851,126.378804 C87.9327128,125.861141 92.2555851,124.756793 91.981117,123.997554 C91.9125,123.790489 90.1970745,123.307337 89.3736702,123.03125 C87.6925532,122.444565 84.9821809,120.684511 83.712766,119.47663 C82.100266,117.923641 81.7914894,112.608967 81.5856383,111.366576 C81.3797872,110.124185 80.4534574,104.913043 80.5220745,104.36087 C80.556383,103.843207 80.693617,101.254891 80.7279255,100.944293 C86.0114362,99.1842391 90.8489362,96.4578804 95.0345745,92.9377717 C95.6521277,93.2828804 96.4069149,93.7315217 96.75,94.0421196 C97.3332447,94.5597826 102.033511,99.8054348 102.651064,100.633696 C103.234309,101.461957 104.8125,102.980435 104.675266,104.188315 C104.606649,105.15462 103.714628,108.778261 103.577394,109.399457 C103.577394,109.468478 103.543085,109.468478 103.543085,109.468478 C103.474468,109.675543 103.474468,109.813587 103.543085,109.91712 C103.954787,110.434783 106.630851,108.605707 109.478457,105.879348 C112.360372,103.152989 114.418883,100.461141 113.938564,100.0125 C113.80133,99.9089674 112.600532,100.323098 111.982979,100.495652 C110.747872,100.80625 108.414894,100.771739 107.145479,100.461141 C105.532979,100.081522 103.062766,96.4233696 102.410904,95.6296196 C101.759043,94.8358696 98.9800532,91.557337 98.7742021,91.1432065 C98.6712766,90.9706522 98.431117,90.5220109 98.1566489,90.0043478 C101.072872,87.036413 103.543085,83.6888587 105.532979,79.9961957 C106.18484,80.0307065 107.934574,80.0652174 108.586436,80.2377717 C109.40984,80.444837 116.546011,83.2747283 117.540957,83.7923913 C118.535904,84.2755435 120.800266,85.0347826 121.246277,86.2771739 C121.589362,87.2434783 122.378457,91.28125 122.515691,91.9714674 C122.515691,92.0404891 122.55,92.075 122.55,92.075 C122.584309,92.3165761 122.652926,92.4546196 122.755851,92.4891304 C123.407713,92.7652174 125.260372,89.6592391 126.907181,85.5179348 C128.451064,81.2040761 129.308777,77.5459239 128.622606,77.3733696 Z M73.9691489,102.152174 L73.9691489,102.152174 C74.037766,102.221196 74.106383,102.324728 74.106383,102.359239 C74.037766,102.221196 73.9691489,102.152174 73.9691489,102.152174 Z" id="Shape" fill="#D60B52" fill-rule="nonzero"></path>
                    <ellipse id="Oval" fill="#82368C" fill-rule="nonzero" transform="translate(50.125249, 34.861189) rotate(-30.000728) translate(-50.125249, -34.861189) " cx="50.1252487" cy="34.8611894" rx="12.8156693" ry="4.8244458"></ellipse>
                    <ellipse id="Oval" fill="#82368C" fill-rule="nonzero" transform="translate(84.054067, 54.460575) rotate(-50.624323) translate(-84.054067, -54.460575) " cx="84.054067" cy="54.4605748" rx="7.02378581" ry="18.6049049"></ellipse>
                    <ellipse id="Oval" fill="#82368C" fill-rule="nonzero" transform="translate(48.511860, 67.404705) rotate(-20.212692) translate(-48.511860, -67.404705) " cx="48.5118601" cy="67.4047047" rx="7.96508083" ry="13.4840763"></ellipse>
                    <ellipse id="Oval" fill="#82368C" fill-rule="nonzero" transform="translate(84.052777, 86.413230) rotate(-45.000000) translate(-84.052777, -86.413230) " cx="84.052777" cy="86.4132296" rx="9.53141626" ry="7.12279387"></ellipse>
                    <ellipse id="Oval" fill="#82368C" fill-rule="nonzero" cx="54.4132979" cy="91.8679348" rx="8.7143617" ry="6.55706522"></ellipse>
                    <ellipse id="Oval" fill="#82368C" fill-rule="nonzero" cx="28.4760638" cy="57.2190217" rx="3.8768617" ry="3.89972826"></ellipse>
                    <ellipse id="Oval" fill="#82368C" fill-rule="nonzero" cx="76.7481383" cy="24.1576087" rx="3.05345745" ry="3.07146739"></ellipse>
                    <ellipse id="Oval" fill="#82368C" fill-rule="nonzero" cx="99.0486702" cy="75.682337" rx="2.40159574" ry="2.41576087"></ellipse>
                    <path d="M61.8582447,15.4953804 C62.3728723,16.944837 61.6523936,18.532337 60.2114362,19.05 C58.7704787,19.567663 57.2265957,18.8429348 56.6776596,17.3934783 C56.6090426,17.4279891 56.506117,17.4279891 56.4031915,17.4625 C55.7170213,17.5660326 55.0651596,17.0828804 54.9965426,16.3581522 C54.893617,15.6679348 55.4082447,15.0122283 56.0944149,14.9432065 C56.2316489,14.9086957 56.368883,14.9432065 56.5404255,14.9777174 C56.2659574,14.6671196 56.1630319,14.2184783 56.300266,13.8043478 C56.506117,13.1486413 57.1922872,12.7345109 57.8784574,12.9415761 C58.2901596,13.0796196 58.5989362,13.3902174 58.7018617,13.769837 C60.0398936,13.49375 61.412234,14.2184783 61.8582447,15.4953804 Z" id="Path" fill="#82368C" fill-rule="nonzero"></path>
                    <path d="M66.7643617,19.3605978 C65.3577128,19.9472826 63.7452128,19.2915761 63.1619681,17.8766304 C62.5787234,16.4616848 63.2305851,14.8396739 64.637234,14.2529891 C64.6029255,14.1839674 64.568617,14.0804348 64.568617,13.9769022 C64.431383,13.2866848 64.8773936,12.6309783 65.5978723,12.4929348 C66.2840426,12.3548913 66.9359043,12.8380435 67.0731383,13.5282609 C67.1074468,13.6663043 67.1074468,13.8043478 67.0731383,13.9769022 C67.3819149,13.7008152 67.793617,13.5627717 68.2053191,13.7008152 C68.8914894,13.8733696 69.3031915,14.563587 69.1316489,15.2538043 C69.0287234,15.6679348 68.7199468,15.9785326 68.3768617,16.1165761 C68.6856383,17.4279891 68.0337766,18.8429348 66.7643617,19.3605978 Z" id="Path" fill="#82368C" fill-rule="nonzero"></path>
                    <path d="M30.0542553,40.0671196 C31.2207447,41.0334239 31.3922872,42.7589674 30.4659574,43.9668478 C29.5053191,45.1402174 27.7898936,45.3472826 26.5890957,44.3809783 C26.5204787,44.45 26.4518617,44.5190217 26.3832447,44.5880435 C25.8343085,45.0366848 25.0452128,44.9331522 24.5992021,44.3809783 C24.1875,43.8288043 24.256117,43.0350543 24.8050532,42.586413 C24.9079787,42.4828804 25.0452128,42.4138587 25.1824468,42.3793478 C24.8050532,42.2413043 24.4962766,41.9307065 24.3933511,41.5165761 C24.2218085,40.8263587 24.6335106,40.1361413 25.3196809,39.963587 C25.731383,39.8600543 26.1430851,39.963587 26.4518617,40.2396739 C27.4468085,39.2733696 28.9906915,39.2043478 30.0542553,40.0671196 Z" id="Path" fill="#82368C" fill-rule="nonzero"></path>
                    <path d="M33.2792553,39.1353261 C32.387234,40.3777174 30.6718085,40.6192935 29.4367021,39.7220109 C28.2015957,38.8247283 27.9614362,37.0991848 28.8534574,35.8567935 C28.7848404,35.7877717 28.7162234,35.7532609 28.6476064,35.6497283 C28.1672872,35.1320652 28.2359043,34.3383152 28.7848404,33.855163 C29.2994681,33.4065217 30.1228723,33.4410326 30.568883,33.9932065 C30.6718085,34.0967391 30.7404255,34.2347826 30.8090426,34.3728261 C30.9119681,33.9932065 31.2207447,33.6480978 31.6324468,33.5445652 C32.318617,33.3375 33.0047872,33.7171196 33.2106383,34.407337 C33.3135638,34.8214674 33.2449468,35.2355978 33.0047872,35.5461957 C33.931117,36.4779891 34.1026596,38.0309783 33.2792553,39.1353261 Z" id="Path" fill="#82368C" fill-rule="nonzero"></path>
                    <path d="M44.5324468,22.742663 C45.0470745,24.1921196 44.3265957,25.7796196 42.8856383,26.2972826 C41.4446809,26.8149457 39.9007979,26.0902174 39.3518617,24.6407609 C39.2832447,24.6752717 39.1803191,24.6752717 39.0773936,24.7097826 C38.3912234,24.8133152 37.7393617,24.330163 37.6707447,23.6054348 C37.5678191,22.9152174 38.0824468,22.2595109 38.768617,22.1904891 C38.9058511,22.1559783 39.0430851,22.1904891 39.2146277,22.225 C38.9401596,21.9144022 38.837234,21.4657609 38.9744681,21.0516304 C39.1803191,20.3959239 39.8664894,19.9817935 40.5526596,20.1888587 C40.9643617,20.3269022 41.2731383,20.6375 41.3760638,21.0171196 C42.7140957,20.7065217 44.0521277,21.43125 44.5324468,22.742663 Z" id="Path" fill="#82368C" fill-rule="nonzero"></path>
                    <path d="M46.6595745,23.9505435 C45.2529255,24.5372283 43.6404255,23.8815217 43.0571809,22.4665761 C42.4739362,21.0516304 43.1257979,19.4296196 44.5324468,18.8429348 C44.4981383,18.773913 44.4638298,18.6703804 44.4638298,18.5668478 C44.3265957,17.8766304 44.7726064,17.2209239 45.4930851,17.0828804 C46.1792553,16.944837 46.831117,17.4279891 46.9683511,18.1182065 C47.0026596,18.25625 47.0026596,18.3942935 46.9683511,18.5668478 C47.2771277,18.2907609 47.6888298,18.1527174 48.1005319,18.2907609 C48.7867021,18.4633152 49.1984043,19.1535326 49.0268617,19.84375 C48.9239362,20.2578804 48.6151596,20.5684783 48.2720745,20.7065217 C48.5808511,22.0179348 47.9289894,23.3983696 46.6595745,23.9505435 Z" id="Path" fill="#82368C" fill-rule="nonzero"></path>
                    <path d="M87.5553191,17.7040761 C88.0699468,19.1535326 87.3494681,20.7410326 85.9085106,21.2586957 C84.4675532,21.7763587 82.9236702,21.0516304 82.374734,19.6021739 C82.306117,19.6366848 82.2031915,19.6366848 82.100266,19.6711957 C81.4140957,19.7747283 80.762234,19.2915761 80.693617,18.5668478 C80.5906915,17.8766304 81.1053191,17.2209239 81.7914894,17.1519022 C81.9287234,17.1173913 82.0659574,17.1519022 82.2375,17.186413 C81.9630319,16.8758152 81.8601064,16.4271739 81.9973404,16.0130435 C82.2031915,15.357337 82.8893617,14.9432065 83.5755319,15.1502717 C83.987234,15.2883152 84.2960106,15.598913 84.3989362,15.9785326 C85.7369681,15.7024457 87.075,16.4271739 87.5553191,17.7040761 Z" id="Path" fill="#82368C" fill-rule="nonzero"></path>
                    <path d="M91.2263298,22.9152174 C89.8196809,23.5019022 88.2071809,22.8461957 87.6239362,21.43125 C87.0406915,20.0163043 87.6925532,18.3942935 89.0992021,17.8076087 C89.0648936,17.738587 89.0305851,17.6350543 89.0305851,17.5315217 C88.8933511,16.8413043 89.3393617,16.1855978 90.0598404,16.0475543 C90.7460106,15.9095109 91.3978723,16.392663 91.5351064,17.0828804 C91.5694149,17.2209239 91.5694149,17.3589674 91.5351064,17.5315217 C91.843883,17.2554348 92.2555851,17.1173913 92.6672872,17.2554348 C93.3534574,17.4279891 93.7651596,18.1182065 93.593617,18.8084239 C93.4906915,19.2225543 93.1819149,19.5331522 92.8388298,19.6711957 C93.1476064,20.9826087 92.4957447,22.3630435 91.2263298,22.9152174 Z" id="Path" fill="#82368C" fill-rule="nonzero"></path>
                    <path d="M103.954787,32.8888587 C105.464362,32.819837 106.733777,34.0277174 106.802394,35.5461957 C106.871011,37.0646739 105.670213,38.3415761 104.160638,38.4105978 C104.160638,38.5141304 104.160638,38.5831522 104.12633,38.6866848 C104.023404,39.3769022 103.337234,39.8255435 102.651064,39.7220109 C101.964894,39.5839674 101.518883,38.9282609 101.621809,38.2380435 C101.656117,38.1 101.690426,37.9619565 101.759043,37.823913 C101.381649,37.9964674 100.935638,37.9619565 100.592553,37.6858696 C100.009309,37.2717391 99.8720745,36.4779891 100.283777,35.8913043 C100.523936,35.5461957 100.935638,35.3391304 101.313032,35.3391304 C101.450266,34.0277174 102.582447,32.9578804 103.954787,32.8888587 Z" id="Path" fill="#82368C" fill-rule="nonzero"></path>
                    <path d="M102.51383,35.3736413 C101.107181,35.9603261 99.4946809,35.3046196 98.9114362,33.8896739 C98.3281915,32.4747283 98.9800532,30.8527174 100.386702,30.2660326 C100.352394,30.1970109 100.318085,30.0934783 100.318085,29.9899457 C100.180851,29.2997283 100.626862,28.6440217 101.34734,28.5059783 C102.033511,28.3679348 102.685372,28.851087 102.822606,29.5413043 C102.856915,29.6793478 102.856915,29.8173913 102.822606,29.9899457 C103.131383,29.7138587 103.543085,29.5758152 103.954787,29.7138587 C104.640957,29.886413 105.05266,30.5766304 104.881117,31.2668478 C104.778191,31.6809783 104.469415,31.9915761 104.12633,32.1296196 C104.469415,33.4410326 103.783245,34.8214674 102.51383,35.3736413 Z" id="Path" fill="#82368C" fill-rule="nonzero"></path>
                    <path d="M38.8715426,92.592663 C37.7736702,93.6279891 36.0239362,93.5934783 34.9946809,92.4891304 C33.9654255,91.3847826 33.999734,89.6247283 35.0976064,88.5894022 C35.0289894,88.5203804 34.9946809,88.4513587 34.9260638,88.3478261 C34.5486702,87.7611413 34.7545213,86.9673913 35.3720745,86.5877717 C35.9553191,86.242663 36.7444149,86.4152174 37.1218085,87.036413 C37.1904255,87.1744565 37.2590426,87.3125 37.2590426,87.4505435 C37.4305851,87.0709239 37.8079787,86.8293478 38.2196809,86.7603261 C38.9058511,86.6913043 39.5577128,87.1744565 39.6263298,87.8991848 C39.6606383,88.3133152 39.4890957,88.7274457 39.2146277,89.0035326 C40.0037234,90.0733696 39.8664894,91.6263587 38.8715426,92.592663 Z" id="Path" fill="#82368C" fill-rule="nonzero"></path>
                    <path d="M38.5970745,95.0084239 C37.4992021,93.938587 37.4648936,92.2130435 38.5284574,91.1086957 C39.5920213,90.0043478 41.3074468,89.969837 42.4053191,91.0396739 C42.4739362,90.9706522 42.5425532,90.9016304 42.6111702,90.8671196 C43.1944149,90.4529891 43.9835106,90.6255435 44.3609043,91.2122283 C44.7382979,91.798913 44.6010638,92.592663 44.0178191,92.9722826 C43.8805851,93.0413043 43.7776596,93.1103261 43.606117,93.144837 C43.9835106,93.3173913 44.2579787,93.6625 44.3265957,94.0766304 C44.4295213,94.7668478 43.9835106,95.4225543 43.2973404,95.5605978 C42.8856383,95.6296196 42.4739362,95.4915761 42.1994681,95.1809783 C41.1359043,96.0092391 39.5920213,95.9747283 38.5970745,95.0084239 Z" id="Path" fill="#82368C" fill-rule="nonzero"></path>
                    <path d="M105.464362,76.0964674 C104.057713,75.5442935 103.371543,73.9222826 103.920479,72.507337 C104.469415,71.0923913 106.081915,70.4021739 107.488564,70.9543478 C107.522872,70.8853261 107.557181,70.7817935 107.625798,70.7127717 C108.003191,70.126087 108.792287,69.9880435 109.375532,70.367663 C109.958777,70.7817935 110.096011,71.5755435 109.718617,72.1277174 C109.65,72.2657609 109.547074,72.3692935 109.40984,72.4383152 C109.821543,72.4383152 110.198936,72.6453804 110.439096,73.025 C110.782181,73.6116848 110.610638,74.4054348 110.027394,74.7850543 C109.65,74.9921196 109.238298,75.0266304 108.860904,74.8540761 C108.174734,76.0964674 106.733777,76.6141304 105.464362,76.0964674 Z" id="Path" fill="#82368C" fill-rule="nonzero"></path>
                    <path d="M103.131383,76.8902174 C103.611702,75.4407609 105.189894,74.6815217 106.630851,75.1646739 C108.071809,75.6478261 108.826596,77.2353261 108.346277,78.6847826 C108.414894,78.7192935 108.517819,78.7538043 108.586436,78.8228261 C109.203989,79.1679348 109.375532,79.9616848 108.998138,80.5828804 C108.620745,81.1695652 107.865957,81.3766304 107.248404,80.9970109 C107.11117,80.9279891 107.008245,80.8244565 106.939628,80.7209239 C106.939628,81.1350543 106.768085,81.5491848 106.390691,81.75625 C105.807447,82.1358696 105.018351,81.9978261 104.640957,81.4111413 C104.400798,81.0660326 104.366489,80.6173913 104.503723,80.2377717 C103.302926,79.6165761 102.685372,78.2016304 103.131383,76.8902174 Z" id="Path" fill="#82368C" fill-rule="nonzero"></path>
                    <path d="M27.5154255,76.8557065 C29.025,76.7866848 30.2944149,77.9945652 30.3630319,79.5130435 C30.4316489,81.0315217 29.2308511,82.3084239 27.7212766,82.3774457 C27.7212766,82.4809783 27.7212766,82.55 27.6869681,82.6535326 C27.5840426,83.34375 26.8978723,83.7923913 26.2117021,83.6888587 C25.5255319,83.5508152 25.0795213,82.8951087 25.1824468,82.2048913 C25.2167553,82.0668478 25.2510638,81.9288043 25.3196809,81.7907609 C24.9422872,81.9633152 24.4962766,81.9288043 24.1531915,81.6527174 C23.5699468,81.238587 23.4327128,80.444837 23.8444149,79.8581522 C24.0845745,79.5130435 24.4962766,79.3059783 24.8736702,79.3059783 C25.0452128,77.9945652 26.1430851,76.9247283 27.5154255,76.8557065 Z" id="Path" fill="#82368C" fill-rule="nonzero"></path>
                    <path d="M26.1087766,79.3404891 C24.7021277,79.9271739 23.0896277,79.2714674 22.506383,77.8565217 C21.9231383,76.4415761 22.575,74.8195652 23.9816489,74.2328804 C23.9473404,74.1638587 23.9130319,74.0603261 23.9130319,73.9567935 C23.7757979,73.2665761 24.2218085,72.6108696 24.9422872,72.4728261 C25.6284574,72.3347826 26.2803191,72.8179348 26.4175532,73.5081522 C26.4518617,73.6461957 26.4518617,73.7842391 26.4175532,73.9567935 C26.7263298,73.6807065 27.1380319,73.542663 27.549734,73.6807065 C28.2359043,73.8532609 28.6476064,74.5434783 28.4760638,75.2336957 C28.3731383,75.6478261 28.0643617,75.9584239 27.7212766,76.0964674 C28.0300532,77.4078804 27.3781915,78.7883152 26.1087766,79.3404891 Z" id="Path" fill="#82368C" fill-rule="nonzero"></path>
                    <path d="M76.6795213,101.530978 C76.9882979,103.014946 76.0276596,104.498913 74.5523936,104.809511 C73.0771277,105.120109 71.6018617,104.188315 71.2930851,102.669837 C71.1901596,102.704348 71.1215426,102.704348 71.018617,102.704348 C70.2981383,102.704348 69.7492021,102.117663 69.7835106,101.427446 C69.7835106,100.737228 70.3667553,100.150543 71.0529255,100.185054 C71.1901596,100.185054 71.3273936,100.219565 71.4646277,100.254076 C71.2587766,99.9089674 71.2244681,99.4603261 71.3960106,99.0807065 C71.7047872,98.4595109 72.425266,98.148913 73.0771277,98.4595109 C73.4545213,98.6320652 73.7289894,99.0116848 73.7976064,99.3913043 C75.1356383,99.2532609 76.3707447,100.185054 76.6795213,101.530978 Z" id="Path" fill="#82368C" fill-rule="nonzero"></path>
                    <path d="M79.7672872,102.842391 C78.2920213,103.222011 76.7824468,102.359239 76.4050532,100.875272 C76.0276596,99.3913043 76.8853723,97.907337 78.3606383,97.4932065 C78.3263298,97.3896739 78.3263298,97.3206522 78.3263298,97.2171196 C78.2920213,96.5269022 78.8409574,95.9402174 79.5614362,95.9057065 C80.2476064,95.8711957 80.8651596,96.4233696 80.8651596,97.1480978 C80.8651596,97.2861413 80.8651596,97.4241848 80.7965426,97.5967391 C81.1396277,97.355163 81.5856383,97.2861413 81.9630319,97.4586957 C82.6148936,97.7347826 82.9236702,98.4595109 82.6492021,99.1152174 C82.4776596,99.494837 82.1345745,99.7709239 81.7571809,99.8744565 C81.9287234,101.22038 81.1053191,102.497283 79.7672872,102.842391 Z" id="Path" fill="#82368C" fill-rule="nonzero"></path>
                    <path d="M109.993085,53.3883152 C111.2625,54.2165761 111.605585,55.9421196 110.782181,57.2190217 C109.958777,58.4959239 108.243351,58.8410326 106.973936,58.0127717 C106.939628,58.0817935 106.871011,58.1508152 106.802394,58.219837 C106.287766,58.7029891 105.49867,58.7029891 105.018351,58.1853261 C104.538032,57.667663 104.538032,56.873913 105.05266,56.3907609 C105.155585,56.2872283 105.292819,56.2182065 105.395745,56.1491848 C104.984043,56.0456522 104.675266,55.7695652 104.503723,55.3554348 C104.263564,54.6997283 104.606649,53.975 105.258511,53.7334239 C105.670213,53.5953804 106.081915,53.6644022 106.390691,53.8714674 C107.35133,52.8706522 108.860904,52.6290761 109.993085,53.3883152 Z" id="Path" fill="#82368C" fill-rule="nonzero"></path>
                    <path d="M112.428989,53.1122283 C111.674202,54.4236413 109.958777,54.8722826 108.655053,54.0785326 C107.35133,53.3192935 106.905319,51.6282609 107.694415,50.282337 C107.625798,50.2478261 107.557181,50.1788043 107.488564,50.1097826 C106.973936,49.6266304 106.939628,48.8328804 107.419947,48.3152174 C107.900266,47.7975543 108.689362,47.7630435 109.203989,48.2461957 C109.306915,48.3497283 109.40984,48.4532609 109.478457,48.5913043 C109.547074,48.1771739 109.821543,47.8320652 110.233245,47.6595109 C110.885106,47.3834239 111.605585,47.6940217 111.880053,48.3497283 C112.051596,48.7293478 111.982979,49.1779891 111.777128,49.5230978 C112.806383,50.3858696 113.11516,51.9043478 112.428989,53.1122283 Z" id="Path" fill="#82368C" fill-rule="nonzero"></path>
                    <path d="M57.2265957,100.219565 C57.9470745,98.8736413 59.6281915,98.3904891 60.9662234,99.1497283 C62.3042553,99.8744565 62.7845745,101.565489 62.0297872,102.911413 C62.0984043,102.945924 62.1670213,103.014946 62.2699468,103.083967 C62.818883,103.532609 62.8531915,104.36087 62.3728723,104.878533 C61.8925532,105.396196 61.1034574,105.465217 60.5888298,104.982065 C60.4859043,104.878533 60.3829787,104.775 60.3143617,104.636957 C60.2457447,105.051087 60.0055851,105.396196 59.593883,105.56875 C58.9420213,105.844837 58.2215426,105.56875 57.912766,104.947554 C57.7412234,104.567935 57.7755319,104.119293 57.981383,103.774185 C56.9178191,102.911413 56.574734,101.427446 57.2265957,100.219565 Z" id="Path" fill="#82368C" fill-rule="nonzero"></path>
                    <path d="M56.7462766,97.8038043 C58.118617,98.4595109 58.6675532,100.116033 58.0156915,101.496467 C57.3638298,102.876902 55.7170213,103.429076 54.3446809,102.77337 C54.3103723,102.842391 54.2417553,102.945924 54.2074468,103.014946 C53.7614362,103.56712 52.9723404,103.670652 52.4234043,103.222011 C51.8744681,102.77337 51.8058511,101.97962 52.2175532,101.427446 C52.3204787,101.323913 52.4234043,101.22038 52.5263298,101.151359 C52.1146277,101.116848 51.737234,100.875272 51.5656915,100.461141 C51.2569149,99.8399457 51.4970745,99.0807065 52.1146277,98.7355978 C52.4920213,98.5630435 52.9380319,98.5630435 53.281117,98.7355978 C54.0359043,97.63125 55.5111702,97.1826087 56.7462766,97.8038043 Z" id="Path" fill="#82368C" fill-rule="nonzero"></path>
                    <path d="M96.7843085,91.9024457 C95.274734,91.6953804 94.2454787,90.2804348 94.4513298,88.7964674 C94.6571809,87.2779891 96.0295213,86.242663 97.5390957,86.4497283 C97.5390957,86.3461957 97.5734043,86.2771739 97.6077128,86.1736413 C97.8478723,85.5179348 98.5683511,85.1728261 99.2545213,85.448913 C99.906383,85.6904891 100.249468,86.4497283 99.975,87.1054348 C99.906383,87.2434783 99.837766,87.3815217 99.7691489,87.4850543 C100.146543,87.3815217 100.592553,87.5195652 100.90133,87.830163 C101.381649,88.3133152 101.415957,89.1415761 100.90133,89.6247283 C100.592553,89.9353261 100.180851,90.0388587 99.8034574,89.969837 C99.4260638,91.2122283 98.1566489,92.075 96.7843085,91.9024457 Z" id="Path" fill="#82368C" fill-rule="nonzero"></path>
                    <path d="M90.5058511,92.6961957 C90.6430851,91.1777174 91.981117,90.0733696 93.4906915,90.211413 C95.000266,90.3494565 96.0981383,91.6953804 95.9609043,93.2138587 C96.0638298,93.2138587 96.1324468,93.2483696 96.2353723,93.2828804 C96.9215426,93.4899457 97.2646277,94.2146739 97.0587766,94.8703804 C96.8529255,95.526087 96.1324468,95.9057065 95.4805851,95.6986413 C95.3433511,95.6641304 95.206117,95.5951087 95.1031915,95.4915761 C95.206117,95.8711957 95.1031915,96.319837 94.8287234,96.6304348 C94.3484043,97.1480978 93.5593085,97.1826087 93.0446809,96.7339674 C92.7359043,96.4578804 92.5986702,96.04375 92.6329787,95.6296196 C91.2949468,95.3190217 90.4029255,94.0766304 90.5058511,92.6961957 Z" id="Path" fill="#82368C" fill-rule="nonzero"></path>
                    <path d="M22.9523936,57.5296196 C21.6829787,58.3578804 21.3398936,60.0834239 22.1632979,61.3603261 C22.9867021,62.6372283 24.7021277,62.982337 25.9715426,62.1540761 C26.0058511,62.2230978 26.0744681,62.2921196 26.1430851,62.3611413 C26.6577128,62.8442935 27.4468085,62.8442935 27.9271277,62.3266304 C28.4074468,61.8089674 28.4074468,61.0152174 27.8928191,60.5320652 C27.7898936,60.4285326 27.6526596,60.3595109 27.549734,60.2904891 C27.9614362,60.1869565 28.2702128,59.9108696 28.4417553,59.4967391 C28.6819149,58.8410326 28.3388298,58.1163043 27.6869681,57.8747283 C27.275266,57.7366848 26.8635638,57.8057065 26.5547872,58.0127717 C25.6284574,56.9774457 24.118883,56.7703804 22.9523936,57.5296196 Z" id="Path" fill="#82368C" fill-rule="nonzero"></path>
                    <path d="M20.5507979,57.2190217 C21.3055851,58.5304348 23.0210106,58.9790761 24.324734,58.1853261 C25.6284574,57.426087 26.0744681,55.7350543 25.2853723,54.3891304 C25.3539894,54.3546196 25.4226064,54.2855978 25.4912234,54.2165761 C26.0058511,53.7334239 26.0401596,52.9396739 25.5598404,52.4220109 C25.0795213,51.9043478 24.2904255,51.869837 23.7757979,52.3529891 C23.6728723,52.4565217 23.5699468,52.5600543 23.5013298,52.6980978 C23.4327128,52.2839674 23.1582447,51.9388587 22.7465426,51.7663043 C22.0946809,51.4902174 21.3742021,51.8008152 21.099734,52.4565217 C20.9281915,52.8361413 20.9968085,53.2847826 21.2026596,53.6298913 C20.1390957,54.492663 19.8646277,56.0111413 20.5507979,57.2190217 Z" id="Path" fill="#82368C" fill-rule="nonzero"></path>
                    <ellipse id="Oval" fill="#FFFFFF" fill-rule="nonzero" transform="translate(87.937993, 30.574674) rotate(-39.473240) translate(-87.937993, -30.574674) " cx="87.9379928" cy="30.5746737" rx="2.57920567" ry="1.89356192"></ellipse>
                    <path d="M99.6662234,50.3513587 C98.1223404,49.2125 98.2595745,47.6940217 94.4856383,44.0358696 C92.5986702,42.2067935 89.7853723,40.5157609 88.618883,38.0309783 C87.7954787,36.2709239 88.6875,33.7861413 90.5058511,32.819837 C92.8731383,31.5429348 96.2353723,34.3038043 98.8428191,38.5486413 C101.004255,42.1722826 102.067819,52.0769022 99.6662234,50.3513587 Z" id="Path" fill="#FFFFFF" fill-rule="nonzero"></path>
                </g>
            </g>
            <path d="M48.15,123.935135 C49.55,123.935135 50.95,123.835135 52.35,123.635135 C53.8166667,123.501802 55.2333333,123.285135 56.6,122.985135 C57.9666667,122.685135 59.3166667,122.335135 60.65,121.935135 C61.9833333,121.535135 63.3166667,121.085135 64.65,120.585135 C65.9833333,120.085135 67.25,119.501802 68.45,118.835135 C69.1166667,118.501802 69.75,118.168468 70.35,117.835135 C70.95,117.501802 71.5166667,117.135135 72.05,116.735135 C72.3833333,116.535135 72.6833333,116.351802 72.95,116.185135 C73.2166667,116.018468 73.4833333,115.835135 73.75,115.635135 C74.2166667,115.301802 74.7833333,114.868468 75.45,114.335135 C77.5833333,112.668468 79.55,110.835135 81.35,108.835135 C83.15,106.835135 84.7166667,104.701802 86.05,102.435135 C87.3833333,100.368468 88.5166667,98.0684685 89.45,95.5351351 C90.3166667,93.2018018 91.0166667,90.7351351 91.55,88.1351351 C91.95,85.6684685 92.1333333,83.2184685 92.1,80.7851351 C92.0666667,78.3518018 91.7833333,75.9684685 91.25,73.6351351 C90.9166667,72.3684685 90.3666667,71.2184685 89.6,70.1851351 C88.8333333,69.1518018 87.8166667,68.3351351 86.55,67.7351351 C84.35,66.6684685 82.1166667,66.5351351 79.85,67.3351351 C77.5833333,68.1351351 75.9166667,69.6351351 74.85,71.8351351 L74.85,71.8351351 L74.25,73.1351351 L73.75,74.1351351 C73.6166667,74.3351351 73.5333333,74.5184685 73.5,74.6851351 C73.4666667,74.8518018 73.3833333,75.0018018 73.25,75.1351351 C73.05,75.4684685 72.8666667,75.7851351 72.7,76.0851351 C72.5333333,76.3851351 72.35,76.7018018 72.15,77.0351351 C71.55,78.1018018 70.7833333,79.2018018 69.85,80.3351351 C69.05,81.4018018 68.2166667,82.3351351 67.35,83.1351351 C66.8833333,83.6018018 66.4166667,84.0184685 65.95,84.3851351 C65.4833333,84.7518018 65.0166667,85.1018018 64.55,85.4351351 C62.6166667,86.7684685 60.6833333,87.7684685 58.75,88.4351351 C58.6166667,88.5018018 58.5,88.5351351 58.4,88.5351351 C58.3,88.5351351 58.1833333,88.5684685 58.05,88.6351351 C57.9166667,88.7018018 57.8,88.7351351 57.7,88.7351351 C57.6,88.7351351 57.4833333,88.7684685 57.35,88.8351351 C56.6833333,88.9684685 56.2166667,89.0684685 55.95,89.1351351 C54.95,89.3351351 54.0166667,89.4351351 53.15,89.4351351 L53.15,89.4351351 L51.8,89.4351351 C51.3666667,89.4351351 50.9166667,89.4018018 50.45,89.3351351 C50.1166667,89.3351351 49.6833333,89.2684685 49.15,89.1351351 C48.8166667,89.0684685 48.3833333,88.9684685 47.85,88.8351351 C47.45,88.7018018 47.05,88.5851351 46.65,88.4851351 C46.25,88.3851351 45.85,88.2351351 45.45,88.0351351 C44.5833333,87.7018018 43.85,87.3684685 43.25,87.0351351 C41.7166667,86.2351351 40.3166667,85.2351351 39.05,84.0351351 C37.7833333,82.9684685 36.6166667,81.6351351 35.55,80.0351351 C35.0166667,79.3018018 34.55,78.5018018 34.15,77.6351351 C33.75,76.7684685 33.4166667,75.8684685 33.15,74.9351351 C32.8166667,73.9351351 32.6166667,72.9351351 32.55,71.9351351 C32.4833333,71.4018018 32.4333333,70.8851351 32.4,70.3851351 C32.3666667,69.8851351 32.35,69.3684685 32.35,68.8351351 C32.35,66.7684685 32.65,64.6684685 33.25,62.5351351 C33.5833333,61.4684685 33.9666667,60.4018018 34.4,59.3351351 C34.8333333,58.2684685 35.3833333,57.2351351 36.05,56.2351351 C37.3833333,54.2351351 39.05,52.4684685 41.05,50.9351351 C43.1833333,49.3351351 45.5166667,48.2018018 48.05,47.5351351 C48.3833333,47.4018018 48.7166667,47.3184685 49.05,47.2851351 C49.3833333,47.2518018 49.7166667,47.2018018 50.05,47.1351351 L50.05,47.1351351 L52.15,46.8351351 C52.8833333,46.7684685 53.5833333,46.7518018 54.25,46.7851351 C54.9166667,46.8184685 55.6166667,46.8684685 56.35,46.9351351 C57.0833333,47.0684685 57.8,47.1851351 58.5,47.2851351 C59.2,47.3851351 59.9166667,47.5351351 60.65,47.7351351 C60.9833333,47.8684685 61.3333333,48.0018018 61.7,48.1351351 C62.0666667,48.2684685 62.4166667,48.4018018 62.75,48.5351351 C63.15,48.6684685 63.5166667,48.8018018 63.85,48.9351351 C63.9166667,49.0018018 63.9833333,49.0351351 64.05,49.0351351 C64.1166667,49.0351351 64.2166667,49.0684685 64.35,49.1351351 L64.35,49.1351351 L64.55,49.2351351 L64.65,49.2351351 L64.65,49.3351351 L64.75,49.3351351 L64.85,49.4351351 C66.1166667,50.1018018 67.45,50.3184685 68.85,50.0851351 C70.25,49.8518018 71.45,49.2018018 72.45,48.1351351 C73.5833333,46.8684685 74.1333333,45.3684685 74.1,43.6351351 C74.0666667,41.9018018 73.3833333,40.4351351 72.05,39.2351351 L72.05,39.2351351 L71.85,39.0351351 L71.45,38.7351351 L70.85,38.1351351 C70.65,38.0018018 70.4333333,37.8351351 70.2,37.6351351 C69.9666667,37.4351351 69.75,37.2684685 69.55,37.1351351 C68.75,36.4684685 67.8166667,35.8351351 66.75,35.2351351 C65.8166667,34.6351351 64.85,34.0684685 63.85,33.5351351 C62.85,33.0018018 61.7833333,32.5018018 60.65,32.0351351 C58.45,31.1684685 56.2166667,30.5018018 53.95,30.0351351 C52.8833333,29.7684685 51.7166667,29.5684685 50.45,29.4351351 C49.9166667,29.3018018 49.35,29.2184685 48.75,29.1851351 C48.15,29.1518018 47.55,29.1018018 46.95,29.0351351 L46.95,29.0351351 L43.35,29.0351351 C42.75,29.1018018 42.15,29.1518018 41.55,29.1851351 C40.95,29.2184685 40.3166667,29.2684685 39.65,29.3351351 L39.65,29.3351351 L36.05,29.9351351 L32.45,30.8351351 C29.9166667,31.5684685 27.5833333,32.4684685 25.45,33.5351351 C24.3166667,34.1351351 23.2,34.7684685 22.1,35.4351351 C21,36.1018018 19.9166667,36.8018018 18.85,37.5351351 C14.5833333,40.6018018 10.9833333,44.3018018 8.05,48.6351351 C6.51666667,50.8351351 5.2,53.1518018 4.1,55.5851351 C3,58.0184685 2.11666667,60.5684685 1.45,63.2351351 C1.11666667,64.5684685 0.85,65.9018018 0.65,67.2351351 C0.45,68.5684685 0.283333333,69.9018018 0.15,71.2351351 C-0.05,73.9018018 -0.05,76.6018018 0.15,79.3351351 C0.35,82.1351351 0.783333333,84.8684685 1.45,87.5351351 C2.11666667,90.2018018 3.01666667,92.8351351 4.15,95.4351351 C6.35,100.568468 9.45,105.235135 13.45,109.435135 C14.45,110.435135 15.4833333,111.401802 16.55,112.335135 C17.6166667,113.268468 18.7166667,114.168468 19.85,115.035135 C22.1833333,116.768468 24.65,118.235135 27.25,119.435135 C29.85,120.635135 32.55,121.635135 35.35,122.435135 C38.2833333,123.168468 41.1166667,123.635135 43.85,123.835135 C44.5833333,123.901802 45.3,123.935135 46,123.935135 L46,123.935135 L48.15,123.935135 Z M65.65,42.5351351 C64.9166667,42.5351351 64.3,42.2851351 63.8,41.7851351 C63.3,41.2851351 63.05,40.6684685 63.05,39.9351351 C63.05,39.2018018 63.3,38.5684685 63.8,38.0351351 C64.3,37.5018018 64.9166667,37.2351351 65.65,37.2351351 C66.3833333,37.2351351 67.0166667,37.5018018 67.55,38.0351351 C68.0833333,38.5684685 68.35,39.2018018 68.35,39.9351351 C68.35,40.6684685 68.0833333,41.2851351 67.55,41.7851351 C67.0166667,42.2851351 66.3833333,42.5351351 65.65,42.5351351 Z M84.85,76.3351351 C84.1166667,76.3351351 83.5,76.0851351 83,75.5851351 C82.5,75.0851351 82.25,74.4684685 82.25,73.7351351 C82.25,73.0018018 82.5,72.3684685 83,71.8351351 C83.5,71.3018018 84.1166667,71.0351351 84.85,71.0351351 C85.5833333,71.0351351 86.2166667,71.3018018 86.75,71.8351351 C87.2833333,72.3684685 87.55,73.0018018 87.55,73.7351351 C87.55,74.4684685 87.2833333,75.0851351 86.75,75.5851351 C86.2166667,76.0851351 85.5833333,76.3351351 84.85,76.3351351 Z M30.35,85.2351351 C29.6166667,85.2351351 29,84.9851351 28.5,84.4851351 C28,83.9851351 27.75,83.3684685 27.75,82.6351351 C27.75,81.9018018 28,81.2684685 28.5,80.7351351 C29,80.2018018 29.6166667,79.9351351 30.35,79.9351351 C31.0833333,79.9351351 31.7166667,80.2018018 32.25,80.7351351 C32.7833333,81.2684685 33.05,81.9018018 33.05,82.6351351 C33.05,83.3684685 32.7833333,83.9851351 32.25,84.4851351 C31.7166667,84.9851351 31.0833333,85.2351351 30.35,85.2351351 Z M207.7,123.235135 C210.066667,123.235135 212.416667,122.735135 214.75,121.735135 C215.55,121.335135 216.416667,120.868468 217.35,120.335135 C219.283333,119.201802 220.95,117.751802 222.35,115.985135 C223.75,114.218468 224.816667,112.201802 225.55,109.935135 L225.55,109.935135 L246.05,42.4351351 C246.583333,40.6351351 246.533333,38.8351351 245.9,37.0351351 C245.266667,35.2351351 244.116667,33.8018018 242.45,32.7351351 C241.45,32.1351351 240.383333,31.7351351 239.25,31.5351351 C238.116667,31.3351351 237.016667,31.3684685 235.95,31.6351351 C234.883333,31.9018018 233.883333,32.3518018 232.95,32.9851351 C232.016667,33.6184685 231.216667,34.4351351 230.55,35.4351351 L230.55,35.4351351 L210.55,67.1351351 L195.85,33.2351351 C195.116667,31.5018018 193.9,30.1518018 192.2,29.1851351 C190.5,28.2184685 188.683333,27.9018018 186.75,28.2351351 C185.55,28.3684685 184.466667,28.7351351 183.5,29.3351351 C182.533333,29.9351351 181.733333,30.6684685 181.1,31.5351351 C180.466667,32.4018018 180,33.3851351 179.7,34.4851351 C179.4,35.5851351 179.316667,36.7351351 179.45,37.9351351 L179.45,37.9351351 L189.65,107.735135 C189.783333,108.468468 189.95,109.235135 190.15,110.035135 C190.35,110.835135 190.616667,111.601802 190.95,112.335135 C191.95,114.668468 193.316667,116.651802 195.05,118.285135 C196.783333,119.918468 198.733333,121.151802 200.9,121.985135 C203.066667,122.818468 205.333333,123.235135 207.7,123.235135 Z M206.55,72.5351351 C206.016667,72.6684685 205.45,72.6018018 204.85,72.3351351 C204.25,72.0684685 203.816667,71.6684685 203.55,71.1351351 L203.55,71.1351351 L188.65,36.6351351 C188.383333,36.1018018 188.383333,35.5518018 188.65,34.9851351 C188.916667,34.4184685 189.383333,33.9684685 190.05,33.6351351 C190.583333,33.5018018 191.15,33.5684685 191.75,33.8351351 C192.35,34.1018018 192.783333,34.4684685 193.05,34.9351351 L193.05,34.9351351 L207.95,69.6351351 C208.216667,70.1684685 208.183333,70.7351351 207.85,71.3351351 C207.516667,71.9351351 207.083333,72.3351351 206.55,72.5351351 Z M240.35,40.8351351 C239.616667,40.8351351 239,40.5851351 238.5,40.0851351 C238,39.5851351 237.75,38.9684685 237.75,38.2351351 C237.75,37.5018018 238,36.8684685 238.5,36.3351351 C239,35.8018018 239.616667,35.5351351 240.35,35.5351351 C241.083333,35.5351351 241.716667,35.8018018 242.25,36.3351351 C242.783333,36.8684685 243.05,37.5018018 243.05,38.2351351 C243.05,38.9684685 242.783333,39.5851351 242.25,40.0851351 C241.716667,40.5851351 241.083333,40.8351351 240.35,40.8351351 Z M259.5,126.385135 C261.733333,127.151802 264.116667,127.435135 266.65,127.235135 C269.116667,127.035135 271.416667,126.385135 273.55,125.285135 C275.683333,124.185135 277.5,122.768468 279,121.035135 C280.5,119.301802 281.65,117.301802 282.45,115.035135 C283.25,112.768468 283.55,110.401802 283.35,107.935135 L283.35,107.935135 L278.15,31.7351351 C278.016667,29.8684685 277.316667,28.2018018 276.05,26.7351351 C274.783333,25.2684685 273.183333,24.3351351 271.25,23.9351351 C270.05,23.7351351 268.9,23.7518018 267.8,23.9851351 C266.7,24.2184685 265.7,24.6351351 264.8,25.2351351 C263.9,25.8351351 263.116667,26.6018018 262.45,27.5351351 C261.783333,28.4684685 261.35,29.5351351 261.15,30.7351351 L261.15,30.7351351 L247.55,105.735135 C247.216667,107.335135 247.116667,108.935135 247.25,110.535135 C247.45,113.068468 248.1,115.385135 249.2,117.485135 C250.3,119.585135 251.733333,121.401802 253.5,122.935135 C255.266667,124.468468 257.266667,125.618468 259.5,126.385135 Z M271.75,32.1351351 C271.016667,32.1351351 270.4,31.8851351 269.9,31.3851351 C269.4,30.8851351 269.15,30.2684685 269.15,29.5351351 C269.15,28.8018018 269.4,28.1684685 269.9,27.6351351 C270.4,27.1018018 271.016667,26.8351351 271.75,26.8351351 C272.483333,26.8351351 273.116667,27.1018018 273.65,27.6351351 C274.183333,28.1684685 274.45,28.8018018 274.45,29.5351351 C274.45,30.2684685 274.183333,30.8851351 273.65,31.3851351 C273.116667,31.8851351 272.483333,32.1351351 271.75,32.1351351 Z M323.75,128.135135 C324.816667,128.135135 325.916667,128.101802 327.05,128.035135 C328.183333,127.901802 329.3,127.785135 330.4,127.685135 C331.5,127.585135 332.616667,127.401802 333.75,127.135135 C336.15,126.735135 338.483333,126.135135 340.75,125.335135 C341.95,124.935135 343.15,124.485135 344.35,123.985135 C345.55,123.485135 346.716667,122.901802 347.85,122.235135 C349.05,121.568468 350.183333,120.901802 351.25,120.235135 C351.783333,119.835135 352.316667,119.435135 352.85,119.035135 C353.383333,118.635135 353.916667,118.201802 354.45,117.735135 C356.583333,115.935135 358.45,114.035135 360.05,112.035135 C360.85,111.035135 361.6,110.001802 362.3,108.935135 C363,107.868468 363.65,106.768468 364.25,105.635135 C364.85,104.568468 365.383333,103.501802 365.85,102.435135 C366.316667,101.368468 366.75,100.268468 367.15,99.1351351 C367.883333,97.0018018 368.466667,94.8851351 368.9,92.7851351 C369.333333,90.6851351 369.65,88.6351351 369.85,86.6351351 C370.05,84.6351351 370.166667,82.6684685 370.2,80.7351351 C370.233333,78.8018018 370.183333,76.9351351 370.05,75.1351351 L370.05,75.1351351 L370.05,73.7351351 L369.95,73.0351351 L369.95,72.3351351 L369.65,69.6351351 C369.516667,68.7684685 369.383333,67.8851351 369.25,66.9851351 C369.116667,66.0851351 368.983333,65.1684685 368.85,64.2351351 C368.716667,63.3018018 368.55,62.3851351 368.35,61.4851351 C368.15,60.5851351 367.95,59.6684685 367.75,58.7351351 C367.483333,57.8018018 367.216667,56.8518018 366.95,55.8851351 C366.683333,54.9184685 366.383333,53.9351351 366.05,52.9351351 C365.716667,52.0018018 365.35,51.0351351 364.95,50.0351351 C364.55,49.0351351 364.083333,48.0684685 363.55,47.1351351 C363.016667,46.1351351 362.466667,45.1351351 361.9,44.1351351 C361.333333,43.1351351 360.683333,42.1351351 359.95,41.1351351 C358.55,39.2018018 356.816667,37.3684685 354.75,35.6351351 C353.75,34.8351351 352.683333,34.0851351 351.55,33.3851351 C350.416667,32.6851351 349.25,32.0684685 348.05,31.5351351 C346.85,31.0018018 345.616667,30.5518018 344.35,30.1851351 C343.083333,29.8184685 341.85,29.5684685 340.65,29.4351351 C340.05,29.3018018 339.45,29.2351351 338.85,29.2351351 C338.25,29.2351351 337.65,29.2018018 337.05,29.1351351 C336.516667,29.1351351 335.95,29.1518018 335.35,29.1851351 C334.75,29.2184685 334.183333,29.2684685 333.65,29.3351351 C332.583333,29.4684685 331.533333,29.6184685 330.5,29.7851351 C329.466667,29.9518018 328.45,30.1684685 327.45,30.4351351 C325.65,30.9018018 323.816667,31.5018018 321.95,32.2351351 C321.216667,32.5684685 320.5,32.9018018 319.8,33.2351351 C319.1,33.5684685 318.383333,33.9018018 317.65,34.2351351 L317.65,34.2351351 L317.45,31.7351351 C317.316667,29.8684685 316.616667,28.2018018 315.35,26.7351351 C314.083333,25.2684685 312.483333,24.3351351 310.55,23.9351351 C309.35,23.7351351 308.2,23.7518018 307.1,23.9851351 C306,24.2184685 305,24.6351351 304.1,25.2351351 C303.2,25.8351351 302.416667,26.6018018 301.75,27.5351351 C301.083333,28.4684685 300.65,29.5351351 300.45,30.7351351 L300.45,30.7351351 L286.85,99.7351351 C286.516667,101.335135 286.416667,102.935135 286.55,104.535135 C286.883333,108.068468 288.016667,111.168468 289.95,113.835135 C291.683333,116.768468 294.25,118.968468 297.65,120.435135 L297.65,120.435135 L297.95,120.635135 L298.05,120.635135 L298.15,120.735135 L298.55,121.035135 L298.85,121.235135 L299.25,121.435135 C299.45,121.568468 299.666667,121.701802 299.9,121.835135 C300.133333,121.968468 300.35,122.101802 300.55,122.235135 C301.016667,122.501802 301.466667,122.735135 301.9,122.935135 C302.333333,123.135135 302.783333,123.335135 303.25,123.535135 C304.116667,124.001802 305,124.401802 305.9,124.735135 C306.8,125.068468 307.716667,125.401802 308.65,125.735135 C312.316667,126.868468 316.283333,127.601802 320.55,127.935135 C321.616667,128.068468 322.683333,128.135135 323.75,128.135135 Z M352.95,44.5351351 C352.216667,44.5351351 351.6,44.2851351 351.1,43.7851351 C350.6,43.2851351 350.35,42.6684685 350.35,41.9351351 C350.35,41.2018018 350.6,40.5684685 351.1,40.0351351 C351.6,39.5018018 352.216667,39.2351351 352.95,39.2351351 C353.683333,39.2351351 354.316667,39.5018018 354.85,40.0351351 C355.383333,40.5684685 355.65,41.2018018 355.65,41.9351351 C355.65,42.6684685 355.383333,43.2851351 354.85,43.7851351 C354.316667,44.2851351 353.683333,44.5351351 352.95,44.5351351 Z M328.65,91.7351351 L327.4,91.7351351 C326.966667,91.7351351 326.516667,91.7018018 326.05,91.6351351 C325.65,91.5684685 325.216667,91.5351351 324.75,91.5351351 C324.283333,91.5351351 323.783333,91.5018018 323.25,91.4351351 C322.983333,91.4351351 322.733333,91.4184685 322.5,91.3851351 C322.266667,91.3518018 322.05,91.3351351 321.85,91.3351351 L321.85,91.3351351 L318.95,52.5351351 C319.083333,52.4684685 319.216667,52.4184685 319.35,52.3851351 C319.483333,52.3518018 319.616667,52.3018018 319.75,52.2351351 C320.416667,52.0351351 321.066667,51.8351351 321.7,51.6351351 C322.333333,51.4351351 322.983333,51.2684685 323.65,51.1351351 C324.316667,51.0018018 324.95,50.8684685 325.55,50.7351351 C326.15,50.6018018 326.783333,50.4684685 327.45,50.3351351 C328.65,50.1351351 329.816667,50.0351351 330.95,50.0351351 C331.483333,50.0351351 332,50.0518018 332.5,50.0851351 C333,50.1184685 333.483333,50.1684685 333.95,50.2351351 C334.283333,50.3018018 334.716667,50.4018018 335.25,50.5351351 C335.45,50.6018018 335.633333,50.6684685 335.8,50.7351351 C335.966667,50.8018018 336.116667,50.8684685 336.25,50.9351351 C336.916667,51.2684685 337.383333,51.6018018 337.65,51.9351351 C337.983333,52.2684685 338.25,52.6351351 338.45,53.0351351 L338.45,53.0351351 L338.85,53.8351351 C338.983333,54.1018018 339.116667,54.4018018 339.25,54.7351351 C339.383333,55.0684685 339.5,55.4184685 339.6,55.7851351 C339.7,56.1518018 339.816667,56.5684685 339.95,57.0351351 C340.083333,57.5018018 340.183333,57.9684685 340.25,58.4351351 C340.316667,58.9018018 340.383333,59.4018018 340.45,59.9351351 C340.65,61.0684685 340.75,62.2018018 340.75,63.3351351 C340.816667,63.9351351 340.85,64.5351351 340.85,65.1351351 L340.85,65.1351351 L340.85,66.9351351 C340.85,67.6018018 340.833333,68.2518018 340.8,68.8851351 C340.766667,69.5184685 340.716667,70.1684685 340.65,70.8351351 L340.65,70.8351351 L340.65,71.8351351 C340.65,72.1684685 340.616667,72.5018018 340.55,72.8351351 L340.55,72.8351351 L340.55,73.3351351 L340.45,73.7351351 L340.35,74.7351351 C340.15,77.3351351 339.75,79.6684685 339.15,81.7351351 C338.883333,82.8018018 338.566667,83.7851351 338.2,84.6851351 C337.833333,85.5851351 337.45,86.4018018 337.05,87.1351351 C336.65,87.8684685 336.25,88.4684685 335.85,88.9351351 C335.45,89.4684685 335.05,89.8684685 334.65,90.1351351 C334.45,90.2684685 334.266667,90.3851351 334.1,90.4851351 C333.933333,90.5851351 333.75,90.6684685 333.55,90.7351351 C333.016667,91.0018018 332.583333,91.1684685 332.25,91.2351351 C332.05,91.3018018 331.816667,91.3518018 331.55,91.3851351 C331.283333,91.4184685 330.983333,91.4684685 330.65,91.5351351 C330.316667,91.6018018 329.983333,91.6518018 329.65,91.6851351 C329.316667,91.7184685 328.983333,91.7351351 328.65,91.7351351 L328.65,91.7351351 Z M316.15,90.1351351 C315.55,90.2684685 315,90.1018018 314.5,89.6351351 C314,89.1684685 313.716667,88.6684685 313.65,88.1351351 L313.65,88.1351351 L311.15,59.5351351 C311.083333,58.9351351 311.25,58.4018018 311.65,57.9351351 C312.05,57.4684685 312.583333,57.1684685 313.25,57.0351351 C313.85,56.9684685 314.4,57.1518018 314.9,57.5851351 C315.4,58.0184685 315.683333,58.5351351 315.75,59.1351351 L315.75,59.1351351 L318.25,87.7351351 C318.316667,88.3351351 318.133333,88.8851351 317.7,89.3851351 C317.266667,89.8851351 316.75,90.1351351 316.15,90.1351351 Z M379.95,90.9851351 C381.15,91.3518018 382.416667,91.4351351 383.75,91.2351351 L383.75,91.2351351 L414.35,87.6351351 C414.483333,87.6351351 414.616667,87.6184685 414.75,87.5851351 C414.883333,87.5518018 415.016667,87.5351351 415.15,87.5351351 C416.616667,87.2684685 417.933333,86.7184685 419.1,85.8851351 C420.266667,85.0518018 421.233333,84.0684685 422,82.9351351 C422.766667,81.8018018 423.283333,80.5518018 423.55,79.1851351 C423.816667,77.8184685 423.816667,76.4018018 423.55,74.9351351 C423.216667,73.4684685 422.65,72.1518018 421.85,70.9851351 C421.05,69.8184685 420.083333,68.8684685 418.95,68.1351351 C417.816667,67.4018018 416.566667,66.8851351 415.2,66.5851351 C413.833333,66.2851351 412.416667,66.2684685 410.95,66.5351351 L410.95,66.5351351 L380.75,72.6351351 C378.35,73.1018018 376.416667,74.3184685 374.95,76.2851351 C373.483333,78.2518018 372.916667,80.5018018 373.25,83.0351351 C373.383333,84.3684685 373.766667,85.5684685 374.4,86.6351351 C375.033333,87.7018018 375.816667,88.6018018 376.75,89.3351351 C377.683333,90.0684685 378.75,90.6184685 379.95,90.9851351 Z M415.85,74.3351351 C415.116667,74.3351351 414.5,74.0851351 414,73.5851351 C413.5,73.0851351 413.25,72.4684685 413.25,71.7351351 C413.25,71.0018018 413.5,70.3684685 414,69.8351351 C414.5,69.3018018 415.116667,69.0351351 415.85,69.0351351 C416.583333,69.0351351 417.216667,69.3018018 417.75,69.8351351 C418.283333,70.3684685 418.55,71.0018018 418.55,71.7351351 C418.55,72.4684685 418.283333,73.0851351 417.75,73.5851351 C417.216667,74.0851351 416.583333,74.3351351 415.85,74.3351351 Z M443.4,128.385135 C445.633333,129.151802 448.016667,129.435135 450.55,129.235135 C453.016667,129.035135 455.316667,128.385135 457.45,127.285135 C459.583333,126.185135 461.4,124.768468 462.9,123.035135 C464.4,121.301802 465.55,119.301802 466.35,117.035135 C467.15,114.768468 467.45,112.401802 467.25,109.935135 L467.25,109.935135 L462.05,39.7351351 C461.916667,37.8684685 461.216667,36.2018018 459.95,34.7351351 C458.683333,33.2684685 457.083333,32.3351351 455.15,31.9351351 C453.816667,31.6684685 452.55,31.7018018 451.35,32.0351351 C450.15,32.3684685 449.083333,32.9018018 448.15,33.6351351 C447.95,33.7684685 447.75,33.8851351 447.55,33.9851351 C447.35,34.0851351 447.183333,34.2018018 447.05,34.3351351 L447.05,34.3351351 L425.25,51.9351351 C424.783333,52.3351351 424.35,52.7518018 423.95,53.1851351 C423.55,53.6184685 423.183333,54.1018018 422.85,54.6351351 C422.116667,55.9018018 421.65,57.2184685 421.45,58.5851351 C421.25,59.9518018 421.333333,61.2851351 421.7,62.5851351 C422.066667,63.8851351 422.666667,65.1018018 423.5,66.2351351 C424.333333,67.3684685 425.383333,68.3018018 426.65,69.0351351 C428.716667,70.2351351 430.916667,70.7018018 433.25,70.4351351 C435.583333,70.1684685 437.616667,69.3018018 439.35,67.8351351 L439.35,67.8351351 L431.45,107.735135 C431.116667,109.268468 431.016667,110.868468 431.15,112.535135 C431.35,115.068468 432,117.385135 433.1,119.485135 C434.2,121.585135 435.633333,123.401802 437.4,124.935135 C439.166667,126.468468 441.166667,127.618468 443.4,128.385135 Z M455.65,40.1351351 C454.916667,40.1351351 454.3,39.8851351 453.8,39.3851351 C453.3,38.8851351 453.05,38.2684685 453.05,37.5351351 C453.05,36.8018018 453.3,36.1684685 453.8,35.6351351 C454.3,35.1018018 454.916667,34.8351351 455.65,34.8351351 C456.383333,34.8351351 457.016667,35.1018018 457.55,35.6351351 C458.083333,36.1684685 458.35,36.8018018 458.35,37.5351351 C458.35,38.2684685 458.083333,38.8851351 457.55,39.3851351 C457.016667,39.8851351 456.383333,40.1351351 455.65,40.1351351 Z M479.05,134.40076 L480.05,134.385135 C481.383333,134.351802 482.75,134.268468 484.15,134.135135 L484.15,134.135135 L486.15,133.935135 C486.816667,133.868468 487.516667,133.801802 488.25,133.735135 C488.983333,133.601802 489.683333,133.485135 490.35,133.385135 C491.016667,133.285135 491.716667,133.168468 492.45,133.035135 C495.25,132.568468 498.05,131.868468 500.85,130.935135 C502.25,130.468468 503.666667,129.968468 505.1,129.435135 C506.533333,128.901802 507.916667,128.301802 509.25,127.635135 C512.05,126.235135 514.75,124.635135 517.35,122.835135 C518.616667,121.901802 519.85,120.918468 521.05,119.885135 C522.25,118.851802 523.416667,117.768468 524.55,116.635135 C525.683333,115.501802 526.716667,114.335135 527.65,113.135135 C528.583333,111.935135 529.483333,110.668468 530.35,109.335135 C531.283333,108.068468 532.1,106.768468 532.8,105.435135 C533.5,104.101802 534.15,102.768468 534.75,101.435135 C535.416667,100.101802 535.983333,98.7351351 536.45,97.3351351 C536.916667,95.9351351 537.35,94.5351351 537.75,93.1351351 C538.15,91.8018018 538.483333,90.4518018 538.75,89.0851351 C539.016667,87.7184685 539.25,86.3351351 539.45,84.9351351 C539.85,82.2018018 540.066667,79.5018018 540.1,76.8351351 C540.133333,74.1684685 539.983333,71.5018018 539.65,68.8351351 L539.65,68.8351351 L539.05,64.9351351 C538.916667,64.2684685 538.783333,63.6184685 538.65,62.9851351 C538.516667,62.3518018 538.35,61.6684685 538.15,60.9351351 C537.883333,59.7351351 537.483333,58.4018018 536.95,56.9351351 C536.816667,56.6018018 536.7,56.2518018 536.6,55.8851351 C536.5,55.5184685 536.383333,55.1351351 536.25,54.7351351 C535.983333,54.2018018 535.816667,53.8018018 535.75,53.5351351 L535.75,53.5351351 L535.25,52.5351351 L535.25,52.3351351 L535.15,52.2351351 C534.816667,51.7018018 534.483333,51.1518018 534.15,50.5851351 C533.816667,50.0184685 533.483333,49.4351351 533.15,48.8351351 C532.816667,48.2351351 532.45,47.6518018 532.05,47.0851351 C531.65,46.5184685 531.216667,45.9351351 530.75,45.3351351 C530.35,44.7351351 529.916667,44.1351351 529.45,43.5351351 C528.983333,42.9351351 528.483333,42.3684685 527.95,41.8351351 C527.416667,41.2351351 526.866667,40.6684685 526.3,40.1351351 C525.733333,39.6018018 525.116667,39.0684685 524.45,38.5351351 C524.116667,38.2684685 523.8,38.0184685 523.5,37.7851351 C523.2,37.5518018 522.883333,37.3018018 522.55,37.0351351 C522.216667,36.8351351 521.866667,36.6184685 521.5,36.3851351 C521.133333,36.1518018 520.783333,35.9351351 520.45,35.7351351 C520.116667,35.5351351 519.75,35.3518018 519.35,35.1851351 C518.95,35.0184685 518.583333,34.8351351 518.25,34.6351351 C517.916667,34.5018018 517.55,34.3518018 517.15,34.1851351 C516.75,34.0184685 516.383333,33.8684685 516.05,33.7351351 C514.516667,33.2018018 513.083333,32.8018018 511.75,32.5351351 C511.016667,32.4018018 510.316667,32.3018018 509.65,32.2351351 C508.983333,32.1684685 508.283333,32.1018018 507.55,32.0351351 C506.816667,31.9018018 506.133333,31.8351351 505.5,31.8351351 L505.5,31.8351351 L501.65,31.8351351 C501.516667,31.8351351 501.366667,31.8518018 501.2,31.8851351 C501.033333,31.9184685 500.883333,31.9351351 500.75,31.9351351 L500.75,31.9351351 L499.55,31.9351351 L499.35,32.0351351 L498.05,32.0351351 C497.716667,32.1018018 497.35,32.1351351 496.95,32.1351351 C496.55,32.1351351 496.183333,32.1684685 495.85,32.2351351 C495.116667,32.3684685 494.366667,32.5184685 493.6,32.6851351 C492.833333,32.8518018 492.083333,33.0684685 491.35,33.3351351 C489.816667,33.8684685 488.383333,34.5018018 487.05,35.2351351 C485.716667,35.9018018 484.416667,36.7684685 483.15,37.8351351 C481.883333,38.9018018 480.816667,40.0018018 479.95,41.1351351 C479.416667,41.7351351 478.933333,42.3351351 478.5,42.9351351 C478.066667,43.5351351 477.683333,44.1684685 477.35,44.8351351 C476.95,45.5018018 476.6,46.1684685 476.3,46.8351351 C476,47.5018018 475.716667,48.1684685 475.45,48.8351351 C475.183333,49.5684685 474.95,50.2684685 474.75,50.9351351 C474.55,51.6018018 474.35,52.3018018 474.15,53.0351351 C473.55,55.7018018 473.316667,58.5351351 473.45,61.5351351 C473.583333,63.0018018 473.783333,64.4518018 474.05,65.8851351 C474.316667,67.3184685 474.716667,68.7351351 475.25,70.1351351 C475.716667,71.4684685 476.383333,72.8351351 477.25,74.2351351 C477.916667,75.5684685 478.85,76.8351351 480.05,78.0351351 C480.583333,78.6351351 481.15,79.2018018 481.75,79.7351351 C482.35,80.2684685 482.983333,80.8018018 483.65,81.3351351 C484.316667,81.8018018 485.016667,82.2351351 485.75,82.6351351 C486.483333,83.0351351 487.216667,83.4018018 487.95,83.7351351 C488.683333,84.0684685 489.433333,84.3518018 490.2,84.5851351 C490.966667,84.8184685 491.75,85.0018018 492.55,85.1351351 C494.216667,85.4684685 495.716667,85.6351351 497.05,85.6351351 L497.05,85.6351351 L499.25,85.6351351 C499.983333,85.6351351 500.716667,85.5684685 501.45,85.4351351 C502.183333,85.3684685 502.883333,85.2684685 503.55,85.1351351 L503.55,85.1351351 L505.55,84.7351351 C506.883333,84.4018018 508.166667,84.0518018 509.4,83.6851351 C509.646667,83.6118018 509.892667,83.5351351 510.138,83.4551351 L510.663,83.2761351 L510.45,83.7351351 C510.2,84.2851351 509.940625,84.8070101 509.671875,85.3007601 L509.4,85.7851351 C509.033333,86.4184685 508.65,87.0351351 508.25,87.6351351 C507.45,88.7018018 506.583333,89.7684685 505.65,90.8351351 C505.116667,91.3018018 504.633333,91.7351351 504.2,92.1351351 C503.766667,92.5351351 503.283333,92.9351351 502.75,93.3351351 C501.616667,94.0684685 500.55,94.7018018 499.55,95.2351351 C498.95,95.5018018 498.35,95.7518018 497.75,95.9851351 C497.15,96.2184685 496.55,96.4351351 495.95,96.6351351 C493.35,97.4351351 490.516667,97.9351351 487.45,98.1351351 C485.916667,98.2684685 484.3,98.3184685 482.6,98.2851351 C480.9,98.2518018 479.183333,98.1684685 477.45,98.0351351 C477.316667,98.0351351 477.133333,98.0184685 476.9,97.9851351 C476.666667,97.9518018 476.45,97.9351351 476.25,97.9351351 C473.716667,97.9351351 471.35,98.3851351 469.15,99.2851351 C466.95,100.185135 465.016667,101.451802 463.35,103.085135 C461.683333,104.718468 460.35,106.635135 459.35,108.835135 C458.35,111.035135 457.85,113.401802 457.85,115.935135 C457.783333,118.468468 458.216667,120.835135 459.15,123.035135 C460.083333,125.235135 461.366667,127.168468 463,128.835135 C464.633333,130.501802 466.533333,131.835135 468.7,132.835135 C470.866667,133.835135 473.216667,134.335135 475.75,134.335135 L475.75,134.335135 L476.05,134.335135 C477.383333,134.401802 478.716667,134.418468 480.05,134.385135 L479.05,134.40076 Z M518.75,43.2351351 C518.016667,43.2351351 517.4,42.9851351 516.9,42.4851351 C516.4,41.9851351 516.15,41.3684685 516.15,40.6351351 C516.15,39.9018018 516.4,39.2684685 516.9,38.7351351 C517.4,38.2018018 518.016667,37.9351351 518.75,37.9351351 C519.483333,37.9351351 520.116667,38.2018018 520.65,38.7351351 C521.183333,39.2684685 521.45,39.9018018 521.45,40.6351351 C521.45,41.3684685 521.183333,41.9851351 520.65,42.4851351 C520.116667,42.9851351 519.483333,43.2351351 518.75,43.2351351 Z M497.25,70.7351351 L496.25,70.7351351 C495.916667,70.7351351 495.583333,70.7018018 495.25,70.6351351 C494.916667,70.5684685 494.616667,70.5018018 494.35,70.4351351 C494.083333,70.3684685 493.783333,70.2684685 493.45,70.1351351 C493.183333,70.0018018 492.933333,69.8851351 492.7,69.7851351 C492.466667,69.6851351 492.216667,69.5684685 491.95,69.4351351 C491.683333,69.3018018 491.45,69.1351351 491.25,68.9351351 L491.25,68.9351351 L490.65,68.3351351 C489.783333,67.4018018 489.116667,66.3018018 488.65,65.0351351 C488.183333,63.7684685 487.883333,62.3351351 487.75,60.7351351 C487.616667,59.1351351 487.75,57.6351351 488.15,56.2351351 C488.416667,54.8351351 488.95,53.4684685 489.75,52.1351351 C490.15,51.5351351 490.566667,50.9684685 491,50.4351351 C491.433333,49.9018018 491.916667,49.4684685 492.45,49.1351351 C493.516667,48.2684685 494.616667,47.7018018 495.75,47.4351351 C496.083333,47.3018018 496.416667,47.2184685 496.75,47.1851351 C497.083333,47.1518018 497.416667,47.1018018 497.75,47.0351351 L497.75,47.0351351 L503.15,47.0351351 C503.616667,47.1018018 504.066667,47.1518018 504.5,47.1851351 C504.933333,47.2184685 505.35,47.2684685 505.75,47.3351351 C507.55,47.6684685 508.983333,48.1351351 510.05,48.7351351 C510.516667,48.9351351 511.016667,49.2684685 511.55,49.7351351 L511.55,49.7351351 L512.15,50.3351351 C512.216667,50.4018018 512.383333,50.6351351 512.65,51.0351351 C513.05,51.5684685 513.35,52.1018018 513.55,52.6351351 C513.883333,53.3684685 514.15,54.0351351 514.35,54.6351351 L514.35,54.6351351 L514.95,57.0351351 C515.083333,57.4351351 515.183333,57.8518018 515.25,58.2851351 C515.316667,58.7184685 515.383333,59.2018018 515.45,59.7351351 L515.45,59.7351351 L515.45,60.3351351 L515.35,61.4351351 L515.35,61.4351351 L515.35,62.1851351 L515.05,62.4351351 C514.875,62.6101351 514.572396,62.8616976 514.142188,63.1898226 L513.95,63.3351351 C513.55,63.6684685 513.15,63.9684685 512.75,64.2351351 L512.75,64.2351351 L511.55,65.0351351 C510.75,65.5684685 509.95,66.0851351 509.15,66.5851351 C508.35,67.0851351 507.516667,67.5351351 506.65,67.9351351 C504.983333,68.8018018 503.35,69.4684685 501.75,69.9351351 C500.95,70.2018018 500.183333,70.3851351 499.45,70.4851351 C498.716667,70.5851351 497.983333,70.6684685 497.25,70.7351351 L497.25,70.7351351 Z M487.75,74.7351351 C487.016667,74.7351351 486.4,74.4851351 485.9,73.9851351 C485.4,73.4851351 485.15,72.8684685 485.15,72.1351351 C485.15,71.4018018 485.4,70.7684685 485.9,70.2351351 C486.4,69.7018018 487.016667,69.4351351 487.75,69.4351351 C488.483333,69.4351351 489.116667,69.7018018 489.65,70.2351351 C490.183333,70.7684685 490.45,71.4018018 490.45,72.1351351 C490.45,72.8684685 490.183333,73.4851351 489.65,73.9851351 C489.116667,74.4851351 488.483333,74.7351351 487.75,74.7351351 Z M651.6,125.085135 C653.966667,125.451802 656.283333,125.385135 658.55,124.885135 C660.816667,124.385135 662.933333,123.451802 664.9,122.085135 C666.866667,120.718468 668.516667,118.968468 669.85,116.835135 C671.183333,114.768468 672.033333,112.551802 672.4,110.185135 C672.766667,107.818468 672.7,105.501802 672.2,103.235135 C671.7,100.968468 670.766667,98.8518018 669.4,96.8851351 C668.033333,94.9184685 666.283333,93.2684685 664.15,91.9351351 L664.15,91.9351351 L653.851,85.4341351 L654.374691,85.0351351 C655.578807,84.1018018 656.64177,83.1684685 657.56358,82.2351351 L657.95,81.8351351 L657.95,81.8351351 L659.55,79.8351351 C660.083333,79.1684685 660.55,78.4684685 660.95,77.7351351 C661.683333,76.5351351 662.383333,75.1684685 663.05,73.6351351 C663.583333,72.3018018 664,70.9684685 664.3,69.6351351 C664.6,68.3018018 664.816667,67.0018018 664.95,65.7351351 C665.083333,64.4018018 665.166667,63.1351351 665.2,61.9351351 C665.233333,60.7351351 665.216667,59.5684685 665.15,58.4351351 L665.15,58.4351351 L665.15,57.5351351 L665.05,57.1351351 L665.05,56.7351351 C664.983333,56.4018018 664.95,56.1184685 664.95,55.8851351 L664.946,55.7391351 C664.935333,55.5364685 664.903333,55.3018018 664.85,55.0351351 C664.716667,53.8351351 664.516667,52.7018018 664.25,51.6351351 C664.116667,51.0351351 664,50.4351351 663.9,49.8351351 C663.8,49.2351351 663.65,48.6351351 663.45,48.0351351 C663.116667,46.8351351 662.716667,45.6351351 662.25,44.4351351 C661.783333,43.3684685 661.183333,42.1351351 660.45,40.7351351 C660.116667,40.1351351 659.733333,39.5184685 659.3,38.8851351 C658.866667,38.2518018 658.383333,37.6351351 657.85,37.0351351 C657.316667,36.3684685 656.75,35.7518018 656.15,35.1851351 C655.55,34.6184685 654.883333,34.0684685 654.15,33.5351351 C652.55,32.3351351 650.916667,31.4684685 649.25,30.9351351 C648.383333,30.6018018 647.5,30.3351351 646.6,30.1351351 C645.7,29.9351351 644.816667,29.7684685 643.95,29.6351351 C643.483333,29.5684685 643.05,29.5184685 642.65,29.4851351 C642.25,29.4518018 641.816667,29.4351351 641.35,29.4351351 L641.35,29.4351351 L640.15,29.4351351 C639.75,29.4351351 639.35,29.4684685 638.95,29.5351351 C637.216667,29.6684685 635.716667,29.9018018 634.45,30.2351351 C633.716667,30.3684685 633.033333,30.5351351 632.4,30.7351351 C631.766667,30.9351351 631.116667,31.1351351 630.45,31.3351351 L630.45,31.3351351 L626.85,32.8351351 C626.316667,33.1684685 625.766667,33.4518018 625.2,33.6851351 C624.633333,33.9184685 624.083333,34.2018018 623.55,34.5351351 L623.55,34.5351351 L623.394,34.6271351 L623.35,34.0351351 C623.225,32.2851351 622.601953,30.7109164 621.480859,29.3124789 L621.25,29.0351351 C619.983333,27.5684685 618.383333,26.6351351 616.45,26.2351351 C615.25,26.0351351 614.1,26.0518018 613,26.2851351 C611.9,26.5184685 610.9,26.9351351 610,27.5351351 C609.1,28.1351351 608.316667,28.9018018 607.65,29.8351351 C606.983333,30.7684685 606.55,31.8351351 606.35,33.0351351 L606.35,33.0351351 L592.75,102.035135 C592.416667,103.635135 592.316667,105.235135 592.45,106.835135 C592.65,109.368468 593.3,111.685135 594.4,113.785135 C595.5,115.885135 596.933333,117.701802 598.7,119.235135 C600.466667,120.768468 602.466667,121.918468 604.7,122.685135 C606.933333,123.451802 609.316667,123.735135 611.85,123.535135 C614.316667,123.335135 616.616667,122.685135 618.75,121.585135 C620.883333,120.485135 622.7,119.068468 624.2,117.335135 C625.7,115.601802 626.85,113.601802 627.65,111.335135 C628.45,109.068468 628.75,106.701802 628.55,104.235135 L628.55,104.235135 L628.201,99.5201351 L639.35,116.935135 C640.542157,119.005723 642.236275,120.781041 644.432353,122.261087 L644.85,122.535135 C646.983333,123.868468 649.233333,124.718468 651.6,125.085135 Z M618.05,34.5351351 C617.316667,34.5351351 616.7,34.2851351 616.2,33.7851351 C615.7,33.2851351 615.45,32.6684685 615.45,31.9351351 C615.45,31.2018018 615.7,30.5684685 616.2,30.0351351 C616.7,29.5018018 617.316667,29.2351351 618.05,29.2351351 C618.783333,29.2351351 619.416667,29.5018018 619.95,30.0351351 C620.483333,30.5684685 620.75,31.2018018 620.75,31.9351351 C620.75,32.6684685 620.483333,33.2851351 619.95,33.7851351 C619.416667,34.2851351 618.783333,34.5351351 618.05,34.5351351 Z M647.95,38.8351351 C647.216667,38.8351351 646.6,38.5851351 646.1,38.0851351 C645.6,37.5851351 645.35,36.9684685 645.35,36.2351351 C645.35,35.5018018 645.6,34.8684685 646.1,34.3351351 C646.6,33.8018018 647.216667,33.5351351 647.95,33.5351351 C648.683333,33.5351351 649.316667,33.8018018 649.85,34.3351351 C650.383333,34.8684685 650.65,35.5018018 650.65,36.2351351 C650.65,36.9684685 650.383333,37.5851351 649.85,38.0851351 C649.316667,38.5851351 648.683333,38.8351351 647.95,38.8351351 Z M636.15,63.8351351 L634.35,63.8351351 C634.016667,63.7684685 633.683333,63.7351351 633.35,63.7351351 C633.016667,63.7351351 632.65,63.7018018 632.25,63.6351351 C631.516667,63.5684685 630.766667,63.5184685 630,63.4851351 C629.233333,63.4518018 628.45,63.4018018 627.65,63.3351351 C627.45,63.3351351 626.75,63.2018018 625.55,62.9351351 L625.55,62.9351351 L625.49,62.9221351 L624.204,45.5621351 L624.65,45.4351351 C624.85,45.3351351 625.03125,45.2538851 625.19375,45.1913851 L625.35,45.1351351 C625.55,45.0684685 625.783333,45.0018018 626.05,44.9351351 C626.85,44.5351351 627.783333,44.2351351 628.85,44.0351351 C629.383333,43.9018018 629.866667,43.7684685 630.3,43.6351351 C630.733333,43.5018018 631.183333,43.3684685 631.65,43.2351351 C632.116667,43.1018018 632.583333,43.0184685 633.05,42.9851351 C633.516667,42.9518018 633.95,42.9018018 634.35,42.8351351 C634.816667,42.7684685 635.266667,42.7184685 635.7,42.6851351 C636.133333,42.6518018 636.55,42.6351351 636.95,42.6351351 L636.95,42.6351351 L638.1,42.6351351 C638.466667,42.6351351 638.816667,42.6684685 639.15,42.7351351 C639.283333,42.8018018 639.433333,42.8351351 639.6,42.8351351 C639.766667,42.8351351 639.916667,42.8684685 640.05,42.9351351 C640.45,43.0684685 640.683333,43.1351351 640.75,43.1351351 C641.216667,43.3351351 641.55,43.5684685 641.75,43.8351351 C641.883333,43.9684685 642.083333,44.2018018 642.35,44.5351351 C642.616667,44.9351351 642.816667,45.2684685 642.95,45.5351351 C643.016667,45.7351351 643.083333,45.9518018 643.15,46.1851351 C643.216667,46.4184685 643.316667,46.7018018 643.45,47.0351351 C643.516667,47.3018018 643.583333,47.5851351 643.65,47.8851351 C643.716667,48.1851351 643.783333,48.5018018 643.85,48.8351351 C643.916667,49.1684685 643.95,49.5184685 643.95,49.8851351 C643.95,50.2518018 643.983333,50.6351351 644.05,51.0351351 C644.05,51.5018018 643.983333,52.5684685 643.85,54.2351351 C643.716667,55.9018018 643.183333,58.1351351 642.25,60.9351351 C642.116667,61.2018018 641.966667,61.4184685 641.8,61.5851351 L641.8,61.5851351 L641.35,62.0351351 C641.083333,62.3684685 640.816667,62.6351351 640.55,62.8351351 C640.35,62.9684685 640.05,63.1018018 639.65,63.2351351 C639.45,63.3684685 639.15,63.4684685 638.75,63.5351351 C638.616667,63.6018018 638.45,63.6351351 638.25,63.6351351 C638.05,63.6351351 637.85,63.6684685 637.65,63.7351351 C637.383333,63.8018018 636.883333,63.8351351 636.15,63.8351351 L636.15,63.8351351 Z M664,100.885135 C663.366667,100.985135 662.816667,100.868468 662.35,100.535135 L662.35,100.535135 L651.35,93.0351351 C650.816667,92.6351351 650.516667,92.1351351 650.45,91.5351351 C650.383333,90.9351351 650.55,90.3351351 650.95,89.7351351 C651.283333,89.2684685 651.783333,88.9851351 652.45,88.8851351 C653.116667,88.7851351 653.683333,88.9018018 654.15,89.2351351 L654.15,89.2351351 L665.25,96.9351351 C665.716667,97.2684685 665.983333,97.7518018 666.05,98.3851351 C666.116667,99.0184685 665.983333,99.6018018 665.65,100.135135 C665.183333,100.535135 664.633333,100.785135 664,100.885135 Z M711.85,122.035135 C714.383333,122.035135 717.05,121.801802 719.85,121.335135 C722.65,120.868468 725.483333,120.001802 728.35,118.735135 C729.083333,118.401802 729.8,118.051802 730.5,117.685135 C731.2,117.318468 731.916667,116.935135 732.65,116.535135 C733.316667,116.068468 733.983333,115.618468 734.65,115.185135 C735.316667,114.751802 735.95,114.268468 736.55,113.735135 C739.15,111.535135 741.283333,109.168468 742.95,106.635135 C743.883333,105.368468 744.666667,104.101802 745.3,102.835135 C745.933333,101.568468 746.516667,100.301802 747.05,99.0351351 C747.583333,97.7684685 748,96.5184685 748.3,95.2851351 C748.6,94.0518018 748.883333,92.8351351 749.15,91.6351351 C749.416667,90.4351351 749.6,89.2684685 749.7,88.1351351 C749.8,87.0018018 749.883333,85.8684685 749.95,84.7351351 C750.083333,83.6018018 750.133333,82.5018018 750.1,81.4351351 C750.066667,80.3684685 750.016667,79.3018018 749.95,78.2351351 C749.816667,76.1684685 749.6,74.1518018 749.3,72.1851351 C749,70.2184685 748.65,68.3018018 748.25,66.4351351 C747.383333,62.7018018 746.283333,59.0684685 744.95,55.5351351 C744.216667,53.8018018 743.483333,52.0851351 742.75,50.3851351 C742.016667,48.6851351 741.216667,47.0018018 740.35,45.3351351 C739.883333,44.5351351 739.433333,43.7351351 739,42.9351351 C738.566667,42.1351351 738.083333,41.3351351 737.55,40.5351351 C737.283333,40.1351351 737.033333,39.7351351 736.8,39.3351351 C736.566667,38.9351351 736.316667,38.5684685 736.05,38.2351351 L736.05,38.2351351 L735.25,37.0351351 L734.35,35.8351351 C733.95,35.3018018 733.45,34.8351351 732.85,34.4351351 C732.25,34.0351351 731.583333,33.7684685 730.85,33.6351351 C729.25,33.3018018 727.783333,33.5851351 726.45,34.4851351 C725.116667,35.3851351 724.283333,36.6018018 723.95,38.1351351 L723.95,38.1351351 L723.75,39.4351351 C723.683333,39.5018018 723.65,39.7018018 723.65,40.0351351 L723.65,40.0351351 L723.55,40.6351351 L723.55,41.9351351 C723.483333,42.3351351 723.45,42.7518018 723.45,43.1851351 C723.45,43.6184685 723.416667,44.0351351 723.35,44.4351351 L723.35,44.4351351 L723.15,49.4351351 C723.083333,51.1684685 723.016667,52.8351351 722.95,54.4351351 C722.883333,56.0351351 722.783333,57.6351351 722.65,59.2351351 C722.516667,60.8351351 722.4,62.4018018 722.3,63.9351351 C722.2,65.4684685 722.05,67.0018018 721.85,68.5351351 C721.783333,69.2684685 721.716667,69.9851351 721.65,70.6851351 C721.583333,71.3851351 721.483333,72.1018018 721.35,72.8351351 C721.216667,73.5684685 721.083333,74.2684685 720.95,74.9351351 L720.95,74.9351351 L720.55,76.9351351 C720.083333,79.5351351 719.416667,81.7684685 718.55,83.6351351 C718.216667,84.4351351 717.816667,85.1684685 717.35,85.8351351 C717.15,86.1018018 716.966667,86.3184685 716.8,86.4851351 L716.8,86.4851351 L716.35,86.9351351 C716.283333,87.0018018 716.216667,87.0351351 716.15,87.0351351 C716.083333,87.1018018 716.016667,87.1351351 715.95,87.1351351 C715.883333,87.2018018 715.783333,87.2351351 715.65,87.2351351 L715.65,87.2351351 L715.45,87.2351351 C715.383333,87.2351351 715.333333,87.2518018 715.3,87.2851351 C715.266667,87.3184685 715.216667,87.3351351 715.15,87.3351351 C714.95,87.3351351 714.783333,87.3684685 714.65,87.4351351 C714.383333,87.4351351 714.15,87.4684685 713.95,87.5351351 L713.95,87.5351351 L713.5,87.5351351 C713.333333,87.5351351 713.183333,87.5684685 713.05,87.6351351 L713.05,87.6351351 L710.65,87.6351351 C710.383333,87.5684685 710.05,87.5351351 709.65,87.5351351 C709.516667,87.4684685 709.283333,87.4351351 708.95,87.4351351 C708.816667,87.3684685 708.683333,87.3351351 708.55,87.3351351 L708.55,87.3351351 L708.35,87.2351351 L708.05,87.2351351 C707.916667,87.2351351 707.716667,87.1351351 707.45,86.9351351 C707.383333,86.8684685 707.316667,86.8184685 707.25,86.7851351 L707.206,86.7591351 C707.142,86.7164685 707.056667,86.6418018 706.95,86.5351351 C706.816667,86.2684685 706.65,86.0351351 706.45,85.8351351 C706.183333,85.4351351 705.983333,85.1018018 705.85,84.8351351 L705.85,84.8351351 L705.25,83.6351351 C705.05,83.1684685 704.866667,82.6851351 704.7,82.1851351 C704.533333,81.6851351 704.35,81.1351351 704.15,80.5351351 C703.816667,79.4684685 703.516667,78.2684685 703.25,76.9351351 C702.716667,74.3351351 702.316667,71.5351351 702.05,68.5351351 L702.05,68.5351351 L701.65,63.9351351 C701.516667,62.4018018 701.416667,60.8684685 701.35,59.3351351 C701.216667,57.7351351 701.133333,56.1184685 701.1,54.4851351 C701.066667,52.8518018 701.016667,51.2018018 700.95,49.5351351 L700.95,49.5351351 L700.75,44.5351351 C700.683333,44.1351351 700.65,43.7184685 700.65,43.2851351 L700.65,43.2851351 L700.65,42.0351351 L700.55,40.7351351 C700.55,40.5351351 700.533333,40.3351351 700.5,40.1351351 C700.466667,39.9351351 700.45,39.7351351 700.45,39.5351351 L700.45,39.5351351 L700.45,39.0351351 C700.25,37.3018018 699.45,35.9018018 698.05,34.8351351 C696.716667,33.7018018 695.166667,33.2351351 693.4,33.4351351 C691.633333,33.6351351 690.183333,34.4018018 689.05,35.7351351 L689.05,35.7351351 L688.75,36.0351351 L687.35,38.1351351 C687.083333,38.4684685 686.833333,38.8351351 686.6,39.2351351 C686.366667,39.6351351 686.116667,40.0351351 685.85,40.4351351 C684.85,42.0351351 683.95,43.6351351 683.15,45.2351351 C682.883333,45.7018018 682.65,46.1351351 682.45,46.5351351 L682.45,46.5351351 L681.85,47.7351351 C681.583333,48.2684685 681.383333,48.7018018 681.25,49.0351351 L681.25,49.0351351 L680.75,50.2351351 C680.35,51.1018018 679.966667,51.9518018 679.6,52.7851351 C679.233333,53.6184685 678.883333,54.5018018 678.55,55.4351351 C677.883333,57.1684685 677.283333,58.9351351 676.75,60.7351351 C676.216667,62.5351351 675.75,64.4018018 675.35,66.3351351 C674.883333,68.2684685 674.516667,70.2018018 674.25,72.1351351 C673.983333,74.0684685 673.783333,76.1018018 673.65,78.2351351 C673.583333,79.3018018 673.533333,80.3684685 673.5,81.4351351 C673.466667,82.5018018 673.516667,83.6018018 673.65,84.7351351 C673.716667,85.8684685 673.8,87.0018018 673.9,88.1351351 C674,89.2684685 674.183333,90.4351351 674.45,91.6351351 C674.65,92.8351351 674.95,94.0351351 675.35,95.2351351 C675.483333,95.5684685 675.583333,95.8851351 675.65,96.1851351 C675.716667,96.4851351 675.816667,96.8018018 675.95,97.1351351 C676.083333,97.4684685 676.183333,97.7851351 676.25,98.0851351 C676.316667,98.3851351 676.416667,98.7018018 676.55,99.0351351 C677.55,101.501802 678.916667,104.068468 680.65,106.735135 C681.116667,107.335135 681.583333,107.951802 682.05,108.585135 C682.516667,109.218468 683.016667,109.801802 683.55,110.335135 C684.083333,110.935135 684.65,111.518468 685.25,112.085135 C685.85,112.651802 686.45,113.201802 687.05,113.735135 C687.716667,114.268468 688.366667,114.768468 689,115.235135 C689.633333,115.701802 690.316667,116.135135 691.05,116.535135 L691.05,116.535135 L693.15,117.735135 C693.75,118.068468 694.483333,118.401802 695.35,118.735135 C696.616667,119.401802 698.05,119.935135 699.65,120.335135 C700.383333,120.535135 701.083333,120.718468 701.75,120.885135 C702.416667,121.051802 703.116667,121.201802 703.85,121.335135 C704.583333,121.468468 705.283333,121.568468 705.95,121.635135 L705.95,121.635135 L707.95,121.835135 C708.283333,121.901802 708.616667,121.935135 708.95,121.935135 C709.283333,121.935135 709.616667,121.968468 709.95,122.035135 L709.95,122.035135 L711.85,122.035135 Z M695.85,41.2351351 C695.116667,41.2351351 694.5,40.9851351 694,40.4851351 C693.5,39.9851351 693.25,39.3684685 693.25,38.6351351 C693.25,37.9018018 693.5,37.2684685 694,36.7351351 C694.5,36.2018018 695.116667,35.9351351 695.85,35.9351351 C696.583333,35.9351351 697.216667,36.2018018 697.75,36.7351351 C698.283333,37.2684685 698.55,37.9018018 698.55,38.6351351 C698.55,39.3684685 698.283333,39.9851351 697.75,40.4851351 C697.216667,40.9851351 696.583333,41.2351351 695.85,41.2351351 Z M731.25,42.4351351 C730.516667,42.4351351 729.9,42.1851351 729.4,41.6851351 C728.9,41.1851351 728.65,40.5684685 728.65,39.8351351 C728.65,39.1018018 728.9,38.4684685 729.4,37.9351351 C729.9,37.4018018 730.516667,37.1351351 731.25,37.1351351 C731.983333,37.1351351 732.616667,37.4018018 733.15,37.9351351 C733.683333,38.4684685 733.95,39.1018018 733.95,39.8351351 C733.95,40.5684685 733.683333,41.1851351 733.15,41.6851351 C732.616667,42.1851351 731.983333,42.4351351 731.25,42.4351351 Z M701.65,92.0351351 C700.916667,92.0351351 700.3,91.7851351 699.8,91.2851351 C699.3,90.7851351 699.05,90.1684685 699.05,89.4351351 C699.05,88.7018018 699.3,88.0684685 699.8,87.5351351 C700.3,87.0018018 700.916667,86.7351351 701.65,86.7351351 C702.383333,86.7351351 703.016667,87.0018018 703.55,87.5351351 C704.083333,88.0684685 704.35,88.7018018 704.35,89.4351351 C704.35,90.1684685 704.083333,90.7851351 703.55,91.2851351 C703.016667,91.7851351 702.383333,92.0351351 701.65,92.0351351 Z M817.15,121.635135 C819.55,121.901802 821.95,121.668468 824.35,120.935135 C826.75,120.201802 828.866667,119.051802 830.7,117.485135 C832.533333,115.918468 834,114.118468 835.1,112.085135 C836.2,110.051802 836.866667,107.835135 837.1,105.435135 C837.333333,103.035135 837.083333,100.635135 836.35,98.2351351 L836.35,98.2351351 L815.65,30.6351351 C815.25,29.3684685 814.516667,28.3351351 813.45,27.5351351 C812.383333,26.7351351 811.15,26.3018018 809.75,26.2351351 C808.016667,26.1018018 806.516667,26.6518018 805.25,27.8851351 C803.983333,29.1184685 803.316667,30.6018018 803.25,32.3351351 L803.25,32.3351351 L802.45,55.2351351 L781.25,28.3351351 L780.55,27.6351351 C779.216667,25.7018018 777.383333,24.4684685 775.05,23.9351351 C772.716667,23.4684685 770.583333,23.9018018 768.65,25.2351351 C766.716667,26.5684685 765.516667,28.4018018 765.05,30.7351351 L765.05,30.7351351 L751.45,99.7351351 C751.116667,101.268468 751.016667,102.868468 751.15,104.535135 C751.35,107.068468 752,109.385135 753.1,111.485135 C754.2,113.585135 755.616667,115.401802 757.35,116.935135 C759.083333,118.468468 761.083333,119.618468 763.35,120.385135 C765.616667,121.151802 767.983333,121.435135 770.45,121.235135 C772.916667,121.035135 775.216667,120.385135 777.35,119.285135 C779.483333,118.185135 781.316667,116.768468 782.85,115.035135 C784.383333,113.301802 785.533333,111.301802 786.3,109.035135 C787.066667,106.768468 787.35,104.401802 787.15,101.935135 L787.15,101.935135 L785.05,73.1351351 L801.25,107.435135 L801.25,107.535135 C801.383333,108.201802 801.516667,108.668468 801.65,108.935135 C802.383333,111.335135 803.533333,113.435135 805.1,115.235135 C806.666667,117.035135 808.466667,118.485135 810.5,119.585135 C812.533333,120.685135 814.75,121.368468 817.15,121.635135 Z M776.25,32.9351351 C775.516667,32.9351351 774.9,32.6851351 774.4,32.1851351 C773.9,31.6851351 773.65,31.0684685 773.65,30.3351351 C773.65,29.6018018 773.9,28.9684685 774.4,28.4351351 C774.9,27.9018018 775.516667,27.6351351 776.25,27.6351351 C776.983333,27.6351351 777.616667,27.9018018 778.15,28.4351351 C778.683333,28.9684685 778.95,29.6018018 778.95,30.3351351 C778.95,31.0684685 778.683333,31.6851351 778.15,32.1851351 C777.616667,32.6851351 776.983333,32.9351351 776.25,32.9351351 Z M829.65,99.6351351 C829.116667,99.7684685 828.566667,99.6518018 828,99.2851351 C827.433333,98.9184685 827.05,98.4684685 826.85,97.9351351 L826.85,97.9351351 L808.75,33.7351351 C808.616667,33.2018018 808.7,32.6684685 809,32.1351351 C809.3,31.6018018 809.816667,31.2018018 810.55,30.9351351 C811.083333,30.8684685 811.633333,31.0018018 812.2,31.3351351 C812.766667,31.6684685 813.15,32.1018018 813.35,32.6351351 L813.35,32.6351351 L831.45,96.9351351 C831.583333,97.4684685 831.466667,98.0184685 831.1,98.5851351 C830.733333,99.1518018 830.25,99.5018018 829.65,99.6351351 Z M847.75,82.7851351 C849.283333,83.2851351 850.916667,83.4684685 852.65,83.3351351 C854.316667,83.2684685 855.866667,82.8518018 857.3,82.0851351 C858.733333,81.3184685 859.95,80.3518018 860.95,79.1851351 C861.95,78.0184685 862.716667,76.6684685 863.25,75.1351351 C863.783333,73.6018018 864.016667,71.9684685 863.95,70.2351351 L863.95,70.2351351 L860.45,18.4351351 C860.316667,17.1684685 859.833333,16.0518018 859,15.0851351 C858.166667,14.1184685 857.083333,13.4684685 855.75,13.1351351 C854.15,12.8018018 852.683333,13.0851351 851.35,13.9851351 C850.016667,14.8851351 849.183333,16.1351351 848.85,17.7351351 L848.85,17.7351351 L839.65,68.7351351 C839.45,69.9351351 839.383333,71.0351351 839.45,72.0351351 C839.583333,73.7684685 840.016667,75.3518018 840.75,76.7851351 C841.483333,78.2184685 842.45,79.4518018 843.65,80.4851351 C844.85,81.5184685 846.216667,82.2851351 847.75,82.7851351 Z M855.65,20.7351351 C854.916667,20.7351351 854.3,20.4851351 853.8,19.9851351 C853.3,19.4851351 853.05,18.8684685 853.05,18.1351351 C853.05,17.4018018 853.3,16.7684685 853.8,16.2351351 C854.3,15.7018018 854.916667,15.4351351 855.65,15.4351351 C856.383333,15.4351351 857.016667,15.7018018 857.55,16.2351351 C858.083333,16.7684685 858.35,17.4018018 858.35,18.1351351 C858.35,18.8684685 858.083333,19.4851351 857.55,19.9851351 C857.016667,20.4851351 856.383333,20.7351351 855.65,20.7351351 Z M849.25,117.935135 C851.116667,117.935135 852.866667,117.585135 854.5,116.885135 C856.133333,116.185135 857.566667,115.235135 858.8,114.035135 C860.033333,112.835135 861.016667,111.418468 861.75,109.785135 C862.483333,108.151802 862.85,106.368468 862.85,104.435135 C862.85,102.568468 862.483333,100.818468 861.75,99.1851351 C861.016667,97.5518018 860.033333,96.1184685 858.8,94.8851351 C857.566667,93.6518018 856.133333,92.6684685 854.5,91.9351351 C852.866667,91.2018018 851.116667,90.8351351 849.25,90.8351351 C847.316667,90.8351351 845.533333,91.2018018 843.9,91.9351351 C842.266667,92.6684685 840.85,93.6518018 839.65,94.8851351 C838.45,96.1184685 837.5,97.5518018 836.8,99.1851351 C836.1,100.818468 835.75,102.568468 835.75,104.435135 C835.75,106.368468 836.1,108.151802 836.8,109.785135 C837.5,111.418468 838.45,112.835135 839.65,114.035135 C840.85,115.235135 842.266667,116.185135 843.9,116.885135 C845.533333,117.585135 847.316667,117.935135 849.25,117.935135 Z M853.25,100.135135 C852.516667,100.135135 851.9,99.8851351 851.4,99.3851351 C850.9,98.8851351 850.65,98.2684685 850.65,97.5351351 C850.65,96.8018018 850.9,96.1684685 851.4,95.6351351 C851.9,95.1018018 852.516667,94.8351351 853.25,94.8351351 C853.983333,94.8351351 854.616667,95.1018018 855.15,95.6351351 C855.683333,96.1684685 855.95,96.8018018 855.95,97.5351351 C855.95,98.2684685 855.683333,98.8851351 855.15,99.3851351 C854.616667,99.8851351 853.983333,100.135135 853.25,100.135135 Z" id="COVID-19RUN!" fill="#F2C600" fill-rule="nonzero"></path>
        </g>
    </g>
</svg>