<?xml version="1.0" encoding="UTF-8"?>
<svg width="641px" height="328px" viewBox="0 0 641 328" version="1.1" xmlns="http://www.w3.org/2000/svg" xmlns:xlink="http://www.w3.org/1999/xlink">
    <!-- Generator: Sketch 63 (92445) - https://sketch.com -->
    <title>Group 4</title>
    <desc>Created with Sketch.</desc>
    <g id="Media" stroke="none" stroke-width="1" fill="none" fill-rule="evenodd">
        <g id="Group-4" transform="translate(-1.000000, 0.000000)">
            <g id="metge-CC1">
                <g id="Brillo" transform="translate(0.923810, 0.000000)">
                    <polyline id="Path" stroke="#706F6F" fill="#C6C6C6" fill-rule="nonzero" points="241.291429 278.229829 87.8838095 278.229829 87.8838095 298.777262 163.23619 298.777262 241.291429 298.777262 241.291429 278.229829"></polyline>
                    <g id="Group" transform="translate(170.361905, 299.017115)">
                        <path d="M2.3752381,0.0799511002 C2.3752381,0.0799511002 -2.21142857,24.3051345 2.3752381,25.6643032 C6.96190476,27.0234719 85.672381,28.4625917 87.0647619,25.6643032 C88.4571429,22.8660147 72.8133333,0.0799511002 69.7009524,0.0799511002 C66.5885714,0.0799511002 2.3752381,0.0799511002 2.3752381,0.0799511002" id="Path" stroke="#706F6F" fill="#F6F6F6" fill-rule="nonzero"></path>
                        <path d="M0.40952381,16.9496333 C0.40952381,16.9496333 9.41904762,19.4281174 21.7047619,19.4281174 C33.9904762,19.4281174 51.0266667,19.4281174 61.592381,19.4281174 C72.1580952,19.4281174 83.1333333,18.1488998 83.1333333,18.1488998" id="Path" stroke="#82CAC6"></path>
                        <path d="M61.1828571,6.39608802 C56.9238095,3.91760391 49.3885714,5.27677262 53.4838095,7.75525672 C57.5790476,10.3136919 61.1828571,6.39608802 61.1828571,6.39608802 Z" id="Path" stroke="#82CAC6"></path>
                        <path d="M61.1828571,6.23618582 C64.4590476,2.55843521 72.0761905,1.599022 68.9638095,5.19682152 C65.8514286,8.87457213 61.1828571,6.23618582 61.1828571,6.23618582 Z" id="Path" stroke="#82CAC6"></path>
                        <path d="M61.1828571,6.23618582 C61.1828571,6.23618582 60.9371429,7.83520782 60.2,9.11442543 C59.4628571,10.393643 57.9885714,11.992665 57.9885714,11.992665" id="Path" fill="#F6F6F6" fill-rule="nonzero"></path>
                        <path d="M61.1828571,6.23618582 C61.1828571,6.23618582 61.4285714,7.51540342 62.247619,8.47481663 C63.0666667,9.43422983 64.7866667,10.7134474 64.7866667,10.7134474" id="Path" stroke="#82CAC6"></path>
                        <path d="M61.1828571,6.23618582 C61.1828571,6.23618582 60.9371429,7.83520782 60.2,9.11442543 C59.4628571,10.393643 57.9885714,11.992665 57.9885714,11.992665" id="Path" stroke="#82CAC6"></path>
                    </g>
                    <g id="Group" transform="translate(87.638095, 291.022005)">
                        <path d="M2.53904762,0.639608802 C2.53904762,0.639608802 -2.04761905,24.8647922 2.53904762,26.2239609 C7.12571429,27.5831296 85.8361905,29.0222494 87.2285714,26.2239609 C88.6209524,23.4256724 72.9771429,0.639608802 69.8647619,0.639608802 C66.752381,0.639608802 2.53904762,0.639608802 2.53904762,0.639608802" id="Path" stroke="#706F6F" fill="#F6F6F6" fill-rule="nonzero"></path>
                        <path d="M0.491428571,17.509291 C0.491428571,17.509291 9.50095238,19.9877751 21.7866667,19.9877751 C34.072381,19.9877751 51.1085714,19.9877751 61.6742857,19.9877751 C72.24,19.9877751 83.2152381,18.7085575 83.2152381,18.7085575" id="Path" stroke="#82CAC6"></path>
                        <path d="M61.2647619,6.95574572 C57.0057143,4.47726161 49.4704762,5.83643032 53.5657143,8.31491443 C57.6609524,10.8733496 61.2647619,6.95574572 61.2647619,6.95574572 Z" id="Path" stroke="#82CAC6"></path>
                        <path d="M61.3466667,6.87579462 C64.6228571,3.19804401 72.24,2.23863081 69.127619,5.83643032 C65.9333333,9.43422983 61.3466667,6.87579462 61.3466667,6.87579462 Z" id="Path" stroke="#82CAC6"></path>
                        <path d="M61.3466667,6.87579462 C61.3466667,6.87579462 61.1009524,8.47481663 60.3638095,9.75403423 C59.6266667,11.0332518 58.152381,12.6322738 58.152381,12.6322738" id="Path" fill="#F6F6F6" fill-rule="nonzero"></path>
                        <path d="M61.3466667,6.87579462 C61.3466667,6.87579462 61.592381,8.15501222 62.4114286,9.11442543 C63.2304762,10.0738386 64.9504762,11.3530562 64.9504762,11.3530562" id="Path" stroke="#82CAC6"></path>
                        <path d="M61.3466667,6.87579462 C61.3466667,6.87579462 61.1009524,8.47481663 60.3638095,9.75403423 C59.6266667,11.0332518 58.152381,12.6322738 58.152381,12.6322738" id="Path" stroke="#82CAC6"></path>
                    </g>
                    <path d="M92.2247619,179.730073 C92.2247619,179.730073 86.9828571,223.863081 86.9828571,243.611002 C86.9828571,263.358924 86.9828571,285.905134 86.9828571,285.905134 L242.929524,285.905134 L232.937143,185.086797 L92.2247619,179.730073 Z" id="Path" stroke="#706F6F" fill="#F6F6F6" fill-rule="nonzero"></path>
                    <path d="M104.428571,193.721516 C104.428571,193.721516 156.192381,217.147188 164.95619,219.385819 C173.72,221.62445 198.946667,217.067237 203.205714,215.228362 C207.464762,213.389487 229.251429,201.31687 229.251429,201.31687 L238.998095,191.402934 L104.428571,193.721516 Z" id="Path" fill="#82CAC6" fill-rule="nonzero"></path>
                    <path d="M64.1314286,254.644254 C64.1314286,254.644254 65.687619,264.718093 67.5714286,265.917359 C69.3733333,267.116626 72.1580952,269.035452 83.5428571,266.397066 C94.8457143,263.75868 100.988571,262.959169 101.398095,256.722983 C101.807619,250.486797 98.7771429,244.090709 98.7771429,244.090709 L64.1314286,254.644254 Z" id="Path" fill="#FBD4C5" fill-rule="nonzero"></path>
                    <line x1="76.3352381" y1="267.596333" x2="74.2057143" y2="260.320782" id="Path" stroke="#F5AB94"></line>
                    <line x1="83.5428571" y1="266.397066" x2="81.0857143" y2="258.322005" id="Path" stroke="#F5AB94"></line>
                    <line x1="90.832381" y1="264.318337" x2="88.7028571" y2="257.202689" id="Path" stroke="#F5AB94"></line>
                    <path d="M287.158095,233.457213 C287.158095,233.457213 292.318095,242.331785 291.662857,244.410513 C291.007619,246.489242 290.024762,249.687286 279.459048,254.484352 C268.893333,259.281418 263.569524,262.31956 259.310476,257.682396 C255.133333,253.045232 253.331429,246.249389 253.331429,246.249389 L287.158095,233.457213 Z" id="Path" fill="#FBD4C5" fill-rule="nonzero"></path>
                    <line x1="285.765714" y1="251.046455" x2="282.899048" y2="244.010758" id="Path" stroke="#F5AB94"></line>
                    <line x1="280.19619" y1="254.084597" x2="277.001905" y2="246.32934" id="Path" stroke="#F5AB94"></line>
                    <line x1="273.152381" y1="256.882885" x2="270.285714" y2="250.00709" id="Path" stroke="#F5AB94"></line>
                    <path d="M172.573333,219.46577 C173.146667,224.982396 173.638095,230.419071 174.129524,235.935697 C174.375238,238.654034 174.539048,241.452323 174.702857,244.17066 C174.866667,246.888998 175.030476,249.687286 174.948571,252.485575 C174.784762,258.0022 174.539048,263.518826 174.211429,269.035452 C173.88381,274.552078 173.55619,280.068704 173.064762,285.505379 L173.310476,277.270416 L173.55619,269.035452 C173.72,263.518826 173.965714,258.0022 174.129524,252.565526 C174.211429,249.847188 174.129524,247.128851 173.965714,244.330562 L173.474286,236.095599 L172.982857,227.860636 L172.573333,219.46577 Z" id="Path" fill="#C6C6C6" fill-rule="nonzero"></path>
                    <path d="M229.169524,193.401711 C229.169524,193.401711 254.969524,197.319315 263.32381,201.876528 C271.678095,206.433741 284.619048,223.303423 285.929524,226.581418 C287.24,229.859413 288.550476,232.897555 288.550476,232.897555 L248.662857,249.687286 L223.43619,197.319315 L229.169524,193.401711 Z" id="Path" stroke="#706F6F" fill="#F6F6F6" fill-rule="nonzero"></path>
                    <path d="M84.1980952,188.124939 C84.1980952,188.124939 66.4247619,206.753545 62.8209524,215.388264 C59.2171429,224.022983 59.7085714,245.050122 60.7733333,248.408068 C61.8380952,251.766015 62.7390476,254.964059 62.7390476,254.964059 L104.674286,244.010758 L91.2419048,187.645232 L84.1980952,188.124939 Z" id="Path" stroke="#706F6F" fill="#F6F6F6" fill-rule="nonzero"></path>
                    <path d="M120.645714,200.917115 L171.590476,219.785575 C171.590476,219.785575 171.918095,226.74132 167.167619,227.540831 C162.417143,228.340342 149.64,223.943032 146.118095,221.944254 C142.514286,220.025428 124.577143,217.466993 114.584762,216.347677 C104.592381,215.228362 96.647619,208.992176 96.8933333,205.714181 C97.1390476,202.436186 120.645714,200.917115 120.645714,200.917115" id="Path" stroke="#DADADA" fill="#FFFFFF" fill-rule="nonzero"></path>
                    <path d="M224.582857,200.917115 L173.638095,219.785575 C173.638095,219.785575 173.310476,226.74132 178.060952,227.540831 C182.811429,228.340342 195.588571,223.943032 199.110476,221.944254 C202.632381,219.945477 220.651429,217.466993 230.64381,216.347677 C240.63619,215.228362 248.580952,208.992176 248.335238,205.714181 C248.007619,202.516137 224.582857,200.917115 224.582857,200.917115" id="Path" stroke="#DADADA" fill="#FFFFFF" fill-rule="nonzero"></path>
                    <ellipse id="Oval" fill="#82CAC6" fill-rule="nonzero" cx="172.982857" cy="237.61467" rx="6.30666667" ry="6.15623472"></ellipse>
                    <ellipse id="Oval" stroke="#FFFFFF" stroke-width="0.2" cx="172.982857" cy="237.61467" rx="3.76761905" ry="3.67775061"></ellipse>
                    <g id="Group" transform="translate(170.361905, 236.655257)" fill="#FFFFFF" fill-rule="nonzero">
                        <ellipse id="Oval" cx="1.0647619" cy="0.959413203" rx="1" ry="1"></ellipse>
                        <ellipse id="Oval" cx="4.17714286" cy="0.959413203" rx="1" ry="1"></ellipse>
                    </g>
                    <ellipse id="Oval" fill="#82CAC6" fill-rule="nonzero" cx="173.55619" cy="256.722983" rx="6.30666667" ry="6.15623472"></ellipse>
                    <ellipse id="Oval" stroke="#FFFFFF" stroke-width="0.2" cx="173.55619" cy="256.722983" rx="3.76761905" ry="3.67775061"></ellipse>
                    <g id="Group" transform="translate(171.180952, 255.843521)" fill="#FFFFFF" fill-rule="nonzero">
                        <ellipse id="Oval" cx="0.819047619" cy="0.879462103" rx="1" ry="1"></ellipse>
                        <ellipse id="Oval" cx="4.01333333" cy="0.879462103" rx="1" ry="1"></ellipse>
                    </g>
                    <g id="Head" transform="translate(0.809000, 0.159902)">
                        <path d="M292.737667,85.7875306 C292.737667,85.7875306 299.371953,81.6300733 306.170048,84.3484108 C313.050048,87.0667482 318.537667,90.6645477 318.537667,106.894621 C318.537667,123.124694 307.808143,132.95868 303.139572,136.076773 C298.471,139.194866 285.284334,149.348655 285.284334,149.348655 C285.284334,149.348655 291.75481,159.582396 286.922429,163.899756 C282.008143,168.297066 272.589096,166.857946 272.589096,166.857946" id="Path" fill="#FBD4C5" fill-rule="nonzero"></path>
                        <path d="M298.880524,102.817115 C298.880524,137.915648 274.882429,175.172861 241.137667,193.721516 C220.251953,205.154523 196.663381,205.63423 169.389096,205.63423 C135.808143,205.63423 101.244334,199.957702 78.2290957,183.327873 C69.9567147,177.33154 63.0767147,169.976039 57.5071909,161.900978 C51.5281433,163.5 44.6481433,162.78044 38.9148099,159.342543 C29.9052861,153.905868 35.3110004,137.675795 35.3110004,137.675795 C35.3110004,137.675795 27.4481433,133.918093 21.7967147,130.400244 C16.1452861,126.882396 0.173857555,116.009046 0.0100480311,100.338631 C-0.317571017,84.5882641 7.3814766,76.0334963 20.8957623,76.6731051 C24.2538576,76.8330073 28.0214766,77.6325183 32.0348099,78.9117359 C35.3929052,79.9511002 38.9148099,81.3102689 42.2729052,82.909291 C47.0233814,63.7210269 58.490048,46.4515892 74.5433814,32.7799511 C98.2138576,12.5523227 131.876715,5.68434189e-14 169.307191,5.68434189e-14 C240.891953,5.68434189e-14 298.880524,46.0518337 298.880524,102.817115 Z" id="Path" fill="#FBD4C5" fill-rule="nonzero"></path>
                        <path d="M176.187191,91.3841076 C176.187191,95.3816626 174.79481,99.2193154 172.255762,102.577262 C171.600524,86.7469438 153.745286,74.0347188 131.876715,74.0347188 C110.008143,74.0347188 92.2348099,86.7469438 91.4976671,102.577262 C88.9586195,99.1393643 87.5662385,95.3816626 87.5662385,91.3841076 C87.5662385,76.4332518 107.387191,64.2806846 131.876715,64.2806846 C156.366239,64.2806846 176.187191,76.4332518 176.187191,91.3841076 Z" id="Path" fill="#8D7C74" fill-rule="nonzero"></path>
                        <path d="M294.867191,111.371883 C294.293858,116.568704 293.556715,121.765526 292.491953,126.882396 C292.000524,129.440831 291.427191,131.999267 290.690048,134.557702 C290.03481,137.116137 289.051953,139.594621 287.987191,141.993154 C285.775762,146.79022 283.236715,151.347433 280.615762,155.904645 C279.305286,158.143276 277.912905,160.381907 276.520524,162.620538 C275.046239,164.779218 273.653858,167.017848 271.851953,169.016626 C273.490048,166.937897 274.800524,164.699267 276.192905,162.460636 C277.503381,160.222005 278.813858,157.903423 280.124334,155.664792 C282.663381,151.107579 285.120524,146.470416 287.331953,141.753301 C289.625286,137.036186 290.853858,131.999267 292.000524,126.882396 C292.573858,124.323961 293.065286,121.765526 293.556715,119.20709 C293.966239,116.568704 294.375762,114.010269 294.867191,111.371883 Z" id="Path" fill="#F5AB94" fill-rule="nonzero"></path>
                        <path d="M298.880524,92.4234719 C298.880524,92.4234719 307.071,89.9449878 310.511,94.4222494 C315.097667,100.338631 315.507191,111.132029 310.511,117.208313 C304.450048,124.643765 293.392905,132.798778 293.392905,132.798778" id="Path" stroke="#F5AB94"></path>
                        <path d="M299.535762,91.3841076 C299.535762,95.3816626 298.143381,99.2193154 295.604334,102.577262 C294.949096,86.7469438 277.093858,74.0347188 255.225286,74.0347188 C233.356715,74.0347188 215.583381,86.7469438 214.846239,102.577262 C212.307191,99.1393643 210.91481,95.3816626 210.91481,91.3841076 C210.91481,76.4332518 230.735762,64.2806846 255.225286,64.2806846 C279.71481,64.2806846 299.535762,76.4332518 299.535762,91.3841076 Z" id="Path" fill="#8D7C74" fill-rule="nonzero"></path>
                        <ellipse id="Oval" stroke="#575756" fill="#575756" fill-rule="nonzero" cx="131.876715" cy="103.296822" rx="40.3790476" ry="29.501956"></ellipse>
                        <ellipse id="Oval" stroke="#575756" fill="#575756" fill-rule="nonzero" cx="255.225286" cy="102.817115" rx="40.3790476" ry="29.501956"></ellipse>
                        <ellipse id="Oval" fill="#FFFFFF" fill-rule="nonzero" cx="131.876715" cy="102.817115" rx="34.5638095" ry="25.2645477"></ellipse>
                        <ellipse id="Oval" fill="#FFFFFF" fill-rule="nonzero" cx="255.225286" cy="102.817115" rx="34.5638095" ry="25.2645477"></ellipse>
                        <ellipse id="Oval" fill="#000000" fill-rule="nonzero" cx="154.318619" cy="104.65599" rx="5.48761905" ry="5.35672372"></ellipse>
                        <ellipse id="Oval" fill="#000000" fill-rule="nonzero" cx="274.55481" cy="104.65599" rx="5.48761905" ry="5.35672372"></ellipse>
                        <polygon id="Path" fill="#575756" fill-rule="nonzero" points="172.255762 97.7801956 214.764334 97.7801956 218.695762 97.7801956 218.695762 107.214425 173.402429 107.214425 169.389096 101.377995"></polygon>
                        <polygon id="Path" fill="#575756" fill-rule="nonzero" points="68.3186195 99.2992665 92.9719528 99.2992665 94.610048 107.214425 71.7586195 107.214425 69.2195718 107.214425"></polygon>
                        <path d="M57.4252861,161.900978 C59.2271909,161.261369 60.8652861,160.541809 62.5033814,159.582396 C64.0595718,158.622983 65.5338576,157.503667 66.8443337,156.304401 C68.2367147,155.025183 69.4652861,153.745966 70.7757623,152.386797 C71.4310004,151.747188 72.0043337,151.027628 72.6595718,150.38802 C73.3148099,149.748411 73.8881433,149.028851 74.5433814,148.309291 C73.5605242,149.908313 72.4138576,151.347433 71.2671909,152.786553 C70.1205242,154.225672 68.810048,155.584841 67.4176671,156.864059 C66.0252861,158.143276 64.4690957,159.262592 62.8310004,160.142054 C61.1110004,160.941565 59.3090957,161.581174 57.4252861,161.900978 Z" id="Path" fill="#F5AB94" fill-rule="nonzero"></path>
                        <path d="M42.2729052,82.909291 C44.2386195,83.708802 46.122429,84.6682152 48.0062385,85.6276284 C49.890048,86.5870416 51.7738576,87.6264059 53.5757623,88.7457213 C55.3776671,89.7850856 57.1795718,90.9843521 58.8995718,92.2635697 C60.6195718,93.5427873 62.2576671,94.8220049 63.8138576,96.3410758 C65.370048,97.7801956 66.6805242,99.5391198 67.8271909,101.298044 C68.9738576,103.056968 70.0386195,104.895844 70.9395718,106.81467 C72.6595718,110.652323 73.970048,114.649878 74.6252861,118.727384 C74.1338576,116.728606 73.5605242,114.729829 72.8233814,112.731051 C72.0862385,110.812225 71.2671909,108.893399 70.3662385,107.054523 C69.4652861,105.215648 68.4005242,103.376773 67.2538576,101.6978 C66.1071909,100.018826 64.7967147,98.3398533 63.322429,96.9806846 C60.3738576,94.102445 56.8519528,91.6239609 53.330048,89.3853301 C49.7262385,86.9867971 46.0405242,84.9080685 42.2729052,82.909291 Z" id="Path" fill="#8D7C74" fill-rule="nonzero"></path>
                        <ellipse id="Oval" fill="#F5AB94" fill-rule="nonzero" cx="203.789096" cy="130.640098" rx="34.4" ry="22.1464548"></ellipse>
                        <path d="M62.1757623,118.647433 C60.4557623,116.168949 58.490048,113.770416 56.6062385,111.371883 C54.6405242,109.053301 52.5929052,106.734719 50.4633814,104.576039 C48.3338576,102.417359 46.122429,100.25868 43.6652861,98.4198044 C41.2081433,96.5809291 38.6690957,94.8220049 35.802429,93.7026895 C33.0176671,92.5833741 29.8233814,92.503423 26.8748099,93.302934 C23.9262385,94.102445 21.2233814,95.7814181 19.5033814,98.1 C18.602429,99.2992665 18.0290957,100.658435 17.7014766,102.097555 C17.3738576,103.536675 17.3738576,105.055746 17.5376671,106.494866 C17.7014766,107.933985 18.1110004,109.373105 18.8481433,110.652323 C19.5852861,111.93154 20.4862385,113.130807 21.5510004,114.170171 C23.6805242,116.328851 26.2195718,118.087775 28.7586195,119.686797 C31.3795718,121.285819 34.082429,122.724939 36.9490957,124.004156 C39.7338576,125.283374 42.6005242,126.482641 45.5490957,127.442054 L46.122429,127.601956 L46.3681433,127.681907 L46.450048,127.681907 C46.5319528,127.681907 46.6138576,127.761858 46.6138576,127.761858 C46.6957623,127.841809 46.7776671,127.92176 46.7776671,128.001711 C46.9414766,128.481418 46.8595718,128.881174 46.8595718,129.280929 C46.8595718,130.08044 46.7776671,130.8 46.6957623,131.599511 C46.5319528,133.118582 46.3681433,134.637653 46.2043337,136.076773 C46.122429,137.595844 46.0405242,139.114914 46.0405242,140.554034 C46.122429,142.073105 46.2043337,143.592176 46.8595718,144.871394 C47.0233814,145.191198 47.1871909,145.511002 47.4329052,145.830807 C47.6786195,146.07066 47.9243337,146.310513 48.2519528,146.550367 C48.4976671,146.79022 48.8252861,146.950122 49.1529052,147.189976 C49.4805242,147.349878 49.8081433,147.589731 50.1357623,147.749633 C51.5281433,148.389242 53.002429,148.709046 54.5586195,148.788998 C57.5890957,148.9489 60.7014766,148.069438 63.0767147,146.07066 L70.530048,140.633985 L63.1586195,146.230562 C60.8652861,148.309291 57.5890957,149.348655 54.4767147,149.188753 C52.9205242,149.108802 51.3643337,148.788998 49.890048,148.149389 C49.562429,147.989487 49.1529052,147.749633 48.8252861,147.589731 C48.4976671,147.349878 48.170048,147.189976 47.842429,146.870171 C47.5148099,146.630318 47.1871909,146.390465 46.9414766,146.07066 C46.6957623,145.750856 46.450048,145.431051 46.2862385,145.031296 C45.6310004,143.592176 45.4671909,141.993154 45.3852861,140.474083 C45.3033814,138.955012 45.3852861,137.435941 45.4671909,135.91687 C45.5490957,134.3978 45.7129052,132.878729 45.8767147,131.359658 C45.9586195,130.640098 46.0405242,129.840587 46.0405242,129.121027 C46.0405242,128.801222 46.0405242,128.321516 45.9586195,128.161614 C45.9586195,128.161614 45.9586195,128.161614 45.9586195,128.161614 C45.9586195,128.161614 46.0405242,128.161614 46.0405242,128.241565 C46.0405242,128.241565 45.9586195,128.241565 45.9586195,128.241565 L45.6310004,128.161614 L45.0576671,128.001711 C42.1090957,126.962347 39.242429,125.843032 36.3757623,124.563814 C33.5090957,123.284597 30.8062385,121.845477 28.1033814,120.246455 C25.482429,118.647433 22.8614766,116.808557 20.650048,114.649878 C19.5852861,113.530562 18.602429,112.331296 17.7833814,110.892176 C16.9643337,109.533007 16.6367147,107.933985 16.3910004,106.414914 C16.2271909,104.895844 16.2271909,103.296822 16.6367147,101.777751 C17.0462385,100.25868 17.7014766,98.8195599 18.602429,97.5403423 C20.4862385,94.9819071 23.3529052,93.2229829 26.3833814,92.503423 C29.4138576,91.703912 32.7719528,91.7838631 35.7205242,92.9831296 L37.850048,93.9425428 L39.8976671,95.1418093 C40.5529052,95.5415648 41.2081433,96.0212714 41.8633814,96.4210269 L42.8462385,97.0606357 L43.7471909,97.7801956 C46.2043337,99.699022 48.4157623,101.857702 50.5452861,104.016381 C52.6748099,106.255012 54.6405242,108.573594 56.5243337,110.972127 C58.6538576,113.610513 60.5376671,116.088998 62.1757623,118.647433 Z" id="Path" fill="#F5AB94" fill-rule="nonzero"></path>
                        <path d="M42.2729052,82.909291 C47.0233814,63.7210269 58.490048,46.4515892 74.5433814,32.7799511 L74.5433814,118.647433 L69.2195718,107.214425 C69.2195718,107.214425 59.7186195,92.1036675 50.9548099,87.4665037 C42.2729052,82.909291 42.2729052,82.909291 42.2729052,82.909291 Z" id="Path" fill="#8D7C74" fill-rule="nonzero"></path>
                        <path d="M91.4157623,157.903423 C91.5795718,159.822249 91.7433814,161.821027 91.9890957,163.739853 C92.2348099,165.65868 92.3986195,167.657457 92.7262385,169.576284 C93.0538576,171.49511 93.2995718,173.413936 93.7090957,175.332763 C94.1186195,177.251589 94.610048,179.170416 95.5110004,180.769438 C97.3948099,184.127384 100.097667,187.085575 102.718619,190.043765 C104.029096,191.482885 105.421477,192.922005 106.813858,194.361125 C108.206239,195.800244 109.598619,197.159413 110.991,198.598533 C107.960524,196.040098 105.011953,193.32176 102.227191,190.523472 C100.83481,189.084352 99.5243337,187.645232 98.2138576,186.126161 C96.9852861,184.60709 95.7567147,183.008068 94.7738576,181.249144 C93.7910004,179.410269 93.3814766,177.491443 92.890048,175.572616 C92.4805242,173.65379 92.1529052,171.655012 91.9890957,169.736186 C91.6614766,165.738631 91.4157623,161.821027 91.4157623,157.903423 Z" id="Path" fill="#F5AB94" fill-rule="nonzero"></path>
                        <path d="M237.124334,143.752078 C238.025286,148.9489 238.762429,154.225672 239.499572,159.422494 C239.827191,162.06088 240.15481,164.699267 240.400524,167.337653 C240.646239,169.976039 240.973858,172.614425 240.891953,175.252812 C240.891953,177.891198 240.810048,180.529584 240.482429,183.247922 C240.072905,185.886308 239.499572,188.524694 238.271,190.923227 C237.042429,193.32176 235.240524,195.48044 233.029096,197.079462 C230.817667,198.598533 228.196715,199.637897 225.575762,200.197555 C228.196715,199.398044 230.653858,198.35868 232.783381,196.759658 C234.912905,195.160636 236.551,193.081907 237.697667,190.683374 C238.762429,188.284841 239.417667,185.726406 239.745286,183.167971 C240.072905,180.609535 240.15481,177.971149 240.15481,175.332763 C240.236715,172.694377 239.991,170.05599 239.745286,167.497555 L238.926239,159.582396 L237.124334,143.752078 Z" id="Path" fill="#F5AB94" fill-rule="nonzero"></path>
                        <path d="M115.823381,152.706601 L116.396715,159.742298 C116.560524,162.06088 116.806239,164.459413 117.051953,166.777995 C117.297667,169.096577 117.543381,171.415159 117.952905,173.733741 C118.116715,174.853056 118.362429,176.052323 118.690048,177.091687 L119.017667,177.891198 C119.099572,178.131051 119.263381,178.370905 119.427191,178.690709 C119.672905,179.170416 120.000524,179.730073 120.328143,180.20978 C122.621477,184.287286 125.324334,188.20489 128.109096,192.042543 C129.501477,193.961369 130.975762,195.800244 132.531953,197.63912 C134.088143,199.398044 135.726239,201.156968 137.610048,202.676039 C135.644334,201.31687 133.924334,199.637897 132.204334,197.958924 C130.566239,196.2 129.010048,194.361125 127.535762,192.522249 C124.587191,188.764548 121.966239,184.846944 119.509096,180.689487 C119.181477,180.20978 118.935762,179.650122 118.608143,179.090465 C118.444334,178.850611 118.280524,178.610758 118.198619,178.290954 L117.871,177.411491 C117.543381,176.212225 117.297667,175.09291 117.133858,173.893643 C116.806239,171.575061 116.478619,169.176528 116.31481,166.857946 C115.987191,162.140831 115.823381,157.423716 115.823381,152.706601 Z" id="Path" fill="#F5AB94" fill-rule="nonzero"></path>
                        <path d="M261.204334,179.570171 L263.006239,170.455746 C263.579572,167.417604 264.23481,164.379462 264.644334,161.34132 C265.217667,158.303178 265.135762,155.265037 265.299572,152.146944 C265.381477,150.627873 265.381477,149.028851 265.463381,147.50978 C265.545286,145.990709 265.545286,144.391687 265.463381,142.872616 C265.95481,145.910758 265.872905,149.028851 265.95481,152.146944 C265.95481,153.666015 265.95481,155.265037 265.872905,156.784108 C265.872905,158.303178 265.709096,159.9022 265.463381,161.421271 C264.971953,164.459413 264.316715,167.497555 263.579572,170.535697 C262.924334,173.573839 262.105286,176.61198 261.204334,179.570171 Z" id="Path" fill="#F5AB94" fill-rule="nonzero"></path>
                        <path d="M154.318619,149.268704 L152.598619,165.019071 L151.779572,172.93423 C151.533858,175.572616 151.288143,178.211002 151.370048,180.769438 C151.370048,183.407824 151.370048,186.04621 151.779572,188.604645 C152.107191,191.163081 152.762429,193.721516 153.827191,196.120049 C154.891953,198.518582 156.611953,200.597311 158.741477,202.196333 C160.871,203.795355 163.328143,204.834719 165.949096,205.63423 C163.328143,204.994621 160.707191,204.035208 158.495762,202.516137 C156.284334,200.997066 154.482429,198.838386 153.253858,196.359902 C152.025286,193.961369 151.370048,191.322983 151.042429,188.684597 C150.632905,186.04621 150.632905,183.407824 150.632905,180.689487 C150.632905,178.0511 150.878619,175.332763 151.124334,172.774328 C151.370048,170.135941 151.697667,167.497555 152.025286,164.859169 C152.598619,159.662347 153.417667,154.465526 154.318619,149.268704 Z" id="Path" fill="#F5AB94" fill-rule="nonzero"></path>
                        <path d="M151.451953,171.974817 C151.451953,171.974817 173.402429,174.613203 195.352905,174.613203 C217.303381,174.613203 240.318619,169.816137 240.318619,169.816137" id="Path" stroke="#F5AB94"></path>
                        <ellipse id="Oval" fill="#F5AB94" fill-rule="nonzero" cx="172.419572" cy="142.872616" rx="9.99238095" ry="6.55599022"></ellipse>
                        <ellipse id="Oval" fill="#F5AB94" fill-rule="nonzero" cx="235.322429" cy="138.875061" rx="9.99238095" ry="6.55599022"></ellipse>
                        <ellipse id="Oval" fill="#FFFFFF" fill-rule="nonzero" transform="translate(207.179986, 15.352090) rotate(-60.607603) translate(-207.179986, -15.352090) " cx="207.179986" cy="15.3520903" rx="6.83620879" ry="5.04955077"></ellipse>
                        <path d="M256.044334,52.2080685 C251.048143,50.9288509 249.901477,47.091198 236.796715,41.8144254 C230.244334,39.1760391 221.562429,37.8168704 216.156715,32.8599022 C212.389096,29.3420538 212.143381,22.4662592 215.829096,18.3887531 C220.579572,13.0320293 231.718619,16.4699267 242.366239,24.3850856 C251.375762,31.0210269 263.661477,54.206846 256.044334,52.2080685 Z" id="Path" fill="#FFFFFF" fill-rule="nonzero"></path>
                        <ellipse id="Oval" fill="#FFFFFF" fill-rule="nonzero" cx="152.762429" cy="103.296822" rx="2.3752381" ry="2.31858191"></ellipse>
                        <ellipse id="Oval" fill="#FFFFFF" fill-rule="nonzero" cx="272.589096" cy="103.296822" rx="2.3752381" ry="2.31858191"></ellipse>
                    </g>
                    <line x1="170.361905" y1="285.825183" x2="170.361905" y2="298.457457" id="Path" stroke="#706F6F" fill="#C6C6C6" fill-rule="nonzero"></line>
                    <rect id="Rectangle" fill="#82CAC6" fill-rule="nonzero" x="220.32381" y="223.703178" width="1.55619048" height="7.75525672"></rect>
                    <rect id="Rectangle" fill="#706F6F" fill-rule="nonzero" x="221.88" y="221.864303" width="1.55619048" height="9.51418093"></rect>
                    <path d="M199.929524,231.698289 L229.415238,231.698289 C229.415238,231.698289 230.807619,251.44621 213.28,251.44621 C195.670476,251.44621 199.929524,231.698289 199.929524,231.698289 Z" id="Path" stroke="#C6C6C6"></path>
                    <ellipse id="Oval" fill="#FFFFFF" fill-rule="nonzero" cx="216.965714" cy="118.007824" rx="5.97904762" ry="4.23740831"></ellipse>
                </g>
            </g>
            <g id="metge-CC2" transform="translate(321.000000, 1.000000)">
                <g id="Brillo">
                    <polyline id="Path" stroke="#706F6F" fill="#C6C6C6" fill-rule="nonzero" points="242.478462 278.229829 88.3161538 278.229829 88.3161538 298.777262 164.039231 298.777262 242.478462 298.777262 242.478462 278.229829"></polyline>
                    <g id="Group" transform="translate(171.200000, 291.022005)">
                        <path d="M2.38692308,0.639608802 C2.38692308,0.639608802 -2.22230769,24.8647922 2.38692308,26.2239609 C6.99615385,27.5831296 86.0938462,29.0222494 87.4930769,26.2239609 C88.8923077,23.4256724 73.1715385,0.639608802 70.0438462,0.639608802 C66.9161538,0.639608802 2.38692308,0.639608802 2.38692308,0.639608802" id="Path" stroke="#706F6F" fill="#F6F6F6" fill-rule="nonzero"></path>
                        <path d="M0.411538462,17.5892421 C0.411538462,17.5892421 9.46538462,20.0677262 21.8115385,20.0677262 C34.1576923,20.0677262 51.2776923,20.0677262 61.8953846,20.0677262 C72.5130769,20.0677262 83.5423077,18.7885086 83.5423077,18.7885086" id="Path" stroke="#82CAC6"></path>
                        <path d="M61.4838462,7.03569682 C57.2038462,4.55721271 49.6315385,5.91638142 53.7469231,8.39486553 C57.8623077,10.8733496 61.4838462,7.03569682 61.4838462,7.03569682 Z" id="Path" stroke="#82CAC6"></path>
                        <path d="M61.4838462,6.87579462 C64.7761538,3.19804401 72.4307692,2.23863081 69.3030769,5.83643032 C66.1753846,9.51418093 61.4838462,6.87579462 61.4838462,6.87579462 Z" id="Path" stroke="#82CAC6"></path>
                        <path d="M61.4838462,6.87579462 C61.4838462,6.87579462 61.2369231,8.47481663 60.4961538,9.75403423 C59.7553846,11.0332518 58.2738462,12.6322738 58.2738462,12.6322738" id="Path" fill="#F6F6F6" fill-rule="nonzero"></path>
                        <path d="M61.4838462,6.87579462 C61.4838462,6.87579462 61.7307692,8.15501222 62.5538462,9.11442543 C63.3769231,10.0738386 65.1053846,11.3530562 65.1053846,11.3530562" id="Path" stroke="#82CAC6"></path>
                        <path d="M61.4838462,6.87579462 C61.4838462,6.87579462 61.2369231,8.47481663 60.4961538,9.75403423 C59.7553846,11.0332518 58.2738462,12.6322738 58.2738462,12.6322738" id="Path" stroke="#82CAC6"></path>
                    </g>
                    <g id="Group" transform="translate(88.069231, 299.017115)">
                        <path d="M2.55153846,0.0799511002 C2.55153846,0.0799511002 -2.05769231,24.3051345 2.55153846,25.6643032 C7.16076923,27.0234719 86.2584615,28.4625917 87.6576923,25.6643032 C89.0569231,22.8660147 73.3361538,0.0799511002 70.2084615,0.0799511002 C67.0807692,0.0799511002 2.55153846,0.0799511002 2.55153846,0.0799511002" id="Path" stroke="#706F6F" fill="#F6F6F6" fill-rule="nonzero"></path>
                        <path d="M0.493846154,16.9496333 C0.493846154,16.9496333 9.54769231,19.4281174 21.8938462,19.4281174 C34.24,19.4281174 51.36,19.4281174 61.9776923,19.4281174 C72.5953846,19.4281174 83.6246154,18.1488998 83.6246154,18.1488998" id="Path" stroke="#82CAC6"></path>
                        <path d="M61.5661538,6.39608802 C57.2861538,3.91760391 49.7138462,5.27677262 53.8292308,7.75525672 C57.9446154,10.3136919 61.5661538,6.39608802 61.5661538,6.39608802 Z" id="Path" stroke="#82CAC6"></path>
                        <path d="M61.6484615,6.31613692 C64.9407692,2.63838631 72.5953846,1.67897311 69.4676923,5.27677262 C66.2576923,8.87457213 61.6484615,6.31613692 61.6484615,6.31613692 Z" id="Path" stroke="#82CAC6"></path>
                        <path d="M61.6484615,6.31613692 C61.6484615,6.31613692 61.4015385,7.91515892 60.6607692,9.19437653 C59.92,10.4735941 58.4384615,12.0726161 58.4384615,12.0726161" id="Path" fill="#F6F6F6" fill-rule="nonzero"></path>
                        <path d="M61.6484615,6.31613692 C61.6484615,6.31613692 61.8953846,7.59535452 62.7184615,8.55476773 C63.5415385,9.51418093 65.27,10.7933985 65.27,10.7933985" id="Path" stroke="#82CAC6"></path>
                        <path d="M61.6484615,6.31613692 C61.6484615,6.31613692 61.4015385,7.91515892 60.6607692,9.19437653 C59.92,10.4735941 58.4384615,12.0726161 58.4384615,12.0726161" id="Path" stroke="#82CAC6"></path>
                    </g>
                    <path d="M92.6784615,179.730073 C92.6784615,179.730073 87.4107692,223.863081 87.4107692,243.611002 C87.4107692,263.358924 87.4107692,285.905134 87.4107692,285.905134 L244.124615,285.905134 L234.083077,185.086797 L92.6784615,179.730073 Z" id="Path" stroke="#706F6F" fill="#F6F6F6" fill-rule="nonzero"></path>
                    <path d="M104.942308,193.721516 C104.942308,193.721516 156.960769,217.147188 165.767692,219.385819 C174.574615,221.62445 199.925385,217.067237 204.205385,215.228362 C208.485385,213.389487 230.379231,201.31687 230.379231,201.31687 L240.173846,191.402934 L104.942308,193.721516 Z" id="Path" fill="#82CAC6" fill-rule="nonzero"></path>
                    <path d="M43.2115385,233.856968 C43.2115385,233.856968 38.8492308,243.131296 39.6723077,245.130073 C40.4953846,247.128851 41.8123077,250.246944 52.8415385,254.084597 C63.8707692,257.922249 69.4676923,260.560636 73.2538462,255.523716 C77.04,250.486797 78.1923077,243.611002 78.1923077,243.611002 L43.2115385,233.856968 Z" id="Path" fill="#FBD4C5" fill-rule="nonzero"></path>
                    <line x1="46.0923077" y1="251.286308" x2="48.3969231" y2="244.010758" id="Path" stroke="#F5AB94"></line>
                    <line x1="52.7592308" y1="254.084597" x2="55.3107692" y2="246.089487" id="Path" stroke="#F5AB94"></line>
                    <line x1="60.0846154" y1="256.243276" x2="62.3069231" y2="249.127628" id="Path" stroke="#F5AB94"></line>
                    <path d="M283.056154,250.646699 C283.056154,250.646699 284.866923,260.720538 283.55,262.399511 C282.233077,264.158435 280.175385,266.796822 268.487692,267.836186 C256.8,268.87555 250.709231,269.994866 248.322308,264.238386 C245.935385,258.481907 246.593846,251.44621 246.593846,251.44621 L283.056154,250.646699 Z" id="Path" fill="#FBD4C5" fill-rule="nonzero"></path>
                    <line x1="275.730769" y1="266.876773" x2="275.401538" y2="259.281418" id="Path" stroke="#F5AB94"></line>
                    <line x1="269.393077" y1="267.916137" x2="269.063846" y2="259.521271" id="Path" stroke="#F5AB94"></line>
                    <line x1="260.915385" y1="268.15599" x2="260.586154" y2="260.800489" id="Path" stroke="#F5AB94"></line>
                    <path d="M173.422308,219.46577 C173.998462,224.982396 174.492308,230.419071 174.986154,235.935697 C175.233077,238.654034 175.397692,241.452323 175.562308,244.17066 C175.726923,246.888998 175.891538,249.687286 175.809231,252.485575 C175.644615,258.0022 175.397692,263.518826 175.068462,269.035452 C174.739231,274.552078 174.41,280.068704 173.916154,285.505379 L174.163077,277.270416 L174.41,269.035452 C174.574615,263.518826 174.821538,258.0022 174.986154,252.565526 C175.068462,249.847188 174.986154,247.128851 174.821538,244.330562 L174.327692,236.095599 L173.833846,227.860636 L173.422308,219.46577 Z" id="Path" fill="#C6C6C6" fill-rule="nonzero"></path>
                    <path d="M241.984615,194.04132 C241.984615,194.04132 265.030769,206.113936 271.368462,213.149633 C277.706154,220.18533 284.126154,240.333007 284.290769,243.770905 C284.455385,247.288753 284.537692,250.566748 284.537692,250.566748 L240.996923,253.285086 L235.153077,195.640342 L241.984615,194.04132 Z" id="Path" stroke="#706F6F" fill="#F6F6F6" fill-rule="nonzero"></path>
                    <path d="M92.02,186.366015 C92.02,186.366015 66.5869231,192.442298 58.6030769,197.719071 C50.7015385,202.995844 39.2607692,220.90489 38.1907692,224.182885 C37.1207692,227.540831 36.1330769,230.738875 36.1330769,230.738875 L77.5338462,244.010758 L98.1107692,189.64401 L92.02,186.366015 Z" id="Path" stroke="#706F6F" fill="#F6F6F6" fill-rule="nonzero"></path>
                    <path d="M121.239231,200.917115 L172.434615,219.785575 C172.434615,219.785575 172.763846,226.74132 167.99,227.540831 C163.216154,228.340342 150.376154,223.943032 146.836923,221.944254 C143.215385,220.025428 125.19,217.466993 115.148462,216.347677 C105.106923,215.228362 97.1230769,208.992176 97.37,205.714181 C97.6169231,202.436186 121.239231,200.917115 121.239231,200.917115" id="Path" stroke="#DADADA" fill="#FFFFFF" fill-rule="nonzero"></path>
                    <path d="M225.687692,200.917115 L174.492308,219.785575 C174.492308,219.785575 174.163077,226.74132 178.936923,227.540831 C183.710769,228.340342 196.550769,223.943032 200.09,221.944254 C203.629231,219.945477 221.736923,217.466993 231.778462,216.347677 C241.82,215.228362 249.803846,208.992176 249.556923,205.714181 C249.227692,202.516137 225.687692,200.917115 225.687692,200.917115" id="Path" stroke="#DADADA" fill="#FFFFFF" fill-rule="nonzero"></path>
                    <ellipse id="Oval" fill="#82CAC6" fill-rule="nonzero" cx="173.833846" cy="237.61467" rx="6.33769231" ry="6.15623472"></ellipse>
                    <ellipse id="Oval" stroke="#FFFFFF" stroke-width="0.2" cx="173.833846" cy="237.61467" rx="3.78615385" ry="3.67775061"></ellipse>
                    <g id="Group" transform="translate(171.200000, 236.655257)" fill="#FFFFFF" fill-rule="nonzero">
                        <ellipse id="Oval" cx="1.07" cy="0.959413203" rx="1" ry="1"></ellipse>
                        <ellipse id="Oval" cx="4.19769231" cy="0.959413203" rx="1" ry="1"></ellipse>
                    </g>
                    <ellipse id="Oval" fill="#82CAC6" fill-rule="nonzero" cx="174.41" cy="256.722983" rx="6.33769231" ry="6.15623472"></ellipse>
                    <ellipse id="Oval" stroke="#FFFFFF" stroke-width="0.2" cx="174.41" cy="256.722983" rx="3.78615385" ry="3.67775061"></ellipse>
                    <g id="Group" transform="translate(172.023077, 255.843521)" fill="#FFFFFF" fill-rule="nonzero">
                        <ellipse id="Oval" cx="0.823076923" cy="0.879462103" rx="1" ry="1"></ellipse>
                        <ellipse id="Oval" cx="4.03307692" cy="0.879462103" rx="1" ry="1"></ellipse>
                    </g>
                    <path d="M294.990769,85.9474328 C294.990769,85.9474328 301.657692,81.7899756 308.489231,84.508313 C315.403077,87.2266504 320.917692,90.8244499 320.917692,107.054523 C320.917692,123.284597 310.135385,133.118582 305.443846,136.236675 C300.752308,139.354768 287.500769,149.508557 287.500769,149.508557 C287.500769,149.508557 294.003077,159.742298 289.146923,164.059658 C284.208462,168.456968 274.743077,167.017848 274.743077,167.017848" id="Path" fill="#FBD4C5" fill-rule="nonzero"></path>
                    <path d="M301.163846,102.977017 C301.163846,138.07555 277.047692,175.332763 243.136923,193.881418 C222.148462,205.314425 198.443846,205.794132 171.035385,205.794132 C137.289231,205.794132 102.555385,200.117604 79.4269231,183.487775 C71.1138462,177.491443 64.2,170.135941 58.6030769,162.06088 C52.5946154,163.659902 45.6807692,162.940342 39.9192308,159.502445 C30.8653846,154.06577 36.2976923,137.835697 36.2976923,137.835697 C36.2976923,137.835697 28.3961538,134.077995 22.7169231,130.560147 C17.0376923,127.042298 0.987692308,116.168949 0.823076923,100.498533 C0.493846154,84.7481663 8.23076923,76.1933985 21.8115385,76.8330073 C25.1861538,76.9929095 28.9723077,77.7924205 33.0053846,79.0716381 C36.38,80.1110024 39.9192308,81.4701711 43.2938462,83.0691932 C48.0676923,63.8809291 59.5907692,46.6114914 75.7230769,32.9398533 C99.51,12.7122249 133.338462,0.1599022 170.953077,0.1599022 C242.89,0.1599022 301.163846,46.2117359 301.163846,102.977017 Z" id="Path" fill="#FBD4C5" fill-rule="nonzero"></path>
                    <path d="M177.866923,91.5440098 C177.866923,95.5415648 176.467692,99.3792176 173.916154,102.737164 C173.257692,86.906846 155.314615,74.194621 133.338462,74.194621 C111.362308,74.194621 93.5015385,86.906846 92.7607692,102.737164 C90.2092308,99.2992665 88.81,95.5415648 88.81,91.5440098 C88.81,76.593154 108.728462,64.4405868 133.338462,64.4405868 C157.948462,64.4405868 177.866923,76.593154 177.866923,91.5440098 Z" id="Path" fill="#8D7C74" fill-rule="nonzero"></path>
                    <path d="M297.130769,111.531785 C296.554615,116.728606 295.813846,121.925428 294.743846,127.042298 C294.25,129.600733 293.673846,132.159169 292.933077,134.717604 C292.274615,137.276039 291.286923,139.754523 290.216923,142.153056 C287.994615,146.950122 285.443077,151.507335 282.809231,156.064548 C281.492308,158.303178 280.093077,160.541809 278.693846,162.78044 C277.212308,164.93912 275.813077,167.177751 274.002308,169.176528 C275.648462,167.0978 276.965385,164.859169 278.364615,162.620538 C279.681538,160.381907 280.998462,158.063325 282.315385,155.824694 C284.866923,151.267482 287.336154,146.630318 289.558462,141.913203 C291.863077,137.196088 293.097692,132.159169 294.25,127.042298 C294.826154,124.483863 295.32,121.925428 295.813846,119.366993 C296.225385,116.728606 296.636923,114.170171 297.130769,111.531785 Z" id="Path" fill="#F5AB94" fill-rule="nonzero"></path>
                    <path d="M301.163846,92.5833741 C301.163846,92.5833741 309.394615,90.10489 312.851538,94.5821516 C317.460769,100.498533 317.872308,111.291932 312.851538,117.368215 C306.760769,124.803667 295.649231,132.95868 295.649231,132.95868" id="Path" stroke="#F5AB94"></path>
                    <path d="M301.822308,91.5440098 C301.822308,95.5415648 300.423077,99.3792176 297.871538,102.737164 C297.213077,86.906846 279.27,74.194621 257.293846,74.194621 C235.317692,74.194621 217.456923,86.906846 216.716154,102.737164 C214.164615,99.2992665 212.765385,95.5415648 212.765385,91.5440098 C212.765385,76.593154 232.683846,64.4405868 257.293846,64.4405868 C281.903846,64.4405868 301.822308,76.593154 301.822308,91.5440098 Z" id="Path" fill="#8D7C74" fill-rule="nonzero"></path>
                    <ellipse id="Oval" stroke="#575756" fill="#575756" fill-rule="nonzero" cx="133.338462" cy="103.456724" rx="40.5776923" ry="29.501956"></ellipse>
                    <ellipse id="Oval" stroke="#575756" fill="#575756" fill-rule="nonzero" cx="257.293846" cy="102.977017" rx="40.5776923" ry="29.501956"></ellipse>
                    <ellipse id="Oval" fill="#FFFFFF" fill-rule="nonzero" cx="133.338462" cy="102.977017" rx="34.7338462" ry="25.2645477"></ellipse>
                    <ellipse id="Oval" fill="#FFFFFF" fill-rule="nonzero" cx="257.293846" cy="102.977017" rx="34.7338462" ry="25.2645477"></ellipse>
                    <ellipse id="Oval" fill="#000000" fill-rule="nonzero" cx="155.890769" cy="104.815892" rx="5.51461538" ry="5.35672372"></ellipse>
                    <ellipse id="Oval" fill="#000000" fill-rule="nonzero" cx="276.718462" cy="104.815892" rx="5.51461538" ry="5.35672372"></ellipse>
                    <polygon id="Path" fill="#575756" fill-rule="nonzero" points="173.916154 97.9400978 216.633846 97.9400978 220.584615 97.9400978 220.584615 107.374328 175.068462 107.374328 171.035385 101.537897"></polygon>
                    <polygon id="Path" fill="#575756" fill-rule="nonzero" points="69.4676923 99.4591687 94.2423077 99.4591687 95.8884615 107.374328 72.9246154 107.374328 70.3730769 107.374328"></polygon>
                    <path d="M58.5207692,162.06088 C60.3315385,161.421271 61.9776923,160.701711 63.6238462,159.742298 C65.1876923,158.782885 66.6692308,157.66357 67.9861538,156.464303 C69.3853846,155.185086 70.62,153.905868 71.9369231,152.546699 C72.5953846,151.90709 73.1715385,151.187531 73.83,150.547922 C74.4884615,149.908313 75.0646154,149.188753 75.7230769,148.469193 C74.7353846,150.068215 73.5830769,151.507335 72.4307692,152.946455 C71.2784615,154.385575 69.9615385,155.744743 68.5623077,157.023961 C67.1630769,158.303178 65.5992308,159.422494 63.9530769,160.301956 C62.2246154,161.101467 60.4138462,161.741076 58.5207692,162.06088 Z" id="Path" fill="#F5AB94" fill-rule="nonzero"></path>
                    <path d="M43.2938462,83.0691932 C45.2692308,83.8687042 47.1623077,84.8281174 49.0553846,85.7875306 C50.9484615,86.7469438 52.8415385,87.7863081 54.6523077,88.9056235 C56.4630769,89.9449878 58.2738462,91.1442543 60.0023077,92.4234719 C61.7307692,93.7026895 63.3769231,94.9819071 64.9407692,96.500978 C66.5046154,97.9400978 67.8215385,99.699022 68.9738462,101.457946 C70.1261538,103.21687 71.1961538,105.055746 72.1015385,106.974572 C73.83,110.812225 75.1469231,114.80978 75.8053846,118.887286 C75.3115385,116.888509 74.7353846,114.889731 73.9946154,112.890954 C73.2538462,110.972127 72.4307692,109.053301 71.5253846,107.214425 C70.62,105.37555 69.55,103.536675 68.3976923,101.857702 C67.2453846,100.178729 65.9284615,98.4997555 64.4469231,97.1405868 C61.4838462,94.2623472 57.9446154,91.7838631 54.4053846,89.5452323 C50.7838462,87.1466993 47.08,85.0679707 43.2938462,83.0691932 Z" id="Path" fill="#8D7C74" fill-rule="nonzero"></path>
                    <ellipse id="Oval" fill="#F5AB94" fill-rule="nonzero" cx="205.604615" cy="130.8" rx="34.5692308" ry="22.1464548"></ellipse>
                    <path d="M63.2946154,118.807335 C61.5661538,116.328851 59.5907692,113.930318 57.6976923,111.531785 C55.7223077,109.213203 53.6646154,106.894621 51.5246154,104.735941 C49.3846154,102.577262 47.1623077,100.418582 44.6930769,98.5797066 C42.2238462,96.7408313 39.6723077,94.9819071 36.7915385,93.8625917 C33.9930769,92.7432763 30.7830769,92.6633252 27.82,93.4628362 C24.8569231,94.2623472 22.1407692,95.9413203 20.4123077,98.2599022 C19.5069231,99.4591687 18.9307692,100.818337 18.6015385,102.257457 C18.2723077,103.696577 18.2723077,105.215648 18.4369231,106.654768 C18.6015385,108.093888 19.0130769,109.533007 19.7538462,110.812225 C20.4946154,112.091443 21.4,113.290709 22.47,114.330073 C24.61,116.488753 27.1615385,118.247677 29.7130769,119.846699 C32.3469231,121.445721 35.0630769,122.884841 37.9438462,124.164059 C40.7423077,125.443276 43.6230769,126.642543 46.5861538,127.601956 L47.1623077,127.761858 L47.4092308,127.841809 L47.4915385,127.841809 C47.5738462,127.841809 47.6561538,127.92176 47.6561538,127.92176 C47.7384615,128.001711 47.8207692,128.081663 47.8207692,128.161614 C47.9853846,128.64132 47.9030769,129.041076 47.9030769,129.440831 C47.9030769,130.240342 47.8207692,130.959902 47.7384615,131.759413 C47.5738462,133.278484 47.4092308,134.797555 47.2446154,136.236675 C47.1623077,137.755746 47.08,139.274817 47.08,140.713936 C47.1623077,142.233007 47.2446154,143.752078 47.9030769,145.031296 C48.0676923,145.3511 48.2323077,145.670905 48.4792308,145.990709 C48.7261538,146.230562 48.9730769,146.470416 49.3023077,146.710269 C49.5492308,146.950122 49.8784615,147.110024 50.2076923,147.349878 C50.5369231,147.50978 50.8661538,147.749633 51.1953846,147.909535 C52.5946154,148.549144 54.0761538,148.868949 55.64,148.9489 C58.6853846,149.108802 61.8130769,148.22934 64.2,146.230562 L71.69,140.793888 L64.2823077,146.390465 C61.9776923,148.469193 58.6853846,149.508557 55.5576923,149.348655 C53.9938462,149.268704 52.43,148.9489 50.9484615,148.309291 C50.6192308,148.149389 50.2076923,147.909535 49.8784615,147.749633 C49.5492308,147.50978 49.22,147.349878 48.8907692,147.030073 C48.5615385,146.79022 48.2323077,146.550367 47.9853846,146.230562 C47.7384615,145.910758 47.4915385,145.590954 47.3269231,145.191198 C46.6684615,143.752078 46.5038462,142.153056 46.4215385,140.633985 C46.3392308,139.114914 46.4215385,137.595844 46.5038462,136.076773 C46.5861538,134.557702 46.7507692,133.038631 46.9153846,131.51956 C46.9976923,130.8 47.08,130.000489 47.08,129.280929 C47.08,128.961125 47.08,128.481418 46.9976923,128.321516 C46.9976923,128.321516 46.9976923,128.321516 46.9976923,128.321516 C46.9976923,128.321516 47.08,128.321516 47.08,128.401467 C47.08,128.401467 46.9976923,128.401467 46.9976923,128.401467 L46.6684615,128.321516 L46.0923077,128.161614 C43.1292308,127.122249 40.2484615,126.002934 37.3676923,124.723716 C34.4869231,123.444499 31.7707692,122.005379 29.0546154,120.406357 C26.4207692,118.807335 23.7869231,116.96846 21.5646154,114.80978 C20.4946154,113.690465 19.5069231,112.491198 18.6838462,111.052078 C17.8607692,109.69291 17.5315385,108.093888 17.2846154,106.574817 C17.12,105.055746 17.12,103.456724 17.5315385,101.937653 C17.9430769,100.418582 18.6015385,98.9794621 19.5069231,97.7002445 C21.4,95.1418093 24.2807692,93.3828851 27.3261538,92.6633252 C30.3715385,91.8638142 33.7461538,91.9437653 36.7092308,93.1430318 L38.8492308,94.102445 L40.9069231,95.3017115 C41.5653846,95.701467 42.2238462,96.1811736 42.8823077,96.5809291 L43.87,97.2205379 L44.7753846,97.9400978 C47.2446154,99.8589242 49.4669231,102.017604 51.6069231,104.176284 C53.7469231,106.414914 55.7223077,108.733496 57.6153846,111.132029 C59.7553846,113.770416 61.6484615,116.2489 63.2946154,118.807335 Z" id="Path" fill="#F5AB94" fill-rule="nonzero"></path>
                    <path d="M43.2938462,83.0691932 C48.0676923,63.8809291 59.5907692,46.6114914 75.7230769,32.9398533 L75.7230769,118.807335 L70.3730769,107.374328 C70.3730769,107.374328 60.8253846,92.2635697 52.0184615,87.6264059 C43.2938462,83.0691932 43.2938462,83.0691932 43.2938462,83.0691932 Z" id="Path" fill="#8D7C74" fill-rule="nonzero"></path>
                    <path d="M92.6784615,158.063325 C92.8430769,159.982152 93.0076923,161.980929 93.2546154,163.899756 C93.5015385,165.818582 93.6661538,167.817359 93.9953846,169.736186 C94.3246154,171.655012 94.5715385,173.573839 94.9830769,175.492665 C95.3946154,177.411491 95.8884615,179.330318 96.7938462,180.92934 C98.6869231,184.287286 101.403077,187.245477 104.036923,190.203667 C105.353846,191.642787 106.753077,193.081907 108.152308,194.521027 C109.551538,195.960147 110.950769,197.319315 112.35,198.758435 C109.304615,196.2 106.341538,193.481663 103.543077,190.683374 C102.143846,189.244254 100.826923,187.805134 99.51,186.286064 C98.2753846,184.766993 97.0407692,183.167971 96.0530769,181.409046 C95.0653846,179.570171 94.6538462,177.651345 94.16,175.732518 C93.7484615,173.813692 93.4192308,171.814914 93.2546154,169.896088 C92.9253846,165.898533 92.6784615,161.980929 92.6784615,158.063325 Z" id="Path" fill="#F5AB94" fill-rule="nonzero"></path>
                    <path d="M239.103846,143.91198 C240.009231,149.108802 240.75,154.385575 241.490769,159.582396 C241.82,162.220782 242.149231,164.859169 242.396154,167.497555 C242.643077,170.135941 242.972308,172.774328 242.89,175.412714 C242.89,178.0511 242.807692,180.689487 242.478462,183.407824 C242.066923,186.04621 241.490769,188.684597 240.256154,191.08313 C239.021538,193.481663 237.210769,195.640342 234.988462,197.239364 C232.766154,198.758435 230.132308,199.7978 227.498462,200.357457 C230.132308,199.557946 232.601538,198.518582 234.741538,196.91956 C236.881538,195.320538 238.527692,193.241809 239.68,190.843276 C240.75,188.444743 241.408462,185.886308 241.737692,183.327873 C242.066923,180.769438 242.149231,178.131051 242.149231,175.492665 C242.231538,172.854279 241.984615,170.215892 241.737692,167.657457 L240.914615,159.742298 L239.103846,143.91198 Z" id="Path" fill="#F5AB94" fill-rule="nonzero"></path>
                    <path d="M117.206154,152.866504 L117.782308,159.9022 C117.946923,162.220782 118.193846,164.619315 118.440769,166.937897 C118.687692,169.256479 118.934615,171.575061 119.346154,173.893643 C119.510769,175.012958 119.757692,176.212225 120.086923,177.251589 L120.416154,178.0511 C120.498462,178.290954 120.663077,178.530807 120.827692,178.850611 C121.074615,179.330318 121.403846,179.889976 121.733077,180.369682 C124.037692,184.447188 126.753846,188.364792 129.552308,192.202445 C130.951538,194.121271 132.433077,195.960147 133.996923,197.799022 C135.560769,199.557946 137.206923,201.31687 139.1,202.835941 C137.124615,201.476773 135.396154,199.7978 133.667692,198.118826 C132.021538,196.359902 130.457692,194.521027 128.976154,192.682152 C126.013077,188.92445 123.379231,185.006846 120.91,180.849389 C120.580769,180.369682 120.333846,179.810024 120.004615,179.250367 C119.84,179.010513 119.675385,178.77066 119.593077,178.450856 L119.263846,177.571394 C118.934615,176.372127 118.687692,175.252812 118.523077,174.053545 C118.193846,171.734963 117.864615,169.33643 117.7,167.017848 C117.370769,162.300733 117.206154,157.583619 117.206154,152.866504 Z" id="Path" fill="#F5AB94" fill-rule="nonzero"></path>
                    <path d="M263.302308,179.730073 L265.113077,170.615648 C265.689231,167.577506 266.347692,164.539364 266.759231,161.501222 C267.335385,158.463081 267.253077,155.424939 267.417692,152.306846 C267.5,150.787775 267.5,149.188753 267.582308,147.669682 C267.664615,146.150611 267.664615,144.551589 267.582308,143.032518 C268.076154,146.07066 267.993846,149.188753 268.076154,152.306846 C268.076154,153.825917 268.076154,155.424939 267.993846,156.94401 C267.993846,158.463081 267.829231,160.062103 267.582308,161.581174 C267.088462,164.619315 266.43,167.657457 265.689231,170.695599 C265.030769,173.733741 264.207692,176.771883 263.302308,179.730073 Z" id="Path" fill="#F5AB94" fill-rule="nonzero"></path>
                    <path d="M155.890769,149.428606 L154.162308,165.178973 L153.339231,173.094132 C153.092308,175.732518 152.845385,178.370905 152.927692,180.92934 C152.927692,183.567726 152.927692,186.206112 153.339231,188.764548 C153.668462,191.322983 154.326923,193.881418 155.396923,196.279951 C156.466923,198.678484 158.195385,200.757213 160.335385,202.356235 C162.475385,203.955257 164.944615,204.994621 167.578462,205.794132 C164.944615,205.154523 162.310769,204.19511 160.088462,202.676039 C157.866154,201.156968 156.055385,198.998289 154.820769,196.519804 C153.586154,194.121271 152.927692,191.482885 152.598462,188.844499 C152.186923,186.206112 152.186923,183.567726 152.186923,180.849389 C152.186923,178.211002 152.433846,175.492665 152.680769,172.93423 C152.927692,170.295844 153.256923,167.657457 153.586154,165.019071 C154.162308,159.822249 154.985385,154.625428 155.890769,149.428606 Z" id="Path" fill="#F5AB94" fill-rule="nonzero"></path>
                    <path d="M153.01,172.134719 C153.01,172.134719 175.068462,174.773105 197.126923,174.773105 C219.185385,174.773105 242.313846,169.976039 242.313846,169.976039" id="Path" stroke="#F5AB94"></path>
                    <ellipse id="Oval" fill="#F5AB94" fill-rule="nonzero" cx="174.080769" cy="143.032518" rx="10.0415385" ry="6.55599022"></ellipse>
                    <ellipse id="Oval" fill="#F5AB94" fill-rule="nonzero" cx="237.293077" cy="139.034963" rx="10.0415385" ry="6.55599022"></ellipse>
                    <ellipse id="Oval" fill="#FFFFFF" fill-rule="nonzero" transform="translate(209.012187, 15.511993) rotate(-60.607603) translate(-209.012187, -15.511993) " cx="209.012187" cy="15.5119925" rx="6.84454948" ry="5.0687445"></ellipse>
                    <path d="M258.116923,52.3679707 C253.096154,51.0887531 251.943846,47.2511002 238.774615,41.9743276 C232.19,39.3359413 223.465385,37.9767726 218.033077,33.0198044 C214.246923,29.501956 214,22.6261614 217.703846,18.5486553 C222.477692,13.1919315 233.671538,16.6298289 244.371538,24.5449878 C253.425385,31.1809291 265.771538,54.3667482 258.116923,52.3679707 Z" id="Path" fill="#FFFFFF" fill-rule="nonzero"></path>
                    <line x1="171.2" y1="285.825183" x2="171.2" y2="298.457457" id="Path" stroke="#706F6F" fill="#C6C6C6" fill-rule="nonzero"></line>
                    <ellipse id="Oval" fill="#FFFFFF" fill-rule="nonzero" cx="154.326923" cy="103.456724" rx="2.38692308" ry="2.31858191"></ellipse>
                    <ellipse id="Oval" fill="#FFFFFF" fill-rule="nonzero" cx="274.743077" cy="103.456724" rx="2.38692308" ry="2.31858191"></ellipse>
                    <rect id="Rectangle" fill="#82CAC6" fill-rule="nonzero" x="221.407692" y="223.703178" width="1.56384615" height="7.75525672"></rect>
                    <rect id="Rectangle" fill="#706F6F" fill-rule="nonzero" x="222.971538" y="221.864303" width="1.56384615" height="9.51418093"></rect>
                    <path d="M200.913077,231.698289 L230.543846,231.698289 C230.543846,231.698289 231.943077,251.44621 214.329231,251.44621 C196.633077,251.44621 200.913077,231.698289 200.913077,231.698289 Z" id="Path" stroke="#C6C6C6"></path>
                    <ellipse id="Oval" fill="#FFFFFF" fill-rule="nonzero" cx="218.033077" cy="118.007824" rx="6.00846154" ry="4.23740831"></ellipse>
                </g>
            </g>
        </g>
    </g>
</svg>